<svg width="102" height="45" viewBox="0 0 102 45" fill="none" xmlns="http://www.w3.org/2000/svg">
<g filter="url(#filter0_d_57_1370)">
<rect x="7.41406" y="6.56506" width="87" height="30" rx="15" fill="#F0F8FF" shape-rendering="crispEdges"/>
<rect x="7.91406" y="7.06506" width="86" height="29" rx="14.5" stroke="#3DA2FF" shape-rendering="crispEdges"/>
<rect x="15.4141" y="12.5651" width="18" height="18" rx="4" fill="#F0F8FF"/>
<path d="M26.2784 23.1305C26.7744 22.0088 26.8317 20.7786 26.4402 19.6659C26.2744 19.1953 26.0176 18.7619 25.6843 18.3905C25.3511 18.0192 24.9479 17.7171 24.4979 17.5015C24.0479 17.2859 23.5598 17.1611 23.0616 17.1342C22.5633 17.1072 22.0646 17.1787 21.594 17.3445C19.6178 18.04 18.5756 20.2139 19.2711 22.1901C19.6615 23.2995 20.4766 24.2214 21.5659 24.7864C22.1706 25.0984 22.817 25.2728 23.4008 25.2915C23.445 25.2931 23.4869 25.3116 23.5178 25.3432C23.5488 25.3747 23.5665 25.417 23.5673 25.4612L23.5767 26.0408C23.577 26.1199 23.6039 26.1966 23.6531 26.2584C23.6929 26.3077 23.7454 26.3451 23.8049 26.3666C23.8644 26.388 23.9287 26.3928 23.9907 26.3802C24.0065 26.3771 24.0221 26.3728 24.0373 26.3673L24.4039 26.2384C24.4127 26.2353 24.4221 26.2351 24.431 26.2379C24.4398 26.2406 24.4476 26.2461 24.4531 26.2536C24.9622 26.9515 25.6886 27.4123 26.5278 27.5631C26.5738 27.5713 26.6209 27.5702 26.6664 27.5597C26.7119 27.5493 26.7547 27.5297 26.7925 27.5022C26.8302 27.4748 26.862 27.4399 26.8859 27.3999C26.9098 27.3598 26.9253 27.3153 26.9315 27.269C26.9566 27.0837 26.824 26.9144 26.6399 26.8807C26.0653 26.7754 25.544 26.4769 25.1622 26.0347C25.1575 26.0294 25.1541 26.023 25.1524 26.0161C25.1507 26.0091 25.1507 26.0019 25.1525 25.995C25.1543 25.9881 25.1577 25.9817 25.1625 25.9765C25.1674 25.9713 25.1734 25.9673 25.1801 25.9649L25.3326 25.9122C25.4125 25.8851 25.4803 25.8306 25.5239 25.7584C25.5589 25.6987 25.5752 25.6299 25.5707 25.5608C25.5662 25.4918 25.541 25.4257 25.4985 25.3711L25.1396 24.9092C25.1124 24.8741 25.0997 24.8299 25.1041 24.7857C25.1086 24.7415 25.1299 24.7007 25.1637 24.6718C25.6072 24.2921 26.0026 23.7533 26.2784 23.1305ZM23.0684 24.147C23.0258 24.1556 22.9819 24.1561 22.9391 24.1484C21.9953 23.9788 21.0977 23.3576 20.5965 22.5274C20.5724 22.4885 20.5562 22.4452 20.549 22.4C20.5417 22.3549 20.5435 22.3087 20.5542 22.2642C20.5649 22.2197 20.5844 22.1778 20.6114 22.1409C20.6384 22.104 20.6725 22.0728 20.7117 22.0491C20.7509 22.0255 20.7943 22.0099 20.8396 22.0031C20.8848 21.9964 20.931 21.9988 20.9753 22.01C21.0197 22.0212 21.0614 22.0412 21.098 22.0686C21.1346 22.0961 21.1653 22.1306 21.1885 22.17C21.6683 22.9649 22.4706 23.3616 23.0615 23.4681C23.1407 23.4824 23.2125 23.5238 23.2645 23.5853C23.3164 23.6467 23.3453 23.7244 23.3462 23.8049C23.347 23.8854 23.3197 23.9637 23.269 24.0262C23.2183 24.0887 23.1474 24.1316 23.0685 24.1475L23.0684 24.147Z" fill="#84C4FF"/>
<path d="M29.4164 22.135C30.2416 20.9672 30.5903 19.5743 30.3991 18.2124C30.318 17.6363 30.1242 17.0818 29.8288 16.5806C29.5334 16.0794 29.1422 15.6413 28.6774 15.2913C28.2127 14.9413 27.6836 14.6862 27.1203 14.5407C26.557 14.3952 25.9706 14.362 25.3945 14.4432C22.9756 14.7831 21.2839 17.0279 21.6238 19.4468C21.8145 20.8046 22.5339 22.0461 23.6488 22.9426C24.2682 23.4385 24.9669 23.7867 25.6298 23.9424C25.68 23.9545 25.7236 23.9852 25.7517 24.0285C25.7798 24.0717 25.7903 24.124 25.781 24.1747L25.6583 24.8394C25.6405 24.9299 25.6536 25.0237 25.6956 25.1058C25.7297 25.1712 25.7811 25.226 25.8441 25.2643C25.9072 25.3025 25.9796 25.3227 26.0534 25.3227C26.0722 25.3227 26.091 25.3214 26.1096 25.3187L26.5583 25.2557C26.569 25.2542 26.5799 25.2562 26.5894 25.2613C26.5989 25.2665 26.6065 25.2746 26.611 25.2844C27.0323 26.1993 27.7564 26.8932 28.6809 27.2588C28.7315 27.2788 28.7857 27.2884 28.84 27.2869C28.8944 27.2854 28.948 27.2729 28.9974 27.2502C29.0468 27.2275 29.0912 27.195 29.1277 27.1547C29.1643 27.1144 29.1923 27.0671 29.2101 27.0157C29.2814 26.8096 29.1687 26.5856 28.9662 26.5047C28.3336 26.252 27.8065 25.7908 27.472 25.1975C27.4677 25.1903 27.4653 25.1822 27.465 25.1739C27.4646 25.1656 27.4664 25.1574 27.47 25.1499C27.4736 25.1424 27.479 25.1359 27.4857 25.131C27.4924 25.1262 27.5003 25.123 27.5085 25.1219L27.695 25.0967C27.7925 25.0841 27.8825 25.0374 27.949 24.9649C28.0027 24.9047 28.0372 24.8299 28.0479 24.7499C28.0587 24.6699 28.0452 24.5886 28.0092 24.5164L27.7053 23.9059C27.6822 23.8595 27.6779 23.806 27.6932 23.7565C27.7084 23.707 27.7422 23.6653 27.7874 23.64C28.3818 23.3082 28.9578 22.7834 29.4164 22.135ZM25.5134 22.5578C25.4627 22.5578 25.4124 22.5483 25.3653 22.5296C24.3256 22.1184 23.4427 21.2017 23.061 20.1374C23.0424 20.0874 23.0339 20.0342 23.036 19.9809C23.0381 19.9276 23.0508 19.8753 23.0733 19.8269C23.0958 19.7785 23.1276 19.7351 23.167 19.6991C23.2064 19.6631 23.2526 19.6353 23.3028 19.6173C23.353 19.5993 23.4063 19.5915 23.4596 19.5942C23.5128 19.597 23.565 19.6102 23.6131 19.6333C23.6612 19.6564 23.7043 19.6888 23.7398 19.7286C23.7753 19.7684 23.8025 19.8149 23.8199 19.8653C24.1853 20.8843 25.011 21.5225 25.6618 21.7803C25.7491 21.8148 25.8216 21.8786 25.8669 21.9609C25.9121 22.0431 25.9272 22.1385 25.9097 22.2307C25.8921 22.3229 25.8429 22.4061 25.7705 22.4659C25.6982 22.5257 25.6073 22.5584 25.5134 22.5583V22.5578Z" fill="#3DA2FF"/>
<path d="M25.5134 22.5578C25.4627 22.5578 25.4124 22.5483 25.3653 22.5296C24.3256 22.1184 23.4427 21.2017 23.061 20.1374C23.0424 20.0874 23.0339 20.0342 23.036 19.9809C23.0381 19.9276 23.0508 19.8753 23.0733 19.8269C23.0958 19.7785 23.1276 19.7351 23.167 19.6991C23.2064 19.6631 23.2526 19.6353 23.3028 19.6173C23.353 19.5993 23.4063 19.5915 23.4596 19.5942C23.5128 19.597 23.565 19.6102 23.6131 19.6333C23.6612 19.6564 23.7043 19.6888 23.7398 19.7286C23.7753 19.7684 23.8025 19.8149 23.8199 19.8653C24.1853 20.8843 25.011 21.5225 25.6618 21.7803C25.7491 21.8148 25.8216 21.8786 25.8669 21.9609C25.9121 22.0431 25.9272 22.1385 25.9097 22.2307C25.8921 22.3229 25.8429 22.4061 25.7705 22.4659C25.6982 22.5257 25.6073 22.5584 25.5134 22.5583V22.5578Z" fill="#F0F8FF"/>
<path d="M42.5547 18.7506C42.5615 20.8151 44.0586 22.9137 45.8496 23.6862L45.248 24.5338C43.8262 23.8912 42.6025 22.4899 42.0352 20.8082C41.4678 22.5924 40.2373 24.1373 38.8496 24.8346L38.207 23.9869C39.9502 23.153 41.4678 20.8561 41.4746 18.7506V17.1647H38.6035V16.276H45.4531V17.1647H42.5547V18.7506ZM47.1484 27.1725V15.0182H48.2285V27.1725H47.1484ZM60.3828 22.8522V27.1725H59.3027V23.7135H52.207V22.8522H60.3828ZM50.498 18.6139C50.4912 16.9186 51.8379 15.7086 53.6562 15.7155C54.709 15.7086 55.6045 16.1256 56.165 16.8092H59.3027V15.0182H60.3828V22.1823H59.3027V20.4323H56.1719C55.6113 21.1227 54.7158 21.5328 53.6562 21.526C51.8379 21.5397 50.4912 20.3434 50.498 18.6139ZM51.5234 18.6139C51.5234 19.7965 52.4121 20.6237 53.6562 20.6237C54.8525 20.6237 55.7617 19.7965 55.7617 18.6139C55.7617 17.4723 54.8525 16.6315 53.6562 16.6315C52.4121 16.6315 51.5234 17.4723 51.5234 18.6139ZM56.6572 19.5436H59.3027V17.6979H56.6504C56.7461 17.985 56.8008 18.2858 56.8008 18.6139C56.8008 18.942 56.7461 19.2565 56.6572 19.5436ZM73.4805 21.1432V22.0182H68.4629V23.4127H72.1133V27.1315H71.0332V24.2877H63.6367V23.4127H67.4102V22.0182H62.4062V21.1432H73.4805ZM63.0625 19.6393C65.3389 19.4137 67.2666 18.4703 67.3555 17.0826H63.5547V16.2213H67.4102V14.9635H68.4629V16.2213H72.3594V17.0826H68.5312C68.6064 18.4703 70.5273 19.4137 72.8242 19.6393L72.4688 20.4596C70.4658 20.2477 68.6748 19.5162 67.9434 18.2789C67.1982 19.5162 65.4072 20.2477 63.418 20.4596L63.0625 19.6393ZM84.8965 15.0182V27.1725H83.8711V15.0182H84.8965ZM74.3555 23.9323C76.0508 22.9205 77.042 20.6989 77.0352 18.4908V17.3424H74.6973V16.4537H80.3027V17.3424H78.0742V18.4908C78.0742 20.5895 79.0244 22.6881 80.6992 23.6588L80.043 24.4518C78.8467 23.734 77.999 22.4215 77.5752 20.8766C77.1377 22.5514 76.2559 23.9801 75.0391 24.7389L74.3555 23.9323ZM79.373 20.2819V19.4069H81.4238V15.319H82.4355V26.5436H81.4238V20.2819H79.373Z" fill="#27342E"/>
</g>
<defs>
<filter id="filter0_d_57_1370" x="0.414062" y="0.565063" width="101" height="44" filterUnits="userSpaceOnUse" color-interpolation-filters="sRGB">
<feFlood flood-opacity="0" result="BackgroundImageFix"/>
<feColorMatrix in="SourceAlpha" type="matrix" values="0 0 0 0 0 0 0 0 0 0 0 0 0 0 0 0 0 0 127 0" result="hardAlpha"/>
<feOffset dy="1"/>
<feGaussianBlur stdDeviation="3.5"/>
<feComposite in2="hardAlpha" operator="out"/>
<feColorMatrix type="matrix" values="0 0 0 0 0 0 0 0 0 0 0 0 0 0 0 0 0 0 0.12 0"/>
<feBlend mode="normal" in2="BackgroundImageFix" result="effect1_dropShadow_57_1370"/>
<feBlend mode="normal" in="SourceGraphic" in2="effect1_dropShadow_57_1370" result="shape"/>
</filter>
</defs>
</svg>
