<svg width="86" height="45" viewBox="0 0 86 45" fill="none" xmlns="http://www.w3.org/2000/svg">
<g filter="url(#filter0_d_57_1390)">
<rect x="7.41406" y="6.56506" width="71" height="30" rx="15" fill="white" shape-rendering="crispEdges"/>
<rect x="19.4141" y="12.5651" width="18" height="18" rx="4" fill="white"/>
<path d="M32.9707 25.0302H31.5032V27.6889C31.5032 27.9464 31.0591 28.399 30.837 28.4233H33.5952C33.2705 28.4233 32.9707 27.9347 32.9707 27.6889V25.0302Z" fill="#84C4FF"/>
<path d="M26.1051 25.0302H24.6376V27.6889C24.6376 27.9464 24.1935 28.399 23.9714 28.4233H26.7296C26.4049 28.4233 26.1051 27.9347 26.1051 27.6889V25.0302Z" fill="#84C4FF"/>
<path fill-rule="evenodd" clip-rule="evenodd" d="M24.8014 17.3877L23.279 20.3285C23.1597 20.5589 23.327 20.8338 23.5864 20.8338H23.7418L22.7835 22.9867C22.6816 23.2156 22.8491 23.4736 23.0997 23.4736H23.4037L22.3098 25.5194C22.2269 25.6744 22.2724 25.8689 22.4248 25.9567C22.9688 26.2703 23.7031 26.4982 24.9995 26.5408V26.548C25.0772 26.548 25.1531 26.5475 25.2272 26.5463C25.3014 26.5475 25.3773 26.548 25.4549 26.548V26.5408C26.7514 26.4982 27.4857 26.2703 28.0297 25.9567C28.1821 25.8689 28.2276 25.6744 28.1446 25.5194L27.0507 23.4736H27.3548C27.6053 23.4736 27.7729 23.2156 27.671 22.9867L26.7127 20.8338H26.8681C27.1275 20.8338 27.2947 20.5589 27.1755 20.3285L25.6531 17.3877C25.5625 17.2127 25.3774 17.1678 25.2272 17.2215C25.0771 17.1678 24.892 17.2127 24.8014 17.3877Z" fill="#84C4FF"/>
<path d="M28.0409 24.7271V27.4046C28.0409 27.9086 27.7463 28.4072 27.3392 28.4072H30.4071C30.1997 28.3609 29.7822 28.0954 29.7709 27.4046C29.7595 26.7138 29.7661 25.3317 29.7709 24.7271H28.0409Z" fill="#3DA2FF"/>
<path d="M23.1403 29.3262C23.5547 29.3262 30.9301 29.3545 34.5635 29.3262C34.54 29.0199 34.261 28.4072 33.3336 28.4072H30.4071H27.3392H24.8473C24.2601 28.4072 23.554 28.3899 23.2552 28.8954C23.1849 29.0142 23.1403 29.1569 23.1403 29.3262Z" fill="#3DA2FF"/>
<path fill-rule="evenodd" clip-rule="evenodd" d="M31.2701 16.8497L29.7478 19.7905C29.6285 20.0209 29.7957 20.2958 30.0552 20.2958H30.2105L29.2522 22.4487C29.1503 22.6776 29.3179 22.9356 29.5685 22.9356H29.8725L28.7786 24.9813C28.6957 25.1364 28.7411 25.3309 28.8935 25.4187C29.4375 25.7323 30.1719 25.9602 31.4683 26.0028V26.01C31.5459 26.01 31.6218 26.0094 31.696 26.0083C31.7701 26.0094 31.846 26.01 31.9237 26.01V26.0028C33.2201 25.9602 33.9544 25.7323 34.4984 25.4187C34.6508 25.3309 34.6963 25.1364 34.6134 24.9813L33.5195 22.9356H33.8235C34.0741 22.9356 34.2417 22.6776 34.1398 22.4487L33.1815 20.2958H33.3368C33.5963 20.2958 33.7635 20.0209 33.6442 19.7905L32.1218 16.8497C32.0312 16.6747 31.8461 16.6298 31.696 16.6835C31.5458 16.6298 31.3607 16.6747 31.2701 16.8497Z" fill="#84C4FF"/>
<path fill-rule="evenodd" clip-rule="evenodd" d="M29.0118 14.3735L31.5385 18.3663C31.6843 18.5968 31.5187 18.8976 31.246 18.8976H30.8342L32.2437 21.4882C32.3693 21.7188 32.2023 21.9998 31.9397 21.9998H31.3197L32.8983 24.4148C33.0077 24.5821 32.9537 24.808 32.7738 24.895C31.9875 25.2752 30.9279 25.5531 29.0275 25.6042L29.0276 25.6127C28.916 25.6127 28.807 25.612 28.7005 25.6106C28.5939 25.612 28.4848 25.6127 28.3731 25.6127V25.6042C26.4728 25.5531 25.4132 25.2752 24.627 24.895C24.4471 24.808 24.3931 24.5821 24.5024 24.4148L26.081 21.9998H25.4611C25.1985 21.9998 25.0315 21.7188 25.157 21.4882L26.5666 18.8976H26.1402C25.8705 18.8976 25.7044 18.6029 25.8441 18.3722L28.2599 14.3805C28.3475 14.2358 28.5005 14.1908 28.6353 14.2228C28.7689 14.1891 28.9219 14.2314 29.0118 14.3735Z" fill="#3DA2FF"/>
<path d="M47.748 15.8522C47.7412 18.778 46.3193 21.068 42.9629 22.442L42.4297 21.6217C44.207 20.9313 45.3691 19.9948 46.0254 18.8531L42.5801 19.2155L42.4023 18.3268L46.3809 18.067C46.5381 17.6432 46.627 17.192 46.668 16.7272H42.9902V15.8522H47.748ZM44.6035 27.0084V22.7565H52.6289V27.0084H44.6035ZM45.6562 26.1334H51.5762V23.6315H45.6562V26.1334ZM48.9238 22.1002V15.2643H49.9492V18.108H51.6035V15.0319H52.6289V22.1959H51.6035V19.0104H49.9492V22.1002H48.9238ZM61.5293 16.0709V16.9733H60.2988V20.5211C60.9277 20.4733 61.543 20.4117 62.1309 20.3365L62.2129 21.1569C59.7178 21.5465 56.8057 21.5875 54.748 21.5944L54.6113 20.692C55.0898 20.692 55.6162 20.692 56.1699 20.6852V16.9733H54.9531V16.0709H61.5293ZM56.3066 24.9303C56.2998 23.5426 57.8516 22.7496 60.4082 22.7428C62.9648 22.7496 64.5234 23.5426 64.5234 24.9303C64.5234 26.3453 62.9648 27.1451 60.4082 27.1451C57.8516 27.1451 56.2998 26.3453 56.3066 24.9303ZM57.209 20.6647C57.8789 20.651 58.5693 20.6237 59.2598 20.5826V16.9733H57.209V20.6647ZM57.3594 24.9303C57.3662 25.7916 58.5146 26.2975 60.4082 26.2975C62.2949 26.2975 63.4502 25.7916 63.4434 24.9303C63.4502 24.1031 62.2949 23.5973 60.4082 23.6041C58.5146 23.5973 57.3662 24.1031 57.3594 24.9303ZM63.375 22.483V15.0319H64.4414V22.483H63.375Z" fill="#27342E"/>
</g>
<defs>
<filter id="filter0_d_57_1390" x="0.414062" y="0.565063" width="85" height="44" filterUnits="userSpaceOnUse" color-interpolation-filters="sRGB">
<feFlood flood-opacity="0" result="BackgroundImageFix"/>
<feColorMatrix in="SourceAlpha" type="matrix" values="0 0 0 0 0 0 0 0 0 0 0 0 0 0 0 0 0 0 127 0" result="hardAlpha"/>
<feOffset dy="1"/>
<feGaussianBlur stdDeviation="3.5"/>
<feComposite in2="hardAlpha" operator="out"/>
<feColorMatrix type="matrix" values="0 0 0 0 0 0 0 0 0 0 0 0 0 0 0 0 0 0 0.12 0"/>
<feBlend mode="normal" in2="BackgroundImageFix" result="effect1_dropShadow_57_1390"/>
<feBlend mode="normal" in="SourceGraphic" in2="effect1_dropShadow_57_1390" result="shape"/>
</filter>
</defs>
</svg>
