<svg width="86" height="45" viewBox="0 0 86 45" fill="none" xmlns="http://www.w3.org/2000/svg">
<g filter="url(#filter0_d_57_1408)">
<rect x="7.41406" y="6.56506" width="71" height="30" rx="15" fill="white" shape-rendering="crispEdges"/>
<rect x="19.4141" y="12.5651" width="18" height="18" rx="4" fill="white"/>
<path d="M22.5287 26.3624L23.733 27.5666C24.0067 27.8404 24.4149 27.9295 24.7714 27.7784C28.2761 26.2929 34.2921 22.6183 35.3196 15.5144C35.3815 15.0861 35.0169 14.7245 34.5887 14.7876C26.8561 15.9278 23.6225 22.0625 22.3106 25.3316C22.1678 25.6874 22.2576 26.0912 22.5287 26.3624Z" fill="#3DA2FF"/>
<path fill-rule="evenodd" clip-rule="evenodd" d="M24.2705 25.7053C24.7449 26.1797 25.0116 26.3226 26.3258 25.5579L26.2583 25.5402C25.4104 25.3167 24.7748 24.613 24.6387 23.7467C23.8175 24.9293 23.8592 25.1796 24.2705 25.7053ZM30.9421 19.1213C30.1706 18.4821 29.1884 18.7845 28.2078 19.5139C29.4813 19.6198 30.496 20.623 30.6165 21.8952L30.6195 21.9266C31.4274 20.9029 31.7434 19.897 30.9421 19.1213Z" fill="white"/>
<path d="M24.6387 23.7467C24.7748 24.613 25.4104 25.3167 26.2583 25.5402L26.3258 25.5579C27.6664 24.6333 29.5633 23.2648 30.6195 21.9266L30.6165 21.8952C30.496 20.623 29.4813 19.6198 28.2078 19.5139C26.81 20.5536 25.4154 22.461 24.6387 23.7467Z" fill="#84C4FF"/>
<path d="M24.4484 18.582L25.1721 17.8508L32.6115 25.2137L31.8878 25.9449L24.4484 18.582Z" fill="#3DA2FF"/>
<path d="M22.7695 17.5218C22.4295 17.2995 22.267 16.8834 22.3624 16.4885L-nan -nanL22.3624 16.4885C22.4433 16.1533 22.7089 15.8904 23.0456 15.8159L-nan -nanL23.0456 15.8159C23.4169 15.7337 23.8014 15.8813 24.0223 16.1908L25.2868 17.9622L24.5624 18.694L22.7695 17.5218Z" fill="#3DA2FF"/>
<path d="M32.9414 27.5887C33.1672 27.9265 33.585 28.0846 33.9789 27.9852L-nan -nanL33.9789 27.9852C34.3132 27.9008 34.5734 27.6325 34.6444 27.2951L-nan -nanL34.6444 27.2951C34.7227 26.9229 34.5711 26.54 34.2594 26.3223L32.475 25.0762L31.7507 25.8081L32.9414 27.5887Z" fill="#3DA2FF"/>
<path d="M47.0508 16.3717V20.569H43.7559V23.276C45.1572 23.2623 46.4834 23.2213 48.1035 22.9342L48.1855 23.8229C46.4561 24.1305 45.0615 24.1715 43.5234 24.1783H42.7168V19.6803H46.0254V17.2604H42.6895V16.3717H47.0508ZM47.6387 20.2819V19.4069H49.1973V15.319H50.209V26.5299H49.1973V20.2819H47.6387ZM51.6719 27.1725V15.0182H52.6973V27.1725H51.6719ZM64.4824 15.0182V27.1998H63.4023V20.3365H60.7363V19.4479H63.4023V15.0182H64.4824ZM54.2969 23.9323C56.0605 23.0778 57.5303 20.7877 57.5371 18.6276V17.1647H54.7617V16.276H61.4062V17.1647H58.6172V18.6276C58.624 20.651 60.0732 22.8522 61.8438 23.6588L61.2012 24.5201C59.8135 23.8365 58.6445 22.3668 58.0908 20.6715C57.5439 22.4762 56.3408 24.0416 54.9531 24.7662L54.2969 23.9323Z" fill="#27342E"/>
</g>
<defs>
<filter id="filter0_d_57_1408" x="0.414062" y="0.565063" width="85" height="44" filterUnits="userSpaceOnUse" color-interpolation-filters="sRGB">
<feFlood flood-opacity="0" result="BackgroundImageFix"/>
<feColorMatrix in="SourceAlpha" type="matrix" values="0 0 0 0 0 0 0 0 0 0 0 0 0 0 0 0 0 0 127 0" result="hardAlpha"/>
<feOffset dy="1"/>
<feGaussianBlur stdDeviation="3.5"/>
<feComposite in2="hardAlpha" operator="out"/>
<feColorMatrix type="matrix" values="0 0 0 0 0 0 0 0 0 0 0 0 0 0 0 0 0 0 0.12 0"/>
<feBlend mode="normal" in2="BackgroundImageFix" result="effect1_dropShadow_57_1408"/>
<feBlend mode="normal" in="SourceGraphic" in2="effect1_dropShadow_57_1408" result="shape"/>
</filter>
</defs>
</svg>
