<svg width="102" height="45" viewBox="0 0 102 45" fill="none" xmlns="http://www.w3.org/2000/svg">
<g filter="url(#filter0_d_57_1381)">
<rect x="7.41406" y="6.56506" width="87" height="30" rx="15" fill="white" shape-rendering="crispEdges"/>
<rect x="15.4141" y="12.5651" width="18" height="18" rx="4" fill="white"/>
<path d="M31.2627 20.3326C31.2627 19.8168 30.7188 19.4821 30.2583 19.7146L25.1749 22.2815C24.7085 22.517 24.4144 22.995 24.4144 23.5175V27.9542C24.4144 28.7189 25.0343 29.3388 25.799 29.3388H29.8781C30.6428 29.3388 31.2627 28.7189 31.2627 27.9542V20.3326Z" fill="#84C4FF"/>
<path d="M18.6963 16.9627C18.6963 15.9387 19.7693 15.269 20.6891 15.7188L26.7152 18.6654C27.0716 18.8397 27.2975 19.2017 27.2975 19.5984V29.3388H20.0809C19.3162 29.3388 18.6963 28.7189 18.6963 27.9542V16.9627Z" fill="#3DA2FF"/>
<path d="M20.0161 19.5536C20.0161 19.3625 20.1711 19.2075 20.3623 19.2075H22.6504C22.8416 19.2075 22.9966 19.3625 22.9966 19.5536V20.5065C22.9966 20.6976 22.8416 20.8526 22.6504 20.8526H20.3623C20.1711 20.8526 20.0161 20.6976 20.0161 20.5065V19.5536Z" fill="white"/>
<path d="M20.0161 21.9111C20.0161 21.72 20.1711 21.565 20.3623 21.565H22.6504C22.8416 21.565 22.9966 21.72 22.9966 21.9111V22.864C22.9966 23.0551 22.8416 23.2101 22.6504 23.2101H20.3623C20.1711 23.2101 20.0161 23.0551 20.0161 22.864V21.9111Z" fill="white"/>
<path d="M48.2695 15.0319V27.1862H47.1758V24.1647H44.373V23.3444H47.1758V15.0319H48.2695ZM38.1523 21.4303C40.4697 21.4235 43.5527 21.4166 46.2324 21.0338L46.3008 21.8405C45.0977 22.0455 43.8467 22.1617 42.6367 22.2369V26.8033H41.5566V22.2916C40.3945 22.3326 39.2803 22.3463 38.3027 22.3463L38.1523 21.4303ZM39.082 18.026C39.0752 16.5973 40.333 15.6334 42.1582 15.6334C43.9629 15.6334 45.2275 16.5973 45.2207 18.026C45.2275 19.4684 43.9629 20.3981 42.1582 20.4049C40.333 20.3981 39.0752 19.4684 39.082 18.026ZM40.0938 18.026C40.0869 18.9489 40.9346 19.5778 42.1582 19.5709C43.3545 19.5778 44.2021 18.9489 44.209 18.026C44.2021 17.11 43.3545 16.4742 42.1582 16.4674C40.9346 16.4742 40.0869 17.11 40.0938 18.026ZM55.666 16.4674C55.6592 17.6158 55.5293 18.7574 55.1807 19.8307H57.1289V15.3463H58.1543V26.5573H57.1289V20.7194H54.832C54.1484 22.2164 52.959 23.5699 51.0039 24.6432L50.3887 23.8776C52.2617 22.859 53.376 21.5807 53.9912 20.1451L50.5254 20.5006L50.3613 19.5436L54.292 19.2975C54.4697 18.6686 54.5723 18.026 54.6133 17.3561H50.9492V16.4674H55.666ZM59.6855 27.1725V15.0182H60.7109V27.1725H59.6855ZM72.4277 15.0182V27.1998H71.3477V15.0182H72.4277ZM62.8574 20.1998C62.8643 17.6158 64.1494 15.9684 65.9609 15.9615C67.7656 15.9684 69.0713 17.6158 69.0645 20.1998C69.0713 22.7906 67.7656 24.4313 65.9609 24.4244C64.1494 24.4313 62.8643 22.7906 62.8574 20.1998ZM63.8965 20.1998C63.8965 22.1754 64.7441 23.4742 65.9609 23.4674C67.1846 23.4742 68.0254 22.1754 68.0254 20.1998C68.0254 18.2242 67.1846 16.9254 65.9609 16.9186C64.7441 16.9254 63.8965 18.2242 63.8965 20.1998ZM78.6621 17.274C78.6621 19.0582 79.8857 20.7399 81.6426 21.4303L81.041 22.2643C79.708 21.7106 78.6621 20.6031 78.1494 19.2223C77.6299 20.7125 76.5361 21.8951 75.1211 22.483L74.5332 21.6217C76.3447 20.9244 77.6025 19.1813 77.6094 17.274V15.7155H78.6621V17.274ZM76.7207 26.9127V23.1666H77.8008V26.0104H84.8555V26.9127H76.7207ZM81 20.2135V19.3385H83.502V17.7252H81V16.8365H83.502V15.0319H84.582V24.11H83.502V20.2135H81Z" fill="#27342E"/>
</g>
<defs>
<filter id="filter0_d_57_1381" x="0.414062" y="0.565063" width="101" height="44" filterUnits="userSpaceOnUse" color-interpolation-filters="sRGB">
<feFlood flood-opacity="0" result="BackgroundImageFix"/>
<feColorMatrix in="SourceAlpha" type="matrix" values="0 0 0 0 0 0 0 0 0 0 0 0 0 0 0 0 0 0 127 0" result="hardAlpha"/>
<feOffset dy="1"/>
<feGaussianBlur stdDeviation="3.5"/>
<feComposite in2="hardAlpha" operator="out"/>
<feColorMatrix type="matrix" values="0 0 0 0 0 0 0 0 0 0 0 0 0 0 0 0 0 0 0.12 0"/>
<feBlend mode="normal" in2="BackgroundImageFix" result="effect1_dropShadow_57_1381"/>
<feBlend mode="normal" in="SourceGraphic" in2="effect1_dropShadow_57_1381" result="shape"/>
</filter>
</defs>
</svg>
