<svg width="86" height="45" viewBox="0 0 86 45" fill="none" xmlns="http://www.w3.org/2000/svg">
<g filter="url(#filter0_d_57_1352)">
<rect x="7.41406" y="6.56506" width="71" height="30" rx="15" fill="#F0F8FF" shape-rendering="crispEdges"/>
<rect x="7.91406" y="7.06506" width="70" height="29" rx="14.5" stroke="#3DA2FF" shape-rendering="crispEdges"/>
<rect x="19.4141" y="12.5651" width="18" height="18" rx="4" fill="#F0F8FF"/>
<path d="M33.7186 27.4065H31.7261C29.0925 27.4301 23.468 27.463 22.0389 27.4065C20.6098 27.3499 20.3081 28.6711 20.3359 29.3387H35.8109C35.8033 27.8746 34.4129 27.4405 33.7186 27.4065Z" fill="#3DA2FF"/>
<path d="M30.0472 24.7945C30.0697 24.8078 30.0972 24.7911 30.0972 24.765V20.0017C30.0972 19.9721 30.1315 19.9561 30.1534 19.976C31.8762 21.535 31.9219 25.5669 31.7261 27.4065H33.7186C33.6677 26.7442 33.56 25.361 33.5367 25.1261C33.2225 22.2355 31.6123 20.2547 30.7779 19.5611C30.753 19.5404 30.7668 19.4994 30.7991 19.4983L35.2371 19.3425C35.2674 19.3415 35.2812 19.3043 35.2593 19.2833C33.7972 17.8785 32.1351 17.8393 31.4163 18.0082C31.389 18.0146 31.365 17.9887 31.376 17.9628C31.6943 17.2121 33.0406 15.8778 33.7517 15.2334C33.7754 15.212 33.7598 15.1729 33.7279 15.1741C31.7633 15.2494 30.0545 17.0732 30.0972 17.2356C29.9539 16.9332 29.9033 14.6241 29.8953 13.4506C29.8951 13.4239 29.8659 13.4085 29.8433 13.4226C28.2587 14.4023 28.2127 16.892 28.6608 18.3066C28.6692 18.3332 28.6436 18.3579 28.6168 18.3505C25.8957 17.5955 24.2039 18.8468 23.8461 19.5966C23.8355 19.6188 23.8524 19.6432 23.8771 19.6432H27.5187C27.5526 19.6432 27.5657 19.6878 27.5382 19.7077C25.7765 20.9866 25.718 22.5841 25.9409 23.3604C25.9511 23.3959 26.0107 23.3916 26.0224 23.3565C26.2658 22.6315 27.7818 21.327 28.616 20.6844C28.6403 20.6657 28.6745 20.6869 28.671 20.7174C28.3895 23.1675 29.4373 24.4328 30.0472 24.7945Z" fill="#3DA2FF"/>
<path d="M29.9068 27.441C29.9068 26.9688 29.8138 26.5011 29.6331 26.0648C29.4524 25.6285 29.1875 25.232 28.8535 24.8981C28.5196 24.5641 28.1231 24.2992 27.6868 24.1185C27.2505 23.9378 26.7828 23.8447 26.3105 23.8447C25.8383 23.8447 25.3706 23.9378 24.9343 24.1185C24.498 24.2992 24.1015 24.5641 23.7676 24.8981C23.4336 25.232 23.1687 25.6285 22.988 26.0648C22.8073 26.5011 22.7142 26.9688 22.7142 27.441L26.3105 27.441H29.9068Z" fill="#84C4FF"/>
<path d="M52.7383 16.3717V17.2467H42.8809V16.3717H47.3105V14.9498H48.3633V16.3717H52.7383ZM42.3066 23.6725V22.7838H53.4355V23.6725H50.4961V27.1998H49.4297V23.6725H46.2852V27.1998H45.2051V23.6725H42.3066ZM43.8789 19.9537C43.8652 18.6617 45.3555 17.944 47.8438 17.944C50.3115 17.944 51.8018 18.6617 51.8086 19.9537C51.8018 21.2389 50.3115 21.9635 47.8438 21.9635C45.3555 21.9635 43.8652 21.2389 43.8789 19.9537ZM44.9863 19.9537C44.9727 20.6989 46.0322 21.1364 47.8438 21.1295C49.6348 21.1364 50.6875 20.6989 50.7012 19.9537C50.6875 19.2018 49.6348 18.778 47.8438 18.7643C46.0322 18.778 44.9727 19.2018 44.9863 19.9537ZM65.7129 16.8639V17.7526H63.9082V19.4479H65.7129V20.3502H63.9082V22.2369H62.8418V15.0182H63.9082V16.8639H65.7129ZM54.6387 18.6139C54.6318 16.9186 55.9854 15.7496 57.8242 15.7565C59.6768 15.7496 61.0098 16.9186 61.0234 18.6139C61.0098 20.3024 59.6768 21.4645 57.8242 21.4713C55.9854 21.4645 54.6318 20.3024 54.6387 18.6139ZM55.6914 18.6139C55.6846 19.7623 56.5938 20.5553 57.8242 20.569C59.0684 20.5553 59.9639 19.7623 59.9707 18.6139C59.9639 17.4723 59.0684 16.6588 57.8242 16.6725C56.5938 16.6588 55.6846 17.4723 55.6914 18.6139ZM55.9785 24.8893C55.9854 23.4469 57.5303 22.6129 60.0117 22.6061C62.4932 22.6129 64.0176 23.4469 64.0176 24.8893C64.0176 26.3043 62.4932 27.1451 60.0117 27.1451C57.5303 27.1451 55.9854 26.3043 55.9785 24.8893ZM57.0586 24.8893C57.0449 25.7643 58.1797 26.277 60.0117 26.2838C61.8506 26.277 62.9717 25.7643 62.9785 24.8893C62.9717 24.0074 61.8506 23.4811 60.0117 23.4811C58.1797 23.4811 57.0449 24.0074 57.0586 24.8893Z" fill="#27342E"/>
</g>
<defs>
<filter id="filter0_d_57_1352" x="0.414062" y="0.565063" width="85" height="44" filterUnits="userSpaceOnUse" color-interpolation-filters="sRGB">
<feFlood flood-opacity="0" result="BackgroundImageFix"/>
<feColorMatrix in="SourceAlpha" type="matrix" values="0 0 0 0 0 0 0 0 0 0 0 0 0 0 0 0 0 0 127 0" result="hardAlpha"/>
<feOffset dy="1"/>
<feGaussianBlur stdDeviation="3.5"/>
<feComposite in2="hardAlpha" operator="out"/>
<feColorMatrix type="matrix" values="0 0 0 0 0 0 0 0 0 0 0 0 0 0 0 0 0 0 0.12 0"/>
<feBlend mode="normal" in2="BackgroundImageFix" result="effect1_dropShadow_57_1352"/>
<feBlend mode="normal" in="SourceGraphic" in2="effect1_dropShadow_57_1352" result="shape"/>
</filter>
</defs>
</svg>
