<svg width="97" height="45" viewBox="0 0 97 45" fill="none" xmlns="http://www.w3.org/2000/svg">
<g filter="url(#filter0_d_57_1329)">
<rect x="7.41406" y="6.56506" width="82" height="30" rx="15" fill="#F0F8FF" shape-rendering="crispEdges"/>
<rect x="7.91406" y="7.06506" width="81" height="29" rx="14.5" stroke="#3DA2FF" shape-rendering="crispEdges"/>
<path d="M32.3345 16.5463C31.9924 16.2045 31.5863 15.9334 31.1393 15.7485C30.6922 15.5635 30.2131 15.4683 29.7292 15.4683C29.2453 15.4683 28.7661 15.5635 28.3191 15.7485C27.8721 15.9334 27.4659 16.2045 27.1238 16.5463L26.4139 17.2552L25.7039 16.5463C25.013 15.8563 24.0758 15.4686 23.0986 15.4686C22.1214 15.4686 21.1842 15.8563 20.4932 16.5463C19.8023 17.2363 19.4141 18.1721 19.4141 19.1479C19.4141 20.1238 19.8023 21.0596 20.4932 21.7496L21.2032 22.4585L26.4139 27.6618L31.6246 22.4585L32.3345 21.7496C32.6768 21.408 32.9483 21.0024 33.1335 20.556C33.3187 20.1096 33.4141 19.6311 33.4141 19.1479C33.4141 18.6647 33.3187 18.1863 33.1335 17.7399C32.9483 17.2935 32.6768 16.8879 32.3345 16.5463Z" fill="#FF5858"/>
<path d="M49.2812 19.8717V20.774H47.3125V27.1725H46.2461V15.0182H47.3125V19.8717H49.2812ZM38.4121 24.0826V16.2213H39.4785V23.1803C41.2559 23.1803 43.0674 23.0436 45.0703 22.6198L45.207 23.5358C43.1084 23.9596 41.2217 24.0826 39.3828 24.0826H38.4121ZM53.9844 15.9069C55.8916 15.9137 57.2451 17.0758 57.252 18.7643C57.2451 20.4596 55.8916 21.6149 53.9844 21.6217C52.0635 21.6149 50.6963 20.4596 50.7031 18.7643C50.6963 17.0758 52.0635 15.9137 53.9844 15.9069ZM50.0742 23.6041C52.3164 23.611 55.4131 23.5905 58.0996 23.194L58.1816 23.9869C55.3994 24.5065 52.4121 24.5201 50.2246 24.5201L50.0742 23.6041ZM51.7559 18.7643C51.749 19.899 52.6855 20.6783 53.9844 20.6783C55.2695 20.6783 56.2061 19.899 56.1992 18.7643C56.2061 17.6364 55.2695 16.8502 53.9844 16.8502C52.6855 16.8502 51.749 17.6364 51.7559 18.7643ZM58.9062 27.1998V15.0182H59.9727V27.1998H58.9062ZM68.5176 17.3151C68.5176 18.1969 68.8047 19.5983 69.7754 20.5074C70.7256 19.6256 71.0059 18.2584 71.0059 17.3151V16.7545H70.0762V15.8795H73.5352V16.7545H72.0449V17.3151C72.0312 18.4977 72.6123 20.0836 74 20.7877L73.4258 21.567C72.4551 21.0612 71.8604 20.1588 71.5391 19.1813C71.2725 20.1725 70.7393 21.1364 69.7754 21.6901C68.8184 21.1295 68.2852 20.1588 68.0117 19.1813C67.6904 20.152 67.0957 21.068 66.1387 21.567L65.5371 20.7877C66.9316 20.0494 67.5127 18.4567 67.5195 17.3151V16.7545H65.9746V15.8795H69.4746V16.7545H68.5176V17.3151ZM67.6836 27.0084V22.8112H75.7773V27.0084H67.6836ZM68.7363 26.1334H74.7383V23.6725H68.7363V26.1334ZM74.7109 22.1549V15.0182H75.7773V22.1549H74.7109Z" fill="#27342E"/>
</g>
<defs>
<filter id="filter0_d_57_1329" x="0.414062" y="0.565063" width="96" height="44" filterUnits="userSpaceOnUse" color-interpolation-filters="sRGB">
<feFlood flood-opacity="0" result="BackgroundImageFix"/>
<feColorMatrix in="SourceAlpha" type="matrix" values="0 0 0 0 0 0 0 0 0 0 0 0 0 0 0 0 0 0 127 0" result="hardAlpha"/>
<feOffset dy="1"/>
<feGaussianBlur stdDeviation="3.5"/>
<feComposite in2="hardAlpha" operator="out"/>
<feColorMatrix type="matrix" values="0 0 0 0 0 0 0 0 0 0 0 0 0 0 0 0 0 0 0.12 0"/>
<feBlend mode="normal" in2="BackgroundImageFix" result="effect1_dropShadow_57_1329"/>
<feBlend mode="normal" in="SourceGraphic" in2="effect1_dropShadow_57_1329" result="shape"/>
</filter>
</defs>
</svg>
