<svg width="21" height="20" viewBox="0 0 21 20" fill="none" xmlns="http://www.w3.org/2000/svg">
<path fill-rule="evenodd" clip-rule="evenodd" d="M3.55137 12.8701C3.17446 11.9602 2.98047 10.9849 2.98047 10C2.98047 9.01509 3.17446 8.03982 3.55137 7.12987C3.92828 6.21993 4.48073 5.39314 5.17717 4.6967C5.87361 4.00026 6.7004 3.44781 7.61034 3.0709C8.52028 2.69399 9.49555 2.5 10.4805 2.5C11.4654 2.5 12.4407 2.69399 13.3506 3.0709C14.2605 3.44781 15.0873 4.00026 15.7838 4.6967C16.4802 5.39314 17.0327 6.21993 17.4096 7.12987C17.7865 8.03982 17.9805 9.01509 17.9805 10C17.9805 10.9849 17.7865 11.9602 17.4096 12.8701C17.0327 13.7801 16.4802 14.6069 15.7838 15.3033C15.0873 15.9997 14.2605 16.5522 13.3506 16.9291C12.4407 17.306 11.4654 17.5 10.4805 17.5C9.49555 17.5 8.52028 17.306 7.61034 16.9291C6.7004 16.5522 5.87361 15.9997 5.17717 15.3033C4.48073 14.6069 3.92828 13.7801 3.55137 12.8701ZM9.64714 10.8333L10.4805 14.1667L13.8138 6.66667L6.3138 10L9.64714 10.8333Z" fill="white"/>
</svg>
