<svg width="169" height="169" viewBox="0 0 169 169" fill="none" xmlns="http://www.w3.org/2000/svg">
<g opacity="0.3">
<path d="M102.025 99.0491C106.655 88.5799 107.189 77.0981 103.536 66.7132C101.988 62.3206 99.5911 58.2757 96.4807 54.8095C93.3702 51.3434 89.6075 48.5238 85.4073 46.5119C81.2072 44.4999 76.6519 43.335 72.0015 43.0835C67.3512 42.8321 62.6968 43.4991 58.3042 45.0464C39.8596 51.5377 30.1327 71.8277 36.6239 90.2723C40.2673 100.626 47.875 109.231 58.0417 114.504C63.6858 117.416 69.7193 119.044 75.1677 119.218C75.5802 119.233 75.971 119.406 76.26 119.701C76.549 119.995 76.7141 120.39 76.7214 120.802L76.8092 126.212C76.8123 126.95 77.0636 127.666 77.5229 128.243C77.8937 128.703 78.3836 129.052 78.9392 129.253C79.4947 129.453 80.0946 129.497 80.6736 129.38C80.8212 129.351 80.9664 129.311 81.1081 129.26L84.5301 128.056C84.6117 128.027 84.7003 128.026 84.7829 128.051C84.8655 128.077 84.9376 128.128 84.9888 128.198C89.7411 134.712 96.5208 139.012 104.353 140.42C104.782 140.497 105.222 140.486 105.646 140.389C106.071 140.291 106.471 140.108 106.823 139.852C107.175 139.596 107.472 139.271 107.695 138.897C107.918 138.522 108.063 138.107 108.121 137.675C108.355 135.945 107.117 134.366 105.4 134.051C100.037 133.068 95.1705 130.282 91.6077 126.155C91.5632 126.106 91.5316 126.046 91.5158 125.981C91.4999 125.917 91.5002 125.849 91.5168 125.785C91.5334 125.72 91.5656 125.661 91.6106 125.612C91.6557 125.563 91.7121 125.526 91.775 125.504L93.1983 125.012C93.944 124.759 94.5762 124.25 94.9831 123.576C95.3099 123.019 95.4621 122.377 95.4199 121.732C95.3777 121.088 95.1432 120.471 94.7467 119.961L91.3969 115.651C91.1424 115.323 91.0237 114.91 91.0655 114.498C91.1073 114.085 91.3063 113.704 91.6213 113.435C95.7611 109.891 99.4515 104.862 102.025 99.0491ZM72.0655 108.537C71.6674 108.617 71.2578 108.622 70.8582 108.55C62.0498 106.966 53.6723 101.169 48.9942 93.4201C48.7692 93.0571 48.6184 92.6531 48.5507 92.2315C48.4829 91.8098 48.4995 91.3789 48.5995 90.9638C48.6995 90.5486 48.8809 90.1574 49.1332 89.8129C49.3855 89.4683 49.7037 89.1773 50.0693 88.9566C50.4349 88.7359 50.8407 88.59 51.2631 88.5273C51.6855 88.4645 52.1161 88.4863 52.5301 88.5912C52.944 88.6962 53.333 88.8822 53.6746 89.1386C54.0161 89.395 54.3033 89.7166 54.5196 90.0848C58.9975 97.5034 66.486 101.207 72.0008 102.201C72.7403 102.333 73.4104 102.72 73.8954 103.294C74.3804 103.867 74.65 104.592 74.6578 105.344C74.6655 106.095 74.4109 106.825 73.9378 107.409C73.4647 107.993 72.8028 108.393 72.0662 108.541L72.0655 108.537Z" fill="#8EDB9B"/>
<path d="M131.313 89.7592C139.015 78.859 142.269 65.8587 140.484 53.1477C139.727 47.7708 137.919 42.5956 135.162 37.9177C132.404 33.2397 128.753 29.1507 124.416 25.884C120.078 22.6173 115.14 20.2369 109.882 18.8787C104.625 17.5206 99.1516 17.2112 93.7747 17.9684C71.1982 21.1409 55.4088 42.0923 58.5813 64.6687C60.3615 77.3421 67.0757 88.929 77.482 97.2964C83.2625 101.925 89.7838 105.175 95.9712 106.628C96.439 106.74 96.846 107.028 97.1085 107.431C97.3709 107.834 97.4689 108.323 97.3822 108.796L96.2369 115C96.0705 115.844 96.1931 116.72 96.585 117.486C96.903 118.097 97.3826 118.608 97.9714 118.965C98.5603 119.322 99.2358 119.511 99.9244 119.511C100.1 119.511 100.275 119.498 100.449 119.473L104.637 118.885C104.737 118.871 104.839 118.89 104.927 118.938C105.016 118.986 105.086 119.062 105.129 119.153C109.061 127.692 115.82 134.169 124.448 137.581C124.92 137.768 125.426 137.857 125.933 137.843C126.441 137.829 126.94 137.713 127.402 137.501C127.863 137.289 128.277 136.985 128.618 136.609C128.959 136.233 129.221 135.792 129.387 135.312C130.052 133.388 129.001 131.297 127.11 130.543C121.207 128.184 116.286 123.88 113.165 118.342C113.125 118.275 113.103 118.2 113.099 118.122C113.096 118.045 113.112 117.968 113.146 117.898C113.18 117.828 113.23 117.767 113.293 117.722C113.356 117.676 113.429 117.647 113.506 117.636L115.246 117.401C116.156 117.284 116.996 116.848 117.616 116.171C118.118 115.61 118.44 114.911 118.54 114.165C118.64 113.418 118.514 112.659 118.178 111.985L115.342 106.287C115.127 105.854 115.086 105.355 115.229 104.893C115.372 104.431 115.687 104.042 116.109 103.806C121.657 100.709 127.033 95.8101 131.313 89.7592ZM94.8847 93.7053C94.4113 93.7053 93.9421 93.6159 93.5019 93.4419C83.7987 89.6039 75.5583 81.0484 71.9955 71.1148C71.8218 70.6481 71.7425 70.1517 71.7622 69.6541C71.7818 69.1566 71.9 68.6679 72.1099 68.2164C72.3198 67.7649 72.6172 67.3596 72.9849 67.0239C73.3526 66.6881 73.7833 66.4287 74.252 66.2607C74.7207 66.0926 75.218 66.0193 75.7153 66.0448C76.2125 66.0704 76.6998 66.1944 77.1487 66.4097C77.5977 66.625 77.9995 66.9272 78.3308 67.2989C78.6621 67.6705 78.9164 68.1043 79.0788 68.5749C82.4888 78.0853 90.1954 84.0421 96.2698 86.4479C97.0845 86.7699 97.7613 87.366 98.1835 88.1335C98.6058 88.901 98.747 89.7918 98.5829 90.6523C98.4188 91.5128 97.9596 92.289 97.2845 92.8472C96.6094 93.4054 95.7607 93.7105 94.8847 93.71V93.7053Z" fill="#5FBA8E"/>
<path d="M94.8847 93.7053C94.4113 93.7053 93.9421 93.6159 93.5019 93.4419C83.7987 89.6039 75.5583 81.0484 71.9955 71.1148C71.8218 70.6481 71.7425 70.1517 71.7622 69.6541C71.7818 69.1566 71.9 68.6679 72.1099 68.2164C72.3198 67.7649 72.6172 67.3596 72.9849 67.0239C73.3526 66.6881 73.7833 66.4287 74.252 66.2607C74.7207 66.0926 75.218 66.0193 75.7153 66.0448C76.2125 66.0704 76.6998 66.1944 77.1487 66.4097C77.5977 66.625 77.9995 66.9272 78.3308 67.2989C78.6621 67.6705 78.9164 68.1043 79.0788 68.5749C82.4888 78.0853 90.1954 84.0421 96.2698 86.4479C97.0845 86.7699 97.7613 87.366 98.1835 88.1335C98.6058 88.901 98.747 89.7918 98.5829 90.6523C98.4188 91.5128 97.9596 92.289 97.2845 92.8472C96.6094 93.4054 95.7607 93.7105 94.8847 93.71V93.7053Z" fill="white"/>
</g>
</svg>
