<svg width="300" height="45" viewBox="0 0 300 45" fill="none" xmlns="http://www.w3.org/2000/svg">
<rect width="300" height="45" rx="8" fill="#FEE500"/>
<g clip-path="url(#clip0_964_1914)">
<g opacity="0.9">
<path d="M25 14.0552C20.03 14.0552 16 17.1852 16 21.0452C16 23.4452 17.56 25.5652 19.93 26.8252L18.93 30.4952C18.84 30.8152 19.21 31.0752 19.49 30.8852L23.87 27.9852C24.24 28.0252 24.61 28.0452 25 28.0452C29.97 28.0452 34 24.9152 34 21.0552C34 17.1952 29.97 14.0552 25 14.0552Z" fill="#191600"/>
</g>
</g>
<path d="M125.79 18.1153C125.79 22.5853 123.81 25.8453 119.85 27.8953L118.77 26.6503C120.72 25.7503 122.155 24.4203 123.075 22.6603L119.37 23.0653C119.28 22.4453 119.2 21.9403 119.13 21.5503L123.66 21.2203C123.81 20.6403 123.905 20.0903 123.945 19.5703H119.79V18.1153H125.79ZM129.39 16.7653V21.8953H131.265V23.3503H129.39V30.1303H127.65V16.7653H129.39ZM138.269 18.1153C138.269 22.5853 136.289 25.8453 132.329 27.8953L131.249 26.6503C133.199 25.7503 134.634 24.4203 135.554 22.6603L131.849 23.0653C131.759 22.4453 131.679 21.9403 131.609 21.5503L136.139 21.2203C136.289 20.6403 136.384 20.0903 136.424 19.5703H132.269V18.1153H138.269ZM141.869 16.7653V21.8953H143.744V23.3503H141.869V30.1303H140.129V16.7653H141.869ZM155.982 28.4653H143.907V27.0703H149.052V24.9403C147.832 24.8003 146.857 24.4003 146.127 23.7403C145.407 23.0703 145.047 22.2503 145.047 21.2803C145.047 20.1903 145.497 19.3053 146.397 18.6253C147.297 17.9453 148.482 17.6053 149.952 17.6053C151.422 17.6053 152.607 17.9453 153.507 18.6253C154.407 19.3053 154.857 20.1903 154.857 21.2803C154.857 22.2603 154.492 23.0853 153.762 23.7553C153.032 24.4153 152.047 24.8103 150.807 24.9403V27.0703H155.982V28.4653ZM153.087 21.2953C153.087 20.6253 152.802 20.0853 152.232 19.6753C151.662 19.2553 150.902 19.0453 149.952 19.0453C149.012 19.0453 148.257 19.2553 147.687 19.6753C147.117 20.0853 146.832 20.6253 146.832 21.2953C146.832 21.9753 147.117 22.5203 147.687 22.9303C148.257 23.3403 149.012 23.5453 149.952 23.5453C150.892 23.5453 151.647 23.3403 152.217 22.9303C152.797 22.5203 153.087 21.9753 153.087 21.2953ZM170.761 24.9853H166.711V27.0703H171.901V28.4653H159.826V27.0703H164.956V24.9853H161.371V20.5603H168.631V19.0153H161.296V17.6203H170.371V21.9553H163.111V23.5753H170.761V24.9853ZM184.379 28.2403H172.304V26.8603H184.379V28.2403ZM182.849 18.1303C182.849 21.2503 182.644 23.8953 182.234 26.0653L180.524 25.9003C180.684 25.2103 180.819 24.2403 180.929 22.9903C181.049 21.7403 181.104 20.5803 181.094 19.5103H173.684V18.1303H182.849ZM195.823 26.4553H194.083V16.7653H195.823V26.4553ZM196.123 29.7703H186.853V25.4953H188.623V28.3903H196.123V29.7703ZM185.203 21.0553C185.203 20.0953 185.533 19.3053 186.193 18.6853C186.863 18.0653 187.738 17.7553 188.818 17.7553C189.908 17.7553 190.783 18.0653 191.443 18.6853C192.103 19.3053 192.433 20.0953 192.433 21.0553C192.433 22.0253 192.103 22.8153 191.443 23.4253C190.783 24.0353 189.908 24.3403 188.818 24.3403C187.728 24.3403 186.853 24.0353 186.193 23.4253C185.533 22.8153 185.203 22.0253 185.203 21.0553ZM187.003 21.0553C187.003 21.5953 187.168 22.0403 187.498 22.3903C187.828 22.7303 188.268 22.9003 188.818 22.9003C189.388 22.9003 189.833 22.7303 190.153 22.3903C190.483 22.0403 190.648 21.5953 190.648 21.0553C190.648 20.5353 190.483 20.1053 190.153 19.7653C189.823 19.4253 189.378 19.2553 188.818 19.2553C188.268 19.2553 187.828 19.4253 187.498 19.7653C187.168 20.1053 187.003 20.5353 187.003 21.0553Z" fill="#191600"/>
<defs>
<clipPath id="clip0_964_1914">
<rect width="18" height="16.89" fill="white" transform="translate(16 14.0552)"/>
</clipPath>
</defs>
</svg>
