<svg width="213" height="54" viewBox="0 0 213 54" fill="none" xmlns="http://www.w3.org/2000/svg">
<path d="M207.035 40.4191C207.035 41.8068 207.316 43.0344 207.876 44.1019C208.437 45.1693 209.054 45.9699 209.726 46.5037C210.399 46.984 210.988 47.5711 211.492 48.265C212.053 48.9054 212.305 49.5726 212.249 50.2664C212.081 52.2946 207.035 53.3087 197.113 53.3087C196.16 53.3087 195.011 53.2553 193.665 53.1486C192.32 53.0952 190.694 52.9885 188.788 52.8284C186.938 52.6149 185.34 52.2946 183.995 51.8676C182.706 51.4407 182.005 50.9069 181.893 50.2664C181.781 49.5726 181.977 48.9054 182.481 48.265C182.986 47.5711 183.603 46.9573 184.331 46.4236C185.06 45.8899 185.733 45.0893 186.349 44.0218C186.966 42.9543 187.274 41.7534 187.274 40.4191V15.2804C187.274 14.373 186.91 13.6258 186.181 13.0387C185.452 12.3982 184.668 11.9446 183.827 11.6777C182.986 11.3575 182.229 10.9572 181.556 10.4768C180.884 9.94308 180.603 9.32929 180.715 8.63545C180.884 7.141 182.986 5.61987 187.022 4.07204C191.058 2.52423 195.487 1.24327 200.308 0.229183C202.046 -0.14443 203.588 0.149122 204.933 1.10984C206.335 2.07055 207.035 3.37819 207.035 5.03276V40.4191Z" fill="#45564B"/>
<path d="M163.04 36.8183C163.432 36.1778 164.021 35.8576 164.805 35.8576C165.534 35.8576 166.151 36.1245 166.655 36.6582C167.16 37.1919 167.3 37.8324 167.076 38.5796C165.786 43.1163 162.955 46.7991 158.583 49.6279C154.266 52.4033 149.305 53.791 143.699 53.791C137.028 53.791 131.338 51.8962 126.629 48.1067C121.976 44.3172 119.649 39.487 119.649 33.6159C119.649 27.905 121.808 23.1815 126.124 19.4454C130.497 15.7093 135.879 13.7078 142.269 13.4409C149.501 13.1207 154.967 14.0814 158.667 16.3231C162.367 18.5113 164.469 21.1533 164.974 24.249C165.31 26.4373 164.946 28.4121 163.88 30.1734C162.871 31.9347 161.386 33.3224 159.424 34.3365C157.518 35.2972 155.471 36.0444 153.285 36.5781C151.099 37.0585 148.913 37.2987 146.726 37.2987C144.204 37.2987 142.241 36.9784 140.84 36.338C142.241 38.4729 143.979 40.1275 146.053 41.3017C148.184 42.4225 150.398 42.9029 152.697 42.7427C154.715 42.636 156.649 42.0489 158.499 40.9814C160.349 39.914 161.862 38.5263 163.04 36.8183ZM142.942 16.0028C141.148 16.1629 139.747 17.4172 138.738 19.7656C137.785 22.114 137.392 24.4358 137.56 26.7308C137.729 29.1326 138.289 31.401 139.242 33.5359C140.139 33.6426 140.812 33.696 141.26 33.696C143.391 33.696 145.157 32.8687 146.558 31.2141C147.96 29.5062 148.632 27.1578 148.576 24.1689C148.52 22.034 147.959 20.1125 146.894 18.4046C145.885 16.6433 144.568 15.8427 142.942 16.0028Z" fill="#45564B"/>
<path d="M117.366 40.5014C117.366 41.8891 117.646 43.1166 118.207 44.1841C118.768 45.2516 119.384 46.0255 120.057 46.5058C120.786 46.9862 121.402 47.5733 121.907 48.2672C122.468 48.9076 122.72 49.5748 122.664 50.2686C122.44 52.3502 117.506 53.391 107.864 53.391C102.707 53.391 99.6793 50.9625 98.7824 46.1055C96.3718 50.4288 92.4757 52.9106 87.094 53.5511C81.8804 54.1916 77.5638 53.3109 74.1442 50.9091C70.7806 48.5073 69.0988 45.2249 69.0988 41.0618V32.0951C69.0988 27.4516 68.1458 24.9431 66.2398 24.5695C65.2307 24.4094 64.4739 24.0358 63.9694 23.4487C63.5209 22.8082 63.4648 22.141 63.8012 21.4472C64.1375 20.7533 64.8663 20.2463 65.9875 19.926C66.6042 19.7659 67.6693 19.4457 69.1829 18.9653C70.6965 18.485 71.7056 18.1647 72.2101 18.0046C72.7147 17.8445 73.5275 17.5776 74.6487 17.204C75.826 16.777 76.751 16.4301 77.4237 16.1632C78.0964 15.843 78.9373 15.4694 79.9464 15.0424C80.9554 14.562 81.9925 14.0283 83.0577 13.4412C84.1789 12.8541 85.0478 12.5605 85.6644 12.5605C86.0008 12.5605 86.3091 12.6406 86.5894 12.8007C86.8697 12.9075 87.094 13.0943 87.2621 13.3611C87.4864 13.628 87.6546 13.9216 87.7667 14.2418C87.8788 14.5087 87.9629 14.8823 88.0189 15.3626C88.1311 15.843 88.1871 16.27 88.1871 16.6436C88.2432 17.0172 88.2712 17.4976 88.2712 18.0847C88.2712 18.6718 88.2712 19.1788 88.2712 19.6058C88.2712 19.9794 88.2432 20.5131 88.1871 21.207C88.1871 21.8475 88.1871 22.3278 88.1871 22.6481V34.8972C88.1871 39.8609 88.4394 43.0099 88.9439 44.3442C89.6166 45.7853 90.6257 46.5325 91.9711 46.5859C93.8772 46.5859 95.3627 45.7052 96.4279 43.9439C97.493 42.1826 98.1377 40.0477 98.3619 37.5392V32.0951C98.3619 27.4516 97.4089 24.9431 95.5029 24.5695C94.4938 24.4094 93.737 24.0358 93.2325 23.4487C92.784 22.8082 92.7279 22.141 93.0643 21.4472C93.4007 20.7533 94.1294 20.2463 95.2506 19.926C95.8673 19.7659 96.9324 19.4457 98.446 18.9653C99.9596 18.485 100.969 18.1647 101.473 18.0046C101.978 17.8445 102.791 17.5776 103.912 17.204C105.089 16.777 106.014 16.4301 106.687 16.1632C107.36 15.843 108.2 15.4694 109.209 15.0424C110.219 14.562 111.256 14.0283 112.321 13.4412C113.442 12.8541 114.311 12.5605 114.928 12.5605C115.264 12.5605 115.572 12.6406 115.853 12.8007C116.133 12.9075 116.357 13.0943 116.525 13.3611C116.749 13.628 116.918 13.9216 117.03 14.2418C117.142 14.5087 117.226 14.8823 117.282 15.3626C117.394 15.843 117.45 16.27 117.45 16.6436C117.506 17.0172 117.534 17.4976 117.534 18.0847C117.534 18.6718 117.534 19.1788 117.534 19.6058C117.534 19.9794 117.506 20.5131 117.45 21.207C117.45 21.8475 117.45 22.3278 117.45 22.6481C117.394 25.21 117.366 31.1611 117.366 40.5014Z" fill="#45564B"/>
<path d="M62.5909 40.418C62.5909 41.8057 62.8712 43.0332 63.4318 44.1007C63.9924 45.1682 64.6091 45.9688 65.2818 46.5025C66.0105 46.9829 66.6272 47.57 67.1317 48.2638C67.6363 48.9043 67.8605 49.5714 67.8045 50.2653C67.6363 52.2935 62.5909 53.3076 52.6684 53.3076C51.7154 53.3076 50.5661 53.2542 49.2207 53.1474C47.8753 53.0941 46.2495 52.9873 44.3435 52.8272C42.4935 52.6137 40.8958 52.2935 39.5504 51.8665C38.261 51.4395 37.5603 50.9058 37.4482 50.2653C37.3361 49.5714 37.5323 48.9043 38.0368 48.2638C38.5413 47.57 39.158 46.9562 39.8868 46.4224C40.6155 45.8887 41.2883 45.0881 41.9049 44.0206C42.5216 42.9532 42.8299 41.7523 42.8299 40.418V28.6492H25.8438V40.418C25.8438 41.8057 26.1241 43.0332 26.6847 44.1007C27.2453 45.1682 27.862 45.9688 28.5347 46.5025C29.2635 46.9829 29.8801 47.57 30.3847 48.2638C30.9453 48.9043 31.1975 49.5714 31.1415 50.2653C30.9172 52.2935 25.8719 53.3076 16.0054 53.3076C15.0524 53.3076 13.9032 53.2542 12.5577 53.1474C11.2123 53.0941 9.58657 52.9873 7.68054 52.8272C5.83057 52.6137 4.23287 52.2935 2.88744 51.8665C1.59807 51.4395 0.897328 50.9058 0.785209 50.2653C0.61703 49.4113 0.953387 48.584 1.79428 47.7834C2.69123 46.9829 3.61622 45.9954 4.56923 44.8212C5.5783 43.5937 6.08284 42.1259 6.08284 40.418V13.0376C6.08284 11.3296 5.5783 9.88854 4.56923 8.71433C3.61622 7.48675 2.69123 6.49935 1.79428 5.75213C0.953387 4.95153 0.61703 4.12425 0.785209 3.27027C0.897328 2.6298 1.59807 2.09607 2.88744 1.66908C4.23287 1.18872 5.83057 0.868484 7.68054 0.708364C9.58657 0.494871 11.2123 0.361439 12.5577 0.308067C13.9032 0.201322 15.0524 0.147949 16.0054 0.147949C25.8719 0.147949 30.9172 1.18872 31.1415 3.27027C31.1975 3.96412 30.9453 4.65798 30.3847 5.35183C29.8801 5.9923 29.2635 6.55272 28.5347 7.03308C27.862 7.51344 27.2453 8.28735 26.6847 9.35481C26.1241 10.4223 25.8438 11.6499 25.8438 13.0376V23.6054H42.8299V13.0376C42.8299 11.9167 42.6057 10.9293 42.1572 10.0753C41.7648 9.168 41.2883 8.44747 40.7277 7.91374C40.1671 7.32663 39.6065 6.81959 39.0459 6.3926C38.5413 5.91225 38.1209 5.43189 37.7845 4.95153C37.4482 4.4178 37.3361 3.85738 37.4482 3.27027C37.5603 2.6298 38.261 2.09607 39.5504 1.66908C40.8958 1.18872 42.5216 0.868484 44.4276 0.708364C46.3336 0.494871 47.9313 0.361439 49.2207 0.308067C50.5661 0.201322 51.7154 0.147949 52.6684 0.147949C62.5909 0.147949 67.6363 1.18872 67.8045 3.27027C67.9166 4.12425 67.5242 4.95153 66.6272 5.75213C65.7863 6.49935 64.8894 7.46006 63.9363 8.63427C63.0394 9.80848 62.5909 11.2762 62.5909 13.0376V40.418Z" fill="#45564B"/>
</svg>
