<svg width="46" height="22" viewBox="0 0 46 22" fill="none" xmlns="http://www.w3.org/2000/svg">
<path d="M0.742188 10.592C0.742188 4.76106 4.93125 0.0341797 10.0987 0.0341797H36.3856C41.5531 0.0341797 45.7422 4.76106 45.7422 10.592C45.7422 16.4229 41.5531 21.1498 36.3857 21.1498H10.0987C4.93126 21.1498 0.742188 16.4229 0.742188 10.592Z" fill="#5FBA8E"/>
<path d="M9.45807 14.4225C9.16898 14.3889 9.05469 14.2275 9.05469 13.9721V13.0846C9.05469 12.809 9.21604 12.6813 9.49168 12.7149C11.0245 12.893 12.8801 12.9905 15.1222 12.9905C17.3643 12.9905 19.5425 12.893 20.8031 12.7317C21.0787 12.6981 21.2401 12.8292 21.2401 13.1015V13.9889C21.2401 14.2645 21.1258 14.4091 20.8367 14.4393C20.4804 14.4729 19.7879 14.5536 19.4652 14.6007C19.0954 14.6477 18.9005 14.7452 18.9005 15.1015V17.2966C18.9005 17.5722 18.7391 17.7336 18.4803 17.7336H17.4651C17.2063 17.7336 17.0449 17.5722 17.0449 17.2966V15.3604C17.0449 15.0545 17.0483 15.0007 17.0483 14.7183C15.7575 14.7519 14.7524 14.6982 13.8179 14.6847C13.4313 14.6847 13.2532 14.8293 13.2532 15.1856V17.2999C13.2532 17.5756 13.0918 17.7369 12.833 17.7369H11.8178C11.559 17.7369 11.3976 17.5756 11.3976 17.2999V15.3301C11.3976 14.9906 11.3976 14.9032 11.3976 14.6208C10.5102 14.604 10.1404 14.5066 9.46143 14.4259L9.45807 14.4225ZM20.1745 4.69102C20.4501 4.69102 20.5779 4.81875 20.5779 5.09439V5.98183C20.5779 6.25747 20.4501 6.3852 20.1745 6.3852C20.1745 6.3852 16.2449 6.15326 15.5121 6.15326C14.7793 6.15326 10.3623 6.3852 10.3623 6.3852C10.0867 6.3852 9.95893 6.25747 9.95893 5.98183V5.09439C9.95893 4.81875 10.0867 4.69102 10.3623 4.69102H14.6885C14.5104 4.59353 14.4129 4.40193 14.4129 4.12629V3.85064C14.4129 3.575 14.5406 3.44727 14.8163 3.44727H15.8651C16.1407 3.44727 16.2684 3.575 16.2684 3.85064V4.38176C16.2684 4.59017 16.3827 4.68765 16.6248 4.68765H20.1745V4.69102ZM15.2701 11.888C11.8178 11.888 10.3959 11.2089 10.3959 9.56517C10.3959 7.9214 11.8145 7.24238 15.2701 7.24238C18.7257 7.24238 20.1442 7.9214 20.1442 9.56517C20.1442 11.2089 18.7257 11.888 15.2701 11.888ZM15.2701 10.2744C17.5929 10.2744 18.2887 10.1131 18.2887 9.56517C18.2887 9.01725 17.5962 8.8559 15.2701 8.8559C12.9439 8.8559 12.2515 9.01725 12.2515 9.56517C12.2515 10.1131 12.9439 10.2744 15.2701 10.2744Z" fill="white"/>
<path d="M30.2219 10.156C28.0268 10.156 26.6083 8.81809 26.6083 6.78439C26.6083 4.75069 28.0134 3.42963 30.2219 3.42963C32.4304 3.42963 33.8523 4.75406 33.8523 6.78439C33.8523 8.81473 32.4337 10.156 30.2219 10.156ZM32.4741 17.7563C27.8756 17.7563 26.6016 17.3058 26.6016 15.578C26.6016 13.9645 27.7949 13.4805 31.5396 13.4805C32.4102 13.4805 33.2002 13.4637 34.0741 13.4637C34.6389 13.4637 34.9145 13.3023 34.9145 12.946C34.9145 12.5897 34.6725 12.4149 34.1246 12.4149C32.5111 12.4149 29.0891 12.5292 27.2974 12.6401C27.0554 12.6569 26.9276 12.5258 26.9276 12.2703V11.4636C26.9276 11.2216 27.0419 11.1073 27.2974 11.0938C29.7009 10.9325 33.2035 10.8518 35.3011 10.9157C36.3028 10.9493 36.7532 11.3997 36.7532 12.2065C36.7532 12.8519 36.3499 13.3998 35.7045 13.625H36.2692C36.5112 13.625 36.6255 13.7393 36.6255 13.9813V14.7242C36.6255 14.9662 36.5112 15.0805 36.2692 15.0805C35.1061 15.0469 33.4926 15.0167 31.5732 15.0167C28.9277 15.0167 28.4605 15.0973 28.4605 15.615C28.4605 16.1797 29.1059 16.2268 32.464 16.2268C33.5598 16.2268 35.3347 16.1293 36.6255 15.9512C36.8675 15.9175 37.0121 16.0318 37.0289 16.2739L37.076 17.0806C37.0928 17.3227 36.9953 17.4504 36.7364 17.484C35.3986 17.6454 33.543 17.7596 32.4774 17.7596L32.4741 17.7563ZM30.2219 5.03978C29.1395 5.03978 28.4638 5.702 28.4638 6.78103C28.4638 7.86007 29.1563 8.53909 30.2219 8.53909C31.2875 8.53909 31.9967 7.86007 31.9967 6.78103C31.9967 5.702 31.3043 5.03978 30.2219 5.03978ZM35.2002 3.42627H36.2154C36.4742 3.42627 36.6356 3.58762 36.6356 3.86326V9.6551C36.6356 9.93074 36.4742 10.0921 36.2154 10.0921H35.2002C34.9414 10.0921 34.7801 9.93074 34.7801 9.6551V3.86326C34.7801 3.58762 34.9414 3.42627 35.2002 3.42627Z" fill="white"/>
</svg>
