<svg width="64" height="25" viewBox="0 0 64 25" fill="none" xmlns="http://www.w3.org/2000/svg">
<rect x="-0.00976562" y="0.893555" width="64" height="24" rx="12" fill="#F7B787"/>
<path d="M7.83423 16.8936L7.88223 16.6416L8.13423 16.5816C8.48623 16.4856 8.69023 16.2656 8.74623 15.9216L9.85023 10.0056L9.82623 9.92155C9.83423 9.60955 9.70623 9.38955 9.44223 9.26155L9.35823 9.21355L9.40623 8.96155H11.4102L12.9702 14.9136L16.5342 8.96155H18.6342L18.5982 9.21355L18.3822 9.29755C18.0862 9.40155 17.9102 9.61355 17.8542 9.93355L17.2782 13.1496C17.1902 13.6376 17.1022 14.1136 17.0142 14.5776C16.9342 15.0416 16.8542 15.5096 16.7742 15.9816C16.7182 16.3016 16.8582 16.5136 17.1942 16.6176L17.3022 16.6416L17.2542 16.8936H14.4582L14.4942 16.6416L14.6142 16.6056C14.9502 16.5256 15.1462 16.3136 15.2022 15.9696L16.2342 10.3296L12.3102 16.8936H11.8542L10.1622 10.4016L9.16623 15.9096C9.09423 16.2536 9.23023 16.4816 9.57423 16.5936L9.76623 16.6416L9.71823 16.8936H7.83423ZM20.26 17.0616C19.852 17.0616 19.48 16.9816 19.144 16.8216C18.808 16.6616 18.54 16.4176 18.34 16.0896C18.14 15.7536 18.04 15.3336 18.04 14.8296C18.04 14.3176 18.124 13.8296 18.292 13.3656C18.468 12.9016 18.708 12.4896 19.012 12.1296C19.324 11.7616 19.684 11.4736 20.092 11.2656C20.508 11.0576 20.952 10.9536 21.424 10.9536C22.056 10.9536 22.58 11.1376 22.996 11.5056C23.412 11.8656 23.62 12.4256 23.62 13.1856C23.62 13.6896 23.532 14.1736 23.356 14.6376C23.188 15.1016 22.952 15.5176 22.648 15.8856C22.344 16.2456 21.988 16.5336 21.58 16.7496C21.172 16.9576 20.732 17.0616 20.26 17.0616ZM20.404 16.7256C20.66 16.7256 20.892 16.6176 21.1 16.4016C21.308 16.1776 21.488 15.8856 21.64 15.5256C21.792 15.1656 21.908 14.7656 21.988 14.3256C22.076 13.8776 22.12 13.4336 22.12 12.9936C22.12 12.3616 22.044 11.9216 21.892 11.6736C21.748 11.4256 21.56 11.3016 21.328 11.3016C21.072 11.3016 20.832 11.4096 20.608 11.6256C20.392 11.8336 20.204 12.1176 20.044 12.4776C19.884 12.8376 19.76 13.2376 19.672 13.6776C19.584 14.1096 19.54 14.5496 19.54 14.9976C19.54 15.6456 19.62 16.0976 19.78 16.3536C19.948 16.6016 20.156 16.7256 20.404 16.7256ZM25.0066 17.0616C24.7426 17.0616 24.5146 16.9856 24.3226 16.8336C24.1306 16.6736 24.0346 16.4296 24.0346 16.1016C24.0346 15.9176 24.0546 15.7136 24.0946 15.4896C24.1346 15.2656 24.1786 15.0456 24.2266 14.8296L24.7426 12.5376C24.8146 12.2096 24.6986 11.9856 24.3946 11.8656L24.1906 11.7816L24.2146 11.5656L26.3746 10.9416L26.5186 11.0616L25.6906 14.6616C25.6426 14.8616 25.6026 15.0416 25.5706 15.2016C25.5386 15.3616 25.5226 15.5096 25.5226 15.6456C25.5226 15.8216 25.5626 15.9496 25.6426 16.0296C25.7226 16.1016 25.8266 16.1376 25.9546 16.1376C26.1466 16.1376 26.3546 16.0736 26.5786 15.9456C26.8106 15.8096 27.0866 15.5976 27.4066 15.3096L27.4186 15.2496L27.8266 13.3176C27.8906 12.9896 27.9546 12.6656 28.0186 12.3456C28.0826 12.0176 28.1426 11.6896 28.1986 11.3616L29.6026 10.9416L29.7586 11.0616L28.8226 15.3456C28.7986 15.4816 28.7746 15.6056 28.7506 15.7176C28.7346 15.8296 28.7266 15.9216 28.7266 15.9936C28.7266 16.0736 28.7506 16.1376 28.7986 16.1856C28.8466 16.2256 28.8986 16.2456 28.9546 16.2456C29.0666 16.2456 29.1786 16.2056 29.2906 16.1256C29.4106 16.0376 29.5586 15.9096 29.7346 15.7416L29.9146 15.9216C29.7146 16.2016 29.4626 16.4616 29.1586 16.7016C28.8626 16.9416 28.5226 17.0616 28.1386 17.0616C27.9066 17.0616 27.7066 16.9816 27.5386 16.8216C27.3786 16.6616 27.2986 16.4296 27.2986 16.1256C27.2986 16.0056 27.3066 15.8776 27.3226 15.7416C26.9066 16.1576 26.5026 16.4816 26.1106 16.7136C25.7266 16.9456 25.3586 17.0616 25.0066 17.0616ZM30.2008 16.9896L30.0808 16.8816L30.9928 12.5256C31.0648 12.2056 30.9448 11.9816 30.6328 11.8536L30.4528 11.7816L30.4768 11.5776L32.6008 10.9416L32.7328 11.0616L32.4688 12.4176C32.8848 11.9776 33.3088 11.6256 33.7408 11.3616C34.1728 11.0896 34.5768 10.9536 34.9528 10.9536C35.2088 10.9536 35.4168 11.0336 35.5768 11.1936C35.7448 11.3456 35.8288 11.5816 35.8288 11.9016C35.8288 12.0776 35.8128 12.2576 35.7808 12.4416C35.7488 12.6176 35.7088 12.8016 35.6608 12.9936L35.0488 15.4536C35.0168 15.5816 34.9888 15.6936 34.9648 15.7896C34.9488 15.8776 34.9408 15.9536 34.9408 16.0176C34.9408 16.1856 35.0088 16.2696 35.1448 16.2696C35.3528 16.2696 35.6168 16.1016 35.9368 15.7656L36.1048 15.9336C35.9048 16.2296 35.6448 16.4936 35.3248 16.7256C35.0048 16.9496 34.6488 17.0616 34.2568 17.0616C34.0088 17.0616 33.8128 17.0016 33.6688 16.8816C33.5248 16.7616 33.4528 16.5976 33.4528 16.3896C33.4528 16.2216 33.4728 16.0536 33.5128 15.8856C33.5528 15.7096 33.6008 15.5216 33.6568 15.3216L34.1248 13.4256C34.1888 13.1856 34.2408 12.9696 34.2808 12.7776C34.3208 12.5856 34.3408 12.4136 34.3408 12.2616C34.3408 12.1016 34.3048 11.9936 34.2328 11.9376C34.1688 11.8736 34.0808 11.8416 33.9688 11.8416C33.7768 11.8416 33.5448 11.9256 33.2728 12.0936C33.0088 12.2536 32.7088 12.5096 32.3728 12.8616L32.0488 14.3376C31.9608 14.7616 31.8768 15.1856 31.7968 15.6096C31.7168 16.0336 31.6368 16.4616 31.5568 16.8936L30.2008 16.9896ZM37.6045 17.0616C37.3565 17.0616 37.1525 17.0016 36.9925 16.8816C36.8405 16.7536 36.7645 16.5656 36.7645 16.3176C36.7645 16.0136 36.8125 15.6456 36.9085 15.2136L37.7125 11.4936H36.6925L36.7405 11.2416L37.2205 11.1936C37.6285 11.1376 37.9645 10.9456 38.2285 10.6176L39.1645 9.48955H39.5365L39.2005 11.1336H40.5325L40.4605 11.5176L39.1165 11.4936L38.3245 15.3336C38.2925 15.4776 38.2685 15.6056 38.2525 15.7176C38.2365 15.8216 38.2285 15.9096 38.2285 15.9816C38.2285 16.0616 38.2525 16.1256 38.3005 16.1736C38.3485 16.2216 38.4045 16.2456 38.4685 16.2456C38.6365 16.2456 38.8925 16.0736 39.2365 15.7296L39.4285 15.8856C39.2285 16.1816 38.9725 16.4536 38.6605 16.7016C38.3565 16.9416 38.0045 17.0616 37.6045 17.0616ZM41.3494 17.0616C41.0214 17.0616 40.7254 16.9416 40.4614 16.7016C40.2054 16.4616 40.0774 16.0536 40.0774 15.4776C40.0774 15.0536 40.1574 14.6256 40.3174 14.1936C40.4854 13.7616 40.7054 13.3536 40.9774 12.9696C41.2574 12.5776 41.5694 12.2336 41.9134 11.9376C42.2574 11.6336 42.6094 11.3936 42.9694 11.2176C43.3374 11.0416 43.6854 10.9536 44.0134 10.9536C44.1734 10.9536 44.3214 10.9856 44.4574 11.0496C44.6014 11.1136 44.7334 11.1976 44.8534 11.3016L45.7534 10.9056L45.8854 10.9896L44.8654 15.4656C44.8014 15.7216 44.7694 15.9096 44.7694 16.0296C44.7694 16.1976 44.8494 16.2816 45.0094 16.2816C45.1214 16.2816 45.2454 16.2376 45.3814 16.1496C45.5174 16.0536 45.6694 15.9256 45.8374 15.7656L45.9814 15.9096C45.8614 16.0936 45.7134 16.2736 45.5374 16.4496C45.3614 16.6256 45.1614 16.7736 44.9374 16.8936C44.7214 17.0056 44.4934 17.0616 44.2534 17.0616C44.0054 17.0616 43.7974 16.9856 43.6294 16.8336C43.4614 16.6736 43.3774 16.4296 43.3774 16.1016C43.3774 15.9896 43.3854 15.8696 43.4014 15.7416C43.0734 16.1096 42.7294 16.4216 42.3694 16.6776C42.0094 16.9336 41.6694 17.0616 41.3494 17.0616ZM41.4694 14.9256C41.4694 15.3336 41.5334 15.6296 41.6614 15.8136C41.7974 15.9896 41.9774 16.0776 42.2014 16.0776C42.3934 16.0776 42.5894 16.0176 42.7894 15.8976C42.9894 15.7696 43.2134 15.5816 43.4614 15.3336C43.4694 15.2856 43.4814 15.2216 43.4974 15.1416L44.2414 11.7576C44.1374 11.6536 44.0174 11.5816 43.8814 11.5416C43.7454 11.4936 43.6174 11.4696 43.4974 11.4696C43.1694 11.4696 42.8094 11.6736 42.4174 12.0816C42.1374 12.3856 41.9094 12.8016 41.7334 13.3296C41.5574 13.8496 41.4694 14.3816 41.4694 14.9256ZM48.4259 10.2456C48.2019 10.2456 48.0099 10.1736 47.8499 10.0296C47.6899 9.88555 47.6099 9.68955 47.6099 9.44155C47.6099 9.17755 47.7059 8.95755 47.8979 8.78155C48.0899 8.60555 48.3059 8.51755 48.5459 8.51755C48.7779 8.51755 48.9699 8.59355 49.1219 8.74555C49.2739 8.88955 49.3499 9.07755 49.3499 9.30955C49.3499 9.56555 49.2539 9.78555 49.0619 9.96955C48.8779 10.1536 48.6659 10.2456 48.4259 10.2456ZM47.3219 17.0616C47.0819 17.0616 46.8819 17.0016 46.7219 16.8816C46.5699 16.7536 46.4939 16.5696 46.4939 16.3296C46.4939 16.1936 46.5099 16.0296 46.5419 15.8376C46.5739 15.6456 46.6099 15.4496 46.6499 15.2496L47.2139 12.5376C47.2859 12.2016 47.1619 11.9736 46.8419 11.8536L46.6739 11.7816L46.6979 11.5656L48.8579 10.9416L48.9779 11.0616L48.0659 15.3456C48.0339 15.4816 48.0099 15.6016 47.9939 15.7056C47.9779 15.8016 47.9699 15.8936 47.9699 15.9816C47.9699 16.1576 48.0499 16.2456 48.2099 16.2456C48.4019 16.2456 48.6539 16.0936 48.9659 15.7896L49.1219 15.9456C48.9219 16.2416 48.6699 16.5016 48.3659 16.7256C48.0699 16.9496 47.7219 17.0616 47.3219 17.0616ZM49.4735 16.9896L49.3535 16.8816L50.2655 12.5256C50.3375 12.2056 50.2175 11.9816 49.9055 11.8536L49.7255 11.7816L49.7495 11.5776L51.8735 10.9416L52.0055 11.0616L51.7415 12.4176C52.1575 11.9776 52.5815 11.6256 53.0135 11.3616C53.4455 11.0896 53.8495 10.9536 54.2255 10.9536C54.4815 10.9536 54.6895 11.0336 54.8495 11.1936C55.0175 11.3456 55.1015 11.5816 55.1015 11.9016C55.1015 12.0776 55.0855 12.2576 55.0535 12.4416C55.0215 12.6176 54.9815 12.8016 54.9335 12.9936L54.3215 15.4536C54.2895 15.5816 54.2615 15.6936 54.2375 15.7896C54.2215 15.8776 54.2135 15.9536 54.2135 16.0176C54.2135 16.1856 54.2815 16.2696 54.4175 16.2696C54.6255 16.2696 54.8895 16.1016 55.2095 15.7656L55.3775 15.9336C55.1775 16.2296 54.9175 16.4936 54.5975 16.7256C54.2775 16.9496 53.9215 17.0616 53.5295 17.0616C53.2815 17.0616 53.0855 17.0016 52.9415 16.8816C52.7975 16.7616 52.7255 16.5976 52.7255 16.3896C52.7255 16.2216 52.7455 16.0536 52.7855 15.8856C52.8255 15.7096 52.8735 15.5216 52.9295 15.3216L53.3975 13.4256C53.4615 13.1856 53.5135 12.9696 53.5535 12.7776C53.5935 12.5856 53.6135 12.4136 53.6135 12.2616C53.6135 12.1016 53.5775 11.9936 53.5055 11.9376C53.4415 11.8736 53.3535 11.8416 53.2415 11.8416C53.0495 11.8416 52.8175 11.9256 52.5455 12.0936C52.2815 12.2536 51.9815 12.5096 51.6455 12.8616L51.3215 14.3376C51.2335 14.7616 51.1495 15.1856 51.0695 15.6096C50.9895 16.0336 50.9095 16.4616 50.8295 16.8936L49.4735 16.9896Z" fill="white"/>
</svg>
