<svg width="52" height="25" viewBox="0 0 52 25" fill="none" xmlns="http://www.w3.org/2000/svg">
<rect x="0.814453" y="0.893555" width="51" height="24" rx="12" fill="#F7B787"/>
<path d="M8.86245 16.8936L8.91045 16.6416L9.04245 16.6056C9.37045 16.5096 9.57045 16.2896 9.64245 15.9456L10.2545 12.6816C10.3425 12.2496 10.4265 11.8096 10.5065 11.3616C10.5865 10.9056 10.6705 10.4216 10.7585 9.90955C10.8065 9.56555 10.6705 9.34555 10.3505 9.24955L10.2305 9.21355L10.2905 8.96155H12.8705C13.8865 8.96155 14.6265 9.16155 15.0905 9.56155C15.5545 9.95355 15.7865 10.4696 15.7865 11.1096C15.7865 11.5896 15.6505 12.0336 15.3785 12.4416C15.1145 12.8496 14.7145 13.1776 14.1785 13.4256C13.6425 13.6736 12.9705 13.7976 12.1625 13.7976H11.5985C11.5425 14.1176 11.4825 14.4576 11.4185 14.8176C11.3545 15.1776 11.2905 15.5456 11.2265 15.9216C11.1545 16.2736 11.2945 16.5016 11.6465 16.6056L11.8025 16.6416L11.7545 16.8936H8.86245ZM11.6705 13.4376H12.1385C12.7705 13.4376 13.2705 13.2296 13.6385 12.8136C14.0145 12.3896 14.2025 11.8136 14.2025 11.0856C14.2025 10.5096 14.0785 10.0696 13.8305 9.76555C13.5825 9.46155 13.2265 9.30955 12.7625 9.30955H12.4385C12.3105 9.99755 12.1825 10.6856 12.0545 11.3736C11.9265 12.0616 11.7985 12.7496 11.6705 13.4376ZM15.7227 16.9896L15.6027 16.8816L16.5027 12.5376C16.5427 12.3456 16.5307 12.1976 16.4667 12.0936C16.4027 11.9816 16.2907 11.8976 16.1307 11.8416L15.9627 11.7816L15.9987 11.5776L17.9907 10.9416L18.1347 11.0736L17.8107 12.9576C17.9867 12.5896 18.1867 12.2536 18.4107 11.9496C18.6347 11.6456 18.8667 11.4056 19.1067 11.2296C19.3547 11.0456 19.5987 10.9536 19.8387 10.9536C20.0787 10.9536 20.2707 11.0176 20.4147 11.1456C20.5667 11.2736 20.6427 11.4416 20.6427 11.6496C20.6427 11.8736 20.5787 12.0536 20.4507 12.1896C20.3227 12.3256 20.1507 12.3936 19.9347 12.3936C19.5987 12.3936 19.2867 12.2256 18.9987 11.8896C18.7107 12.1216 18.4627 12.4096 18.2547 12.7536C18.0467 13.0896 17.8507 13.4536 17.6667 13.8456L17.5707 14.3376C17.4907 14.7616 17.4067 15.1856 17.3187 15.6096C17.2387 16.0336 17.1587 16.4616 17.0787 16.8936L15.7227 16.9896ZM22.4423 10.2456C22.2183 10.2456 22.0263 10.1736 21.8663 10.0296C21.7063 9.88555 21.6263 9.68955 21.6263 9.44155C21.6263 9.17755 21.7223 8.95755 21.9143 8.78155C22.1063 8.60555 22.3223 8.51755 22.5623 8.51755C22.7943 8.51755 22.9863 8.59355 23.1383 8.74555C23.2903 8.88955 23.3663 9.07755 23.3663 9.30955C23.3663 9.56555 23.2703 9.78555 23.0783 9.96955C22.8943 10.1536 22.6823 10.2456 22.4423 10.2456ZM21.3383 17.0616C21.0983 17.0616 20.8983 17.0016 20.7383 16.8816C20.5863 16.7536 20.5103 16.5696 20.5103 16.3296C20.5103 16.1936 20.5263 16.0296 20.5583 15.8376C20.5903 15.6456 20.6263 15.4496 20.6663 15.2496L21.2303 12.5376C21.3023 12.2016 21.1783 11.9736 20.8583 11.8536L20.6903 11.7816L20.7143 11.5656L22.8743 10.9416L22.9943 11.0616L22.0823 15.3456C22.0503 15.4816 22.0263 15.6016 22.0103 15.7056C21.9943 15.8016 21.9863 15.8936 21.9863 15.9816C21.9863 16.1576 22.0663 16.2456 22.2263 16.2456C22.4183 16.2456 22.6703 16.0936 22.9823 15.7896L23.1383 15.9456C22.9383 16.2416 22.6863 16.5016 22.3823 16.7256C22.0863 16.9496 21.7383 17.0616 21.3383 17.0616ZM25.0527 16.9896L24.9447 16.9056C24.8727 16.0336 24.7967 15.2256 24.7167 14.4816C24.6447 13.7376 24.5727 13.0136 24.5007 12.3096C24.4767 12.1096 24.4367 11.9856 24.3807 11.9376C24.3327 11.8816 24.2687 11.8536 24.1887 11.8536C24.0447 11.8536 23.8527 11.9936 23.6127 12.2736L23.4447 12.0816C23.9647 11.3296 24.4847 10.9536 25.0047 10.9536C25.5647 10.9536 25.8727 11.3176 25.9287 12.0456C25.9847 12.6136 26.0367 13.2256 26.0847 13.8816C26.1327 14.5296 26.1807 15.2136 26.2287 15.9336C26.5327 15.5656 26.8167 15.2056 27.0807 14.8536C27.3447 14.5016 27.6087 14.1176 27.8727 13.7016C27.9927 13.5016 28.0607 13.3136 28.0767 13.1376C28.0927 12.9536 28.0647 12.7536 27.9927 12.5376L27.8127 12.0696C27.7087 11.7656 27.7247 11.5016 27.8607 11.2776C28.0047 11.0456 28.2127 10.9296 28.4847 10.9296C28.7487 10.9296 28.9367 11.0056 29.0487 11.1576C29.1607 11.3096 29.2167 11.5016 29.2167 11.7336C29.2167 11.8856 29.1807 12.0696 29.1087 12.2856C29.0367 12.5016 28.8847 12.8056 28.6527 13.1976C28.3327 13.7576 27.9247 14.3656 27.4287 15.0216C26.9327 15.6696 26.3767 16.3016 25.7607 16.9176L25.0527 16.9896ZM30.1689 17.0616C29.8409 17.0616 29.5449 16.9416 29.2809 16.7016C29.0249 16.4616 28.8969 16.0536 28.8969 15.4776C28.8969 15.0536 28.9769 14.6256 29.1369 14.1936C29.3049 13.7616 29.5249 13.3536 29.7969 12.9696C30.0769 12.5776 30.3889 12.2336 30.7329 11.9376C31.0769 11.6336 31.4289 11.3936 31.7889 11.2176C32.1569 11.0416 32.5049 10.9536 32.8329 10.9536C32.9929 10.9536 33.1409 10.9856 33.2769 11.0496C33.4209 11.1136 33.5529 11.1976 33.6729 11.3016L34.5729 10.9056L34.7049 10.9896L33.6849 15.4656C33.6209 15.7216 33.5889 15.9096 33.5889 16.0296C33.5889 16.1976 33.6689 16.2816 33.8289 16.2816C33.9409 16.2816 34.0649 16.2376 34.2009 16.1496C34.3369 16.0536 34.4889 15.9256 34.6569 15.7656L34.8009 15.9096C34.6809 16.0936 34.5329 16.2736 34.3569 16.4496C34.1809 16.6256 33.9809 16.7736 33.7569 16.8936C33.5409 17.0056 33.3129 17.0616 33.0729 17.0616C32.8249 17.0616 32.6169 16.9856 32.4489 16.8336C32.2809 16.6736 32.1969 16.4296 32.1969 16.1016C32.1969 15.9896 32.2049 15.8696 32.2209 15.7416C31.8929 16.1096 31.5489 16.4216 31.1889 16.6776C30.8289 16.9336 30.4889 17.0616 30.1689 17.0616ZM30.2889 14.9256C30.2889 15.3336 30.3529 15.6296 30.4809 15.8136C30.6169 15.9896 30.7969 16.0776 31.0209 16.0776C31.2129 16.0776 31.4089 16.0176 31.6089 15.8976C31.8089 15.7696 32.0329 15.5816 32.2809 15.3336C32.2889 15.2856 32.3009 15.2216 32.3169 15.1416L33.0609 11.7576C32.9569 11.6536 32.8369 11.5816 32.7009 11.5416C32.5649 11.4936 32.4369 11.4696 32.3169 11.4696C31.9889 11.4696 31.6289 11.6736 31.2369 12.0816C30.9569 12.3856 30.7289 12.8016 30.5529 13.3296C30.3769 13.8496 30.2889 14.3816 30.2889 14.9256ZM36.3943 17.0616C36.1463 17.0616 35.9423 17.0016 35.7823 16.8816C35.6303 16.7536 35.5543 16.5656 35.5543 16.3176C35.5543 16.0136 35.6023 15.6456 35.6983 15.2136L36.5023 11.4936H35.4823L35.5303 11.2416L36.0103 11.1936C36.4183 11.1376 36.7543 10.9456 37.0183 10.6176L37.9543 9.48955H38.3263L37.9903 11.1336H39.3223L39.2503 11.5176L37.9063 11.4936L37.1143 15.3336C37.0823 15.4776 37.0583 15.6056 37.0423 15.7176C37.0263 15.8216 37.0183 15.9096 37.0183 15.9816C37.0183 16.0616 37.0423 16.1256 37.0903 16.1736C37.1383 16.2216 37.1943 16.2456 37.2583 16.2456C37.4263 16.2456 37.6823 16.0736 38.0263 15.7296L38.2183 15.8856C38.0183 16.1816 37.7623 16.4536 37.4503 16.7016C37.1463 16.9416 36.7943 17.0616 36.3943 17.0616ZM40.9898 17.0616C40.3978 17.0616 39.9138 16.8696 39.5378 16.4856C39.1698 16.1016 38.9858 15.5456 38.9858 14.8176C38.9858 14.3136 39.0738 13.8296 39.2498 13.3656C39.4258 12.9016 39.6658 12.4896 39.9698 12.1296C40.2818 11.7616 40.6458 11.4736 41.0618 11.2656C41.4778 11.0576 41.9258 10.9536 42.4058 10.9536C42.9018 10.9536 43.2778 11.0656 43.5338 11.2896C43.7978 11.5136 43.9298 11.8136 43.9298 12.1896C43.9298 12.6456 43.6258 13.0976 43.0178 13.5456C42.4178 13.9856 41.5458 14.3296 40.4018 14.5776C40.4258 15.0976 40.5498 15.4776 40.7738 15.7176C40.9978 15.9576 41.3058 16.0776 41.6978 16.0776C42.0498 16.0776 42.3658 15.9856 42.6458 15.8016C42.9258 15.6176 43.1618 15.4016 43.3538 15.1536L43.5338 15.2856C43.3738 15.5896 43.1658 15.8776 42.9098 16.1496C42.6618 16.4216 42.3778 16.6416 42.0578 16.8096C41.7378 16.9776 41.3818 17.0616 40.9898 17.0616ZM42.2858 11.3616C42.1018 11.3616 41.9058 11.4416 41.6978 11.6016C41.4898 11.7536 41.2898 11.9656 41.0978 12.2376C40.9138 12.5016 40.7578 12.8096 40.6298 13.1616C40.5018 13.5056 40.4258 13.8736 40.4018 14.2656C41.2978 14.0016 41.9258 13.6736 42.2858 13.2816C42.6538 12.8896 42.8378 12.4736 42.8378 12.0336C42.8378 11.8016 42.7858 11.6336 42.6818 11.5296C42.5778 11.4176 42.4458 11.3616 42.2858 11.3616Z" fill="white"/>
</svg>
