<svg width="331" height="175" viewBox="0 0 331 175" fill="none" xmlns="http://www.w3.org/2000/svg">
<g filter="url(#filter0_d_264_2367)">
<rect x="12.1562" y="12.3477" width="306" height="150" rx="8" fill="white"/>
</g>
<g clip-path="url(#clip0_264_2367)">
<path opacity="0.5" d="M262.255 125.339C288.56 129.325 312.98 150.343 319.008 158.95C205.567 160.309 10.5085 164.374 23.2227 161.113C39.1153 157.036 59.6595 125.207 70.7033 116.494C77.996 110.74 87.3893 106.739 101.533 106.738C113.111 106.738 132.363 113.632 144.201 118.576C163.351 126.573 168.85 132.224 188.578 131.771C208.307 131.318 229.374 120.356 262.255 125.339Z" fill="url(#paint0_radial_264_2367)"/>
<path d="M150.508 69.0478C155.986 69.0478 160.427 64.6072 160.427 59.1294C160.427 53.6516 155.986 49.2109 150.508 49.2109C145.03 49.2109 140.59 53.6516 140.59 59.1294C140.59 64.6072 145.03 69.0478 150.508 69.0478Z" fill="#F7B787"/>
<path d="M168.407 51.5206C163.601 50.8708 158.113 53.469 156.867 58.1569C156.553 57.3234 155.982 56.6112 155.237 56.1234C154.492 55.6356 153.611 55.3972 152.721 55.4429C151.832 55.4885 150.98 55.8158 150.288 56.3773C149.597 56.9389 149.102 57.7057 148.875 58.567L149.425 58.9611C159.726 61.1887 170.39 61.1405 180.67 58.8198C177.326 55.3058 173.214 52.1703 168.407 51.5206Z" fill="#F0F0F0"/>
<path d="M147.794 63.5733C142.987 62.9235 137.499 65.5217 136.254 70.2096C135.94 69.3761 135.369 68.664 134.624 68.1761C133.878 67.6883 132.997 67.45 132.108 67.4956C131.218 67.5413 130.366 67.8685 129.675 68.4301C128.984 68.9916 128.489 69.7584 128.262 70.6197L128.812 71.0138C139.113 73.2415 149.776 73.1932 160.057 70.8726C156.713 67.3585 152.601 64.223 147.794 63.5733Z" fill="#F0F0F0"/>
<path d="M224.043 53.5073C222.758 51.3809 221.234 49.1105 218.848 48.4162C216.085 47.6121 213.247 49.2095 210.839 50.7857C203.64 55.4997 196.706 60.6083 190.07 66.0881L190.078 66.1707C195.244 65.8144 200.41 65.4581 205.576 65.1019C209.308 64.8445 213.169 64.5516 216.468 62.7859C217.719 62.1159 218.939 61.2209 220.358 61.1585C222.12 61.081 223.656 62.3117 224.864 63.5975C232.006 71.2034 234.073 82.8345 242.086 89.5169C237.034 77.0555 231 65.0146 224.043 53.5073Z" fill="#F0F0F0"/>
<path d="M244.967 80.6233L251.153 78.3605L254.225 77.237C255.225 76.8711 256.223 76.4546 257.258 76.1926C258.156 75.9359 259.111 75.948 260.002 76.2276C260.798 76.5219 261.526 76.9733 262.143 77.5547C262.774 78.1356 263.361 78.7624 263.899 79.4299C264.568 80.2336 265.227 81.0458 265.889 81.8552C268.62 85.1957 271.334 88.5508 274.03 91.9203C276.725 95.2898 279.403 98.6736 282.063 102.072C284.729 105.478 287.377 108.899 290.006 112.334C290.329 112.755 290.65 113.176 290.972 113.597C291.15 113.829 291.55 113.6 291.37 113.364C288.721 109.895 286.054 106.439 283.368 102.998C280.676 99.549 277.964 96.1144 275.235 92.6943C272.505 89.2744 269.757 85.8693 266.991 82.479C266.301 81.6343 265.611 80.7906 264.92 79.9479C264.336 79.237 263.76 78.5184 263.12 77.8567C261.945 76.6422 260.478 75.5688 258.722 75.5397C257.689 75.5226 256.69 75.8502 255.731 76.1973C254.696 76.5715 253.665 76.9527 252.632 77.3305L246.402 79.609L244.844 80.1787C244.568 80.2798 244.687 80.7255 244.967 80.6233Z" fill="#E4E4E4"/>
<path d="M137.937 32.3223L137.332 32.8142C137.537 32.642 137.75 32.4806 137.968 32.3278C137.958 32.326 137.948 32.324 137.937 32.3223Z" fill="#F2F2F2"/>
<path d="M261.912 80.6467C261.303 79.9054 260.644 79.1292 259.733 78.8281L258.883 78.8617C265.357 90.301 274.1 100.297 284.576 108.235C277.021 99.039 269.466 89.8429 261.912 80.6467Z" fill="#F0F0F0"/>
<path d="M215.526 86.1348C215.549 86.4459 215.016 86.8038 214.303 86.9457C213.647 87.0799 213.06 86.9866 212.895 86.7415C212.928 86.7218 212.964 86.7074 213.002 86.6988L215.464 86.1425C215.484 86.1382 215.505 86.1356 215.526 86.1348Z" fill="#E6E6E6"/>
<path d="M227.726 130.561C227.726 139.443 228.658 145.944 218.986 146.643C208.6 147.394 210.246 139.443 210.246 130.561C210.246 121.679 208.847 112.848 218.986 114.479C223.752 115.246 227.726 121.679 227.726 130.561Z" fill="#3F3D56"/>
<path d="M213.043 141.749C213.815 141.749 214.441 136.741 214.441 130.562C214.441 124.383 213.815 119.375 213.043 119.375C212.271 119.375 211.645 124.383 211.645 130.562C211.645 136.741 212.271 141.749 213.043 141.749Z" fill="#E6E6E6"/>
<path d="M161.358 121.317C161.358 129.155 162.181 134.892 153.645 135.509C144.479 136.172 145.932 129.155 145.932 121.317C145.932 113.479 144.698 105.685 153.645 107.125C157.851 107.802 161.358 113.479 161.358 121.317Z" fill="#3F3D56"/>
<path d="M148.392 131.192C149.074 131.192 149.626 126.772 149.626 121.319C149.626 115.866 149.074 111.446 148.392 111.446C147.711 111.446 147.158 115.866 147.158 121.319C147.158 126.772 147.711 131.192 148.392 131.192Z" fill="#E6E6E6"/>
<path d="M174.607 135.505C174.607 144.387 175.539 150.888 165.867 151.587C155.48 152.338 157.127 144.387 157.127 135.505C157.127 126.623 155.728 117.792 165.867 119.423C170.633 120.19 174.607 126.623 174.607 135.505Z" fill="#3F3D56"/>
<path d="M159.923 146.693C160.695 146.693 161.321 141.684 161.321 135.505C161.321 129.327 160.695 124.318 159.923 124.318C159.151 124.318 158.524 129.327 158.524 135.505C158.524 141.684 159.151 146.693 159.923 146.693Z" fill="#E6E6E6"/>
<path d="M146.988 102.526V108.039L145.473 110.567L145.939 119.423L146.316 119.656L146.055 110.683C148.711 109.695 149.579 111.515 149.318 115.111L148.852 121.171L156.31 125.833L157.243 116.277L160.739 114.645L164.584 130.844H229.017C231.673 130.844 233.795 128.634 233.687 125.98L232.874 105.905L230.68 103.711L228.648 80.2026C228.141 74.34 223.17 69.8778 217.287 70.0046L176.981 70.8732C174.794 70.9204 172.634 71.3606 170.603 72.1729L160.855 76.0721L154.563 82.3641L153.63 97.5146L151.251 97.3077C149.54 97.1589 147.979 98.2899 147.587 99.9625L146.988 102.526Z" fill="#E6E6E6"/>
<path d="M167.849 124.319C169.136 124.319 170.18 123.276 170.18 121.988C170.18 120.701 169.136 119.658 167.849 119.658C166.562 119.658 165.519 120.701 165.519 121.988C165.519 123.276 166.562 124.319 167.849 124.319Z" fill="#3F3D56"/>
<path d="M173.21 124.319C174.497 124.319 175.54 123.276 175.54 121.988C175.54 120.701 174.497 119.658 173.21 119.658C171.922 119.658 170.879 120.701 170.879 121.988C170.879 123.276 171.922 124.319 173.21 124.319Z" fill="#3F3D56"/>
<path d="M225.417 124.319C226.704 124.319 227.747 123.276 227.747 121.988C227.747 120.701 226.704 119.658 225.417 119.658C224.129 119.658 223.086 120.701 223.086 121.988C223.086 123.276 224.129 124.319 225.417 124.319Z" fill="#3F3D56"/>
<path d="M230.776 124.319C232.063 124.319 233.107 123.276 233.107 121.988C233.107 120.701 232.063 119.658 230.776 119.658C229.489 119.658 228.445 120.701 228.445 121.988C228.445 123.276 229.489 124.319 230.776 124.319Z" fill="#3F3D56"/>
<path d="M227.143 100.095H172.349C171.93 100.095 171.541 99.9282 171.251 99.6251C170.962 99.3219 170.814 98.9245 170.834 98.5061L171.634 81.5794C171.672 80.7791 172.329 80.1441 173.13 80.1338L224.868 79.4678C225.632 79.4606 226.295 80.0271 226.393 80.7921L228.648 98.3848C228.703 98.8171 228.57 99.2527 228.282 99.58C227.994 99.9073 227.579 100.095 227.143 100.095Z" fill="white"/>
<path d="M164.693 99.2633H161.137C160.716 99.2633 160.309 99.0858 160.023 98.776C159.737 98.4663 159.592 98.0475 159.625 97.6268L160.648 84.64C160.704 83.9269 161.238 83.3581 161.946 83.257L165.62 82.7322C166.08 82.6668 166.538 82.8118 166.876 83.1309C167.214 83.4503 167.385 83.8989 167.346 84.3621L166.204 97.8738C166.138 98.6659 165.487 99.2633 164.693 99.2633Z" fill="white"/>
<path d="M156.521 98.9325C156.484 98.9325 156.447 98.9312 156.41 98.9286L155.992 98.8988C155.58 98.8692 155.206 98.679 154.94 98.3628C154.674 98.0464 154.55 97.6459 154.591 97.2343L155.739 85.7501C155.807 85.0703 156.325 84.5169 157 84.4045C157.459 84.3273 157.921 84.463 158.266 84.7753C158.611 85.0871 158.793 85.5325 158.763 85.9971L158.032 97.5113C158.006 97.9181 157.823 98.2897 157.516 98.5579C157.237 98.8016 156.887 98.9325 156.521 98.9325Z" fill="white"/>
<path d="M150.739 122.363L150.134 109.168C150.134 109.168 148.736 107.303 147.803 107.769C146.871 108.235 145.486 110.828 145.486 110.828C145.486 110.828 148.189 110.65 148.112 113.522C148.036 116.393 148.575 121.038 148.575 121.038L150.739 122.363Z" fill="#CCCCCC"/>
<path d="M156.366 125.81L156.659 115.966L159.624 112.464C159.624 112.464 163.586 111.608 163.502 116.098C163.418 120.588 164.7 130.959 164.7 130.959L161.803 129.14C161.803 129.14 161.087 118.024 158.99 116.859C156.892 115.693 157.591 116.626 157.591 116.626L156.366 125.81Z" fill="#CCCCCC"/>
<path d="M153.277 100.576L150.98 99.2636H151.231C151.589 99.2636 151.88 98.9732 151.88 98.6149V92.9202C151.88 92.5619 151.589 92.2715 151.231 92.2715H148.799C148.441 92.2715 148.15 92.5619 148.15 92.9202V98.6149C148.15 98.9732 148.441 99.2636 148.799 99.2636H150.041L153.046 100.981L153.277 100.576Z" fill="#3F3D56"/>
<path d="M156.382 109.107L154.59 108.592C154.157 108.467 153.705 108.717 153.58 109.15C153.456 109.583 153.706 110.035 154.139 110.16L155.931 110.675C156.364 110.799 156.816 110.549 156.94 110.116C157.065 109.683 156.815 109.231 156.382 109.107Z" fill="#3F3D56"/>
<path d="M205.371 125.718C215.153 125.718 223.084 117.787 223.084 108.004C223.084 98.2216 215.153 90.291 205.371 90.291C195.588 90.291 187.657 98.2216 187.657 108.004C187.657 117.787 195.588 125.718 205.371 125.718Z" fill="#3F3D56"/>
<path d="M205.373 118.491C211.165 118.491 215.861 113.795 215.861 108.003C215.861 102.21 211.165 97.5146 205.373 97.5146C199.58 97.5146 194.885 102.21 194.885 108.003C194.885 113.795 199.58 118.491 205.373 118.491Z" fill="#E6E6E6"/>
<path d="M78.4492 145.893C78.5305 145.756 78.8819 145.903 78.9466 145.778C79.0109 145.654 78.6844 145.466 78.4978 145.034C78.4642 144.957 78.2521 144.467 78.4091 144.315C78.7066 144.029 80.068 145.212 80.5445 144.825C80.649 144.74 80.7221 144.57 81.0385 144.295C81.1644 144.185 81.2405 144.136 81.3142 144.154C81.4187 144.18 81.427 144.32 81.5391 144.595C81.7072 145.008 81.8067 144.983 81.9046 145.312C81.9773 145.556 81.9607 145.698 82.0463 145.726C82.1673 145.765 82.2788 145.506 82.4322 145.529C82.5888 145.553 82.6835 145.855 82.7134 146.081C82.7695 146.505 82.6138 146.784 82.5275 147.079C82.4337 147.398 82.378 147.885 82.5946 148.573L84.7383 154.613C84.265 153.373 82.8947 149.976 82.3189 148.713C82.1527 148.349 81.9692 147.979 81.5923 147.833C81.2295 147.693 80.7312 147.777 80.096 147.624C80.0218 147.606 79.8159 147.553 79.79 147.432C79.7686 147.332 79.8897 147.276 79.8711 147.183C79.8461 147.057 79.608 147.055 79.3153 146.91C79.109 146.808 78.9804 146.686 78.8698 146.582C78.8365 146.55 78.3411 146.075 78.4492 145.893Z" fill="#F2F2F2"/>
<path d="M86.8836 149.072C86.9743 149.072 87.0037 149.287 87.0834 149.283C87.1628 149.279 87.1612 149.064 87.319 148.848C87.3474 148.809 87.5268 148.563 87.6463 148.597C87.8728 148.66 87.6851 149.67 88.0125 149.792C88.0844 149.819 88.1887 149.806 88.4151 149.881C88.5052 149.912 88.5514 149.935 88.5637 149.976C88.581 150.035 88.5147 150.079 88.4121 150.214C88.2581 150.415 88.299 150.457 88.1657 150.6C88.0668 150.706 87.9922 150.739 88.0033 150.789C88.019 150.86 88.1784 150.84 88.2113 150.922C88.2449 151.005 88.1241 151.139 88.0218 151.219C87.8299 151.369 87.6477 151.373 87.4784 151.415C87.2944 151.462 87.0397 151.575 86.7644 151.88L84.4185 154.674C84.8903 154.084 86.1623 152.432 86.6159 151.785C86.7468 151.598 86.8752 151.401 86.8381 151.174C86.8024 150.956 86.6175 150.735 86.5093 150.379C86.4966 150.338 86.4629 150.222 86.5149 150.174C86.5578 150.135 86.6202 150.178 86.6609 150.142C86.7154 150.093 86.6474 149.976 86.6342 149.79C86.6249 149.66 86.6475 149.561 86.667 149.477C86.6729 149.451 86.7629 149.071 86.8836 149.072Z" fill="#F2F2F2"/>
<path d="M85.0743 149.479L85.1289 148.991L85.1039 148.954C84.9884 148.783 84.9296 148.616 84.9289 148.458C84.9287 148.432 84.9299 148.407 84.9311 148.382C84.9358 148.28 84.9417 148.153 84.8758 148.006C84.8388 147.924 84.7349 147.734 84.5788 147.757C84.5368 147.763 84.505 147.782 84.4809 147.805C84.4773 147.799 84.4737 147.794 84.4698 147.787C84.4212 147.713 84.3827 147.681 84.3456 147.651C84.3171 147.627 84.2876 147.603 84.2415 147.546C84.2212 147.52 84.2054 147.498 84.1921 147.48C84.1518 147.423 84.099 147.356 84.006 147.357C83.9066 147.362 83.8546 147.444 83.8201 147.499C83.7585 147.596 83.7306 147.666 83.7121 147.712C83.7054 147.729 83.6977 147.748 83.6938 147.754C83.6618 147.801 83.4015 147.757 83.3034 147.741C83.0831 147.704 82.8925 147.673 82.814 147.811C82.7577 147.911 82.7995 148.042 82.9419 148.212C82.9863 148.265 83.0335 148.306 83.0755 148.337C83.0407 148.358 83.0096 148.39 82.997 148.44C82.9674 148.558 83.069 148.676 83.2989 148.792C83.356 148.821 83.4329 148.86 83.5407 148.878C83.5914 148.887 83.6371 148.889 83.6762 148.89C83.677 148.913 83.6823 148.938 83.6961 148.963C83.7365 149.037 83.8205 149.072 83.9472 149.064C84.0866 149.056 84.2014 149.03 84.3027 149.007C84.3911 148.986 84.4673 148.969 84.5271 148.973C84.638 148.982 84.7235 149.071 84.8238 149.186L85.0743 149.479Z" fill="#F2F2F2"/>
<path d="M84.8217 146.576L85.2796 146.753L85.3217 146.738C85.5163 146.67 85.6928 146.655 85.8462 146.694C85.8706 146.701 85.8947 146.708 85.9192 146.716C86.0165 146.746 86.1373 146.784 86.2966 146.758C86.3855 146.743 86.5959 146.691 86.6127 146.534C86.6177 146.491 86.6071 146.456 86.5913 146.427C86.5977 146.425 86.6041 146.423 86.611 146.42C86.6951 146.392 86.7356 146.363 86.7746 146.335C86.8046 146.313 86.8355 146.291 86.9028 146.261C86.9323 146.248 86.9577 146.238 86.9791 146.23C87.0438 146.205 87.1221 146.171 87.1446 146.081C87.1652 145.983 87.0989 145.912 87.055 145.865C86.9768 145.781 86.9162 145.736 86.8761 145.707C86.8614 145.696 86.8448 145.684 86.8401 145.678C86.8027 145.635 86.9113 145.395 86.9517 145.304C87.0431 145.1 87.1222 144.924 87.0077 144.813C86.9259 144.733 86.7882 144.74 86.5874 144.835C86.5248 144.864 86.4739 144.9 86.4328 144.932C86.4215 144.893 86.3987 144.855 86.3536 144.83C86.2467 144.772 86.1064 144.84 85.936 145.033C85.8935 145.081 85.8366 145.145 85.7913 145.245C85.77 145.292 85.7564 145.335 85.7453 145.373C85.7232 145.368 85.6982 145.367 85.6703 145.374C85.5883 145.394 85.5328 145.466 85.5089 145.591C85.4806 145.728 85.4772 145.846 85.4741 145.95C85.4713 146.04 85.4686 146.118 85.4495 146.175C85.4127 146.28 85.3052 146.34 85.1683 146.408L84.8217 146.576Z" fill="#F2F2F2"/>
<path d="M85.0743 145.139L85.1289 144.651L85.1039 144.614C84.9884 144.443 84.9296 144.276 84.9289 144.118C84.9287 144.093 84.9299 144.067 84.9311 144.042C84.9358 143.94 84.9417 143.814 84.8758 143.666C84.8388 143.584 84.7349 143.394 84.5788 143.417C84.5368 143.423 84.505 143.442 84.4809 143.465C84.4773 143.459 84.4737 143.454 84.4698 143.448C84.4212 143.373 84.3827 143.342 84.3456 143.311C84.3171 143.287 84.2876 143.263 84.2415 143.206C84.2212 143.181 84.2054 143.158 84.1921 143.14C84.1518 143.084 84.099 143.016 84.006 143.018C83.9066 143.022 83.8546 143.104 83.8201 143.159C83.7585 143.256 83.7306 143.326 83.7121 143.372C83.7054 143.389 83.6977 143.408 83.6938 143.414C83.6618 143.461 83.4015 143.417 83.3034 143.401C83.0831 143.364 82.8925 143.333 82.814 143.472C82.7577 143.571 82.7995 143.702 82.9419 143.873C82.9863 143.926 83.0335 143.966 83.0755 143.997C83.0407 144.018 83.0096 144.05 82.997 144.1C82.9674 144.218 83.069 144.337 83.2989 144.452C83.356 144.481 83.4329 144.52 83.5407 144.539C83.5914 144.547 83.6371 144.549 83.6762 144.551C83.677 144.573 83.6823 144.598 83.6961 144.623C83.7365 144.697 83.8205 144.732 83.9472 144.724C84.0866 144.717 84.2014 144.69 84.3027 144.667C84.3911 144.646 84.4673 144.629 84.5271 144.633C84.638 144.642 84.7235 144.731 84.8238 144.846L85.0743 145.139Z" fill="#F2F2F2"/>
<path d="M84.5741 154.605L84.6762 154.541L84.7954 154.555C84.7973 154.543 84.8038 154.518 84.8135 154.478C84.8669 154.26 85.0295 153.597 85.1651 152.551C85.2598 151.822 85.3134 151.072 85.3244 150.322C85.3355 149.571 85.2999 149.002 85.2714 148.545C85.2499 148.2 85.2238 147.872 85.1981 147.552C85.1298 146.698 85.0654 145.891 85.1133 144.997C85.1239 144.798 85.1462 144.383 85.3887 143.941C85.5294 143.685 85.7232 143.457 85.9648 143.265L85.8146 143.076C85.5479 143.289 85.3335 143.541 85.1773 143.825C84.9083 144.315 84.8841 144.767 84.8724 144.985C84.8237 145.894 84.8888 146.709 84.9578 147.571C84.9832 147.89 85.0094 148.217 85.0308 148.56C85.059 149.013 85.0942 149.577 85.0833 150.318C85.0725 151.059 85.0195 151.8 84.9261 152.52C84.7921 153.552 84.6319 154.206 84.5792 154.421C84.5512 154.535 84.5453 154.559 84.5741 154.605Z" fill="#F2F2F2"/>
<path d="M86.4082 143.648C86.4181 143.648 86.4281 143.648 86.4382 143.647C86.6436 143.636 86.8337 143.513 87.0035 143.282C87.0831 143.173 87.1239 143.049 87.2051 142.802C87.2177 142.763 87.2789 142.57 87.3161 142.304C87.3405 142.13 87.3374 142.057 87.3029 141.993C87.2647 141.921 87.2027 141.871 87.133 141.837C87.1361 141.814 87.1336 141.79 87.1236 141.766C87.0825 141.666 86.9733 141.679 86.9141 141.685C86.8842 141.689 86.8469 141.694 86.8067 141.692C86.7433 141.689 86.7093 141.67 86.6577 141.642C86.6084 141.615 86.547 141.581 86.456 141.562C86.2766 141.525 86.1262 141.576 86.0766 141.592C85.8158 141.679 85.6873 141.882 85.5384 142.117C85.5088 142.164 85.4069 142.335 85.3397 142.57C85.2912 142.74 85.298 142.815 85.3126 142.871C85.3423 142.987 85.4123 143.052 85.5902 143.198C85.776 143.35 85.8693 143.427 85.9494 143.473C86.1357 143.581 86.2528 143.648 86.4082 143.648Z" fill="#F2F2F2"/>
<path d="M158.861 140.776C158.736 140.565 158.195 140.791 158.096 140.6C157.997 140.409 158.499 140.118 158.787 139.455C158.838 139.335 159.165 138.581 158.923 138.348C158.465 137.907 156.369 139.727 155.636 139.132C155.475 139.001 155.362 138.74 154.875 138.316C154.682 138.147 154.564 138.071 154.451 138.1C154.29 138.14 154.277 138.355 154.105 138.779C153.846 139.414 153.693 139.375 153.542 139.882C153.43 140.258 153.456 140.477 153.324 140.52C153.138 140.58 152.966 140.181 152.73 140.217C152.489 140.253 152.343 140.718 152.297 141.065C152.211 141.718 152.45 142.149 152.583 142.602C152.728 143.094 152.813 143.842 152.48 144.902L149.18 154.2C149.908 152.292 152.018 147.062 152.904 145.118C153.16 144.557 153.443 143.988 154.023 143.764C154.581 143.547 155.348 143.676 156.326 143.441C156.441 143.413 156.757 143.333 156.797 143.146C156.83 142.992 156.644 142.906 156.673 142.762C156.711 142.568 157.078 142.566 157.528 142.342C157.846 142.185 158.044 141.998 158.214 141.836C158.265 141.788 159.028 141.057 158.861 140.776Z" fill="#F2F2F2"/>
<path d="M145.88 145.669C145.74 145.67 145.695 146.001 145.572 145.994C145.45 145.988 145.452 145.657 145.209 145.325C145.166 145.265 144.89 144.887 144.706 144.938C144.357 145.036 144.646 146.59 144.142 146.778C144.031 146.819 143.871 146.799 143.522 146.916C143.383 146.962 143.312 146.998 143.293 147.062C143.267 147.152 143.369 147.221 143.527 147.428C143.764 147.738 143.701 147.802 143.906 148.022C144.058 148.186 144.173 148.236 144.156 148.313C144.132 148.422 143.886 148.391 143.836 148.517C143.784 148.646 143.97 148.852 144.127 148.975C144.423 149.205 144.703 149.212 144.964 149.277C145.247 149.349 145.639 149.523 146.063 149.992L149.675 154.294C148.948 153.386 146.99 150.842 146.292 149.846C146.09 149.559 145.893 149.256 145.95 148.906C146.005 148.57 146.289 148.23 146.456 147.682C146.475 147.618 146.527 147.44 146.447 147.366C146.381 147.306 146.285 147.372 146.223 147.317C146.139 147.242 146.243 147.061 146.264 146.776C146.278 146.574 146.243 146.423 146.213 146.293C146.204 146.254 146.065 145.669 145.88 145.669Z" fill="#F2F2F2"/>
<path d="M148.666 146.295L148.582 145.544L148.62 145.487C148.798 145.224 148.889 144.967 148.89 144.723C148.89 144.684 148.888 144.645 148.887 144.606C148.879 144.449 148.87 144.255 148.972 144.028C149.029 143.901 149.189 143.608 149.429 143.645C149.494 143.654 149.543 143.683 149.58 143.718C149.585 143.709 149.591 143.701 149.597 143.691C149.672 143.577 149.731 143.528 149.788 143.481C149.832 143.445 149.877 143.407 149.948 143.319C149.979 143.28 150.004 143.246 150.024 143.217C150.086 143.131 150.168 143.028 150.311 143.029C150.464 143.037 150.544 143.163 150.597 143.247C150.692 143.396 150.735 143.504 150.763 143.575C150.773 143.601 150.785 143.631 150.791 143.64C150.841 143.712 151.241 143.645 151.392 143.62C151.731 143.563 152.025 143.514 152.146 143.728C152.232 143.881 152.168 144.084 151.949 144.346C151.88 144.427 151.808 144.489 151.743 144.538C151.797 144.57 151.845 144.619 151.864 144.695C151.91 144.877 151.753 145.06 151.399 145.238C151.311 145.283 151.193 145.342 151.027 145.371C150.949 145.384 150.879 145.388 150.818 145.389C150.817 145.424 150.809 145.462 150.788 145.501C150.726 145.615 150.596 145.669 150.401 145.656C150.187 145.645 150.01 145.604 149.854 145.568C149.718 145.537 149.601 145.51 149.508 145.517C149.338 145.53 149.206 145.667 149.052 145.844L148.666 146.295Z" fill="#F2F2F2"/>
<path d="M149.055 141.825L148.35 142.096L148.285 142.074C147.985 141.968 147.714 141.946 147.477 142.007C147.44 142.016 147.403 142.028 147.365 142.04C147.215 142.086 147.029 142.145 146.784 142.104C146.647 142.081 146.323 142.001 146.297 141.759C146.29 141.694 146.306 141.639 146.33 141.594C146.321 141.591 146.311 141.588 146.3 141.585C146.171 141.541 146.108 141.496 146.048 141.453C146.002 141.42 145.954 141.386 145.851 141.339C145.805 141.319 145.766 141.304 145.733 141.292C145.634 141.253 145.513 141.201 145.479 141.062C145.447 140.912 145.549 140.803 145.616 140.73C145.737 140.6 145.83 140.532 145.892 140.486C145.915 140.469 145.94 140.45 145.947 140.442C146.005 140.376 145.838 140.006 145.776 139.866C145.635 139.552 145.513 139.281 145.689 139.11C145.815 138.987 146.027 138.998 146.336 139.144C146.433 139.189 146.511 139.244 146.574 139.294C146.592 139.234 146.627 139.175 146.696 139.137C146.861 139.047 147.077 139.152 147.339 139.449C147.405 139.523 147.492 139.622 147.562 139.775C147.595 139.847 147.616 139.915 147.633 139.972C147.667 139.965 147.705 139.963 147.748 139.974C147.874 140.005 147.96 140.116 147.997 140.308C148.04 140.519 148.045 140.7 148.05 140.86C148.055 141 148.059 141.12 148.088 141.207C148.145 141.369 148.31 141.461 148.521 141.566L149.055 141.825Z" fill="#F2F2F2"/>
<path d="M148.666 139.613L148.582 138.862L148.62 138.806C148.798 138.542 148.889 138.285 148.89 138.041C148.89 138.003 148.888 137.964 148.887 137.924C148.879 137.768 148.87 137.573 148.972 137.346C149.029 137.22 149.189 136.927 149.429 136.963C149.494 136.972 149.543 137.002 149.58 137.036C149.585 137.028 149.591 137.019 149.597 137.01C149.672 136.895 149.731 136.847 149.788 136.799C149.832 136.763 149.877 136.726 149.948 136.637C149.979 136.599 150.004 136.564 150.024 136.536C150.086 136.449 150.168 136.346 150.311 136.348C150.464 136.355 150.544 136.481 150.597 136.565C150.692 136.715 150.735 136.822 150.763 136.894C150.773 136.92 150.785 136.949 150.791 136.958C150.841 137.031 151.241 136.963 151.392 136.938C151.731 136.882 152.025 136.833 152.146 137.047C152.232 137.2 152.168 137.402 151.949 137.664C151.88 137.746 151.808 137.808 151.743 137.856C151.797 137.888 151.845 137.937 151.864 138.014C151.91 138.196 151.753 138.378 151.399 138.557C151.311 138.601 151.193 138.661 151.027 138.689C150.949 138.703 150.879 138.706 150.818 138.708C150.817 138.743 150.809 138.78 150.788 138.819C150.726 138.933 150.596 138.988 150.401 138.975C150.187 138.963 150.01 138.922 149.854 138.886C149.718 138.855 149.601 138.829 149.508 138.835C149.338 138.849 149.206 138.985 149.052 139.163L148.666 139.613Z" fill="#F2F2F2"/>
<path d="M149.434 154.187L149.277 154.089L149.093 154.11C149.09 154.093 149.08 154.054 149.065 153.992C148.983 153.657 148.733 152.635 148.524 151.026C148.378 149.903 148.296 148.749 148.279 147.594C148.262 146.437 148.317 145.562 148.36 144.858C148.394 144.328 148.434 143.822 148.473 143.33C148.578 142.015 148.678 140.772 148.604 139.397C148.588 139.09 148.553 138.451 148.18 137.771C147.963 137.376 147.665 137.026 147.293 136.73L147.524 136.439C147.935 136.766 148.265 137.154 148.505 137.592C148.919 138.346 148.957 139.043 148.975 139.377C149.05 140.777 148.95 142.031 148.843 143.359C148.804 143.85 148.764 144.353 148.731 144.882C148.687 145.579 148.633 146.447 148.65 147.588C148.667 148.729 148.748 149.869 148.892 150.978C149.098 152.567 149.345 153.573 149.426 153.904C149.469 154.081 149.478 154.117 149.434 154.187Z" fill="#F2F2F2"/>
<path d="M146.614 137.32C146.598 137.32 146.583 137.319 146.567 137.318C146.251 137.301 145.959 137.112 145.697 136.756C145.575 136.589 145.512 136.398 145.387 136.017C145.367 135.958 145.273 135.66 145.216 135.25C145.178 134.982 145.183 134.87 145.236 134.771C145.295 134.661 145.39 134.584 145.498 134.532C145.493 134.496 145.497 134.46 145.512 134.423C145.576 134.268 145.744 134.288 145.835 134.298C145.881 134.304 145.938 134.311 146 134.308C146.098 134.303 146.15 134.274 146.23 134.231C146.305 134.189 146.4 134.137 146.54 134.109C146.816 134.051 147.048 134.129 147.124 134.155C147.526 134.289 147.723 134.601 147.953 134.962C147.998 135.035 148.155 135.299 148.259 135.661C148.333 135.922 148.323 136.038 148.3 136.124C148.255 136.301 148.147 136.403 147.873 136.627C147.587 136.861 147.443 136.979 147.32 137.05C147.033 137.216 146.853 137.32 146.614 137.32Z" fill="#F2F2F2"/>
<path d="M85.9044 138.995C85.7629 138.757 85.1508 139.012 85.0383 138.796C84.9261 138.58 85.4948 138.251 85.8197 137.5C85.8783 137.365 86.2475 136.512 85.9742 136.248C85.4561 135.749 83.0853 137.809 82.2556 137.135C82.0735 136.987 81.9463 136.692 81.3952 136.212C81.1759 136.022 81.0434 135.935 80.9151 135.967C80.733 136.013 80.7186 136.257 80.5234 136.736C80.2306 137.454 80.0575 137.411 79.8869 137.984C79.7603 138.409 79.7892 138.657 79.6402 138.705C79.4294 138.773 79.2353 138.322 78.9681 138.362C78.6954 138.404 78.5305 138.929 78.4785 139.323C78.3808 140.061 78.6519 140.548 78.8022 141.06C78.9655 141.617 79.0624 142.464 78.6853 143.662L74.9521 154.181C75.7763 152.022 78.1626 146.106 79.1654 143.907C79.4548 143.273 79.7745 142.629 80.4307 142.375C81.0626 142.13 81.9303 142.276 83.0366 142.01C83.1658 141.979 83.5243 141.887 83.5695 141.676C83.6068 141.502 83.3959 141.405 83.4283 141.241C83.4717 141.022 83.8865 141.02 84.3961 140.767C84.7554 140.589 84.9793 140.377 85.1719 140.195C85.2299 140.14 86.0927 139.313 85.9044 138.995Z" fill="#F2F2F2"/>
<path d="M71.2196 144.536C71.0616 144.537 71.0104 144.911 70.8717 144.904C70.7334 144.897 70.7362 144.523 70.4614 144.147C70.4118 144.079 70.0996 143.651 69.8915 143.71C69.497 143.82 69.8238 145.578 69.2536 145.79C69.1285 145.837 68.9469 145.814 68.5525 145.947C68.3957 145.999 68.3152 146.039 68.2939 146.112C68.2636 146.214 68.3791 146.291 68.5579 146.525C68.826 146.876 68.7548 146.949 68.9869 147.198C69.1592 147.383 69.289 147.44 69.2696 147.527C69.2423 147.65 68.9647 147.615 68.9075 147.758C68.849 147.904 69.0594 148.136 69.2375 148.275C69.5717 148.536 69.889 148.544 70.1839 148.618C70.5042 148.698 70.9478 148.895 71.4272 149.426L75.5125 154.293C74.691 153.266 72.4757 150.388 71.6859 149.261C71.4579 148.936 71.2342 148.593 71.2988 148.198C71.3611 147.817 71.6831 147.433 71.8715 146.814C71.8935 146.741 71.9522 146.539 71.8617 146.456C71.7869 146.387 71.6783 146.463 71.6075 146.4C71.5125 146.315 71.6309 146.111 71.6539 145.788C71.6701 145.56 71.6307 145.389 71.5968 145.242C71.5866 145.198 71.4298 144.536 71.2196 144.536Z" fill="#F2F2F2"/>
<path d="M74.3725 145.243L74.2773 144.394L74.3208 144.33C74.522 144.032 74.6245 143.741 74.6257 143.465C74.6259 143.421 74.6239 143.378 74.6218 143.333C74.6136 143.156 74.6034 142.935 74.7182 142.679C74.7826 142.536 74.9634 142.204 75.2353 142.245C75.3085 142.256 75.3639 142.289 75.4059 142.329L75.4252 142.298C75.5099 142.169 75.5769 142.114 75.6415 142.06C75.6911 142.019 75.7424 141.977 75.8228 141.877C75.858 141.833 75.8855 141.795 75.9087 141.762C75.979 141.664 76.0709 141.547 76.2329 141.549C76.4059 141.558 76.4966 141.701 76.5566 141.795C76.6639 141.964 76.7125 142.086 76.7447 142.167C76.7564 142.196 76.7697 142.23 76.7765 142.24C76.8322 142.322 77.2856 142.245 77.4564 142.217C77.84 142.153 78.172 142.098 78.3088 142.34C78.4068 142.513 78.334 142.742 78.0859 143.038C78.0086 143.131 77.9264 143.201 77.8534 143.256C77.9138 143.292 77.968 143.347 77.9899 143.434C78.0416 143.64 77.8646 143.846 77.4642 144.048C77.3647 144.098 77.2308 144.166 77.0432 144.198C76.9549 144.213 76.8753 144.217 76.8072 144.219C76.8058 144.258 76.7966 144.301 76.7726 144.345C76.7022 144.474 76.5558 144.536 76.3352 144.521C76.0924 144.508 75.8925 144.462 75.7162 144.421C75.5622 144.386 75.4295 144.356 75.3253 144.363C75.1322 144.379 74.9833 144.533 74.8086 144.734L74.3725 145.243Z" fill="#F2F2F2"/>
<path d="M74.8127 140.186L74.0153 140.493L73.942 140.468C73.603 140.349 73.2957 140.323 73.0285 140.392C72.986 140.403 72.944 140.416 72.9013 140.429C72.732 140.482 72.5216 140.548 72.2442 140.502C72.0894 140.476 71.723 140.385 71.6937 140.112C71.6851 140.038 71.7035 139.976 71.731 139.926L71.6967 139.915C71.5503 139.866 71.4797 139.815 71.4118 139.766C71.3595 139.728 71.3057 139.689 71.1885 139.637C71.1371 139.614 71.0928 139.597 71.0556 139.583C70.943 139.54 70.8066 139.481 70.7675 139.323C70.7315 139.154 70.847 139.03 70.9234 138.948C71.0596 138.801 71.1651 138.723 71.2351 138.672C71.2607 138.653 71.2894 138.632 71.2976 138.622C71.3628 138.548 71.1737 138.129 71.1034 137.971C70.9442 137.616 70.8064 137.309 71.0058 137.115C71.1483 136.976 71.3881 136.989 71.7378 137.153C71.8467 137.205 71.9354 137.266 72.0071 137.323C72.0266 137.255 72.0665 137.189 72.145 137.146C72.331 137.044 72.5754 137.162 72.8722 137.499C72.9462 137.582 73.0452 137.694 73.1241 137.868C73.1612 137.949 73.185 138.025 73.2042 138.091C73.2427 138.082 73.2863 138.08 73.3348 138.092C73.4776 138.128 73.5742 138.254 73.6159 138.471C73.6652 138.709 73.6711 138.914 73.6765 139.095C73.6815 139.253 73.6862 139.389 73.7193 139.488C73.7834 139.671 73.9707 139.775 74.209 139.893L74.8127 140.186Z" fill="#F2F2F2"/>
<path d="M74.3725 137.686L74.2773 136.837L74.3208 136.772C74.522 136.474 74.6245 136.184 74.6257 135.908C74.6259 135.864 74.6239 135.82 74.6218 135.775C74.6136 135.598 74.6034 135.378 74.7182 135.121C74.7826 134.978 74.9634 134.647 75.2353 134.688C75.3085 134.698 75.3639 134.732 75.4059 134.771L75.4252 134.741C75.5099 134.611 75.5769 134.556 75.6415 134.503C75.6911 134.462 75.7424 134.419 75.8228 134.319C75.858 134.276 75.8855 134.237 75.9087 134.205C75.979 134.107 76.0709 133.99 76.2329 133.992C76.4059 134 76.4966 134.143 76.5566 134.238C76.6639 134.407 76.7125 134.529 76.7447 134.609C76.7564 134.639 76.7697 134.672 76.7765 134.682C76.8322 134.764 77.2856 134.688 77.4564 134.66C77.84 134.596 78.172 134.54 78.3088 134.782C78.4068 134.955 78.334 135.184 78.0859 135.481C78.0086 135.573 77.9264 135.643 77.8534 135.698C77.9138 135.734 77.968 135.79 77.9899 135.877C78.0416 136.082 77.8646 136.289 77.4642 136.49C77.3647 136.541 77.2308 136.608 77.0432 136.641C76.9549 136.656 76.8753 136.659 76.8072 136.661C76.8058 136.701 76.7966 136.743 76.7726 136.787C76.7022 136.917 76.5558 136.978 76.3352 136.963C76.0924 136.951 75.8925 136.904 75.7162 136.864C75.5622 136.828 75.4295 136.798 75.3253 136.805C75.1322 136.821 74.9833 136.976 74.8086 137.176L74.3725 137.686Z" fill="#F2F2F2"/>
<path d="M75.2404 154.165L75.0624 154.054L74.8549 154.078C74.8516 154.058 74.8403 154.014 74.8233 153.945C74.7304 153.565 74.4472 152.409 74.211 150.589C74.0462 149.319 73.9529 148.013 73.9336 146.707C73.9143 145.398 73.9763 144.408 74.0259 143.612C74.0634 143.012 74.1089 142.44 74.1536 141.883C74.2726 140.395 74.3847 138.99 74.3013 137.434C74.2828 137.087 74.244 136.364 73.8217 135.594C73.5766 135.148 73.2391 134.752 72.8184 134.417L73.08 134.088C73.5444 134.458 73.9178 134.897 74.1899 135.392C74.6582 136.245 74.7005 137.033 74.7208 137.412C74.8057 138.995 74.6923 140.414 74.5721 141.916C74.5278 142.471 74.4823 143.04 74.445 143.638C74.3958 144.427 74.3345 145.409 74.3536 146.7C74.3724 147.991 74.4647 149.281 74.6273 150.535C74.8606 152.332 75.1397 153.471 75.2314 153.845C75.2802 154.044 75.2904 154.086 75.2404 154.165Z" fill="#F2F2F2"/>
<path d="M72.0405 135.088C72.0232 135.088 72.0058 135.087 71.9882 135.086C71.6306 135.067 71.2994 134.853 71.0037 134.45C70.8651 134.261 70.7942 134.044 70.6527 133.613C70.6308 133.547 70.5241 133.21 70.4593 132.746C70.4169 132.443 70.4222 132.316 70.4823 132.204C70.5489 132.08 70.6568 131.993 70.7782 131.934C70.7729 131.894 70.7772 131.852 70.7946 131.81C70.8662 131.635 71.0564 131.658 71.1594 131.669C71.2114 131.676 71.2764 131.684 71.3466 131.681C71.4569 131.675 71.5161 131.642 71.606 131.593C71.6919 131.546 71.7987 131.487 71.9572 131.455C72.2697 131.39 72.5315 131.478 72.6179 131.508C73.072 131.659 73.296 132.012 73.5551 132.421C73.6068 132.503 73.7842 132.801 73.9013 133.211C73.9857 133.506 73.9738 133.637 73.9484 133.735C73.8967 133.935 73.7747 134.05 73.4649 134.304C73.1413 134.569 72.9789 134.702 72.8395 134.783C72.5149 134.97 72.3111 135.088 72.0405 135.088Z" fill="#F2F2F2"/>
<path d="M249.648 68.5998L251.517 67.1049C250.065 66.9447 249.469 67.7366 249.225 68.3633C248.09 67.8923 246.855 68.5096 246.855 68.5096L250.595 69.8672C250.406 69.3633 250.078 68.9236 249.648 68.5998Z" fill="#3F3D56"/>
<path d="M252.906 71.383L254.775 69.8881C253.323 69.7279 252.727 70.5198 252.482 71.1466C251.348 70.6755 250.113 71.2928 250.113 71.2928L253.853 72.6504C253.664 72.1465 253.336 71.7068 252.906 71.383Z" fill="#3F3D56"/>
<path d="M258.732 101.456C258.094 100.649 257.833 100.461 257.203 99.6468C252.074 93.0132 247.253 86.1555 242.741 79.0738C239.675 74.2641 236.762 69.3621 234.001 64.3677C232.686 61.9933 231.408 59.6003 230.165 57.1887C229.201 55.3187 228.259 53.4376 227.337 51.5453C227.074 51.0048 226.818 50.4619 226.563 49.9176C225.963 48.6379 225.374 47.3519 224.742 46.0896C224.021 44.6508 223.144 43.1424 221.821 42.1757C221.219 41.7178 220.498 41.4407 219.745 41.3768C218.667 41.3072 217.673 41.7521 216.739 42.2379C209.896 45.8352 203.509 50.2397 197.714 55.3572C191.911 60.4541 186.723 66.2124 182.258 72.5147C182.121 72.7098 181.798 72.5234 181.936 72.3271C182.479 71.5592 183.033 70.7996 183.597 70.0484C190.616 60.7131 199.223 52.6853 209.023 46.3318C210.672 45.2633 212.352 44.2449 214.063 43.2766C214.925 42.7883 215.791 42.3062 216.672 41.8539C217.536 41.4104 218.452 41.0115 219.439 40.9966C222.796 40.9444 224.534 44.7464 225.728 47.3047C226.104 48.1098 226.483 48.9125 226.868 49.7126C228.32 52.7505 229.829 55.7606 231.393 58.743C232.358 60.5844 233.345 62.415 234.353 64.2348C237.489 69.9017 240.822 75.454 244.352 80.8915C249.029 88.0942 253.668 94.4569 258.996 101.192C259.143 101.379 258.88 101.645 258.732 101.456Z" fill="#E4E4E4"/>
</g>
<path d="M31.4688 27.1758C31.4688 29.332 32.7891 31.6133 34.875 32.6133L34.0312 33.7383C32.5078 33.0195 31.3594 31.5586 30.7656 29.8477C30.1484 31.6992 28.9297 33.2461 27.3281 33.9883L26.5 32.8477C28.6328 31.8711 30.0078 29.4805 30.0156 27.1758V26.2539H26.9219V25.0664H30V22.957H31.5V25.0664H34.5469V26.2539H31.4688V27.1758ZM36.0938 36.6758V22.6758H37.5781V28.3164H39.8281V29.5664H37.5781V36.6758H36.0938ZM53.1469 24.7695V26.0039H51.1V27.7227H53.1469V28.957H51.1V31.1445H49.6156V22.6914H51.1V24.7695H53.1469ZM40.6625 24.7383V23.5352H47.0375V27.457H42.1625V29.1602C44.5922 29.1602 46.3109 29.0664 48.35 28.7227L48.5063 29.9258C46.3422 30.3086 44.4906 30.3945 41.8031 30.3789H40.6781V26.3164H45.5844V24.7383H40.6625ZM41.8656 34.082C41.8656 32.457 43.6547 31.4883 46.5688 31.4883C49.4438 31.4883 51.225 32.457 51.225 34.082C51.225 35.707 49.4438 36.6445 46.5688 36.6445C43.6547 36.6445 41.8656 35.707 41.8656 34.082ZM43.3188 34.082C43.3109 34.9961 44.5141 35.5195 46.5688 35.5039C48.5922 35.5195 49.7797 34.9961 49.7719 34.082C49.7797 33.1758 48.5922 32.6523 46.5688 32.6602C44.5141 32.6523 43.3109 33.1758 43.3188 34.082Z" fill="#27342E"/>
<defs>
<filter id="filter0_d_264_2367" x="0.15625" y="0.347656" width="330" height="174" filterUnits="userSpaceOnUse" color-interpolation-filters="sRGB">
<feFlood flood-opacity="0" result="BackgroundImageFix"/>
<feColorMatrix in="SourceAlpha" type="matrix" values="0 0 0 0 0 0 0 0 0 0 0 0 0 0 0 0 0 0 127 0" result="hardAlpha"/>
<feOffset/>
<feGaussianBlur stdDeviation="6"/>
<feComposite in2="hardAlpha" operator="out"/>
<feColorMatrix type="matrix" values="0 0 0 0 0 0 0 0 0 0 0 0 0 0 0 0 0 0 0.14 0"/>
<feBlend mode="normal" in2="BackgroundImageFix" result="effect1_dropShadow_264_2367"/>
<feBlend mode="normal" in="SourceGraphic" in2="effect1_dropShadow_264_2367" result="shape"/>
</filter>
<radialGradient id="paint0_radial_264_2367" cx="0" cy="0" r="1" gradientUnits="userSpaceOnUse" gradientTransform="translate(90.7307 137.689) rotate(4.99947) scale(212.671 37.6231)">
<stop stop-color="#0B9596"/>
<stop offset="1" stop-color="white"/>
</radialGradient>
<clipPath id="clip0_264_2367">
<rect width="293" height="150" fill="white" transform="translate(25.1562 12.3789)"/>
</clipPath>
</defs>
</svg>
