<svg width="321" height="101" viewBox="0 0 321 101" fill="none" xmlns="http://www.w3.org/2000/svg">
<g filter="url(#filter0_d_264_1438)">
<rect x="7.8457" y="7.25977" width="306" height="86" rx="8" fill="white"/>
<path opacity="0.5" fill-rule="evenodd" clip-rule="evenodd" d="M310.048 80.6217V85.8337C310.048 90.2519 306.466 93.8337 302.048 93.8337L16.3175 93.8337C14.2102 93.8337 12.2931 93.0188 10.8643 91.6871C17.5762 89.3693 23.7742 86.5043 29.7901 83.7234C34.8909 81.3655 39.8609 79.0682 44.9023 77.2162C48.6303 75.8467 53.6714 75.6516 59.0958 75.4416C67.7066 75.1083 77.2835 74.7376 84.1081 69.5725C99.5403 57.8929 144.756 46.8911 155.605 47.1369C160.17 47.2403 164.394 50.8084 169.205 54.8727C175.826 60.4653 183.559 66.9975 194.825 66.7352C201.775 66.5733 208.894 65.0702 216.652 63.4319C230.609 60.4847 246.635 57.1005 267.474 60.3029C283.732 62.8012 299.259 71.9909 310.048 80.6217Z" fill="url(#paint0_radial_264_1438)"/>
<g clip-path="url(#clip0_264_1438)">
<path d="M56.332 70.6735C56.2462 70.5288 55.8747 70.6838 55.8064 70.5524C55.7384 70.4215 56.0835 70.222 56.2807 69.7663C56.3162 69.6841 56.5403 69.1663 56.3744 69.0065C56.06 68.7036 54.6212 69.9535 54.1177 69.5445C54.0072 69.4547 53.93 69.2755 53.5956 68.9846C53.4625 68.8688 53.3821 68.8166 53.3042 68.836C53.1937 68.8636 53.185 69.0115 53.0665 69.3022C52.8889 69.7382 52.7838 69.7118 52.6803 70.0597C52.6034 70.3179 52.621 70.4681 52.5306 70.4973C52.4026 70.5387 52.2848 70.2648 52.1227 70.2893C51.9572 70.3144 51.8571 70.6333 51.8255 70.872C51.7662 71.3201 51.9308 71.6158 52.022 71.9267C52.1211 72.2645 52.1799 72.7784 51.951 73.5058L49.6855 79.8888C50.1857 78.579 51.6339 74.9886 52.2424 73.6543C52.4181 73.2692 52.612 72.8785 53.0103 72.7243C53.3937 72.5758 53.9203 72.6645 54.5917 72.5027C54.6701 72.4839 54.8877 72.4285 54.9151 72.3005C54.9377 72.1947 54.8097 72.1357 54.8294 72.0366C54.8558 71.9037 55.1074 71.902 55.4167 71.7487C55.6348 71.6405 55.7707 71.5119 55.8875 71.4014C55.9227 71.368 56.4463 70.8663 56.332 70.6735Z" fill="#5FBA8E"/>
<path d="M47.421 74.0363C47.3251 74.0367 47.2941 74.2638 47.2099 74.2594C47.126 74.255 47.1277 74.028 46.9609 73.7998C46.9308 73.7586 46.7413 73.4992 46.615 73.5345C46.3756 73.6015 46.574 74.6683 46.2279 74.7974C46.152 74.8257 46.0418 74.8119 45.8025 74.8921C45.7073 74.924 45.6584 74.9484 45.6455 74.9922C45.6272 75.0544 45.6972 75.1014 45.8057 75.2434C45.9684 75.4564 45.9252 75.5004 46.0661 75.6515C46.1706 75.7638 46.2494 75.7985 46.2376 75.8513C46.221 75.926 46.0526 75.9048 46.0179 75.9915C45.9824 76.0799 46.1101 76.221 46.2181 76.3054C46.421 76.4638 46.6135 76.4684 46.7925 76.5133C46.9869 76.5622 47.256 76.6815 47.547 77.0038L50.0262 79.9574C49.5276 79.334 48.1833 77.5873 47.704 76.9036C47.5656 76.7063 47.4298 76.4983 47.4691 76.2584C47.5069 76.0274 47.7023 75.7945 47.8166 75.4183C47.83 75.3744 47.8656 75.2516 47.8107 75.2012C47.7653 75.1596 47.6994 75.2054 47.6564 75.1671C47.5988 75.1158 47.6706 74.9918 47.6846 74.7958C47.6944 74.6576 47.6705 74.5538 47.6499 74.4645C47.6437 74.4376 47.5486 74.0359 47.421 74.0363Z" fill="#5FBA8E"/>
<path d="M49.3292 74.4645L49.2715 73.9491L49.2979 73.91C49.4199 73.7293 49.4822 73.5529 49.4829 73.3854C49.483 73.3588 49.4818 73.3321 49.4805 73.305C49.4756 73.1975 49.4693 73.0639 49.539 72.9081C49.5781 72.8212 49.6878 72.6201 49.8528 72.645C49.8973 72.6512 49.9309 72.6716 49.9564 72.6955C49.9601 72.6896 49.964 72.6836 49.9681 72.6771C50.0195 72.5987 50.0602 72.5651 50.0994 72.5328C50.1295 72.5079 50.1606 72.4822 50.2094 72.4215C50.2308 72.3949 50.2474 72.3715 50.2615 72.3518C50.3042 72.2924 50.3599 72.2214 50.4582 72.2227C50.5632 72.2276 50.6182 72.3145 50.6547 72.372C50.7198 72.4745 50.7493 72.5484 50.7688 72.5975C50.7759 72.6154 50.784 72.6355 50.7881 72.6418C50.8219 72.6915 51.0971 72.645 51.2007 72.6281C51.4335 72.5893 51.635 72.5557 51.718 72.7025C51.7775 72.8075 51.7333 72.9464 51.5827 73.1263C51.5358 73.1823 51.4859 73.2249 51.4416 73.2582C51.4783 73.2801 51.5112 73.3137 51.5245 73.3665C51.5559 73.4914 51.4485 73.6166 51.2055 73.739C51.1451 73.7696 51.0638 73.8105 50.95 73.8301C50.8964 73.8393 50.8481 73.8416 50.8068 73.8428C50.8059 73.8667 50.8003 73.8926 50.7857 73.9192C50.7431 73.9976 50.6542 74.0349 50.5203 74.026C50.373 74.0183 50.2517 73.9901 50.1446 73.9655C50.0512 73.9441 49.9707 73.9259 49.9075 73.9302C49.7903 73.9396 49.6999 74.0335 49.5939 74.1551L49.3292 74.4645Z" fill="#5FBA8E"/>
<path d="M49.6016 71.3962L49.1177 71.5828L49.0732 71.5672C48.8674 71.4949 48.681 71.4795 48.5188 71.5213C48.493 71.5279 48.4675 71.5359 48.4416 71.544C48.3389 71.576 48.2112 71.616 48.0428 71.5881C47.9489 71.5723 47.7265 71.5171 47.7088 71.3512C47.7035 71.3067 47.7147 71.269 47.7314 71.2383C47.7246 71.2362 47.7179 71.234 47.7106 71.2316C47.6217 71.2018 47.5789 71.171 47.5377 71.1413C47.506 71.1184 47.4733 71.0949 47.4022 71.0631C47.371 71.0491 47.3441 71.0389 47.3215 71.0303C47.2532 71.0041 47.1704 70.9682 47.1467 70.8728C47.1249 70.7699 47.1949 70.6947 47.2413 70.6448C47.324 70.5559 47.388 70.5086 47.4304 70.4773C47.446 70.4659 47.4634 70.4529 47.4684 70.4474C47.508 70.402 47.3932 70.1477 47.3505 70.0517C47.2539 69.8364 47.1703 69.65 47.2913 69.5325C47.3778 69.4483 47.5233 69.4558 47.7355 69.5558C47.8016 69.587 47.8554 69.6245 47.8989 69.6589C47.9108 69.6178 47.935 69.5775 47.9826 69.5512C48.0955 69.4892 48.2438 69.5613 48.4239 69.7654C48.4688 69.816 48.5289 69.8842 48.5768 69.9894C48.5993 70.0389 48.6138 70.085 48.6254 70.1247C48.6488 70.1195 48.6752 70.1183 48.7047 70.1256C48.7913 70.147 48.85 70.2235 48.8753 70.3553C48.9052 70.4998 48.9088 70.6243 48.9121 70.734C48.9151 70.8299 48.9179 70.9123 48.938 70.9724C48.9769 71.0834 49.0906 71.147 49.2352 71.2187L49.6016 71.3962Z" fill="#5FBA8E"/>
<path d="M49.3292 69.8766L49.2715 69.3612L49.2979 69.3221C49.4199 69.1414 49.4822 68.965 49.4829 68.7975C49.483 68.7709 49.4818 68.7442 49.4805 68.7171C49.4756 68.6096 49.4693 68.476 49.539 68.3202C49.5781 68.2333 49.6878 68.0322 49.8528 68.0571C49.8973 68.0633 49.9309 68.0837 49.9564 68.1076C49.9601 68.1017 49.964 68.0957 49.9681 68.0892C50.0195 68.0108 50.0602 67.9772 50.0994 67.9449C50.1295 67.92 50.1606 67.8944 50.2094 67.8336C50.2308 67.807 50.2474 67.7836 50.2615 67.7639C50.3042 67.7045 50.3599 67.6335 50.4582 67.6348C50.5632 67.6398 50.6182 67.7266 50.6547 67.7841C50.7198 67.8866 50.7493 67.9606 50.7688 68.0096C50.7759 68.0275 50.784 68.0477 50.7881 68.0539C50.8219 68.1037 51.0971 68.0571 51.2007 68.0402C51.4335 68.0014 51.635 67.9678 51.718 68.1146C51.7775 68.2196 51.7333 68.3585 51.5827 68.5384C51.5358 68.5944 51.4859 68.637 51.4416 68.6703C51.4783 68.6922 51.5112 68.7258 51.5245 68.7786C51.5559 68.9035 51.4485 69.0287 51.2055 69.1511C51.1451 69.1818 51.0638 69.2226 50.95 69.2422C50.8964 69.2514 50.8481 69.2537 50.8068 69.2549C50.8059 69.2788 50.8003 69.3047 50.7857 69.3313C50.7431 69.4097 50.6542 69.4471 50.5203 69.4381C50.373 69.4304 50.2517 69.4023 50.1446 69.3776C50.0512 69.3562 49.9707 69.3381 49.9075 69.3423C49.7903 69.3517 49.6999 69.4456 49.5939 69.5673L49.3292 69.8766Z" fill="#5FBA8E"/>
<path d="M49.8624 79.8812L49.7544 79.8135L49.6285 79.8279C49.6265 79.8162 49.6196 79.7894 49.6093 79.7473C49.5529 79.5168 49.3811 78.8155 49.2377 77.711C49.1377 76.94 49.0811 76.1474 49.0694 75.3547C49.0577 74.5609 49.0953 73.9598 49.1254 73.4768C49.1481 73.1124 49.1758 72.7655 49.2029 72.4275C49.2751 71.5246 49.3431 70.6718 49.2925 69.7275C49.2813 69.5168 49.2578 69.078 49.0014 68.6111C48.8527 68.3403 48.6479 68.0999 48.3926 67.8969L48.5514 67.6973C48.8332 67.9217 49.0598 68.188 49.2249 68.4887C49.5091 69.0063 49.5348 69.4844 49.5471 69.7141C49.5986 70.675 49.5298 71.5361 49.4569 72.4477C49.43 72.7844 49.4024 73.1298 49.3797 73.4927C49.3499 73.9713 49.3126 74.5671 49.3242 75.3508C49.3357 76.134 49.3917 76.9169 49.4903 77.6782C49.632 78.7687 49.8013 79.4596 49.8569 79.6866C49.8865 79.8078 49.8928 79.8332 49.8624 79.8812Z" fill="#5FBA8E"/>
<path d="M47.9236 68.3027C47.9131 68.3027 47.9026 68.3024 47.8919 68.3017C47.6748 68.29 47.4739 68.1601 47.2944 67.9157C47.2103 67.8007 47.1673 67.6696 47.0814 67.408C47.0681 67.3677 47.0034 67.1631 46.9641 66.8816C46.9383 66.6977 46.9416 66.6208 46.978 66.5529C47.0185 66.4772 47.0839 66.4245 47.1576 66.3889C47.1543 66.3645 47.1569 66.3394 47.1675 66.3137C47.211 66.2075 47.3264 66.2214 47.3889 66.2281C47.4205 66.2321 47.4599 66.2373 47.5025 66.2351C47.5694 66.2318 47.6054 66.2119 47.6599 66.1821C47.7121 66.1534 47.7769 66.1179 47.8731 66.0982C48.0627 66.0586 48.2216 66.1124 48.274 66.1301C48.5496 66.2219 48.6855 66.4362 48.8428 66.6843C48.8742 66.7341 48.9818 66.9152 49.0528 67.1636C49.1041 67.3428 49.0969 67.4224 49.0815 67.4817C49.0501 67.6034 48.9761 67.673 48.788 67.8268C48.5917 67.9879 48.4931 68.0685 48.4085 68.1175C48.2115 68.2313 48.0878 68.3027 47.9236 68.3027Z" fill="#5FBA8E"/>
<path d="M128.926 70.8415C128.84 70.6967 128.468 70.8517 128.4 70.7204C128.332 70.5894 128.677 70.39 128.874 69.9343C128.91 69.8521 129.134 69.3342 128.968 69.1744C128.654 68.8716 127.215 70.1215 126.711 69.7125C126.601 69.6227 126.524 69.4435 126.189 69.1525C126.056 69.0368 125.976 68.9845 125.898 69.004C125.787 69.0316 125.779 69.1794 125.66 69.4701C125.483 69.9061 125.378 69.8798 125.274 70.2277C125.197 70.4859 125.215 70.636 125.124 70.6653C124.996 70.7067 124.879 70.4328 124.716 70.4573C124.551 70.4823 124.451 70.8012 124.419 71.04C124.36 71.4881 124.525 71.7838 124.616 72.0947C124.715 72.4325 124.774 72.9463 124.545 73.6737L122.279 80.0568C122.779 78.747 124.228 75.1565 124.836 73.8223C125.012 73.4371 125.206 73.0465 125.604 72.8923C125.987 72.7438 126.514 72.8324 127.185 72.6707C127.264 72.6518 127.481 72.5965 127.509 72.4685C127.531 72.3627 127.403 72.3036 127.423 72.2045C127.45 72.0716 127.701 72.07 128.01 71.9166C128.229 71.8085 128.364 71.6799 128.481 71.5693C128.516 71.536 129.04 71.0342 128.926 70.8415Z" fill="#F2F2F2"/>
<path d="M120.015 74.2041C119.919 74.2044 119.888 74.4315 119.804 74.4271C119.72 74.4227 119.721 74.1958 119.555 73.9675C119.525 73.9263 119.335 73.667 119.209 73.7023C118.969 73.7692 119.168 74.836 118.822 74.9651C118.746 74.9934 118.636 74.9796 118.396 75.0598C118.301 75.0917 118.252 75.1161 118.239 75.1599C118.221 75.2221 118.291 75.2691 118.399 75.4111C118.562 75.6241 118.519 75.6681 118.66 75.8193C118.764 75.9315 118.843 75.9662 118.831 76.019C118.815 76.0938 118.646 76.0725 118.612 76.1592C118.576 76.2476 118.704 76.3888 118.812 76.4732C119.015 76.6316 119.207 76.6361 119.386 76.681C119.581 76.7299 119.85 76.8493 120.141 77.1715L122.62 80.1251C122.121 79.5017 120.777 77.755 120.298 77.0713C120.159 76.874 120.024 76.6661 120.063 76.4261C120.101 76.1951 120.296 75.9622 120.41 75.586C120.424 75.5421 120.459 75.4193 120.404 75.369C120.359 75.3273 120.293 75.3731 120.25 75.3349C120.193 75.2836 120.264 75.1596 120.278 74.9635C120.288 74.8253 120.264 74.7215 120.244 74.6323C120.237 74.6053 120.142 74.2036 120.015 74.2041Z" fill="#F2F2F2"/>
<path d="M121.923 74.6325L121.865 74.1171L121.892 74.078C122.014 73.8973 122.076 73.7209 122.077 73.5534C122.077 73.5267 122.076 73.5001 122.074 73.473C122.069 73.3655 122.063 73.2318 122.133 73.076C122.172 72.9892 122.282 72.7881 122.447 72.813C122.491 72.8192 122.525 72.8396 122.55 72.8635C122.554 72.8575 122.558 72.8516 122.562 72.8451C122.613 72.7667 122.654 72.7331 122.693 72.7007C122.723 72.6758 122.754 72.6502 122.803 72.5895C122.825 72.5629 122.841 72.5395 122.855 72.5198C122.898 72.4603 122.954 72.3894 123.052 72.3906C123.157 72.3956 123.212 72.4825 123.248 72.54C123.314 72.6425 123.343 72.7164 123.363 72.7654C123.37 72.7834 123.378 72.8035 123.382 72.8097C123.416 72.8595 123.691 72.813 123.794 72.796C124.027 72.7572 124.229 72.7236 124.312 72.8705C124.371 72.9755 124.327 73.1144 124.176 73.2943C124.13 73.3503 124.08 73.3928 124.035 73.4262C124.072 73.4481 124.105 73.4817 124.118 73.5344C124.15 73.6594 124.042 73.7846 123.799 73.907C123.739 73.9376 123.658 73.9784 123.544 73.9981C123.49 74.0073 123.442 74.0095 123.401 74.0108C123.4 74.0347 123.394 74.0606 123.379 74.0872C123.337 74.1656 123.248 74.2029 123.114 74.194C122.967 74.1862 122.845 74.1581 122.738 74.1335C122.645 74.1121 122.564 74.0939 122.501 74.0981C122.384 74.1076 122.294 74.2014 122.188 74.3231L121.923 74.6325Z" fill="#F2F2F2"/>
<path d="M122.195 71.5642L121.711 71.7508L121.667 71.7352C121.461 71.6629 121.275 71.6475 121.113 71.6892C121.087 71.6959 121.061 71.7038 121.035 71.7119C120.933 71.744 120.805 71.7839 120.637 71.756C120.543 71.7403 120.32 71.6851 120.303 71.5192C120.297 71.4747 120.308 71.437 120.325 71.4062C120.318 71.4041 120.312 71.4019 120.304 71.3996C120.215 71.3698 120.173 71.3389 120.131 71.3092C120.1 71.2864 120.067 71.2628 119.996 71.231C119.965 71.2171 119.938 71.2069 119.915 71.1983C119.847 71.1721 119.764 71.1362 119.74 71.0408C119.719 70.9379 119.789 70.8627 119.835 70.8128C119.918 70.7239 119.982 70.6766 120.024 70.6453C120.04 70.6338 120.057 70.6209 120.062 70.6154C120.102 70.57 119.987 70.3157 119.944 70.2197C119.848 70.0043 119.764 69.818 119.885 69.7005C119.972 69.6163 120.117 69.6238 120.329 69.7238C120.395 69.755 120.449 69.7924 120.493 69.8268C120.505 69.7858 120.529 69.7455 120.576 69.7192C120.689 69.6572 120.838 69.7293 121.018 69.9333C121.063 69.9839 121.123 70.0522 121.171 70.1573C121.193 70.2069 121.208 70.253 121.219 70.2927C121.243 70.2874 121.269 70.2863 121.298 70.2936C121.385 70.315 121.444 70.3915 121.469 70.5233C121.499 70.6677 121.503 70.7922 121.506 70.902C121.509 70.9978 121.512 71.0803 121.532 71.1404C121.571 71.2514 121.684 71.315 121.829 71.3866L122.195 71.5642Z" fill="#F2F2F2"/>
<path d="M121.923 70.0446L121.865 69.5292L121.892 69.4901C122.014 69.3094 122.076 69.133 122.077 68.9655C122.077 68.9388 122.076 68.9122 122.074 68.8851C122.069 68.7776 122.063 68.6439 122.133 68.4881C122.172 68.4013 122.282 68.2002 122.447 68.2251C122.491 68.2313 122.525 68.2517 122.55 68.2756C122.554 68.2696 122.558 68.2637 122.562 68.2572C122.613 68.1788 122.654 68.1452 122.693 68.1128C122.723 68.088 122.754 68.0623 122.803 68.0016C122.825 67.975 122.841 67.9516 122.855 67.9319C122.898 67.8724 122.954 67.8015 123.052 67.8028C123.157 67.8077 123.212 67.8946 123.248 67.9521C123.314 68.0546 123.343 68.1285 123.363 68.1776C123.37 68.1955 123.378 68.2156 123.382 68.2218C123.416 68.2716 123.691 68.2251 123.794 68.2082C124.027 68.1693 124.229 68.1357 124.312 68.2826C124.371 68.3876 124.327 68.5265 124.176 68.7064C124.13 68.7624 124.08 68.8049 124.035 68.8383C124.072 68.8602 124.105 68.8938 124.118 68.9466C124.15 69.0715 124.042 69.1967 123.799 69.3191C123.739 69.3497 123.658 69.3905 123.544 69.4102C123.49 69.4194 123.442 69.4217 123.401 69.4229C123.4 69.4468 123.394 69.4727 123.379 69.4993C123.337 69.5777 123.248 69.615 123.114 69.6061C122.967 69.5984 122.845 69.5702 122.738 69.5456C122.645 69.5242 122.564 69.506 122.501 69.5102C122.384 69.5197 122.294 69.6135 122.188 69.7352L121.923 70.0446Z" fill="#F2F2F2"/>
<path d="M122.456 80.0492L122.348 79.9815L122.222 79.9959C122.22 79.9842 122.213 79.9573 122.203 79.9153C122.147 79.6848 121.975 78.9835 121.831 77.879C121.731 77.108 121.675 76.3154 121.663 75.5227C121.651 74.7288 121.689 74.1278 121.719 73.6447C121.742 73.2804 121.77 72.9335 121.797 72.5955C121.869 71.6926 121.937 70.8397 121.886 69.8955C121.875 69.6847 121.852 69.246 121.595 68.7791C121.446 68.5083 121.242 68.2679 120.986 68.0648L121.145 67.8652C121.427 68.0897 121.654 68.356 121.819 68.6566C122.103 69.1743 122.129 69.6524 122.141 69.8821C122.192 70.843 122.124 71.7041 122.051 72.6157C122.024 72.9524 121.996 73.2978 121.973 73.6607C121.944 74.1392 121.906 74.735 121.918 75.5187C121.929 76.3019 121.985 77.0849 122.084 77.8462C122.226 78.9367 122.395 79.6276 122.451 79.8545C122.48 79.9757 122.487 80.0011 122.456 80.0492Z" fill="#F2F2F2"/>
<path d="M120.517 68.4707C120.507 68.4707 120.496 68.4704 120.486 68.4697C120.269 68.458 120.068 68.3281 119.888 68.0837C119.804 67.9687 119.761 67.8375 119.675 67.576C119.662 67.5357 119.597 67.3311 119.558 67.0496C119.532 66.8657 119.535 66.7888 119.572 66.7209C119.612 66.6452 119.678 66.5924 119.751 66.5568C119.748 66.5325 119.751 66.5073 119.761 66.4817C119.805 66.3754 119.92 66.3894 119.983 66.3961C120.014 66.4001 120.054 66.4053 120.096 66.403C120.163 66.3998 120.199 66.3799 120.254 66.35C120.306 66.3214 120.371 66.2858 120.467 66.2662C120.656 66.2266 120.815 66.2804 120.868 66.298C121.143 66.3899 121.279 66.6041 121.437 66.8523C121.468 66.902 121.576 67.0832 121.647 67.3316C121.698 67.5108 121.691 67.5904 121.675 67.6496C121.644 67.7713 121.57 67.841 121.382 67.9948C121.185 68.1558 121.087 68.2365 121.002 68.2855C120.805 68.3992 120.682 68.4707 120.517 68.4707Z" fill="#F2F2F2"/>
<path d="M130.127 79.8167C130.127 79.8924 130.066 79.9537 129.99 79.9537H35.0176V79.6797H129.99C130.066 79.6797 130.127 79.741 130.127 79.8167Z" fill="#E6E6E6"/>
<path d="M115.819 79.8051C115.819 86.0214 116.471 90.5714 109.702 91.0608C102.432 91.5863 103.584 86.0214 103.584 79.8051C103.584 73.5887 102.606 67.4074 109.702 68.5493C113.037 69.0861 115.819 73.5887 115.819 79.8051Z" fill="#3F3D56"/>
<path d="M105.539 87.6348C106.08 87.6348 106.518 84.1291 106.518 79.8047C106.518 75.4803 106.08 71.9746 105.539 71.9746C104.999 71.9746 104.561 75.4803 104.561 79.8047C104.561 84.1291 104.999 87.6348 105.539 87.6348Z" fill="#E6E6E6"/>
<path d="M66.8224 69.7943C66.8224 75.2802 67.3983 79.2954 61.4241 79.7273C55.0089 80.1911 56.0257 75.2802 56.0257 69.7943C56.0257 64.3085 55.162 58.8536 61.4241 59.8613C64.3676 60.335 66.8224 64.3085 66.8224 69.7943Z" fill="#3F3D56"/>
<path d="M57.7524 76.7046C58.2294 76.7046 58.6161 73.6109 58.6161 69.7947C58.6161 65.9784 58.2294 62.8848 57.7524 62.8848C57.2754 62.8848 56.8887 65.9784 56.8887 69.7947C56.8887 73.6109 57.2754 76.7046 57.7524 76.7046Z" fill="#E6E6E6"/>
<path d="M76.0962 79.725C76.0962 85.9414 76.7487 90.4914 69.9789 90.9807C62.7095 91.5062 63.8617 85.9414 63.8617 79.725C63.8617 73.5086 62.8829 67.3274 69.9789 68.4692C73.3145 69.006 76.0962 73.5086 76.0962 79.725Z" fill="#3F3D56"/>
<path d="M65.8167 87.5547C66.3572 87.5547 66.7954 84.049 66.7954 79.7246C66.7954 75.4002 66.3572 71.8945 65.8167 71.8945C65.2761 71.8945 64.8379 75.4002 64.8379 79.7246C64.8379 84.049 65.2761 87.5547 65.8167 87.5547Z" fill="#E6E6E6"/>
<path d="M56.7693 56.6403V60.4988L55.709 62.2682L56.0352 68.467L56.2992 68.6301L56.1168 62.3498C57.9753 61.6578 58.5831 62.9323 58.4006 65.4492L58.0743 69.6905L63.2944 72.953L63.9469 66.2648L66.3938 65.1229L69.0854 76.4602H114.182C116.04 76.4602 117.526 74.9133 117.451 73.0559L116.881 59.0057L115.346 57.4701L113.923 41.0164C113.569 36.9131 110.089 33.7901 105.972 33.8788L77.7617 34.4868C76.2313 34.5198 74.7193 34.8279 73.298 35.3964L66.4753 38.1254L62.0716 42.5292L61.4184 53.1331L59.7533 52.9883C58.5555 52.8842 57.4631 53.6758 57.1892 54.8464L56.7693 56.6403Z" fill="#E6E6E6"/>
<path d="M71.3676 71.8914C72.2685 71.8914 72.9989 71.1611 72.9989 70.2602C72.9989 69.3592 72.2685 68.6289 71.3676 68.6289C70.4667 68.6289 69.7363 69.3592 69.7363 70.2602C69.7363 71.1611 70.4667 71.8914 71.3676 71.8914Z" fill="#3F3D56"/>
<path d="M75.1176 71.8914C76.0185 71.8914 76.7489 71.1611 76.7489 70.2602C76.7489 69.3592 76.0185 68.6289 75.1176 68.6289C74.2167 68.6289 73.4863 69.3592 73.4863 70.2602C73.4863 71.1611 74.2167 71.8914 75.1176 71.8914Z" fill="#3F3D56"/>
<path d="M111.657 71.8914C112.558 71.8914 113.288 71.1611 113.288 70.2602C113.288 69.3592 112.558 68.6289 111.657 68.6289C110.756 68.6289 110.025 69.3592 110.025 70.2602C110.025 71.1611 110.756 71.8914 111.657 71.8914Z" fill="#3F3D56"/>
<path d="M115.411 71.8914C116.311 71.8914 117.042 71.1611 117.042 70.2602C117.042 69.3592 116.311 68.6289 115.411 68.6289C114.51 68.6289 113.779 69.3592 113.779 70.2602C113.779 71.1611 114.51 71.8914 115.411 71.8914Z" fill="#3F3D56"/>
<path d="M112.859 54.939H74.5092C74.216 54.939 73.9431 54.8223 73.7408 54.6101C73.5385 54.3979 73.4346 54.1197 73.4485 53.8269L74.0088 41.9799C74.0353 41.4197 74.4953 40.9753 75.0559 40.9681L111.267 40.502C111.802 40.4969 112.266 40.8934 112.334 41.4288L113.913 53.742C113.951 54.0445 113.858 54.3495 113.657 54.5785C113.455 54.8076 113.164 54.939 112.859 54.939Z" fill="white"/>
<path d="M69.1576 54.3583H66.6693C66.3741 54.3583 66.0899 54.234 65.8895 54.0172C65.6891 53.8004 65.5875 53.5073 65.6107 53.2129L66.3269 44.1234C66.3662 43.6243 66.7397 43.2262 67.2353 43.1554L69.8066 42.7881C70.1286 42.7424 70.4492 42.8438 70.6858 43.0672C70.9224 43.2907 71.0424 43.6047 71.015 43.9289L70.2158 53.3858C70.169 53.9401 69.714 54.3583 69.1576 54.3583Z" fill="white"/>
<path d="M63.4361 54.1244C63.4104 54.1244 63.3845 54.1235 63.3586 54.1217L63.0665 54.1008C62.7779 54.0801 62.5162 53.947 62.3298 53.7257C62.1435 53.5043 62.0567 53.2239 62.0855 52.9359L62.8892 44.898C62.9369 44.4222 63.2995 44.0349 63.7714 43.9562C64.0929 43.9022 64.416 43.9972 64.6578 44.2158C64.8996 44.434 65.0264 44.7458 65.0057 45.0709L64.4941 53.1297C64.476 53.4144 64.3477 53.6745 64.1328 53.8622C63.9376 54.0328 63.6927 54.1244 63.4361 54.1244Z" fill="white"/>
<path d="M59.3929 70.5281L58.9697 61.2928C58.9697 61.2928 57.9909 59.9878 57.3384 60.3141C56.6859 60.6403 55.7168 62.4546 55.7168 62.4546C55.7168 62.4546 57.6081 62.3307 57.5548 64.3402C57.5016 66.3498 57.8789 69.6008 57.8789 69.6008L59.3929 70.5281Z" fill="#CCCCCC"/>
<path d="M63.3301 72.939L63.535 66.0492L65.6101 63.5984C65.6101 63.5984 68.3832 62.9992 68.3245 66.1416C68.2657 69.2841 69.1629 76.5432 69.1629 76.5432L67.1351 75.2696C67.1351 75.2696 66.6344 67.4897 65.1663 66.6741C63.6981 65.8584 64.1875 66.5109 64.1875 66.5109L63.3301 72.939Z" fill="#CCCCCC"/>
<path d="M61.1682 55.2754L59.5605 54.3567H59.7361C59.9868 54.3567 60.1901 54.1534 60.1901 53.9026V49.9169C60.1901 49.6662 59.9868 49.4629 59.7361 49.4629H58.0341C57.7834 49.4629 57.5801 49.6662 57.5801 49.9169V53.9026C57.5801 54.1534 57.7834 54.3567 58.0341 54.3567H58.903L61.0064 55.5586L61.1682 55.2754Z" fill="#3F3D56"/>
<path d="M63.34 61.2489L62.0858 60.8883C61.7828 60.8011 61.4665 60.9761 61.3793 61.2792C61.2922 61.5822 61.4672 61.8985 61.7702 61.9857L63.0244 62.3463C63.3275 62.4335 63.6438 62.2585 63.7309 61.9554C63.8181 61.6524 63.643 61.3361 63.34 61.2489Z" fill="#3F3D56"/>
<path d="M114.435 49.6682L109.072 49.4367C108.757 49.4231 108.491 49.6675 108.477 49.9825C108.464 50.2976 108.708 50.564 109.023 50.5776L114.386 50.809C114.701 50.8226 114.967 50.5783 114.981 50.2633C114.994 49.9482 114.75 49.6818 114.435 49.6682Z" fill="#3F3D56"/>
<path d="M119.49 60.4338L114.127 60.2024C113.812 60.1888 113.546 60.4331 113.532 60.7481C113.518 61.0632 113.763 61.3296 114.078 61.3432L119.441 61.5747C119.756 61.5883 120.022 61.3439 120.036 61.0289C120.049 60.7139 119.805 60.4474 119.49 60.4338Z" fill="#3F3D56"/>
<path d="M97.6261 72.8734C104.473 72.8734 110.024 67.3228 110.024 60.4758C110.024 53.6287 104.473 48.0781 97.6261 48.0781C90.7791 48.0781 85.2285 53.6287 85.2285 60.4758C85.2285 67.3228 90.7791 72.8734 97.6261 72.8734Z" fill="#3F3D56"/>
<path d="M97.6278 67.8142C101.682 67.8142 104.969 64.5277 104.969 60.4735C104.969 56.4194 101.682 53.1328 97.6278 53.1328C93.5737 53.1328 90.2871 56.4194 90.2871 60.4735C90.2871 64.5277 93.5737 67.8142 97.6278 67.8142Z" fill="#E6E6E6"/>
<path d="M114.057 35.8566C114.119 36.5803 114.543 37.1347 115.004 37.095C115.464 37.0552 115.787 36.4363 115.725 35.7124C115.704 35.4229 115.614 35.1426 115.462 34.895L115.159 31.832L113.725 32.0049L114.176 35.0061C114.069 35.276 114.028 35.5677 114.057 35.8566Z" fill="#FFB6B6"/>
<path d="M109.904 18.1249C109.904 18.1249 111.487 17.6791 112.095 18.4339C112.704 19.1886 114.973 26.6006 114.973 26.6006L115.677 34.5777L113.431 33.8978L112.556 27.6068L111.088 24.3442L109.904 18.1249Z" fill="#8EDB9B"/>
<path d="M109.384 13.3223H104.561V17.8961H109.384V13.3223Z" fill="#2F2E41"/>
<path d="M106.916 15.653C108.215 15.653 109.268 14.6 109.268 13.3012C109.268 12.0024 108.215 10.9495 106.916 10.9495C105.617 10.9495 104.564 12.0024 104.564 13.3012C104.564 14.6 105.617 15.653 106.916 15.653Z" fill="#FFB6B6"/>
<path d="M105.807 9.49799C104.304 9.73063 104.375 10.2891 103.894 10.5791C103.046 11.0899 102.712 12.5649 103.159 13.5383C103.279 13.7984 103.531 14.1531 103.409 14.5362C103.315 14.8303 103.044 15.0038 102.993 15.0352C102.577 15.2923 102.849 14.9864 102.66 15.2015C102.453 15.4389 102.775 15.7743 102.577 16.1994C102.402 16.5764 102.042 16.5445 101.995 16.7816C101.915 17.1897 102.84 18.0103 103.825 17.9458C104.702 17.8884 105.353 17.1471 105.571 16.4489C105.717 15.9813 105.78 15.1769 105.405 14.7857C105.352 14.7308 105.208 14.598 105.072 14.3699C104.964 14.1894 104.823 13.9518 104.906 13.7878C104.994 13.613 105.245 13.705 105.405 13.5383C105.621 13.3122 105.364 12.9302 105.405 12.5404C105.474 11.8802 106.409 11.0863 107.401 11.2098C108.525 11.3499 108.938 12.573 108.981 12.7067C109.069 12.9837 109.067 13.2517 109.064 13.7878C109.059 14.557 109.056 15.0392 108.814 15.5341C108.467 16.2461 108.025 16.1692 107.9 16.6984C107.704 17.5236 108.626 18.3523 108.731 18.4448C109.513 19.1303 110.694 19.3364 110.893 19.0269C111.073 18.748 110.285 18.3142 110.311 17.4468C110.334 16.6952 110.942 16.4661 110.81 15.95C110.665 15.3818 109.89 15.5114 109.563 14.8689C109.257 14.2691 109.82 13.9364 109.729 12.7067C109.71 12.4466 109.628 11.7 109.147 10.9603C108.935 10.6344 108.719 10.303 108.315 10.1287C107.863 9.93354 106.602 9.37494 105.807 9.49799Z" fill="#2F2E41"/>
<path d="M104.81 11.5781C104.871 12.093 105.645 12.3454 105.975 12.4097C106.114 12.4369 106.587 12.5289 107.056 12.3265C107.229 12.2517 107.292 12.1841 107.472 12.1602C107.714 12.1279 107.837 12.2202 108.22 12.3265C108.646 12.4448 108.86 12.5039 108.968 12.4097C109.146 12.2557 109.01 11.752 108.802 11.4118C108.418 10.7827 107.716 10.5879 107.388 10.497C107.014 10.3932 106.255 10.1825 105.559 10.5802C105.466 10.6333 104.748 11.0549 104.81 11.5781Z" fill="#2F2E41"/>
<path d="M116.264 57.8456L117.464 57.8739L118.133 52.4814L116.362 52.4395L116.264 57.8456Z" fill="#FFB6B6"/>
<path d="M120.379 60.3501C120.379 60.5529 120.235 60.7173 120.057 60.7173H117.675C117.675 60.7173 117.44 59.7748 116.484 59.3692L116.419 60.7173H115.189L115.338 58.5497C115.338 58.5497 115.01 57.39 115.692 56.7972C116.375 56.2044 115.822 56.2869 115.822 56.2869L116.091 54.9453L117.948 55.1637L117.962 57.2697L118.863 59.3601L120.185 60.0131C120.303 60.0713 120.379 60.2037 120.379 60.3501Z" fill="#2F2E41"/>
<path d="M110.801 47.2833L111.975 47.0306L111.367 41.6309L109.635 42.0036L110.801 47.2833Z" fill="#FFB6B6"/>
<path d="M115.391 48.7589C115.439 48.956 115.337 49.1495 115.165 49.1909L112.848 49.7471C112.848 49.7471 112.4 48.8854 111.376 48.7142L111.626 50.0404L110.431 50.3273L110.07 48.1848C110.07 48.1848 109.479 47.1339 110.005 46.3981C110.531 45.6623 110.012 45.8716 110.012 45.8716L109.96 44.5044L111.817 44.2832L112.322 46.3278L113.686 48.15L115.124 48.4764C115.252 48.5055 115.357 48.6165 115.391 48.7589Z" fill="#2F2E41"/>
<path d="M108.564 15.9414L105.628 16.1045L104.812 17.7358L101.713 19.3671L102.202 27.411L101.084 31.4569L101.223 32.5803L112.153 32.2541L111.5 20.1827L111.664 18.2252L109.543 17.5727L108.564 15.9414Z" fill="#8EDB9B"/>
<path d="M101.3 31.0285C101.3 31.0285 98.8535 35.352 101.3 35.9634C102.389 36.2354 103.542 36.4187 104.487 36.5384C105.618 36.6816 106.659 35.9051 106.847 34.7804L109.457 43.7524L112.067 43.0999L112.556 38.4296L115.727 41.6009L115.329 54.3556L118.266 54.1925L121.365 40.3267C121.365 40.3267 121.528 39.348 119.081 38.043C116.634 36.738 112.23 32.4967 112.23 32.4967L104.726 30.2129L101.3 31.0285Z" fill="#2F2E41"/>
<path d="M106.439 33.8842L102.197 31.1111L107.417 25.5648C107.417 25.5648 110.354 24.4229 111.169 28.8273C111.985 33.2317 112.474 37.1468 112.474 37.1468L106.439 33.8842Z" fill="#2F2E41"/>
<path d="M97.6852 25.6085L97.8711 24.3446C98.0065 23.4234 97.3955 22.6196 96.567 22.4217V21.8977C96.567 21.4472 96.2018 21.082 95.7513 21.082C95.3009 21.082 94.9357 21.4472 94.9357 21.8977V22.5966L91.8363 23.2541V22.387C91.8363 21.9366 91.4711 21.5714 91.0206 21.5714C90.5702 21.5714 90.205 21.9366 90.205 22.387V23.2111L89.8969 23.1307C88.9767 22.8907 88.2498 23.9464 88.8221 24.7059C88.8295 24.7157 88.837 24.7255 88.8447 24.7354C89.6087 25.7176 89.8269 26.5908 89.8269 26.5908L89.2812 29.5376L89.9028 35.6643C89.9829 36.4539 90.6625 37.0456 91.4556 37.0162L97.4902 36.7927C98.2827 36.7634 98.9172 36.1243 98.9388 35.3316C99.0156 32.5077 99.0245 26.3618 97.6852 25.6085Z" fill="#3F3D56"/>
<path d="M92.2814 36.192C92.1968 36.192 92.1253 36.1268 92.1189 36.041L91.7915 31.6753C91.7847 31.5855 91.8521 31.5072 91.9419 31.5005C92.031 31.4935 92.1101 31.5611 92.1168 31.651L92.4442 36.0167C92.451 36.1065 92.3836 36.1848 92.2938 36.1915C92.2896 36.1918 92.2855 36.192 92.2814 36.192Z" fill="#FFB6B6"/>
<path d="M89.825 26.7551C89.7454 26.7551 89.6757 26.6967 89.6639 26.6156C89.6508 26.5265 89.7124 26.4436 89.8016 26.4306L97.6853 25.2751C97.7745 25.2622 97.8573 25.3237 97.8704 25.4129C97.8834 25.502 97.8218 25.5848 97.7327 25.5979L89.8489 26.7533C89.8408 26.7545 89.8329 26.7551 89.825 26.7551Z" fill="#FFB6B6"/>
<path d="M43.5142 74.0167C43.4593 73.924 43.2215 74.0232 43.1778 73.9391C43.1342 73.8553 43.3551 73.7276 43.4813 73.4359C43.5041 73.3833 43.6475 73.0518 43.5414 72.9496C43.3401 72.7557 42.4191 73.5558 42.0968 73.2939C42.0261 73.2365 41.9767 73.1218 41.7626 72.9355C41.6774 72.8614 41.6259 72.828 41.5761 72.8404C41.5054 72.8581 41.4998 72.9527 41.424 73.1388C41.3102 73.4179 41.243 73.4011 41.1767 73.6237C41.1275 73.789 41.1388 73.8851 41.0809 73.9039C40.999 73.9303 40.9236 73.755 40.8198 73.7707C40.7139 73.7867 40.6498 73.9909 40.6296 74.1437C40.5916 74.4305 40.697 74.6198 40.7553 74.8188C40.8188 75.0351 40.8564 75.364 40.7099 75.8296L39.2598 79.9154C39.5799 79.077 40.5069 76.7787 40.8964 75.9247C41.0089 75.6781 41.133 75.4281 41.388 75.3294C41.6334 75.2343 41.9705 75.2911 42.4002 75.1875C42.4504 75.1755 42.5897 75.14 42.6072 75.0581C42.6217 74.9904 42.5398 74.9526 42.5524 74.8891C42.5693 74.8041 42.7304 74.803 42.9283 74.7049C43.0679 74.6356 43.1549 74.5533 43.2297 74.4825C43.2522 74.4612 43.5874 74.14 43.5142 74.0167Z" fill="#8EDB9B"/>
<path d="M37.8083 76.169C37.7469 76.1693 37.727 76.3146 37.6732 76.3118C37.6195 76.309 37.6205 76.1637 37.5138 76.0176C37.4945 75.9913 37.3732 75.8252 37.2924 75.8478C37.1392 75.8906 37.2661 76.5735 37.0446 76.6562C36.996 76.6743 36.9254 76.6655 36.7723 76.7168C36.7113 76.7372 36.6801 76.7528 36.6718 76.7809C36.66 76.8207 36.7049 76.8507 36.7743 76.9417C36.8785 77.078 36.8508 77.1061 36.941 77.2029C37.0079 77.2747 37.0583 77.297 37.0508 77.3308C37.0402 77.3786 36.9324 77.365 36.9101 77.4205C36.8875 77.4771 36.9692 77.5675 37.0383 77.6215C37.1682 77.7229 37.2914 77.7258 37.406 77.7545C37.5304 77.7858 37.7027 77.8622 37.889 78.0685L39.4759 79.9591C39.1568 79.5601 38.2962 78.442 37.9894 78.0044C37.9009 77.8781 37.814 77.745 37.8391 77.5914C37.8633 77.4435 37.9884 77.2944 38.0615 77.0536C38.0701 77.0255 38.0929 76.9469 38.0577 76.9147C38.0287 76.888 37.9865 76.9173 37.959 76.8928C37.9221 76.86 37.9681 76.7806 37.977 76.6552C37.9833 76.5667 37.968 76.5002 37.9548 76.4431C37.9509 76.4259 37.89 76.1687 37.8083 76.169Z" fill="#8EDB9B"/>
<path d="M39.0311 76.4448L38.9941 76.1149L39.011 76.0899C39.0892 75.9742 39.129 75.8613 39.1295 75.754C39.1295 75.737 39.1288 75.72 39.128 75.7026C39.1248 75.6338 39.1208 75.5482 39.1654 75.4485C39.1904 75.3929 39.2607 75.2642 39.3663 75.2801C39.3947 75.2841 39.4162 75.2972 39.4325 75.3125L39.44 75.3007C39.4729 75.2505 39.499 75.229 39.5241 75.2083C39.5433 75.1923 39.5633 75.1759 39.5945 75.1371C39.6082 75.12 39.6188 75.105 39.6279 75.0925C39.6552 75.0544 39.6909 75.009 39.7538 75.0098C39.821 75.013 39.8562 75.0686 39.8796 75.1054C39.9212 75.171 39.9401 75.2183 39.9526 75.2497C39.9571 75.2612 39.9623 75.2741 39.9649 75.278C39.9866 75.3099 40.1627 75.2801 40.2291 75.2693C40.3781 75.2444 40.507 75.2229 40.5602 75.3169C40.5982 75.3841 40.57 75.473 40.4736 75.5882C40.4436 75.6241 40.4116 75.6513 40.3833 75.6726C40.4068 75.6867 40.4278 75.7082 40.4363 75.7419C40.4564 75.8219 40.3876 75.902 40.2321 75.9804C40.1935 76 40.1414 76.0261 40.0686 76.0387C40.0342 76.0446 40.0033 76.046 39.9769 76.0468C39.9763 76.0621 39.9727 76.0787 39.9634 76.0957C39.9361 76.1459 39.8792 76.1698 39.7935 76.1641C39.6992 76.1592 39.6216 76.1411 39.5531 76.1254C39.4932 76.1117 39.4417 76.1 39.4012 76.1028C39.3262 76.1088 39.2684 76.1689 39.2005 76.2468L39.0311 76.4448Z" fill="#8EDB9B"/>
<path d="M39.201 74.4781L38.8912 74.5975L38.8627 74.5875C38.731 74.5413 38.6117 74.5314 38.5079 74.5581C38.4914 74.5624 38.4751 74.5675 38.4585 74.5726C38.3927 74.5932 38.311 74.6187 38.2032 74.6009C38.1431 74.5908 38.0007 74.5555 37.9894 74.4493C37.986 74.4208 37.9932 74.3967 38.0038 74.377L37.9905 74.3727C37.9337 74.3536 37.9062 74.3339 37.8798 74.3149C37.8596 74.3003 37.8386 74.2852 37.7931 74.2648C37.7731 74.2559 37.756 74.2494 37.7415 74.2439C37.6977 74.2271 37.6448 74.2041 37.6296 74.143C37.6156 74.0772 37.6605 74.029 37.6901 73.9971C37.7431 73.9402 37.784 73.9099 37.8112 73.8899C37.8212 73.8826 37.8323 73.8743 37.8355 73.8707C37.8608 73.8417 37.7874 73.6789 37.76 73.6175C37.6982 73.4796 37.6447 73.3603 37.7221 73.2851C37.7775 73.2312 37.8707 73.236 38.0065 73.3C38.0488 73.32 38.0833 73.344 38.1111 73.366C38.1187 73.3397 38.1342 73.3139 38.1647 73.2971C38.2369 73.2574 38.3319 73.3036 38.4472 73.4342C38.4759 73.4666 38.5144 73.5102 38.545 73.5775C38.5594 73.6093 38.5687 73.6388 38.5761 73.6642C38.5911 73.6608 38.608 73.6601 38.6269 73.6648C38.6823 73.6785 38.7199 73.7274 38.7361 73.8118C38.7552 73.9043 38.7575 73.984 38.7596 74.0542C38.7615 74.1155 38.7634 74.1683 38.7762 74.2068C38.8011 74.2778 38.8739 74.3185 38.9665 74.3644L39.201 74.4781Z" fill="#8EDB9B"/>
<path d="M39.0311 73.5053L38.9941 73.1754L39.011 73.1504C39.0892 73.0348 39.129 72.9218 39.1295 72.8146C39.1295 72.7975 39.1288 72.7805 39.128 72.7631C39.1248 72.6943 39.1208 72.6088 39.1654 72.509C39.1904 72.4535 39.2607 72.3247 39.3663 72.3407C39.3947 72.3446 39.4162 72.3577 39.4325 72.373L39.44 72.3612C39.4729 72.311 39.499 72.2895 39.5241 72.2688C39.5433 72.2529 39.5633 72.2365 39.5945 72.1976C39.6082 72.1806 39.6188 72.1656 39.6279 72.153C39.6552 72.1149 39.6909 72.0695 39.7538 72.0703C39.821 72.0735 39.8562 72.1291 39.8796 72.1659C39.9212 72.2315 39.9401 72.2789 39.9526 72.3102C39.9571 72.3217 39.9623 72.3346 39.9649 72.3386C39.9866 72.3705 40.1627 72.3407 40.2291 72.3298C40.3781 72.305 40.507 72.2835 40.5602 72.3775C40.5982 72.4447 40.57 72.5336 40.4736 72.6488C40.4436 72.6846 40.4116 72.7118 40.3833 72.7332C40.4068 72.7472 40.4278 72.7687 40.4363 72.8025C40.4564 72.8825 40.3876 72.9626 40.2321 73.041C40.1935 73.0606 40.1414 73.0867 40.0686 73.0993C40.0342 73.1052 40.0033 73.1066 39.9769 73.1074C39.9763 73.1227 39.9727 73.1392 39.9634 73.1563C39.9361 73.2065 39.8792 73.2304 39.7935 73.2246C39.6992 73.2197 39.6216 73.2017 39.5531 73.1859C39.4932 73.1722 39.4417 73.1606 39.4012 73.1633C39.3262 73.1694 39.2684 73.2294 39.2005 73.3073L39.0311 73.5053Z" fill="#8EDB9B"/>
<path d="M39.3725 79.9103L39.3033 79.867L39.2227 79.8763C39.2215 79.8688 39.2171 79.8516 39.2105 79.8246C39.1744 79.6771 39.0644 79.2282 38.9726 78.5212C38.9086 78.0277 38.8724 77.5203 38.8649 77.0129C38.8574 76.5048 38.8814 76.12 38.9007 75.8108C38.9153 75.5776 38.933 75.3555 38.9503 75.1392C38.9965 74.5613 39.0401 74.0153 39.0077 73.4109C39.0005 73.276 38.9855 72.9951 38.8214 72.6963C38.7262 72.523 38.5951 72.3691 38.4316 72.2391L38.5333 72.1113C38.7137 72.255 38.8587 72.4255 38.9644 72.6179C39.1464 72.9493 39.1628 73.2553 39.1707 73.4023C39.2036 74.0174 39.1596 74.5686 39.1129 75.1521C39.0957 75.3676 39.078 75.5888 39.0635 75.821C39.0444 76.1274 39.0206 76.5087 39.028 77.0104C39.0353 77.5117 39.0712 78.0129 39.1343 78.5002C39.225 79.1983 39.3334 79.6405 39.369 79.7858C39.3879 79.8634 39.3919 79.8796 39.3725 79.9103Z" fill="#8EDB9B"/>
<path d="M38.1308 72.4983C38.1241 72.4983 38.1174 72.4982 38.1105 72.4977C37.9716 72.4902 37.843 72.4071 37.7281 72.2506C37.6742 72.177 37.6467 72.0931 37.5917 71.9256C37.5832 71.8998 37.5418 71.7689 37.5166 71.5887C37.5001 71.471 37.5022 71.4218 37.5255 71.3783C37.5514 71.3298 37.5933 71.2961 37.6405 71.2733C37.6384 71.2577 37.6401 71.2416 37.6468 71.2252C37.6746 71.1572 37.7486 71.1661 37.7885 71.1704C37.8088 71.1729 37.834 71.1763 37.8613 71.1748C37.9041 71.1728 37.9271 71.16 37.962 71.1409C37.9954 71.1226 38.0369 71.0998 38.0985 71.0872C38.2199 71.0619 38.3216 71.0963 38.3551 71.1076C38.5315 71.1664 38.6185 71.3036 38.7192 71.4624C38.7393 71.4942 38.8082 71.6102 38.8537 71.7692C38.8865 71.8839 38.8818 71.9349 38.872 71.9728C38.8519 72.0507 38.8045 72.0953 38.6842 72.1937C38.5585 72.2968 38.4954 72.3484 38.4412 72.3798C38.3151 72.4526 38.236 72.4983 38.1308 72.4983Z" fill="#8EDB9B"/>
<path d="M134.746 55.433L134.82 49.6038L132.583 48.9883L132.651 55.4339L132.136 60.1969L132.149 60.2019C131.933 60.4189 131.758 60.7653 131.684 61.1748C131.548 61.922 131.797 62.5932 132.241 62.674C132.684 62.7547 133.154 62.2145 133.29 61.4673C133.346 61.1606 133.336 60.8675 133.275 60.6219L133.295 60.6294L134.746 55.433Z" fill="#A0616A"/>
<path d="M130.673 41.7299C130.673 41.7299 131.688 40.9534 132.405 42.0883C133.122 43.2233 135.093 48.9578 135.093 48.9578C135.093 48.9578 135.663 51.5861 135.527 51.9744C135.392 52.3626 135.212 55.78 135.212 55.78L132.412 55.272L132.479 51.9744L129.811 47.7144L130.673 41.7299Z" fill="#CCCCCC"/>
<path d="M111.915 39.6122L115.84 43.9227L117.895 42.8449L113.445 38.1813L110.57 34.3495L110.556 34.3549C110.566 34.049 110.457 33.6764 110.232 33.3263C109.822 32.6874 109.181 32.3672 108.802 32.611C108.423 32.8549 108.448 33.5705 108.859 34.2093C109.027 34.4716 109.235 34.6789 109.447 34.8168L109.427 34.825L111.915 39.6122Z" fill="#A0616A"/>
<path d="M124.466 46.8466C124.466 46.8466 124.254 48.1073 122.955 47.7674C121.657 47.4274 116.301 44.5829 116.301 44.5829C116.301 44.5829 114.091 43.0516 113.925 42.6753C113.759 42.2989 111.557 39.6795 111.557 39.6795L113.95 38.1387L116.152 40.5945L121.01 41.8853L124.466 46.8466Z" fill="#CCCCCC"/>
<path d="M125.213 38.4351C126.934 38.4351 128.33 37.0396 128.33 35.3181C128.33 33.5967 126.934 32.2012 125.213 32.2012C123.491 32.2012 122.096 33.5967 122.096 35.3181C122.096 37.0396 123.491 38.4351 125.213 38.4351Z" fill="#A0616A"/>
<path d="M130.677 89.9211L128.743 89.9209L127.822 82.459L130.677 82.4592L130.677 89.9211Z" fill="#A0616A"/>
<path d="M124.047 89.8779C123.987 89.9794 123.955 90.3068 123.955 90.4248C123.955 90.7874 124.249 91.0814 124.612 91.0814H130.603C130.85 91.0814 131.051 90.8808 131.051 90.6335V90.384C131.051 90.384 131.347 89.6344 130.737 88.7104C130.737 88.7104 129.978 89.4339 128.845 88.3007L128.511 87.6953L126.092 89.4644L124.751 89.6294C124.458 89.6655 124.198 89.6238 124.047 89.8779Z" fill="#2F2E41"/>
<path d="M125.134 89.9211L123.2 89.9209L122.279 82.459L125.134 82.4592L125.134 89.9211Z" fill="#A0616A"/>
<path d="M118.504 89.8779C118.444 89.9794 118.412 90.3068 118.412 90.4248C118.412 90.7874 118.706 91.0814 119.069 91.0814H125.06C125.307 91.0814 125.508 90.8808 125.508 90.6335V90.384C125.508 90.384 125.804 89.6344 125.194 88.7104C125.194 88.7104 124.435 89.4339 123.302 88.3007L122.968 87.6953L120.549 89.4644L119.208 89.6294C118.915 89.6655 118.655 89.6238 118.504 89.8779Z" fill="#2F2E41"/>
<path d="M132.047 57.5391L119.486 58.1916L122.259 86.5756L125.033 86.4125L126.011 69.2842L126.419 63.1669L128.083 85.943L130.905 85.9231L132.047 57.5391Z" fill="#2F2E41"/>
<path d="M128.329 39.2666L123.572 39.1035L120.386 42.271V52.6475L119.143 59.1681C119.143 59.1681 127.509 58.3525 129.149 59.9837C130.79 61.615 133.742 60.4731 133.742 60.4731L132.266 51.846L131.61 41.8767L128.329 39.2666Z" fill="#CCCCCC"/>
<path d="M126.578 38.3716L123.926 37.7452L123.517 36.1375C123.517 36.1375 123.507 35.3797 123.15 35.2951C122.792 35.2106 122.161 34.6838 122.161 34.6838L122.772 33.695C122.772 33.695 121.299 33.5358 121.741 33.2625C122.183 32.9892 122.247 33.1124 122.31 32.4526C122.44 31.0874 126.617 31.2867 126.942 32.0357C126.942 32.0357 127.478 32.1625 127.752 32.6048C128.025 33.0471 128.161 33.2683 128.34 33.3105C128.519 33.3528 128.614 33.7528 128.614 33.7528C128.614 33.7528 129.245 34.2797 129.023 34.4163C128.802 34.5529 128.633 35.2685 128.633 35.2685C128.633 35.2685 129.222 35.9742 127.905 37.5518L127.203 38.6807L126.578 38.3716Z" fill="#2F2E41"/>
<path d="M129.986 42.9562L130.172 41.6922C130.307 40.7711 129.696 39.9672 128.868 39.7693V39.2453C128.868 38.7949 128.503 38.4297 128.052 38.4297C127.602 38.4297 127.236 38.7949 127.236 39.2453V39.9443L124.137 40.6017V39.7347C124.137 39.2842 123.772 38.9191 123.321 38.9191C122.871 38.9191 122.506 39.2842 122.506 39.7347V40.5587L122.198 40.4784C121.277 40.2383 120.551 41.2941 121.123 42.0535C121.13 42.0634 121.138 42.0732 121.145 42.083C121.909 43.0653 122.128 43.9384 122.128 43.9384L121.582 46.8853L122.204 53.0119C122.284 53.8016 122.963 54.3932 123.756 54.3639L129.791 54.1404C130.583 54.111 131.218 53.472 131.24 52.6792C131.316 49.8554 131.325 43.7095 129.986 42.9562Z" fill="#3F3D56"/>
<path d="M124.582 53.5396C124.498 53.5396 124.426 53.4744 124.42 53.3887L124.092 49.023C124.085 48.9331 124.153 48.8548 124.243 48.8482C124.332 48.8411 124.411 48.9088 124.418 48.9986L124.745 53.3643C124.752 53.4542 124.684 53.5325 124.595 53.5392C124.59 53.5395 124.586 53.5396 124.582 53.5396Z" fill="#FFB6B6"/>
<path d="M122.126 44.1027C122.046 44.1027 121.977 44.0444 121.965 43.9633C121.952 43.8741 122.013 43.7913 122.102 43.7782L129.986 42.6228C130.075 42.6099 130.158 42.6714 130.171 42.7605C130.184 42.8497 130.123 42.9325 130.033 42.9456L122.15 44.101C122.142 44.1022 122.134 44.1027 122.126 44.1027Z" fill="#FFB6B6"/>
<path d="M122.489 53.8036L119.408 46.3652L120.224 46.6915L123.505 53.282L122.489 53.8036Z" fill="#3F3D56"/>
<path d="M141.709 91.0706C141.709 91.1463 141.648 91.2077 141.572 91.2077H46.5996V90.9336H141.572C141.648 90.9336 141.709 90.9949 141.709 91.0706Z" fill="#E6E6E6"/>
<path d="M108.045 32.9176C108.574 33.4154 109.259 33.5458 109.576 33.2091C109.893 32.8723 109.72 32.196 109.191 31.6982C108.982 31.4964 108.728 31.3476 108.45 31.2641L106.182 29.1836L105.229 30.2688L107.566 32.2046C107.666 32.4771 107.83 32.7216 108.045 32.9176Z" fill="#FFB6B6"/>
<path d="M106.104 22.1395C106.104 22.1395 103.339 18.6945 102.277 18.9599C100.972 19.2861 101.298 20.5912 99.9485 24.0814C99.6104 24.9556 99.2554 25.8027 99.9377 26.4453L101.819 28.217L105.829 31.5983L107.442 29.9094L104.237 25.7763L106.104 22.1395Z" fill="#8EDB9B"/>
<path d="M78.9434 49.3523L80.9009 46.416L82.8584 47.2316L82.369 49.8417L78.9434 49.3523Z" fill="#FFB6B6"/>
<path d="M79.1029 48.6983L82.5285 48.5352L84.8123 49.1877L85.1286 61.3255L78.4504 60.6065L77.1336 54.8188L77.0254 50.9792L77.4603 49.1877L79.1029 48.6983Z" fill="#6C63FF"/>
<path d="M84.7564 56.8408C84.636 56.4897 84.5881 56.119 84.6191 55.7492C84.7068 54.7055 84.7233 52.6605 83.6594 51.7366L83.0586 51.0857C83.0461 51.0722 83.032 51.0606 83.0193 51.0473L84.0135 48.7104L83.4129 48.4551L82.4901 50.6241C82.0809 50.3751 81.6088 50.2371 81.1205 50.2371C80.5565 50.2371 80.0173 50.4211 79.5719 50.7449L79.0091 48.683L78.3795 48.8549L79.0832 51.2063C79.0576 51.2375 79.0297 51.2662 79.0055 51.2987L78.6617 51.7601C78.578 51.8725 78.4856 51.9768 78.3855 52.0748C78.1745 52.2815 77.7628 52.7832 77.7588 53.5558C77.7574 53.82 77.7031 54.0813 77.6226 54.333L77.214 55.6099C77.1756 55.7298 77.1455 55.8519 77.125 55.9761C76.9449 57.0695 76.3213 62.221 80.5835 62.1179C84.5568 62.0218 84.8183 59.6025 84.7951 58.7989C84.7901 58.6246 84.8058 58.4516 84.8383 58.2802C84.8979 57.9659 84.9515 57.4097 84.7564 56.8408Z" fill="#3F3D56"/>
<path d="M80.7132 48.5808C82.3703 48.5808 83.7136 47.2375 83.7136 45.5804C83.7136 43.9234 82.3703 42.5801 80.7132 42.5801C79.0562 42.5801 77.7129 43.9234 77.7129 45.5804C77.7129 47.2375 79.0562 48.5808 80.7132 48.5808Z" fill="#FFB6B6"/>
<path d="M84.883 52.0597L85.0936 54.4219L84.8943 54.9394L86.4074 54.9395L86.6494 52.7393L84.8066 49.1911L84.883 52.0597Z" fill="#6C63FF"/>
<path d="M77.3943 52.048L77.1838 54.4102L77.3831 54.9277L75.87 54.9277L75.6279 52.7275L77.4707 49.1794L77.3943 52.048Z" fill="#6C63FF"/>
<path d="M80.3191 48.9177L82.1086 47.4617C82.1086 47.4617 81.9392 45.2797 82.5825 45.0834C83.2258 44.8871 83.8967 44.1033 83.8967 44.1033C83.8967 44.1033 82.832 41.6981 80.9578 42.0631C79.0837 42.4281 79.5113 41.8729 78.3563 42.4845C77.2014 43.0962 76.9306 43.9123 77.071 44.7794C77.2115 45.6466 76.7934 47.801 78.1922 47.912C79.5911 48.0229 80.3191 48.9177 80.3191 48.9177Z" fill="#2F2E41"/>
<path d="M84.1209 55.1311C84.0457 55.1311 83.978 55.0789 83.9616 55.0024L83.7823 54.1691C83.5186 52.9438 82.4599 52.0489 81.2076 51.9929C80.0474 51.9409 78.9723 52.6282 78.5316 53.7022L78.0816 54.7992C78.0475 54.8827 77.9524 54.9224 77.8688 54.8883C77.7854 54.854 77.7456 54.7588 77.7799 54.6755L78.2299 53.5784C78.7228 52.3773 79.9238 51.6102 81.2223 51.667C82.6225 51.7295 83.8063 52.7302 84.1012 54.1005L84.2806 54.9337C84.2995 55.0218 84.2434 55.1085 84.1555 55.1275C84.1439 55.13 84.1322 55.1311 84.1209 55.1311Z" fill="#FFB6B6"/>
<path d="M84.315 57.7825C84.3102 57.7825 84.3053 57.7822 84.3004 57.7818L78.2639 57.2435C78.1742 57.2355 78.1079 57.1563 78.1159 57.0666C78.124 56.9769 78.2024 56.911 78.2929 56.9186L84.3294 57.4568C84.419 57.4649 84.4853 57.5441 84.4773 57.6338C84.4697 57.7187 84.3987 57.7825 84.315 57.7825Z" fill="#FFB6B6"/>
<path d="M71.3652 41.1191L74.0386 41.3013L73.7401 47.7985L71.3652 47.786V41.1191Z" fill="#E6E6E6"/>
<path d="M74.7181 54.9521L85.2282 54.9375V64.0602H74.2012L74.7181 54.9521Z" fill="#E6E6E6"/>
<path opacity="0.5" fill-rule="evenodd" clip-rule="evenodd" d="M108.688 54.8647C106.641 50.8373 102.458 48.0781 97.6301 48.0781C92.7721 48.0781 88.5668 50.8722 86.5334 54.941H74.395C74.1355 54.941 73.894 54.8242 73.7149 54.612C73.5358 54.3998 73.4439 54.1217 73.4562 53.8289L73.9521 41.9818C73.9755 41.4217 74.3827 40.9772 74.8788 40.9701L106.93 40.504C107.403 40.4989 107.813 40.8954 107.874 41.4308L107.71 47.662L109.271 53.744C109.305 54.0465 109.223 54.3514 109.044 54.5805C108.946 54.7068 108.824 54.8035 108.688 54.8647Z" fill="white"/>
<path d="M88.7059 40.8457H87.4392L79.6387 54.946H80.8056L88.7059 40.8457Z" fill="white"/>
<path d="M86.0614 40.8457H84.7946L76.9941 54.946H78.161L86.0614 40.8457Z" fill="white"/>
</g>
</g>
<path d="M145.749 36.1615C145.684 35.7159 146.151 35.2792 146.791 35.186C147.432 35.0928 148.003 35.3784 148.068 35.824C148.133 36.2696 147.666 36.7064 147.026 36.7996C146.386 36.8928 145.814 36.6071 145.749 36.1615Z" fill="#E6E6E6"/>
<path d="M138.124 35.4154C138.059 34.9698 138.526 34.5331 139.166 34.4399C139.807 34.3467 140.378 34.6323 140.443 35.0779C140.508 35.5235 140.041 35.9603 139.401 36.0535C138.761 36.1467 138.189 35.861 138.124 35.4154Z" fill="#3F3D56"/>
<path d="M147.835 29.9858C147.77 29.5402 148.237 29.1034 148.877 29.0102C149.518 28.917 150.089 29.2027 150.154 29.6483C150.219 30.0939 149.752 30.5306 149.112 30.6238C148.472 30.717 147.9 30.4314 147.835 29.9858Z" fill="#F7B787"/>
<path d="M151.15 27.4566C151.147 27.0475 151.375 26.7141 151.659 26.712C151.944 26.7098 152.177 27.0397 152.18 27.4488C152.183 27.8578 151.955 28.1912 151.67 28.1933C151.386 28.1955 151.153 27.8656 151.15 27.4566Z" fill="#E6E6E6"/>
<path d="M152.275 22.7456C152.272 22.3365 152.5 22.0032 152.784 22.001C153.069 21.9989 153.302 22.3287 153.305 22.7378C153.308 23.1469 153.08 23.4803 152.795 23.4824C152.511 23.4846 152.278 23.1547 152.275 22.7456Z" fill="#3F3D56"/>
<path d="M143.536 31.0366C143.533 30.6276 143.761 30.2942 144.046 30.292C144.33 30.2899 144.564 30.6198 144.567 31.0288C144.57 31.4379 144.342 31.7713 144.057 31.7734C143.773 31.7756 143.539 31.4457 143.536 31.0366Z" fill="#E6E6E6"/>
<path d="M147.22 32.8765C147.217 32.4674 147.445 32.134 147.73 32.1319C148.014 32.1297 148.247 32.4596 148.25 32.8687C148.253 33.2778 148.025 33.6111 147.741 33.6133C147.456 33.6154 147.223 33.2856 147.22 32.8765Z" fill="#F7B787"/>
<path d="M142.091 36.2769C142.088 35.8678 142.316 35.5344 142.601 35.5323C142.885 35.5301 143.118 35.86 143.121 36.2691C143.124 36.6781 142.896 37.0115 142.612 37.0137C142.327 37.0158 142.094 36.6859 142.091 36.2769Z" fill="#3F3D56"/>
<g filter="url(#filter1_d_264_1438)">
<rect x="313.846" y="7.34399" width="86" height="306" rx="8" transform="rotate(90 313.846 7.34399)" fill="#27342E" fill-opacity="0.4" shape-rendering="crispEdges"/>
</g>
<path d="M256.122 30.416C253.982 30.416 252.372 29.1113 252.294 27.3066H253.966C254.06 28.2676 254.982 28.9707 256.122 28.9785C257.497 28.9707 258.482 27.9785 258.482 26.6348C258.482 25.2598 257.466 24.2598 256.044 24.2441C255.138 24.2441 254.443 24.5488 254.06 25.2441H252.435L253.169 18.9473H259.575V20.416H254.591L254.216 23.5879H254.325C254.794 23.1348 255.591 22.8301 256.45 22.8223C258.583 22.8301 260.154 24.4082 260.154 26.5879C260.154 28.8145 258.482 30.416 256.122 30.416ZM272.769 17.5879V25.8535H271.285V23.7754H268.238V24.916H261.738V18.6348H268.238V19.791H271.285V17.5879H272.769ZM263.207 23.7285H266.785V19.8223H263.207V23.7285ZM263.347 28.916C263.339 27.2207 265.136 26.2363 268.082 26.2441C271.011 26.2363 272.808 27.2207 272.816 28.916C272.808 30.6035 271.011 31.5645 268.082 31.5566C265.136 31.5645 263.339 30.6035 263.347 28.916ZM264.816 28.916C264.808 29.8535 266.027 30.4082 268.082 30.416C270.121 30.4082 271.339 29.8535 271.347 28.916C271.339 27.9316 270.121 27.3926 268.082 27.3848C266.027 27.3926 264.808 27.9316 264.816 28.916ZM268.238 22.5723H271.285V20.9785H268.238V22.5723ZM289.625 17.5879V31.6191H288.141V17.5879H289.625ZM278.516 23.541C278.516 20.5488 280.024 18.6426 282.141 18.6348C284.219 18.6426 285.75 20.5488 285.75 23.541C285.75 26.5645 284.219 28.4707 282.141 28.4629C280.024 28.4707 278.516 26.5645 278.516 23.541ZM279.954 23.541C279.946 25.7676 280.836 27.1348 282.141 27.1348C283.422 27.1348 284.313 25.7676 284.313 23.541C284.313 21.3457 283.422 19.9707 282.141 19.9629C280.836 19.9707 279.946 21.3457 279.954 23.541ZM296.288 19.8223C296.28 21.6582 297.577 23.3691 299.663 24.0566L298.866 25.2285C297.335 24.6895 296.186 23.5957 295.577 22.2129C294.968 23.7832 293.78 25.0176 292.147 25.6191L291.35 24.4316C293.538 23.6582 294.804 21.791 294.819 19.6973V18.3223H296.288V19.8223ZM293.241 28.9629C293.241 27.3223 295.03 26.3613 297.944 26.3691C300.819 26.3613 302.585 27.3223 302.585 28.9629C302.585 30.6191 300.819 31.5645 297.944 31.5566C295.03 31.5645 293.241 30.6191 293.241 28.9629ZM294.725 28.9629C294.718 29.8848 295.921 30.3848 297.944 30.4004C299.952 30.3848 301.139 29.8848 301.132 28.9629C301.139 28.0723 299.952 27.541 297.944 27.541C295.921 27.541 294.718 28.0723 294.725 28.9629ZM300.975 26.041V17.5879H302.46V21.1035H304.491V22.3535H302.46V26.041H300.975Z" fill="white"/>
<defs>
<filter id="filter0_d_264_1438" x="0.845703" y="0.259766" width="320" height="100.574" filterUnits="userSpaceOnUse" color-interpolation-filters="sRGB">
<feFlood flood-opacity="0" result="BackgroundImageFix"/>
<feColorMatrix in="SourceAlpha" type="matrix" values="0 0 0 0 0 0 0 0 0 0 0 0 0 0 0 0 0 0 127 0" result="hardAlpha"/>
<feOffset/>
<feGaussianBlur stdDeviation="3.5"/>
<feComposite in2="hardAlpha" operator="out"/>
<feColorMatrix type="matrix" values="0 0 0 0 0 0 0 0 0 0 0 0 0 0 0 0 0 0 0.14 0"/>
<feBlend mode="normal" in2="BackgroundImageFix" result="effect1_dropShadow_264_1438"/>
<feBlend mode="normal" in="SourceGraphic" in2="effect1_dropShadow_264_1438" result="shape"/>
</filter>
<filter id="filter1_d_264_1438" x="0.845703" y="0.343994" width="320" height="100" filterUnits="userSpaceOnUse" color-interpolation-filters="sRGB">
<feFlood flood-opacity="0" result="BackgroundImageFix"/>
<feColorMatrix in="SourceAlpha" type="matrix" values="0 0 0 0 0 0 0 0 0 0 0 0 0 0 0 0 0 0 127 0" result="hardAlpha"/>
<feOffset/>
<feGaussianBlur stdDeviation="3.5"/>
<feComposite in2="hardAlpha" operator="out"/>
<feColorMatrix type="matrix" values="0 0 0 0 0 0 0 0 0 0 0 0 0 0 0 0 0 0 0.14 0"/>
<feBlend mode="normal" in2="BackgroundImageFix" result="effect1_dropShadow_264_1438"/>
<feBlend mode="normal" in="SourceGraphic" in2="effect1_dropShadow_264_1438" result="shape"/>
</filter>
<radialGradient id="paint0_radial_264_1438" cx="0" cy="0" r="1" gradientUnits="userSpaceOnUse" gradientTransform="translate(96.0454 74.9868) rotate(4.51621) scale(208.181 33.3)">
<stop stop-color="#0B9596"/>
<stop offset="1" stop-color="white"/>
</radialGradient>
<clipPath id="clip0_264_1438">
<rect width="105.203" height="81.7272" fill="white" transform="translate(32.8457 9.48047)"/>
</clipPath>
</defs>
</svg>
