<svg width="321" height="101" viewBox="0 0 321 101" fill="none" xmlns="http://www.w3.org/2000/svg">
<g filter="url(#filter0_d_264_1152)">
<rect x="313.846" y="7.13281" width="86" height="306" rx="8" transform="rotate(90 313.846 7.13281)" fill="white"/>
</g>
<path opacity="0.5" fill-rule="evenodd" clip-rule="evenodd" d="M7.94656 81.7674V85.1328C7.94656 89.5511 11.5283 93.1328 15.9466 93.1328L308.794 93.1328C310.71 93.1328 312.468 92.4595 313.846 91.3365C296.183 83.673 267.283 63.1004 257.587 55.4497C250.294 49.6959 240.169 43.563 226.16 41.6132C215.648 40.1502 202.846 41.1224 191.14 44.7916C184.296 46.937 176.814 50.251 169.139 53.6507C154.608 60.0871 139.383 66.8308 126.474 66.5344C119.425 66.3726 112.206 64.8694 104.338 63.2312C90.1837 60.284 73.9305 56.8998 52.7967 60.1021C35.4481 62.7309 18.9199 72.7681 7.94656 81.7674Z" fill="url(#paint0_radial_264_1152)"/>
<path d="M47.3728 80.7521C47.7493 80.7757 47.9573 80.308 47.6725 80.0354L47.6442 79.9228L47.6554 79.8957C48.0361 78.988 49.3264 78.9942 49.7038 79.9034C50.0388 80.7102 50.4654 81.5185 50.5704 82.3717C50.6175 82.7483 50.5963 83.1319 50.5127 83.5015C51.2977 81.7867 51.7108 79.9142 51.7108 78.0312C51.7108 77.558 51.6849 77.0849 51.632 76.613C51.5884 76.2269 51.5284 75.8433 51.4507 75.4631C51.0306 73.4082 50.1208 71.451 48.8086 69.8163C48.1777 69.4714 47.6516 68.9324 47.3339 68.2863C47.2197 68.0532 47.1303 67.8025 47.0879 67.5471C47.1597 67.5566 47.3586 66.4632 47.3044 66.3961C47.4045 66.2443 47.5836 66.1688 47.6928 66.0207C48.2363 65.2839 48.985 65.4125 49.3758 66.4138C50.2108 66.8352 50.2189 67.534 49.7065 68.2062C49.3806 68.6338 49.3358 69.2125 49.0498 69.6703C49.0792 69.708 49.1099 69.7444 49.1393 69.7821C49.6788 70.4742 50.1455 71.218 50.5389 71.9995C50.4277 71.131 50.5919 70.0847 50.8717 69.4102C51.1902 68.6417 51.7873 67.9945 52.3131 67.3302C52.9447 66.5322 54.2398 66.8805 54.351 67.892L54.3542 67.9214C54.2761 67.9655 54.1996 68.0123 54.1249 68.0617C53.6986 68.3436 53.8459 69.0045 54.351 69.0824L54.3624 69.0842C54.3342 69.3655 54.2859 69.6444 54.2153 69.9186C54.8899 72.5272 53.4336 73.4773 51.3542 73.52C51.3083 73.5436 51.2636 73.5671 51.2177 73.5895C51.4284 74.1826 51.5967 74.7911 51.7214 75.4078C51.8332 75.9527 51.9109 76.5035 51.9545 77.0567C52.0086 77.7546 52.0039 78.456 51.945 79.1528L51.9486 79.128C52.098 78.3607 52.5147 77.6439 53.1196 77.1473C54.0208 76.407 55.294 76.1344 56.2662 75.5393C56.7342 75.2529 57.3339 75.6231 57.2522 76.1656L57.2483 76.1916C57.1035 76.2505 56.9623 76.3187 56.8257 76.3952C56.7476 76.4393 56.6711 76.4861 56.5964 76.5355C56.1701 76.8175 56.3174 77.4783 56.8225 77.5563L56.834 77.558L56.8575 77.5616C56.6092 78.1512 56.2632 78.6985 55.8301 79.1704C55.4083 81.4476 53.5968 81.6637 51.6591 81.0005H51.6579C51.446 81.9232 51.1365 82.8248 50.7387 83.6839H47.4551C47.4433 83.6474 47.4327 83.6098 47.4221 83.5733C47.7258 83.5921 48.0318 83.5745 48.3307 83.5192C48.0871 83.2202 47.8435 82.9189 47.5998 82.62C47.594 82.6141 47.5893 82.6082 47.5845 82.6023C47.461 82.4493 47.3362 82.2975 47.2126 82.1445C47.2049 81.6748 47.2612 81.2064 47.3728 80.7521Z" fill="#5FBA8E"/>
<path d="M64.0902 82.6187C63.8661 82.6328 63.7423 82.3544 63.9118 82.1921L63.9287 82.1251L63.922 82.109C63.6953 81.5686 62.9273 81.5724 62.7027 82.1135C62.5033 82.5938 62.2494 83.0749 62.1868 83.5827C62.1588 83.8069 62.1714 84.0353 62.2212 84.2553C61.7539 83.2346 61.508 82.12 61.508 80.9991C61.508 80.7175 61.5234 80.4359 61.5549 80.155C61.5809 79.9252 61.6166 79.6968 61.6628 79.4705C61.9129 78.2474 62.4545 77.0823 63.2356 76.1093C63.6111 75.904 63.9242 75.5832 64.1133 75.1986C64.1813 75.0599 64.2345 74.9106 64.2598 74.7586C64.217 74.7642 64.0986 74.1134 64.1309 74.0735C64.0713 73.9831 63.9647 73.9382 63.8997 73.85C63.5762 73.4115 63.1305 73.488 62.8979 74.084C62.4009 74.3348 62.3961 74.7508 62.701 75.1509C62.8951 75.4055 62.9217 75.7499 63.092 76.0224C63.0744 76.0448 63.0562 76.0665 63.0387 76.089C62.7175 76.5009 62.4398 76.9437 62.2056 77.4088C62.2718 76.8919 62.1741 76.2691 62.0075 75.8676C61.8179 75.4102 61.4625 75.0249 61.1495 74.6295C60.7736 74.1545 60.0027 74.3618 59.9365 74.9639L59.9346 74.9814C59.9811 75.0076 60.0266 75.0355 60.0711 75.0649C60.3248 75.2327 60.2371 75.6261 59.9365 75.6725L59.9297 75.6735C59.9465 75.841 59.9752 76.007 60.0172 76.1702C59.6157 77.723 60.4826 78.2885 61.7203 78.3139C61.7476 78.3279 61.7742 78.3419 61.8015 78.3552C61.6761 78.7083 61.576 79.0705 61.5017 79.4376C61.4352 79.7619 61.3889 80.0898 61.363 80.4191C61.3308 80.8345 61.3336 81.252 61.3686 81.6667L61.3665 81.652C61.2775 81.1953 61.0295 80.7686 60.6694 80.473C60.133 80.0323 59.3752 79.8701 58.7965 79.5159C58.5179 79.3454 58.1609 79.5657 58.2096 79.8887L58.2119 79.9042C58.2981 79.9392 58.3822 79.9798 58.4634 80.0253C58.5099 80.0516 58.5555 80.0794 58.5999 80.1089C58.8537 80.2767 58.766 80.67 58.4653 80.7164L58.4585 80.7175L58.4445 80.7196C58.5923 81.0706 58.7983 81.3963 59.0561 81.6772C59.3071 83.0327 60.3854 83.1613 61.5388 82.7666H61.5395C61.6656 83.3158 61.8499 83.8524 62.0867 84.3638H64.0412C64.0482 84.3421 64.0545 84.3197 64.0608 84.298C63.8801 84.3092 63.6979 84.2987 63.52 84.2658C63.665 84.0878 63.81 83.9085 63.955 83.7306C63.9585 83.727 63.9613 83.7236 63.9641 83.72C64.0377 83.629 64.112 83.5386 64.1855 83.4475C64.1901 83.168 64.1566 82.8892 64.0902 82.6187Z" fill="#8EDB9B"/>
<path d="M161.094 82.6749L159.581 82.6747L158.861 76.8398L161.094 76.84L161.094 82.6749Z" fill="#9E616A"/>
<path d="M161.481 84.142L156.604 84.1419V84.0802C156.604 83.5766 156.804 83.0938 157.16 82.7377C157.516 82.3817 157.999 82.1817 158.502 82.1816H158.502L161.481 82.1818L161.481 84.142Z" fill="#2F2E41"/>
<path d="M155.664 82.6749L154.151 82.6747L153.432 76.8398L155.664 76.84L155.664 82.6749Z" fill="#9E616A"/>
<path d="M156.052 84.142L151.174 84.1419V84.0802C151.174 83.5766 151.374 83.0938 151.73 82.7377C152.086 82.3817 152.569 82.1817 153.072 82.1816H153.072L156.052 82.1818L156.052 84.142Z" fill="#2F2E41"/>
<path d="M138.047 41.7898C138.168 41.9561 138.324 42.0938 138.504 42.1933C138.684 42.2928 138.883 42.3517 139.088 42.3657C139.294 42.3798 139.499 42.3487 139.691 42.2746C139.883 42.2006 140.056 42.0854 140.198 41.9372L143.192 43.1061L144.346 41.4603L140.095 39.869C139.831 39.6462 139.493 39.5283 139.147 39.5376C138.801 39.547 138.471 39.6829 138.218 39.9197C137.966 40.1564 137.809 40.4776 137.777 40.8222C137.746 41.1669 137.842 41.5112 138.047 41.7898Z" fill="#9E616A"/>
<path d="M155.646 51.7617L151.705 53.0473L153.022 80.9577L156.063 81.033L157.62 61.3501L157.973 80.9553L161.734 81.1625L163.121 51.7617H155.646Z" fill="#2F2E41"/>
<path d="M152.987 35.309L163.102 33.1113L164.227 41.8209L163.29 45.9823L163.665 52.3066C163.665 52.3066 155.667 56.2873 151.705 53.0474C151.705 53.0474 154.89 44.6828 153.044 40.7671L152.987 35.309Z" fill="#E4E4E4"/>
<path d="M154.741 36.5396L152.989 35.3077C152.989 35.3077 152.886 35.1643 151.426 36.8709C149.966 38.5775 147.005 41.2921 147.005 41.2921L142.069 39.4412L141.17 42.7635L146.906 45.4367L155.027 40.013L154.741 36.5396Z" fill="#E4E4E4"/>
<path d="M163.665 55.5699C163.851 55.4821 164.015 55.3546 164.146 55.1964C164.277 55.0382 164.372 54.8531 164.424 54.6542C164.476 54.4553 164.484 54.2474 164.447 54.0452C164.41 53.843 164.329 53.6514 164.21 53.4838L165.916 50.7607L164.514 49.3203L162.159 53.1997C161.891 53.4184 161.712 53.728 161.657 54.0696C161.602 54.4113 161.674 54.7614 161.859 55.0535C162.045 55.3457 162.331 55.5596 162.664 55.6548C162.997 55.7499 163.353 55.7197 163.665 55.5699Z" fill="#9E616A"/>
<path d="M161.525 34.8259L163.103 33.1102C163.103 33.1102 164.861 32.498 166.297 35.6613C167.733 38.8245 169.337 45.2408 169.337 45.2408L165.587 52.465L162.674 51.1636L165.587 45.1898L162.505 40.7659L161.525 34.8259Z" fill="#E4E4E4"/>
<path d="M158.849 32.396C160.44 31.5263 161.025 29.5313 160.155 27.9402C159.285 26.3491 157.29 25.7643 155.699 26.6341C154.108 27.5039 153.523 29.4988 154.393 31.09C155.263 32.6811 157.258 33.2658 158.849 32.396Z" fill="#9E616A"/>
<path d="M160.043 26.5787C159.887 25.9268 159.344 25.4122 158.719 25.1709C158.093 24.9295 157.397 24.9319 156.736 25.0441C155.639 25.2305 154.615 25.7035 153.606 26.1717L154.384 26.5438L153.311 26.6054L154.14 27.0343C153.918 27.2029 153.75 27.4315 153.654 27.6929C153.559 27.9543 153.54 28.2377 153.601 28.5093C153.644 28.6871 153.758 28.883 153.941 28.8891C154.162 28.8965 154.277 28.6391 154.431 28.4812C154.637 28.2712 154.962 28.2245 155.253 28.2641C155.545 28.3037 155.821 28.4158 156.108 28.4778C156.472 28.5535 156.847 28.5493 157.209 28.4655C157.571 28.3817 157.91 28.2203 158.203 27.9925L159.237 30.483C159.227 30.3891 159.239 30.2942 159.272 30.2057C159.305 30.1172 159.358 30.0376 159.427 29.973C159.496 29.9083 159.579 29.8605 159.669 29.8332C159.76 29.8059 159.855 29.7999 159.948 29.8156C160.041 29.8313 160.13 29.8683 160.206 29.9237C160.282 29.9792 160.345 30.0515 160.389 30.1351C160.433 30.2188 160.457 30.3114 160.459 30.4058C160.461 30.5002 160.441 30.5938 160.401 30.6794C160.849 30.004 161.209 29.2368 161.222 28.4266C161.234 27.6164 160.832 26.7629 160.097 26.423" fill="#2F2E41"/>
<path d="M121.992 76.8885L120.594 79.0873L121.408 76.2248C119.688 74.4301 117.307 73.1172 117.307 73.1172C117.307 73.1172 114.375 77.936 115.164 80.9002C115.953 83.8643 117.991 84.4302 120.165 83.8515C122.338 83.2728 123.825 81.7687 123.036 78.8045C122.86 78.1447 122.479 77.497 121.992 76.8885Z" fill="#8EDB9B"/>
<path d="M120.142 79.3066L120.181 79.4527C120.624 81.1534 120.691 82.5547 120.377 83.6374C120.373 83.6533 120.368 83.6686 120.363 83.6845L120.29 83.6629L120.22 83.6413C120.575 82.4677 120.417 80.9848 120.03 79.5013C120.018 79.4534 120.006 79.4047 119.993 79.3564C119.823 78.7299 119.616 78.1057 119.391 77.5059C119.374 77.4593 119.356 77.4122 119.338 77.365C119.036 76.5748 118.706 75.8306 118.401 75.1893C118.379 75.1439 118.357 75.0986 118.335 75.0541C117.814 73.9707 117.371 73.2031 117.272 73.0335C117.26 73.0127 117.253 73.0013 117.252 72.9986L117.315 72.9608L117.316 72.9599L117.38 72.9219C117.382 72.9246 117.405 72.9625 117.446 73.0338C117.599 73.2996 118.007 74.0237 118.478 74.9968C118.499 75.0407 118.521 75.086 118.542 75.1314C118.791 75.6516 119.054 76.2368 119.305 76.8579C119.368 77.0138 119.429 77.1681 119.486 77.3208C119.505 77.3678 119.523 77.4149 119.54 77.4615C119.784 78.1099 119.985 78.725 120.142 79.3066Z" fill="white"/>
<path d="M118.477 74.9976C118.43 75.017 118.383 75.0366 118.334 75.0549C118.202 75.105 118.068 75.1482 117.932 75.1845C117.351 75.3399 116.743 75.363 116.153 75.2523C116.133 75.2987 116.113 75.3451 116.092 75.3924C116.715 75.5148 117.357 75.4931 117.97 75.3292C118.116 75.2904 118.259 75.244 118.4 75.1901C118.447 75.172 118.495 75.1524 118.541 75.1322C118.926 74.9683 119.284 74.747 119.602 74.4757C119.56 74.4442 119.52 74.4133 119.48 74.3828C119.178 74.636 118.84 74.8432 118.477 74.9976Z" fill="white"/>
<path d="M119.487 77.3212C119.437 77.3374 119.388 77.3521 119.338 77.3654C119.323 77.3702 119.307 77.3744 119.292 77.3785C118.663 77.546 118.002 77.5589 117.367 77.416C116.732 77.2732 116.141 76.9789 115.644 76.5581C115.626 76.6085 115.608 76.6589 115.592 76.7098C116.106 77.1326 116.713 77.4269 117.363 77.5683C118.013 77.7098 118.687 77.6943 119.33 77.5231C119.351 77.5177 119.371 77.5124 119.391 77.5062C119.441 77.492 119.491 77.4773 119.54 77.4619C120.302 77.2167 120.977 76.7573 121.485 76.1386C121.45 76.1021 121.416 76.0656 121.38 76.0293C120.888 76.635 120.23 77.084 119.487 77.3212Z" fill="white"/>
<path d="M120.141 79.3067C120.091 79.3245 120.041 79.3409 119.991 79.3565C119.938 79.3731 119.884 79.389 119.829 79.4035C118.984 79.6276 118.088 79.5717 117.277 79.2443C116.466 78.9168 115.782 78.3353 115.329 77.587C115.312 77.6542 115.295 77.7208 115.279 77.7876C115.762 78.5261 116.465 79.0937 117.289 79.4097C118.113 79.7258 119.015 79.7742 119.868 79.5481C119.922 79.5337 119.976 79.5185 120.029 79.5014C120.08 79.4863 120.13 79.4699 120.18 79.4528C121.181 79.1005 122.011 78.3809 122.502 77.4395C122.472 77.39 122.441 77.3419 122.409 77.293C121.944 78.2337 121.13 78.956 120.141 79.3067Z" fill="white"/>
<path d="M176.547 77.1189L175.169 79.2857L175.972 76.4648C174.277 74.6962 171.93 73.4023 171.93 73.4023C171.93 73.4023 169.041 78.1511 169.818 81.0722C170.596 83.9934 172.604 84.551 174.746 83.9807C176.889 83.4104 178.354 81.9281 177.576 79.007C177.403 78.3568 177.027 77.7185 176.547 77.1189Z" fill="#8EDB9B"/>
<path d="M174.721 79.5009L174.759 79.6449C175.196 81.3209 175.262 82.7019 174.953 83.7689C174.949 83.7845 174.943 83.7996 174.939 83.8152L174.867 83.794L174.798 83.7726C175.148 82.6161 174.992 81.1547 174.611 79.6928C174.599 79.6456 174.587 79.5976 174.574 79.5501C174.407 78.9326 174.203 78.3175 173.981 77.7264C173.964 77.6805 173.946 77.634 173.929 77.5876C173.631 76.8088 173.306 76.0755 173.005 75.4435C172.984 75.3987 172.962 75.3541 172.941 75.3103C172.427 74.2426 171.991 73.4861 171.893 73.319C171.881 73.2985 171.875 73.2873 171.873 73.2846L171.936 73.2474L171.936 73.2465L171.999 73.209C172.001 73.2116 172.024 73.2491 172.064 73.3193C172.215 73.5813 172.618 74.2948 173.081 75.2537C173.102 75.2971 173.124 75.3416 173.145 75.3864C173.39 75.8991 173.649 76.4757 173.896 77.0878C173.958 77.2415 174.018 77.3935 174.075 77.544C174.093 77.5903 174.111 77.6367 174.128 77.6826C174.368 78.3217 174.566 78.9278 174.721 79.5009Z" fill="white"/>
<path d="M173.083 75.2543C173.037 75.2734 172.99 75.2927 172.942 75.3108C172.812 75.3601 172.68 75.4027 172.546 75.4385C171.974 75.5916 171.375 75.6144 170.793 75.5053C170.773 75.551 170.753 75.5968 170.732 75.6434C171.346 75.7639 171.979 75.7426 172.584 75.5811C172.727 75.5429 172.868 75.4971 173.007 75.444C173.054 75.4261 173.101 75.4068 173.146 75.387C173.526 75.2255 173.878 75.0073 174.192 74.74C174.151 74.709 174.11 74.6784 174.071 74.6484C173.773 74.8979 173.44 75.1021 173.083 75.2543Z" fill="white"/>
<path d="M174.074 77.5447C174.026 77.5606 173.977 77.5751 173.928 77.5882C173.913 77.5929 173.898 77.5971 173.883 77.6011C173.263 77.7662 172.612 77.7788 171.986 77.6381C171.36 77.4973 170.777 77.2073 170.287 76.7926C170.27 76.8423 170.253 76.8919 170.236 76.9421C170.743 77.3587 171.341 77.6488 171.982 77.7882C172.622 77.9276 173.287 77.9123 173.921 77.7436C173.941 77.7383 173.96 77.733 173.98 77.727C174.03 77.713 174.079 77.6985 174.127 77.6832C174.878 77.4416 175.543 76.9889 176.043 76.3792C176.009 76.3433 175.975 76.3073 175.941 76.2715C175.456 76.8684 174.807 77.3109 174.074 77.5447Z" fill="white"/>
<path d="M174.722 79.5001C174.674 79.5176 174.624 79.5338 174.575 79.5492C174.522 79.5656 174.469 79.5812 174.416 79.5955C173.582 79.8163 172.7 79.7613 171.9 79.4386C171.101 79.1159 170.427 78.5429 169.981 77.8054C169.964 77.8716 169.947 77.9372 169.932 78.0031C170.407 78.7309 171.1 79.2902 171.912 79.6016C172.724 79.9131 173.613 79.9608 174.454 79.738C174.507 79.7238 174.56 79.7088 174.612 79.692C174.663 79.6771 174.712 79.6609 174.761 79.6441C175.748 79.2969 176.566 78.5877 177.049 77.6601C177.02 77.6113 176.989 77.5638 176.958 77.5156C176.499 78.4427 175.697 79.1545 174.722 79.5001Z" fill="white"/>
<path d="M148.019 23.2833C148.019 18.1002 144.405 13.8984 139.948 13.8984C135.49 13.8984 131.877 18.1002 131.877 23.2833C131.877 27.9842 134.849 31.8777 138.728 32.5616V33.446C138.728 33.6131 138.794 33.7733 138.912 33.8915C139.031 34.0096 139.191 34.076 139.358 34.076H140.538C140.705 34.076 140.865 34.0096 140.984 33.8915C141.102 33.7733 141.168 33.6131 141.168 33.446V32.5616C145.047 31.8777 148.019 27.9842 148.019 23.2833Z" fill="#8EDB9B"/>
<path d="M138.537 33.3192C138.79 33.0821 139.091 32.9024 139.419 32.7925C139.748 32.6826 140.096 32.6451 140.44 32.6825C140.788 32.7228 141.121 32.8431 141.413 33.0339C141.706 33.2248 141.95 33.481 142.127 33.7824C142.304 34.0749 142.415 34.4023 142.453 34.7419C142.49 35.0816 142.453 35.4254 142.345 35.7495C142.133 36.3957 141.682 36.9336 141.22 37.4183C140.735 37.9269 140.207 38.3959 139.751 38.9318C138.999 39.8209 138.474 40.879 138.221 42.0155C137.968 43.152 137.994 44.333 138.298 45.4571C138.698 46.8818 139.524 48.1503 140.665 49.0923C140.81 49.2108 140.959 49.3236 141.113 49.4307C141.291 49.5551 141.459 49.2637 141.283 49.1404C140.043 48.2638 139.128 47.0033 138.677 45.554C138.335 44.4245 138.291 43.2259 138.55 42.0746C138.809 40.9232 139.361 39.8584 140.153 38.9836C140.634 38.4525 141.172 37.9771 141.653 37.4459C142.114 36.9371 142.533 36.3629 142.713 35.6906C142.804 35.3488 142.827 34.9923 142.78 34.6418C142.733 34.2912 142.616 33.9534 142.438 33.6479C142.261 33.3355 142.021 33.0632 141.733 32.848C141.445 32.6328 141.116 32.4793 140.767 32.3971C140.063 32.2442 139.328 32.3715 138.716 32.7521C138.567 32.8476 138.427 32.9579 138.299 33.0814C138.143 33.2318 138.381 33.4695 138.537 33.3192Z" fill="#3F3D56"/>
<path d="M116.919 19.3552C114.449 13.6781 108.49 10.7976 103.607 12.9214C98.725 15.0452 96.7691 21.3691 99.2386 27.0462C101.478 32.1951 106.589 35.0434 111.163 33.9445L111.585 34.9132C111.664 35.0962 111.813 35.2401 111.999 35.3132C112.185 35.3863 112.392 35.3827 112.575 35.3031L113.867 34.7408C114.05 34.6611 114.194 34.5121 114.267 34.3264C114.34 34.1407 114.337 33.9336 114.257 33.7506L113.836 32.7819C117.758 30.1849 119.159 24.5041 116.919 19.3552Z" fill="#8EDB9B"/>
<path d="M111.285 34.8362C111.445 34.4665 111.682 34.1347 111.979 33.8622C112.275 33.5897 112.626 33.3826 113.008 33.2544C113.383 33.1281 113.782 33.0853 114.175 33.129C114.568 33.1727 114.947 33.3018 115.286 33.5074C115.634 33.7139 115.935 33.9922 116.167 34.3239C116.399 34.6556 116.559 35.0331 116.634 35.4311C116.806 36.3535 116.526 37.293 116.208 38.1518C115.875 39.0521 115.46 39.9264 115.229 40.8612C114.906 42.1752 114.9 43.5467 115.21 44.8637C115.519 46.1806 116.137 47.4054 117.011 48.4377C118.113 49.7139 119.563 50.6402 121.184 51.1026C121.383 51.1586 121.584 51.2065 121.786 51.2475C121.998 51.2903 122.088 50.9662 121.876 50.9232C120.189 50.576 118.652 49.7133 117.477 48.4544C116.232 47.1078 115.479 45.3789 115.343 43.5497C115.269 42.623 115.354 41.6905 115.594 40.7923C115.849 39.8444 116.282 38.9569 116.608 38.0333C116.919 37.152 117.14 36.2056 116.944 35.273C116.764 34.4519 116.266 33.7356 115.559 33.2815C115.22 33.058 114.84 32.904 114.441 32.8287C114.041 32.7533 113.631 32.7579 113.234 32.8424C112.423 33.0262 111.712 33.5121 111.247 34.2013C111.133 34.3731 111.038 34.5559 110.961 34.7468C110.878 34.9466 111.203 35.0336 111.285 34.8362Z" fill="#3F3D56"/>
<path d="M185.905 87.9256L187.717 87.9254L188.58 80.9336L185.904 80.9337L185.905 87.9256Z" fill="#FFB6B6"/>
<path d="M185.439 87.3341L189.009 87.334H189.009C189.613 87.334 190.191 87.5737 190.618 88.0003C191.045 88.427 191.284 89.0056 191.284 89.6089V89.6829L185.44 89.6831L185.439 87.3341Z" fill="#2F2E41"/>
<path d="M175.174 86.3851L176.902 86.9317L179.833 80.5256L177.282 79.7188L175.174 86.3851Z" fill="#FFB6B6"/>
<path d="M174.913 85.6816L178.317 86.7582L178.317 86.7583C178.892 86.9403 179.372 87.3433 179.65 87.8788C179.928 88.4142 179.982 89.0382 179.8 89.6134L179.778 89.6839L174.205 87.9212L174.913 85.6816Z" fill="#2F2E41"/>
<path d="M179.256 55.9941L178.25 58.8312L178.222 74.1472L175.369 84.6335L178.871 85.6108L182.739 75.7231L183.98 67.0383L185.615 75.7736L185.39 86.1562H189.064L189.341 70.1566C189.419 65.6632 188.633 61.1967 187.025 57.0001L179.256 55.9941Z" fill="#2F2E41"/>
<path d="M178.058 44.502H183.997L186.478 46.9833L187.22 57.2403L178.25 58.6836L175.369 48.8971L176.938 44.7378L178.058 44.502Z" fill="#E4E4E4"/>
<path d="M175.922 48.9935L166.779 45.5533L166.541 44.1312L172.307 39.252L174.227 40.6915L170.748 44.5005L176.938 44.7363L175.922 48.9935Z" fill="#E4E4E4"/>
<path d="M173.418 41.2481C174.235 41.2481 174.897 40.5862 174.897 39.7696C174.897 38.953 174.235 38.291 173.418 38.291C172.601 38.291 171.939 38.953 171.939 39.7696C171.939 40.5862 172.601 41.2481 173.418 41.2481Z" fill="#FFB6B6"/>
<path d="M176.847 41.6334L177.515 38.6207C177.632 38.0901 177.853 37.5878 178.164 37.1425C178.476 36.6972 178.872 36.3176 179.33 36.0255C179.788 35.7333 180.299 35.5343 180.834 35.4399C181.369 35.3455 181.918 35.3574 182.448 35.475C182.979 35.5927 183.481 35.8137 183.926 36.1255C184.371 36.4373 184.75 36.8338 185.042 37.2922C185.334 37.7506 185.532 38.2621 185.626 38.7973C185.72 39.3325 185.707 39.8809 185.589 40.4113L184.921 43.424C184.889 43.5677 184.801 43.6929 184.677 43.772C184.553 43.8511 184.402 43.8778 184.259 43.846L177.269 42.296C177.125 42.264 177 42.1762 176.921 42.052C176.842 41.9278 176.815 41.7773 176.847 41.6334Z" fill="#2F2E41"/>
<path d="M181.449 42.7673C183.057 42.3013 183.983 40.6198 183.517 39.0115C183.051 37.4033 181.37 36.4773 179.762 36.9433C178.153 37.4093 177.227 39.0908 177.693 40.6991C178.159 42.3073 179.841 43.2333 181.449 42.7673Z" fill="#FFB6B6"/>
<path d="M176.504 38.6501C176.692 37.8036 177.209 37.0666 177.941 36.6006C178.672 36.1347 179.558 35.978 180.405 36.1648L181.008 36.2984C181.854 36.4871 182.591 37.0039 183.057 37.7354C183.523 38.4668 183.68 39.3532 183.493 40.2001L183.48 40.2604L182.206 39.978L182.042 38.6655L181.685 39.8624L181.027 39.7164L180.944 39.0542L180.764 39.6581L176.49 38.7103L176.504 38.6501Z" fill="#2F2E41"/>
<path d="M179.565 43.1601C179.523 43.0659 179.508 42.9618 179.523 42.8598C179.538 42.7578 179.581 42.662 179.648 42.5835C180.556 41.5106 181.948 39.4647 181.068 37.8176L181.005 37.6992L184.45 38.4632L183.303 43.6354L180.051 43.4936C180.018 43.4922 179.985 43.4879 179.953 43.4808C179.867 43.4618 179.788 43.4229 179.72 43.3672C179.653 43.3114 179.599 43.2405 179.565 43.1601Z" fill="#2F2E41"/>
<path d="M183.762 44.5625L193.433 45.9377L193.974 47.2744L189.403 53.2881L187.217 52.2991L189.787 47.8263L183.693 48.9387L183.762 44.5625Z" fill="#E4E4E4"/>
<path d="M198.24 25.0672C198.24 18.8762 193.924 13.8574 188.599 13.8574C183.275 13.8574 178.959 18.8762 178.959 25.0672C178.959 30.6821 182.509 35.3327 187.142 36.1495V37.2059C187.142 37.4055 187.221 37.5969 187.362 37.738C187.504 37.8791 187.695 37.9584 187.895 37.9584H189.304C189.504 37.9584 189.695 37.8791 189.836 37.738C189.977 37.5969 190.057 37.4055 190.057 37.2059V36.1495C194.689 35.3327 198.24 30.6821 198.24 25.0672Z" fill="#8EDB9B"/>
<path d="M186.889 37.0293C187.195 36.7416 187.56 36.5239 187.959 36.3911C188.357 36.2584 188.78 36.2138 189.197 36.2605C189.607 36.3088 190.001 36.4498 190.349 36.6729C190.696 36.8959 190.988 37.1951 191.203 37.5478C191.422 37.8958 191.562 38.2871 191.615 38.6947C191.668 39.1023 191.632 39.5165 191.51 39.9089C191.272 40.679 190.75 41.3238 190.206 41.9018C189.625 42.5184 188.989 43.0822 188.434 43.7229C187.529 44.7744 186.893 46.0299 186.581 47.3815C186.269 48.7331 186.29 50.1403 186.641 51.4821C187.112 53.2067 188.107 54.7427 189.488 55.8779C189.655 56.0144 189.828 56.1446 190.005 56.2685C190.183 56.3928 190.351 56.1014 190.175 55.9781C188.696 54.9328 187.601 53.4313 187.057 51.7039C186.644 50.3555 186.585 48.9234 186.887 47.5459C187.189 46.1683 187.84 44.8917 188.779 43.8393C189.349 43.2024 189.992 42.635 190.569 42.0043C191.122 41.4003 191.629 40.7222 191.856 39.924C191.97 39.5209 192.003 39.0991 191.954 38.6831C191.904 38.2671 191.772 37.865 191.566 37.5003C191.361 37.1272 191.08 36.8006 190.743 36.541C190.406 36.2813 190.018 36.0942 189.605 35.9913C188.765 35.7983 187.883 35.9445 187.151 36.3983C186.971 36.5119 186.804 36.6436 186.651 36.7915C186.495 36.9421 186.733 37.1798 186.889 37.0293Z" fill="#3F3D56"/>
<path d="M188.055 55.0001C188.871 55.0001 189.533 54.3381 189.533 53.5215C189.533 52.7049 188.871 52.043 188.055 52.043C187.238 52.043 186.576 52.7049 186.576 53.5215C186.576 54.3381 187.238 55.0001 188.055 55.0001Z" fill="#FFB6B6"/>
<path d="M172.648 40.1854C172.57 40.3081 172.382 40.2902 172.277 40.2136C172.13 40.1072 172.178 39.9022 172.279 39.7811C172.599 39.3961 173.13 39.8025 173.201 40.1848C173.228 40.3712 173.199 40.5613 173.119 40.7316C173.038 40.9018 172.91 41.0447 172.749 41.1425C172.383 41.3593 171.908 41.2506 171.593 40.9911C170.937 40.4498 171.116 39.366 171.844 38.9744C172.31 38.7245 172.898 38.8342 173.356 39.0435C173.872 39.2792 174.315 39.6404 174.792 39.9415C175.839 40.5966 177.023 41.0009 178.251 41.1227C178.467 41.1447 178.465 40.8082 178.251 40.7864C177.571 40.716 176.902 40.5551 176.264 40.3078C175.632 40.0518 175.033 39.7228 174.478 39.3275C173.916 38.9425 173.329 38.5686 172.634 38.5049C172.354 38.4722 172.07 38.5143 171.811 38.6269C171.552 38.7396 171.327 38.9188 171.16 39.1464C171.011 39.35 170.912 39.5853 170.869 39.8339C170.827 40.0824 170.842 40.3375 170.915 40.579C171.002 40.8316 171.155 41.0565 171.357 41.2308C171.56 41.4052 171.805 41.5228 172.068 41.5716C172.32 41.6194 172.582 41.5871 172.816 41.4791C173.049 41.3712 173.243 41.193 173.371 40.9694C173.627 40.5269 173.619 39.9326 173.232 39.5658C173.121 39.4532 172.983 39.372 172.83 39.3306C172.678 39.2891 172.517 39.2889 172.365 39.3299C172.224 39.3773 172.101 39.4647 172.009 39.5814C171.917 39.698 171.862 39.8388 171.849 39.9866C171.811 40.5609 172.627 40.8481 172.938 40.3552C173.054 40.1717 172.763 40.0028 172.648 40.1854Z" fill="#3F3D56"/>
<path d="M105.365 58.2575L104.921 58.8148L103.35 57.8855L103.794 57.3281L105.365 58.2575Z" fill="#F7B787"/>
<path d="M107.008 60.6523L107.4 61.2378L105.75 62.0587L105.357 61.4732L107.008 60.6523Z" fill="#E4E4E4"/>
<path d="M108.713 58.1074L109.497 58.1351L109.419 59.7755L108.635 59.7479L108.713 58.1074Z" fill="#3F3D56"/>
<path d="M123.861 13.8669L123.417 14.4241L121.846 13.4948L122.29 12.9375L123.861 13.8669Z" fill="#3F3D56"/>
<path d="M125.5 16.2617L125.892 16.8472L124.242 17.6681L123.85 17.0826L125.5 16.2617Z" fill="#E4E4E4"/>
<path d="M127.209 13.7168L127.993 13.7445L127.915 15.3849L127.131 15.3572L127.209 13.7168Z" fill="#F7B787"/>
<path d="M167.47 19.697L167.026 20.2542L165.455 19.3249L165.899 18.7676L167.47 19.697Z" fill="#E4E4E4"/>
<path d="M169.109 22.0898L169.502 22.6753L167.851 23.4962L167.459 22.9107L169.109 22.0898Z" fill="#F7B787"/>
<path d="M170.814 19.5449L171.598 19.5726L171.52 21.213L170.736 21.1854L170.814 19.5449Z" fill="#3F3D56"/>
<path d="M154.13 11.5134L153.686 12.0706L152.115 11.1413L152.559 10.584L154.13 11.5134Z" fill="#F7B787"/>
<path d="M155.769 13.9082L156.162 14.4937L154.511 15.3146L154.119 14.7291L155.769 13.9082Z" fill="#3F3D56"/>
<path d="M157.475 11.3633L158.259 11.391L158.18 13.0314L157.396 13.0037L157.475 11.3633Z" fill="#E4E4E4"/>
<path d="M167.692 53.4059L167.248 54.0527L168.819 55.1314L169.263 54.4846L167.692 53.4059Z" fill="#3F3D56"/>
<path d="M169.25 58.215L169.643 58.8945L171.293 57.9417L170.901 57.2621L169.25 58.215Z" fill="#F7B787"/>
<path d="M172.53 56.212L173.314 56.2441L173.393 54.3401L172.608 54.3079L172.53 56.212Z" fill="#E4E4E4"/>
<path d="M134.367 82.7603L135.725 82.5503L134.794 71.6992L131.768 72.2597L134.367 82.7603Z" fill="#FFB6B6"/>
<path d="M133.951 82.3714L136.626 81.9578C137.078 81.8879 137.539 82.0004 137.908 82.2707C138.277 82.5409 138.524 82.9467 138.594 83.3987L138.603 83.4541L134.223 84.1313L133.951 82.3714Z" fill="#2F2E41"/>
<path d="M120.092 82.6265L121.465 82.6849L123.135 73.0449L120.108 73.045L120.092 82.6265Z" fill="#FFB6B6"/>
<path d="M119.761 82.1621L122.465 82.2773H122.465C122.922 82.2968 123.353 82.497 123.662 82.834C123.972 83.1709 124.135 83.6169 124.115 84.074L124.113 84.13L119.686 83.9413L119.761 82.1621Z" fill="#2F2E41"/>
<path d="M122.796 51.2192C122.732 51.201 122.665 51.1887 122.598 51.1823L123.454 44.1762L126.359 38.0256C126.541 37.6387 126.571 37.1969 126.44 36.7893C126.31 36.3817 126.03 36.0387 125.657 35.8293C125.284 35.62 124.845 35.56 124.429 35.6614C124.014 35.7629 123.652 36.0181 123.417 36.3758C122.656 37.5348 122.08 38.8054 121.71 40.1418L120.49 44.5536L121.382 52.1193C121.348 52.3326 121.376 52.5512 121.463 52.7488C121.551 52.9465 121.693 53.1147 121.873 53.2333C122.054 53.352 122.265 53.4159 122.481 53.4175C122.697 53.4191 122.909 53.3582 123.091 53.2423C123.273 53.1263 123.418 52.9601 123.508 52.7638C123.598 52.5674 123.629 52.3493 123.598 52.1356C123.567 51.9218 123.475 51.7216 123.332 51.5591C123.19 51.3965 123.004 51.2785 122.796 51.2192Z" fill="#FFB6B6"/>
<path d="M124.558 44.7678L120.889 40.5701L122.706 36.2945C122.944 35.7346 123.392 35.2899 123.953 35.0553C124.515 34.8207 125.145 34.8148 125.711 35.0388C126.277 35.2628 126.732 35.6991 126.981 36.2544C127.229 36.8097 127.251 37.4402 127.041 38.0112L124.558 44.7678Z" fill="#2F2E41"/>
<path d="M130.66 31.3861C131.542 29.7711 130.949 27.7463 129.334 26.8635C127.719 25.9807 125.694 26.5742 124.811 28.1892C123.929 29.8041 124.522 31.8289 126.137 32.7118C127.752 33.5946 129.777 33.001 130.66 31.3861Z" fill="#FFB6B6"/>
<path d="M128.292 25.7383H126.139C124.728 25.7383 123.584 27.0254 123.584 28.6131L123.684 32.4641C125.209 32.6538 126.7 33.0528 128.116 33.6496L128.317 32.7916L128.713 33.9216C129.066 34.0924 129.415 34.2792 129.762 34.4819C129.357 32.5817 129.191 30.6859 129.469 29.2133H130.198V28.4154L130.445 29.2133H131.767C131.767 28.757 131.677 28.3051 131.503 27.8835C131.328 27.4619 131.072 27.0788 130.749 26.7561C130.427 26.4334 130.044 26.1774 129.622 26.0028C129.2 25.8282 128.748 25.7383 128.292 25.7383Z" fill="#2F2E41"/>
<path d="M135.312 72.2878L135.001 72.3629L134.739 67.4946L132.833 52.9219L130.647 47.3731L131.712 43.5057C131.712 43.5057 132.945 40.8154 129.863 38.7416L127.396 34.5939C125.693 33.4801 124.291 34.2084 123.544 36.1017C122.893 37.7513 122.388 39.8383 122.688 41.9924C123.362 46.8177 123.921 47.3731 123.921 47.3731C123.921 47.3731 119.718 52.0251 120.615 57.9663L120.115 73.3488L119.658 73.33L119.607 74.5518L123.602 74.7156L123.652 73.4938L123.321 73.4802L124.762 67.3825L126.892 59.3114L130.591 69.176L131.835 73.1251L131.426 73.2239L131.712 74.4127L135.599 73.4766L135.312 72.2878Z" fill="#2F2E41"/>
<path d="M138.057 44.6668C138.012 44.7166 137.971 44.7704 137.936 44.8275L132.05 40.9314L127.845 35.5849C127.581 35.2486 127.199 35.0251 126.776 34.9595C126.353 34.8938 125.921 34.991 125.567 35.2313C125.213 35.4717 124.963 35.8373 124.868 36.2545C124.773 36.6717 124.84 37.1094 125.055 37.4794C125.752 38.6782 126.631 39.7611 127.662 40.6889L131.063 43.7517L138.231 46.3339C138.406 46.4598 138.614 46.5323 138.83 46.5427C139.046 46.5531 139.26 46.5009 139.447 46.3925C139.633 46.284 139.785 46.1239 139.883 45.9314C139.981 45.7389 140.021 45.5222 139.999 45.3074C139.976 45.0926 139.892 44.8888 139.757 44.7206C139.621 44.5523 139.44 44.4268 139.235 44.3592C139.03 44.2915 138.81 44.2845 138.601 44.3391C138.392 44.3936 138.203 44.5074 138.057 44.6668Z" fill="#FFB6B6"/>
<path d="M133.072 40.2059L127.677 41.6131L124.664 38.0764C124.27 37.6133 124.072 37.0144 124.113 36.4073C124.154 35.8003 124.43 35.2334 124.883 34.8274C125.336 34.4215 125.93 34.2087 126.538 34.2345C127.146 34.2603 127.72 34.5227 128.137 34.9656L133.072 40.2059Z" fill="#2F2E41"/>
<path d="M174.772 84.3635H37.7384C37.6715 84.3635 37.6074 84.337 37.5602 84.2897C37.5129 84.2424 37.4863 84.1783 37.4863 84.1114C37.4863 84.0446 37.5129 83.9805 37.5602 83.9332C37.6074 83.8859 37.6715 83.8594 37.7384 83.8594H174.772C174.839 83.8594 174.903 83.8859 174.95 83.9332C174.998 83.9805 175.024 84.0446 175.024 84.1114C175.024 84.1783 174.998 84.2424 174.95 84.2897C174.903 84.337 174.839 84.3635 174.772 84.3635Z" fill="#CACACA"/>
<path d="M270.149 29.8945C267.805 29.8945 266.141 28.6367 266.071 26.7852H267.821C267.883 27.7773 268.868 28.4102 270.133 28.4102C271.5 28.4102 272.493 27.668 272.493 26.5664C272.493 25.4492 271.563 24.6523 269.946 24.6445H268.977V23.2383H269.946C271.235 23.2461 272.133 22.5273 272.133 21.4414C272.133 20.4102 271.36 19.707 270.164 19.707C269.032 19.707 268.016 20.3398 267.977 21.3633H266.321C266.368 19.5195 268.071 18.2695 270.18 18.2695C272.407 18.2695 273.805 19.6758 273.789 21.3477C273.805 22.6367 273.008 23.5586 271.789 23.8633V23.9414C273.336 24.1602 274.235 25.1992 274.227 26.6289C274.235 28.5117 272.493 29.8945 270.149 29.8945ZM280.733 24.2383V25.6758H275.718V24.2383H280.733ZM282.083 27.5352V26.1445L287.083 18.4258H289.208V26.082H290.755V27.5352H289.208V29.7383H287.583V27.5352H282.083ZM283.896 26.082H287.583V20.4727H287.458L283.896 25.9883V26.082ZM303.277 17.0664V25.332H301.793V23.2539H298.746V24.3945H292.246V18.1133H298.746V19.2695H301.793V17.0664H303.277ZM293.714 23.207H297.293V19.3008H293.714V23.207ZM293.855 28.3945C293.847 26.6992 295.644 25.7148 298.589 25.7227C301.519 25.7148 303.316 26.6992 303.324 28.3945C303.316 30.082 301.519 31.043 298.589 31.0352C295.644 31.043 293.847 30.082 293.855 28.3945ZM295.324 28.3945C295.316 29.332 296.535 29.8867 298.589 29.8945C300.629 29.8867 301.847 29.332 301.855 28.3945C301.847 27.4102 300.629 26.8711 298.589 26.8633C296.535 26.8711 295.316 27.4102 295.324 28.3945ZM298.746 22.0508H301.793V20.457H298.746V22.0508Z" fill="#27342E"/>
<defs>
<filter id="filter0_d_264_1152" x="0.845703" y="0.132812" width="320" height="100" filterUnits="userSpaceOnUse" color-interpolation-filters="sRGB">
<feFlood flood-opacity="0" result="BackgroundImageFix"/>
<feColorMatrix in="SourceAlpha" type="matrix" values="0 0 0 0 0 0 0 0 0 0 0 0 0 0 0 0 0 0 127 0" result="hardAlpha"/>
<feOffset/>
<feGaussianBlur stdDeviation="3.5"/>
<feComposite in2="hardAlpha" operator="out"/>
<feColorMatrix type="matrix" values="0 0 0 0 0 0 0 0 0 0 0 0 0 0 0 0 0 0 0.14 0"/>
<feBlend mode="normal" in2="BackgroundImageFix" result="effect1_dropShadow_264_1152"/>
<feBlend mode="normal" in="SourceGraphic" in2="effect1_dropShadow_264_1152" result="shape"/>
</filter>
<radialGradient id="paint0_radial_264_1152" cx="0" cy="0" r="1" gradientUnits="userSpaceOnUse" gradientTransform="translate(224.322 72.4533) rotate(175.001) scale(212.671 37.6233)">
<stop stop-color="#0B9596"/>
<stop offset="1" stop-color="white"/>
</radialGradient>
</defs>
</svg>
