<svg width="331" height="175" viewBox="0 0 331 175" fill="none" xmlns="http://www.w3.org/2000/svg">
<g filter="url(#filter0_d_264_2547)">
<rect width="306" height="150" rx="8" transform="matrix(-1 0 0 1 318.582 12.2598)" fill="white"/>
</g>
<path opacity="0.5" fill-rule="evenodd" clip-rule="evenodd" d="M107.212 161.627L307.718 161.627C297.285 158.36 285.43 145.685 275.476 135.044C270.448 129.668 265.906 124.811 262.277 121.948C254.984 116.194 244.859 110.061 230.85 108.111C220.338 106.648 207.536 107.62 195.83 111.29C188.986 113.435 181.504 116.749 173.829 120.149C159.298 126.585 144.073 133.329 131.164 133.032C124.115 132.871 116.896 131.367 109.028 129.729C94.8738 126.782 78.6206 123.398 57.4867 126.6C40.1361 129.229 23.606 139.269 12.6327 148.269V153.627C12.6327 156.483 14.1295 158.99 16.3814 160.405C35.1734 160.644 55.887 160.927 77.3513 161.221C87.185 161.355 97.1761 161.491 107.212 161.627Z" fill="url(#paint0_radial_264_2547)"/>
<g clip-path="url(#clip0_264_2547)">
<path d="M195.775 158.346L193.843 158.925L190.691 151.747L193.543 150.893L195.775 158.346Z" fill="#FFB8B8"/>
<path d="M196.074 157.568L192.269 158.707C191.625 158.9 191.085 159.341 190.766 159.932C190.448 160.523 190.377 161.216 190.57 161.859L190.593 161.938L196.824 160.072L196.074 157.568Z" fill="#2F2E41"/>
<path d="M177.407 159.924L175.513 159.23L177.29 151.594L180.085 152.619L177.407 159.924Z" fill="#FFB8B8"/>
<path d="M178.12 159.483L174.39 158.115C173.76 157.884 173.063 157.913 172.454 158.195C171.845 158.478 171.373 158.991 171.142 159.621L171.113 159.698L177.22 161.937L178.12 159.483Z" fill="#2F2E41"/>
<path d="M192.533 145.35L195.824 156.21L191.875 157.362L188.091 147.325L192.533 145.35Z" fill="#2F2E41"/>
<path d="M182.166 147.819L179.204 158.02L175.091 156.046L178.052 146.502L182.166 147.819Z" fill="#2F2E41"/>
<path d="M183.707 149.659C186.341 149.647 188.969 149.405 191.561 148.935L191.627 148.921V146.412L193.131 146.245L191.957 142.052C192.504 135.593 191.727 127.413 191.475 125.059C191.417 124.507 191.379 124.197 191.379 124.197L190.06 112.978L187.851 110.94L186.848 111.593L184.987 113.454C182.824 118.777 181.107 123.789 181.097 124.111L173.842 147.358L173.891 147.393C176.41 149.171 180.25 149.659 183.707 149.659Z" fill="#3F3D56"/>
<path opacity="0.2" d="M189.122 117.954L189.629 121.12L186.195 122.537L189.122 117.954Z" fill="black"/>
<path d="M182.387 110.924H190.326C190.49 110.923 190.646 110.858 190.762 110.743C190.877 110.628 190.942 110.471 190.942 110.308V106.886C190.94 105.671 190.456 104.507 189.596 103.649C188.736 102.791 187.571 102.309 186.357 102.309C185.142 102.309 183.977 102.791 183.117 103.649C182.258 104.507 181.773 105.671 181.771 106.886V110.308C181.771 110.471 181.836 110.628 181.952 110.743C182.067 110.858 182.224 110.923 182.387 110.924Z" fill="#2F2E41"/>
<path d="M185.482 110.717C183.625 110.717 182.12 109.212 182.12 107.355C182.12 105.498 183.625 103.993 185.482 103.993C187.339 103.993 188.844 105.498 188.844 107.355C188.844 109.212 187.339 110.717 185.482 110.717Z" fill="#FFB8B8"/>
<path d="M180.685 107.228H185.539L185.589 106.531L185.838 107.228H186.586L186.684 105.847L187.178 107.228H188.624V107.16C188.623 106.198 188.24 105.276 187.56 104.596C186.88 103.916 185.958 103.534 184.997 103.532H184.312C183.35 103.534 182.428 103.916 181.748 104.596C181.068 105.276 180.686 106.198 180.685 107.16V107.228Z" fill="#2F2E41"/>
<path d="M185.581 111.563C185.618 111.563 185.654 111.56 185.69 111.553L189.245 110.926V105.051H185.332L185.429 105.164C186.777 106.736 185.761 109.285 185.036 110.665C184.982 110.766 184.959 110.88 184.967 110.994C184.976 111.108 185.016 111.217 185.084 111.309C185.141 111.388 185.216 111.452 185.302 111.496C185.389 111.54 185.484 111.563 185.581 111.563Z" fill="#2F2E41"/>
<path d="M179.31 125.763H181.258C181.321 125.763 181.381 125.74 181.427 125.698C181.474 125.656 181.503 125.598 181.508 125.536L181.898 121.538H178.669L179.059 125.536C179.065 125.598 179.094 125.656 179.14 125.698C179.187 125.74 179.247 125.763 179.31 125.763Z" fill="#6C63FF"/>
<path d="M178.673 122.042H181.892C181.959 122.042 182.023 122.015 182.07 121.968C182.117 121.921 182.143 121.857 182.144 121.79V121.187C182.143 121.12 182.117 121.056 182.07 121.009C182.023 120.962 181.959 120.935 181.892 120.935H178.673C178.606 120.935 178.543 120.962 178.495 121.009C178.448 121.056 178.422 121.12 178.422 121.187V121.79C178.422 121.857 178.448 121.921 178.495 121.968C178.543 122.015 178.606 122.042 178.673 122.042Z" fill="#2F2E41"/>
<path opacity="0.2" d="M191.3 124.042C190.405 125.078 189.191 125.787 187.849 126.058C186.508 126.33 185.114 126.147 183.887 125.54L183.155 125.178L191.3 124.042Z" fill="black"/>
<path d="M179.599 123.269C179.749 123.1 179.934 122.966 180.141 122.877C180.348 122.788 180.572 122.745 180.798 122.752C181.023 122.759 181.245 122.815 181.446 122.917C181.647 123.018 181.824 123.163 181.964 123.34L185.358 122.387L186.44 124.309L181.628 125.587C181.314 125.802 180.933 125.894 180.557 125.846C180.18 125.799 179.834 125.615 179.583 125.329C179.333 125.043 179.197 124.676 179.2 124.296C179.202 123.916 179.344 123.551 179.599 123.269Z" fill="#FFB8B8"/>
<path d="M187.699 125.401C189.313 125.402 191.497 124.455 194.089 122.622C194.234 122.522 194.356 122.393 194.448 122.244C194.54 122.094 194.6 121.927 194.624 121.753C194.815 120.541 193.633 118.903 193.517 118.746L192.275 115.335C192.261 115.28 191.861 113.804 190.856 113.279C190.644 113.17 190.411 113.109 190.174 113.099C189.936 113.089 189.699 113.13 189.479 113.22C187.565 113.917 189.06 119.3 189.265 120.006L186.729 121.199L185.118 122.226L182.913 122.457L183.511 125.228L186.861 125.304C187.135 125.371 187.417 125.403 187.699 125.401Z" fill="#3F3D56"/>
<path d="M67.3082 100.119C67.3099 96.8808 68.032 93.6832 69.4222 90.7581C70.8124 87.8331 72.8359 85.2539 75.346 83.2075C77.8561 81.161 80.7901 79.6986 83.9352 78.9261C87.0803 78.1536 90.3579 78.0905 93.5304 78.7412C96.703 79.3919 99.6911 80.7401 102.278 82.6883C104.865 84.6365 106.987 87.1358 108.489 90.005C109.99 92.8743 110.835 96.0418 110.962 99.2779C111.088 102.514 110.493 105.738 109.22 108.716C109.242 108.692 109.264 108.669 109.285 108.645C108.315 110.905 106.97 112.986 105.308 114.799C105.303 114.804 105.298 114.81 105.293 114.815C105.159 114.961 105.024 115.107 104.886 115.249C102.891 117.33 100.502 118.994 97.8579 120.145C95.2141 121.295 92.3682 121.909 89.4853 121.95L90.2231 162.026H87.9436L88.405 135.575L85.1076 133.839L85.6106 132.884L88.426 134.366L88.6426 121.948C82.9399 121.818 77.5147 119.46 73.5277 115.381C69.5406 111.301 67.3083 105.824 67.3082 100.119Z" fill="#E6E6E6"/>
<path d="M132.114 89.4764C132.116 85.6811 132.963 81.9337 134.592 78.5058C136.221 75.0779 138.592 72.0553 141.534 69.6571C144.475 67.2588 147.914 65.545 151.6 64.6397C155.285 63.7344 159.126 63.6604 162.844 64.4229C166.562 65.1855 170.064 66.7656 173.096 69.0486C176.128 71.3317 178.614 74.2607 180.374 77.6232C182.134 80.9858 183.124 84.6978 183.272 88.4903C183.421 92.2827 182.724 96.0607 181.231 99.5504C181.256 99.5226 181.282 99.4955 181.307 99.4676C180.171 102.117 178.595 104.555 176.647 106.679C176.641 106.686 176.635 106.692 176.629 106.698C176.472 106.87 176.314 107.04 176.152 107.207C173.814 109.646 171.014 111.596 167.916 112.944C164.817 114.292 161.482 115.012 158.104 115.06L158.968 162.025H156.297L156.838 131.028L152.974 128.993L153.563 127.874L156.862 129.611L157.116 115.058C150.433 114.905 144.075 112.142 139.403 107.361C134.73 102.581 132.114 96.1613 132.114 89.4764Z" fill="#E6E6E6"/>
<path d="M205.615 79.4657C205.618 75.1467 206.581 70.8822 208.435 66.9814C210.289 63.0805 212.987 59.6409 216.335 56.9117C219.682 54.1826 223.595 52.2322 227.789 51.2021C231.984 50.1719 236.355 50.0876 240.586 50.9554C244.817 51.8232 248.801 53.6212 252.252 56.2194C255.702 58.8175 258.531 62.1505 260.534 65.9771C262.537 69.8036 263.664 74.0278 263.832 78.3435C264.001 82.6593 263.208 86.9585 261.51 90.9297C261.538 90.8981 261.567 90.8673 261.596 90.8355C260.302 93.8501 258.509 96.6247 256.292 99.0423C256.286 99.0496 256.279 99.0567 256.272 99.064C256.093 99.259 255.913 99.4529 255.729 99.6429C253.068 102.418 249.882 104.638 246.357 106.172C242.831 107.706 239.036 108.524 235.191 108.58L236.175 162.025H233.135L233.75 126.75L229.353 124.435L230.024 123.161L233.778 125.138L234.067 108.577C226.462 108.403 219.227 105.259 213.91 99.8186C208.592 94.3782 205.615 87.073 205.615 79.4657Z" fill="#E6E6E6"/>
<path d="M209.534 91.983C188.455 91.983 171.367 74.8952 171.367 53.8164C171.367 32.7375 188.455 15.6497 209.534 15.6497C230.612 15.6497 247.7 32.7375 247.7 53.8164C247.7 74.8952 230.612 91.983 209.534 91.983Z" fill="#8EDB9B"/>
<path opacity="0.2" d="M237.716 28.325C241.276 36.6526 241.759 45.9749 239.078 54.6259C236.398 63.2769 230.728 70.6929 223.083 75.5488C215.438 80.4046 206.316 82.3838 197.346 81.1327C188.376 79.8817 180.143 75.4818 174.119 68.7195C176.293 73.8073 179.548 78.3616 183.658 82.0666C187.768 85.7717 192.634 88.5389 197.919 90.1767C203.204 91.8145 208.782 92.2836 214.267 91.5515C219.751 90.8195 225.011 88.9038 229.682 85.9371C234.352 82.9705 238.322 79.0238 241.316 74.3706C244.31 69.7174 246.257 64.469 247.021 58.9888C247.785 53.5086 247.349 47.9278 245.742 42.6331C244.135 37.3383 241.397 32.4562 237.716 28.325Z" fill="black"/>
<path d="M209.428 53.8162H209.323L207.435 162.025H211.42L209.428 53.8162Z" fill="#3F3D56"/>
<path d="M203.361 111.086L209.67 114.408L208.791 116.078L202.482 112.756L203.361 111.086Z" fill="#3F3D56"/>
<path d="M151.157 161.014C151.157 161.014 151.02 158.128 148.197 158.464L151.157 161.014Z" fill="#3F3D56"/>
<path d="M151.954 158.268C151.174 158.268 150.541 157.635 150.541 156.855C150.541 156.074 151.174 155.442 151.954 155.442C152.735 155.442 153.367 156.074 153.367 156.855C153.367 157.635 152.735 158.268 151.954 158.268Z" fill="#6C63FF"/>
<path d="M151.786 159.234H152.185V162.025H151.786V159.234Z" fill="#3F3D56"/>
<path d="M249.066 160.614C249.066 160.614 248.929 157.728 246.106 158.064L249.066 160.614Z" fill="#3F3D56"/>
<path d="M249.864 157.868C249.084 157.868 248.452 157.235 248.452 156.455C248.452 155.675 249.084 155.042 249.864 155.042C250.645 155.042 251.277 155.675 251.277 156.455C251.277 157.235 250.645 157.868 249.864 157.868Z" fill="#6C63FF"/>
<path d="M249.695 158.834H250.094V161.626H249.695V158.834Z" fill="#3F3D56"/>
<path d="M225.936 160.812C225.936 160.812 225.798 157.927 222.975 158.262L225.936 160.812Z" fill="#3F3D56"/>
<path d="M226.734 158.066C225.953 158.066 225.321 157.434 225.321 156.654C225.321 155.873 225.953 155.241 226.734 155.241C227.514 155.241 228.146 155.873 228.146 156.654C228.146 157.434 227.514 158.066 226.734 158.066Z" fill="#6C63FF"/>
<path d="M226.564 159.035H226.963V161.827H226.564V159.035Z" fill="#3F3D56"/>
<path d="M164.42 30.7105L161.586 28.4439C163.788 28.201 164.693 29.4017 165.063 30.3521C166.783 29.6378 168.655 30.5739 168.655 30.5739L162.985 32.6324C163.271 31.8683 163.769 31.2017 164.42 30.7105Z" fill="#3F3D56"/>
<path d="M121.32 53.7984L118.486 51.5317C120.687 51.2888 121.592 52.4896 121.962 53.44C123.682 52.7257 125.555 53.6617 125.555 53.6617L119.884 55.7203C120.17 54.9562 120.668 54.2896 121.32 53.7984Z" fill="#3F3D56"/>
<path d="M167.806 73.5018L164.972 71.2351C167.174 70.9922 168.078 72.1929 168.449 73.1433C170.169 72.4291 172.041 73.3651 172.041 73.3651L166.371 75.4237C166.657 74.6596 167.155 73.9929 167.806 73.5018Z" fill="#3F3D56"/>
<path d="M112.497 162.061C112.497 162.061 112.359 159.176 109.536 159.511L112.497 162.061Z" fill="#3F3D56"/>
<path d="M139.018 162.061C139.018 162.061 138.88 159.176 136.057 159.511L139.018 162.061Z" fill="#3F3D56"/>
<path d="M235.73 162.061C235.73 162.061 235.593 159.176 232.77 159.511L235.73 162.061Z" fill="#3F3D56"/>
<path d="M100.531 162.061C100.531 162.061 100.394 159.176 97.5706 159.511L100.531 162.061Z" fill="#3F3D56"/>
<path d="M106.114 162.061C106.114 162.061 105.977 159.176 103.154 159.511L106.114 162.061Z" fill="#3F3D56"/>
<path d="M117.633 162.061C117.633 162.061 117.771 159.176 120.594 159.511L117.633 162.061Z" fill="#3F3D56"/>
<path d="M163.497 162.061C163.497 162.061 163.635 159.176 166.458 159.511L163.497 162.061Z" fill="#3F3D56"/>
<path d="M201.586 162.061C201.586 162.061 201.724 159.176 204.547 159.511L201.586 162.061Z" fill="#3F3D56"/>
<path d="M242.064 162.061C242.064 162.061 242.201 159.176 245.024 159.511L242.064 162.061Z" fill="#3F3D56"/>
<path d="M88.5228 162.061C88.5228 162.061 88.6605 159.176 91.4834 159.511L88.5228 162.061Z" fill="#3F3D56"/>
<path d="M105.668 162.26C105.668 162.26 105.806 159.374 108.629 159.71L105.668 162.26Z" fill="#3F3D56"/>
</g>
<g opacity="0.4" filter="url(#filter1_d_264_2547)">
<rect x="12.1562" y="12.2285" width="306" height="150" rx="8" fill="black"/>
</g>
<path d="M38.3875 29.041V30.2285H34.1531V33.6504H39.8562V34.8691H27.0437V33.6504H32.6844V30.2285H28.6375V23.666H38.2625V24.8691H30.1219V29.041H38.3875ZM53.2844 33.6191V34.8535H40.4719V33.6191H46.1125V30.7441H41.9406V23.541H43.425V25.9473H50.3V23.541H51.7688V30.7441H47.5813V33.6191H53.2844ZM43.425 29.541H50.3V27.1504H43.425V29.541Z" fill="white"/>
<defs>
<filter id="filter0_d_264_2547" x="0.582031" y="0.259766" width="330" height="174" filterUnits="userSpaceOnUse" color-interpolation-filters="sRGB">
<feFlood flood-opacity="0" result="BackgroundImageFix"/>
<feColorMatrix in="SourceAlpha" type="matrix" values="0 0 0 0 0 0 0 0 0 0 0 0 0 0 0 0 0 0 127 0" result="hardAlpha"/>
<feOffset/>
<feGaussianBlur stdDeviation="6"/>
<feComposite in2="hardAlpha" operator="out"/>
<feColorMatrix type="matrix" values="0 0 0 0 0 0 0 0 0 0 0 0 0 0 0 0 0 0 0.14 0"/>
<feBlend mode="normal" in2="BackgroundImageFix" result="effect1_dropShadow_264_2547"/>
<feBlend mode="normal" in="SourceGraphic" in2="effect1_dropShadow_264_2547" result="shape"/>
</filter>
<filter id="filter1_d_264_2547" x="0.15625" y="0.228516" width="330" height="174" filterUnits="userSpaceOnUse" color-interpolation-filters="sRGB">
<feFlood flood-opacity="0" result="BackgroundImageFix"/>
<feColorMatrix in="SourceAlpha" type="matrix" values="0 0 0 0 0 0 0 0 0 0 0 0 0 0 0 0 0 0 127 0" result="hardAlpha"/>
<feOffset/>
<feGaussianBlur stdDeviation="6"/>
<feComposite in2="hardAlpha" operator="out"/>
<feColorMatrix type="matrix" values="0 0 0 0 0 0 0 0 0 0 0 0 0 0 0 0 0 0 0.14 0"/>
<feBlend mode="normal" in2="BackgroundImageFix" result="effect1_dropShadow_264_2547"/>
<feBlend mode="normal" in="SourceGraphic" in2="effect1_dropShadow_264_2547" result="shape"/>
</filter>
<radialGradient id="paint0_radial_264_2547" cx="0" cy="0" r="1" gradientUnits="userSpaceOnUse" gradientTransform="translate(219.976 140.946) rotate(174.784) scale(203.861 37.6111)">
<stop stop-color="#0B9596"/>
<stop offset="1" stop-color="white"/>
</radialGradient>
<clipPath id="clip0_264_2547">
<rect width="196.69" height="150" fill="white" transform="matrix(-1 0 0 1 263.926 12.2598)"/>
</clipPath>
</defs>
</svg>
