<svg width="331" height="175" viewBox="0 0 331 175" fill="none" xmlns="http://www.w3.org/2000/svg">
<g filter="url(#filter0_d_264_2430)">
<rect width="306" height="150" rx="8" transform="matrix(-1 0 0 1 318.582 12.3789)" fill="white"/>
</g>
<path opacity="0.5" fill-rule="evenodd" clip-rule="evenodd" d="M107.213 161.746L307.719 161.746C297.286 158.479 285.431 145.805 275.477 135.163C270.449 129.787 265.907 124.93 262.278 122.067C254.985 116.313 244.86 110.18 230.851 108.23C220.339 106.767 207.537 107.74 195.831 111.409C188.987 113.554 181.505 116.868 173.83 120.268C159.299 126.704 144.074 133.448 131.165 133.152C124.116 132.99 116.897 131.487 109.029 129.848C94.8748 126.901 78.6216 123.517 57.4877 126.719C40.1371 129.348 23.607 139.388 12.6337 148.388V153.746C12.6337 156.602 14.1304 159.109 16.3824 160.524C35.1744 160.763 55.888 161.046 77.3523 161.34C87.1859 161.474 97.1771 161.611 107.213 161.746Z" fill="url(#paint0_radial_264_2430)"/>
<path d="M195.773 158.465L193.841 159.044L190.689 151.866L193.541 151.012L195.773 158.465Z" fill="#FFB8B8"/>
<path d="M196.074 157.688L192.269 158.827C191.625 159.02 191.085 159.46 190.766 160.051C190.448 160.643 190.377 161.336 190.57 161.979L190.593 162.058L196.824 160.192L196.074 157.688Z" fill="#2F2E41"/>
<path d="M177.408 160.043L175.514 159.349L177.291 151.713L180.086 152.738L177.408 160.043Z" fill="#FFB8B8"/>
<path d="M178.121 159.602L174.391 158.235C173.761 158.004 173.064 158.032 172.455 158.315C171.846 158.597 171.374 159.11 171.143 159.74L171.114 159.818L177.221 162.057L178.121 159.602Z" fill="#2F2E41"/>
<path d="M192.533 145.469L195.824 156.329L191.875 157.48L188.091 147.443L192.533 145.469Z" fill="#2F2E41"/>
<path d="M182.168 147.937L179.206 158.139L175.093 156.165L178.054 146.621L182.168 147.937Z" fill="#2F2E41"/>
<path d="M183.709 149.778C186.343 149.766 188.971 149.523 191.563 149.053L191.629 149.04V146.53L193.133 146.363L191.959 142.171C192.506 135.712 191.729 127.532 191.477 125.178C191.419 124.626 191.381 124.316 191.381 124.316L190.062 113.097L187.853 111.059L186.85 111.711L184.989 113.572C182.826 118.896 181.109 123.908 181.099 124.23L173.844 147.477L173.893 147.511C176.412 149.289 180.252 149.778 183.709 149.778Z" fill="#3F3D56"/>
<path opacity="0.2" d="M189.122 118.074L189.629 121.24L186.195 122.657L189.122 118.074Z" fill="black"/>
<path d="M182.386 111.043H190.325C190.489 111.042 190.645 110.977 190.761 110.862C190.876 110.746 190.941 110.59 190.941 110.427V107.004C190.939 105.79 190.455 104.626 189.595 103.768C188.735 102.91 187.57 102.428 186.356 102.428C185.141 102.428 183.976 102.91 183.116 103.768C182.257 104.626 181.772 105.79 181.77 107.004V110.427C181.77 110.59 181.835 110.746 181.951 110.862C182.066 110.977 182.223 111.042 182.386 111.043Z" fill="#2F2E41"/>
<path d="M185.482 110.835C183.625 110.835 182.12 109.33 182.12 107.473C182.12 105.617 183.625 104.111 185.482 104.111C187.339 104.111 188.844 105.617 188.844 107.473C188.844 109.33 187.339 110.835 185.482 110.835Z" fill="#FFB8B8"/>
<path d="M180.686 107.348H185.54L185.59 106.651L185.839 107.348H186.587L186.685 105.967L187.179 107.348H188.625V107.28C188.624 106.318 188.241 105.396 187.561 104.716C186.881 104.036 185.959 103.653 184.998 103.652H184.313C183.351 103.653 182.429 104.036 181.749 104.716C181.069 105.396 180.687 106.318 180.686 107.28V107.348Z" fill="#2F2E41"/>
<path d="M185.582 111.682C185.619 111.682 185.655 111.679 185.691 111.672L189.246 111.045V105.17H185.333L185.43 105.283C186.778 106.855 185.762 109.404 185.037 110.784C184.983 110.885 184.96 110.999 184.968 111.113C184.977 111.227 185.017 111.336 185.085 111.428C185.142 111.507 185.217 111.571 185.303 111.615C185.39 111.659 185.485 111.682 185.582 111.682Z" fill="#2F2E41"/>
<path d="M179.31 125.883H181.258C181.321 125.883 181.381 125.86 181.427 125.818C181.474 125.776 181.503 125.718 181.508 125.656L181.898 121.658H178.669L179.059 125.656C179.065 125.718 179.094 125.776 179.14 125.818C179.187 125.86 179.247 125.883 179.31 125.883Z" fill="#6C63FF"/>
<path d="M178.674 122.161H181.893C181.96 122.161 182.024 122.135 182.071 122.087C182.118 122.04 182.144 121.976 182.145 121.91V121.306C182.144 121.239 182.118 121.176 182.071 121.128C182.024 121.081 181.96 121.055 181.893 121.055H178.674C178.607 121.055 178.544 121.081 178.496 121.128C178.449 121.176 178.423 121.239 178.423 121.306V121.91C178.423 121.976 178.449 122.04 178.496 122.087C178.544 122.135 178.607 122.161 178.674 122.161Z" fill="#2F2E41"/>
<path opacity="0.2" d="M191.301 124.16C190.406 125.196 189.192 125.906 187.85 126.177C186.509 126.448 185.115 126.266 183.888 125.659L183.156 125.296L191.301 124.16Z" fill="black"/>
<path d="M179.6 123.387C179.75 123.219 179.935 123.085 180.142 122.996C180.349 122.907 180.573 122.864 180.799 122.871C181.024 122.878 181.246 122.934 181.447 123.036C181.648 123.137 181.825 123.282 181.965 123.459L185.359 122.506L186.441 124.428L181.629 125.706C181.315 125.921 180.934 126.013 180.558 125.965C180.181 125.918 179.834 125.734 179.584 125.448C179.334 125.162 179.198 124.794 179.201 124.415C179.203 124.035 179.345 123.669 179.6 123.387Z" fill="#FFB8B8"/>
<path d="M187.699 125.521C189.313 125.521 191.497 124.575 194.089 122.742C194.234 122.642 194.356 122.513 194.448 122.363C194.54 122.213 194.6 122.046 194.624 121.872C194.815 120.661 193.633 119.023 193.517 118.866L192.275 115.455C192.261 115.399 191.861 113.923 190.856 113.398C190.644 113.29 190.411 113.228 190.174 113.218C189.936 113.208 189.699 113.25 189.479 113.34C187.565 114.037 189.06 119.419 189.265 120.125L186.729 121.319L185.118 122.346L182.913 122.576L183.511 125.348L186.861 125.423C187.135 125.49 187.417 125.523 187.699 125.521Z" fill="#3F3D56"/>
<path d="M67.3062 100.238C67.308 96.999 68.0301 93.8013 69.4203 90.8763C70.8105 87.9512 72.834 85.3721 75.3441 83.3256C77.8542 81.2792 80.7881 79.8168 83.9332 79.0443C87.0784 78.2718 90.3559 78.2086 93.5285 78.8593C96.7011 79.51 99.6891 80.8583 102.276 82.8065C104.863 84.7546 106.985 87.2539 108.487 90.1232C109.989 92.9925 110.833 96.16 110.96 99.3961C111.086 102.632 110.492 105.856 109.218 108.834C109.24 108.81 109.262 108.787 109.283 108.763C108.313 111.024 106.969 113.104 105.306 114.917C105.301 114.922 105.296 114.928 105.291 114.933C105.157 115.079 105.022 115.225 104.884 115.367C102.889 117.449 100.5 119.113 97.8559 120.263C95.2122 121.413 92.3662 122.027 89.4833 122.068L90.2212 162.144H87.9417L88.403 135.694L85.1056 133.958L85.6086 133.002L88.4241 134.484L88.6407 122.066C82.9379 121.936 77.5128 119.578 73.5257 115.499C69.5387 111.42 67.3063 105.942 67.3062 100.238Z" fill="#E6E6E6"/>
<path d="M132.115 89.5948C132.117 85.7995 132.963 82.0521 134.593 78.6242C136.222 75.1963 138.593 72.1737 141.535 69.7755C144.476 67.3772 147.915 65.6634 151.601 64.7581C155.286 63.8528 159.127 63.7788 162.845 64.5413C166.563 65.3039 170.065 66.884 173.097 69.1671C176.129 71.4501 178.615 74.3791 180.375 77.7416C182.135 81.1042 183.125 84.8162 183.273 88.6087C183.422 92.4011 182.725 96.1791 181.232 99.6688C181.257 99.641 181.283 99.6139 181.308 99.586C180.172 102.235 178.596 104.673 176.648 106.798C176.642 106.804 176.636 106.81 176.63 106.817C176.473 106.988 176.315 107.159 176.153 107.326C173.815 109.764 171.015 111.715 167.917 113.063C164.818 114.411 161.483 115.13 158.105 115.179L158.969 162.144H156.298L156.839 131.146L152.975 129.112L153.564 127.992L156.863 129.729L157.117 115.176C150.434 115.023 144.076 112.261 139.404 107.48C134.731 102.699 132.115 96.2797 132.115 89.5948Z" fill="#E6E6E6"/>
<path d="M205.616 79.5846C205.618 75.2656 206.582 71.0011 208.436 67.1003C210.289 63.1994 212.988 59.7598 216.336 57.0306C219.683 54.3015 223.596 52.3511 227.79 51.321C231.985 50.2908 236.356 50.2065 240.587 51.0743C244.817 51.9421 248.802 53.7401 252.253 56.3383C255.703 58.9364 258.532 62.2694 260.535 66.096C262.538 69.9225 263.664 74.1467 263.833 78.4624C264.002 82.7782 263.209 87.0774 261.511 91.0486C261.539 91.017 261.568 90.9862 261.597 90.9544C260.303 93.969 258.51 96.7436 256.293 99.1612C256.287 99.1685 256.28 99.1756 256.273 99.1829C256.094 99.3779 255.914 99.5718 255.73 99.7618C253.069 102.537 249.883 104.757 246.358 106.291C242.832 107.825 239.037 108.643 235.192 108.699L236.176 162.144H233.136L233.751 126.869L229.354 124.554L230.024 123.28L233.779 125.257L234.068 108.696C226.463 108.521 219.228 105.378 213.911 99.9375C208.593 94.4971 205.616 87.1919 205.616 79.5846Z" fill="#E6E6E6"/>
<path d="M209.533 92.1029C188.454 92.1029 171.366 75.0151 171.366 53.9362C171.366 32.8573 188.454 15.7695 209.533 15.7695C230.611 15.7695 247.699 32.8573 247.699 53.9362C247.699 75.0151 230.611 92.1029 209.533 92.1029Z" fill="#8EDB9B"/>
<path opacity="0.2" d="M237.716 28.4434C241.276 36.7711 241.759 46.0933 239.078 54.7443C236.398 63.3953 230.728 70.8113 223.083 75.6672C215.438 80.523 206.316 82.5022 197.346 81.2511C188.376 80.0001 180.143 75.6002 174.119 68.8379C176.293 73.9257 179.548 78.48 183.658 82.185C187.768 85.8901 192.634 88.6573 197.919 90.2951C203.204 91.9329 208.782 92.402 214.267 91.6699C219.751 90.9379 225.011 89.0222 229.682 86.0555C234.352 83.0889 238.322 79.1422 241.316 74.4891C244.31 69.8359 246.257 64.5874 247.021 59.1072C247.785 53.627 247.349 48.0463 245.742 42.7515C244.135 37.4567 241.397 32.5746 237.716 28.4434Z" fill="black"/>
<path d="M209.43 53.9355H209.325L207.437 162.144H211.422L209.43 53.9355Z" fill="#3F3D56"/>
<path d="M203.359 111.206L209.668 114.527L208.789 116.197L202.48 112.876L203.359 111.206Z" fill="#3F3D56"/>
<path d="M151.156 161.132C151.156 161.132 151.019 158.246 148.196 158.582L151.156 161.132Z" fill="#3F3D56"/>
<path d="M151.954 158.386C151.174 158.386 150.541 157.754 150.541 156.973C150.541 156.193 151.174 155.561 151.954 155.561C152.735 155.561 153.367 156.193 153.367 156.973C153.367 157.754 152.735 158.386 151.954 158.386Z" fill="#6C63FF"/>
<path d="M151.785 159.354H152.184V162.145H151.785V159.354Z" fill="#3F3D56"/>
<path d="M249.066 160.733C249.066 160.733 248.929 157.848 246.106 158.183L249.066 160.733Z" fill="#3F3D56"/>
<path d="M249.864 157.988C249.084 157.988 248.452 157.355 248.452 156.575C248.452 155.795 249.084 155.162 249.864 155.162C250.645 155.162 251.277 155.795 251.277 156.575C251.277 157.355 250.645 157.988 249.864 157.988Z" fill="#6C63FF"/>
<path d="M249.695 158.953H250.094V161.745H249.695V158.953Z" fill="#3F3D56"/>
<path d="M225.938 160.933C225.938 160.933 225.8 158.047 222.977 158.383L225.938 160.933Z" fill="#3F3D56"/>
<path d="M226.732 158.185C225.951 158.185 225.319 157.553 225.319 156.772C225.319 155.992 225.951 155.359 226.732 155.359C227.512 155.359 228.145 155.992 228.145 156.772C228.145 157.553 227.512 158.185 226.732 158.185Z" fill="#6C63FF"/>
<path d="M226.566 159.154H226.965V161.946H226.566V159.154Z" fill="#3F3D56"/>
<path d="M164.421 30.8297L161.587 28.563C163.789 28.3201 164.694 29.5208 165.064 30.4712C166.784 29.757 168.656 30.693 168.656 30.693L162.986 32.7515C163.272 31.9875 163.77 31.3208 164.421 30.8297Z" fill="#3F3D56"/>
<path d="M121.32 53.9176L118.486 51.6509C120.687 51.408 121.592 52.6087 121.962 53.5591C123.682 52.8449 125.555 53.7809 125.555 53.7809L119.884 55.8394C120.17 55.0754 120.668 54.4087 121.32 53.9176Z" fill="#3F3D56"/>
<path d="M167.808 73.6207L164.974 71.354C167.176 71.1111 168.08 72.3118 168.451 73.2622C170.171 72.548 172.043 73.484 172.043 73.484L166.373 75.5426C166.659 74.7785 167.157 74.1118 167.808 73.6207Z" fill="#3F3D56"/>
<path d="M112.496 162.181C112.496 162.181 112.358 159.295 109.535 159.631L112.496 162.181Z" fill="#3F3D56"/>
<path d="M139.016 162.181C139.016 162.181 138.878 159.295 136.055 159.631L139.016 162.181Z" fill="#3F3D56"/>
<path d="M235.73 162.181C235.73 162.181 235.593 159.295 232.77 159.631L235.73 162.181Z" fill="#3F3D56"/>
<path d="M100.531 162.181C100.531 162.181 100.394 159.295 97.5706 159.631L100.531 162.181Z" fill="#3F3D56"/>
<path d="M106.113 162.181C106.113 162.181 105.976 159.295 103.153 159.631L106.113 162.181Z" fill="#3F3D56"/>
<path d="M117.633 162.181C117.633 162.181 117.771 159.295 120.594 159.631L117.633 162.181Z" fill="#3F3D56"/>
<path d="M163.496 162.181C163.496 162.181 163.634 159.295 166.457 159.631L163.496 162.181Z" fill="#3F3D56"/>
<path d="M201.586 162.181C201.586 162.181 201.724 159.295 204.547 159.631L201.586 162.181Z" fill="#3F3D56"/>
<path d="M242.063 162.181C242.063 162.181 242.201 159.295 245.023 159.631L242.063 162.181Z" fill="#3F3D56"/>
<path d="M88.5237 162.181C88.5237 162.181 88.6615 159.295 91.4844 159.631L88.5237 162.181Z" fill="#3F3D56"/>
<path d="M105.668 162.378C105.668 162.378 105.806 159.493 108.629 159.828L105.668 162.378Z" fill="#3F3D56"/>
<path d="M38.3875 29.1602V30.3477H34.1531V33.7695H39.8562V34.9883H27.0437V33.7695H32.6844V30.3477H28.6375V23.7852H38.2625V24.9883H30.1219V29.1602H38.3875ZM53.2844 33.7383V34.9727H40.4719V33.7383H46.1125V30.8633H41.9406V23.6602H43.425V26.0664H50.3V23.6602H51.7688V30.8633H47.5813V33.7383H53.2844ZM43.425 29.6602H50.3V27.2695H43.425V29.6602Z" fill="#27342E"/>
<defs>
<filter id="filter0_d_264_2430" x="0.582031" y="0.378906" width="330" height="174" filterUnits="userSpaceOnUse" color-interpolation-filters="sRGB">
<feFlood flood-opacity="0" result="BackgroundImageFix"/>
<feColorMatrix in="SourceAlpha" type="matrix" values="0 0 0 0 0 0 0 0 0 0 0 0 0 0 0 0 0 0 127 0" result="hardAlpha"/>
<feOffset/>
<feGaussianBlur stdDeviation="6"/>
<feComposite in2="hardAlpha" operator="out"/>
<feColorMatrix type="matrix" values="0 0 0 0 0 0 0 0 0 0 0 0 0 0 0 0 0 0 0.14 0"/>
<feBlend mode="normal" in2="BackgroundImageFix" result="effect1_dropShadow_264_2430"/>
<feBlend mode="normal" in="SourceGraphic" in2="effect1_dropShadow_264_2430" result="shape"/>
</filter>
<radialGradient id="paint0_radial_264_2430" cx="0" cy="0" r="1" gradientUnits="userSpaceOnUse" gradientTransform="translate(219.977 141.065) rotate(174.784) scale(203.861 37.6111)">
<stop stop-color="#0B9596"/>
<stop offset="1" stop-color="white"/>
</radialGradient>
</defs>
</svg>
