<svg width="321" height="101" viewBox="0 0 321 101" fill="none" xmlns="http://www.w3.org/2000/svg">
<g filter="url(#filter0_d_264_1099)">
<rect x="313.846" y="7.47461" width="86" height="306" rx="8" transform="rotate(90 313.846 7.47461)" fill="white"/>
<rect x="313.846" y="7.47461" width="86" height="306" rx="8" transform="rotate(90 313.846 7.47461)" fill="white" fill-opacity="0.2"/>
</g>
<path d="M103.798 72.6657C103.792 72.4921 104.323 72.3301 104.986 72.3038C105.649 72.2775 106.192 72.3969 106.198 72.5705C106.205 72.7441 105.674 72.9061 105.011 72.9324C104.348 72.9587 103.805 72.8393 103.798 72.6657Z" fill="#E6E6E6"/>
<path d="M96.1539 72.2575C96.147 72.0839 96.6787 71.9219 97.3415 71.8956C98.0042 71.8693 98.5471 71.9887 98.5539 72.1623C98.5608 72.3358 98.0291 72.4979 97.3664 72.5242C96.7036 72.5505 96.1608 72.4311 96.1539 72.2575Z" fill="#3F3D56"/>
<path d="M106.736 70.3044C106.729 70.1308 107.261 69.9688 107.923 69.9425C108.586 69.9162 109.129 70.0356 109.136 70.2091C109.143 70.3827 108.611 70.5448 107.948 70.5711C107.286 70.5974 106.743 70.478 106.736 70.3044Z" fill="#F7B787"/>
<path d="M110.426 69.442C110.408 69.287 110.632 69.1343 110.925 69.1009C111.218 69.0675 111.47 69.166 111.488 69.321C111.505 69.4759 111.282 69.6287 110.989 69.6621C110.696 69.6955 110.444 69.597 110.426 69.442Z" fill="#E6E6E6"/>
<path d="M112.195 67.6353C112.178 67.4804 112.401 67.3277 112.694 67.2942C112.987 67.2608 113.239 67.3594 113.257 67.5143C113.275 67.6693 113.051 67.822 112.758 67.8554C112.465 67.8889 112.213 67.7903 112.195 67.6353Z" fill="#3F3D56"/>
<path d="M102.223 70.7135C102.205 70.5585 102.428 70.4058 102.722 70.3724C103.015 70.3389 103.267 70.4375 103.284 70.5924C103.302 70.7474 103.079 70.9001 102.786 70.9336C102.492 70.967 102.24 70.8684 102.223 70.7135Z" fill="#E6E6E6"/>
<path d="M105.719 71.483C105.701 71.328 105.925 71.1753 106.218 71.1419C106.511 71.1085 106.763 71.207 106.781 71.362C106.798 71.5169 106.575 71.6697 106.282 71.7031C105.988 71.7365 105.737 71.638 105.719 71.483Z" fill="#F7B787"/>
<path d="M100.063 72.7213C100.045 72.5663 100.268 72.4136 100.561 72.3802C100.855 72.3468 101.107 72.4453 101.124 72.6003C101.142 72.7552 100.919 72.908 100.625 72.9414C100.332 72.9748 100.08 72.8763 100.063 72.7213Z" fill="#3F3D56"/>
<path d="M106.152 63.0457C106.242 63.0498 106.33 63.0264 106.405 62.9786C106.481 62.9308 106.54 62.8611 106.574 62.7787C106.609 62.6963 106.617 62.6054 106.598 62.5181C106.579 62.4309 106.534 62.3516 106.468 62.291L106.438 62.1724C106.442 62.1629 106.446 62.1534 106.45 62.1439C106.54 61.9317 106.69 61.7507 106.883 61.6238C107.075 61.4969 107.3 61.4296 107.531 61.4305C107.761 61.4313 107.986 61.5003 108.178 61.6286C108.369 61.757 108.518 61.939 108.606 62.1519C108.959 63.0015 109.408 63.8526 109.519 64.751C109.567 65.1481 109.547 65.5506 109.458 65.9407C110.286 64.1333 110.716 62.1688 110.719 60.1806C110.719 59.6816 110.692 59.1831 110.636 58.6872C110.59 58.2808 110.527 57.8772 110.445 57.4765C110.001 55.3023 109.048 53.2646 107.664 51.5305C106.994 51.1648 106.452 50.6026 106.111 49.9194C105.988 49.6739 105.901 49.4117 105.853 49.1412C105.928 49.1511 106.138 47.9998 106.081 47.9292C106.186 47.7693 106.374 47.6898 106.489 47.5338C107.061 46.758 107.85 46.8935 108.261 47.9478C109.14 48.3915 109.149 49.1274 108.609 49.8352C108.266 50.2854 108.219 50.8947 107.918 51.3768C107.949 51.4165 107.981 51.4549 108.012 51.4945C108.578 52.2228 109.072 53.0048 109.485 53.8293C109.385 52.9056 109.505 51.9712 109.836 51.1029C110.171 50.2938 110.8 49.6123 111.353 48.9127C112.018 48.0725 113.381 48.4392 113.499 49.5043C113.5 49.5146 113.501 49.525 113.502 49.5353C113.42 49.5817 113.339 49.6309 113.26 49.683C113.162 49.7491 113.085 49.8435 113.041 49.954C112.996 50.0644 112.986 50.1856 113.012 50.3018C113.038 50.418 113.098 50.5237 113.185 50.6051C113.272 50.6864 113.381 50.7397 113.499 50.7578L113.511 50.7597C113.481 51.056 113.43 51.3498 113.356 51.6383C114.066 54.3851 112.533 55.3855 110.344 55.4305C110.295 55.4552 110.248 55.48 110.2 55.5036C110.616 56.6818 110.876 57.909 110.976 59.1544C111.032 59.8892 111.029 60.6273 110.966 61.3616L110.969 61.3356C111.128 60.5191 111.564 59.7824 112.202 59.2499C113.151 58.4704 114.491 58.1833 115.515 57.5568C115.623 57.4869 115.75 57.4496 115.879 57.4493C116.008 57.449 116.135 57.4857 116.244 57.555C116.353 57.6243 116.44 57.7234 116.495 57.8405C116.55 57.9577 116.57 58.0881 116.553 58.2162C116.551 58.2253 116.55 58.2345 116.549 58.2436C116.396 58.3057 116.247 58.3773 116.104 58.458C116.022 58.5044 115.941 58.5536 115.862 58.6057C115.763 58.6718 115.687 58.7663 115.642 58.8767C115.598 58.9871 115.588 59.1084 115.614 59.2245C115.64 59.3407 115.7 59.4464 115.787 59.5278C115.873 59.6092 115.983 59.6624 116.1 59.6805L116.112 59.6824C116.121 59.6836 116.129 59.6849 116.137 59.6861C115.877 60.3087 115.511 60.8817 115.056 61.3802C114.612 63.778 112.705 64.0055 110.665 63.3072H110.663C110.44 64.28 110.115 65.227 109.696 66.1327H106.239C106.227 66.0943 106.216 66.0547 106.204 66.0163C106.524 66.0364 106.846 66.0172 107.161 65.9593C106.904 65.6445 106.648 65.3272 106.391 65.0125C106.386 65.0066 106.38 65.0004 106.375 64.9939C106.245 64.8328 106.114 64.6729 105.984 64.5118L105.984 64.5116C105.977 64.0178 106.034 63.525 106.152 63.0457Z" fill="#8EDB9B"/>
<path opacity="0.5" fill-rule="evenodd" clip-rule="evenodd" d="M7.84549 64.7295V85.4746C7.84549 89.8929 11.4272 93.4746 15.8455 93.4746L279.49 93.4746C281.405 93.4746 283.164 92.8014 284.541 91.6788C266.878 84.0156 237.978 63.4424 228.281 55.7915C220.988 50.0377 210.863 43.9048 196.854 41.955C186.342 40.492 173.541 41.4642 161.835 45.1334C154.99 47.2788 147.508 50.5928 139.833 53.9925C125.302 60.4289 110.078 67.1726 97.1679 66.8762C90.1194 66.7144 82.9001 65.2112 75.0323 63.573C60.8781 60.6258 44.6249 57.2416 23.491 60.4439C18.1521 61.2529 12.891 62.7635 7.84549 64.7295Z" fill="url(#paint0_radial_264_1099)"/>
<path d="M50.231 26.0164C50.5523 23.5535 56.2318 23.7106 56.7681 26.0278C57.0526 25.8498 57.7762 25.973 58.0461 26.1776C58.316 26.3821 58.489 26.6829 58.6584 26.9748C58.8895 27.3802 59.1292 27.8002 59.1804 28.2651C59.2338 28.7291 59.0515 29.2547 58.6309 29.4613C58.2973 29.626 57.5632 29.5148 57.1964 29.4411C56.9405 29.3902 56.7257 29.3456 56.5433 29.3019C56.4821 29.0135 56.5244 28.7128 56.6627 28.4524C56.5153 28.4817 56.3763 28.5432 56.2555 28.6326C56.1347 28.7219 56.0353 28.8369 55.9642 28.9693C55.9354 29.0247 54.8949 36.8594 54.8949 36.8594C54.6104 36.8937 54.3234 36.9008 54.0376 36.8808C53.8602 35.9166 53.8279 34.9313 53.9418 33.9575C53.6405 34.5141 53.4021 35.1025 53.2311 35.7119C53.1331 36.0527 53.0526 36.3984 52.9899 36.7474C50.5135 36.2842 47.1659 34.6889 46.5551 31.98C46.5585 31.9712 46.5619 31.9625 46.5653 31.9537C46.5986 31.871 46.6022 31.7791 46.5754 31.694C46.5485 31.6089 46.4929 31.5357 46.418 31.4871C46.3432 31.4385 46.2538 31.4174 46.1651 31.4275C46.0764 31.4375 45.994 31.4781 45.932 31.5423C45.8573 31.6192 45.7907 31.6848 45.7345 31.7358C45.9516 30.0058 47.2635 28.4491 50.231 26.0164Z" fill="#2F2E41"/>
<path d="M86.3881 86.336L87.7764 85.61L85.5748 79.7886L83.5256 80.8602L86.3881 86.336Z" fill="#A0616A"/>
<path d="M91.9927 86.2655C92.0786 86.4302 92.0957 86.6222 92.0402 86.7995C91.9847 86.9768 91.8612 87.1248 91.6967 87.2111L88.9362 88.6546L87.9469 87.9191L88.2751 88.9995L87.2339 89.5449L85.6918 85.882L86.0433 85.6713L87.4754 84.8084L87.9379 84.531L88.4574 85.5248L91.4581 85.8949C91.5706 85.9088 91.678 85.9497 91.7711 86.0143C91.8642 86.0788 91.9403 86.165 91.9927 86.2655Z" fill="#2F2E41"/>
<path d="M87.8076 64.9044L88.8174 63.7063L84.5747 59.1533L83.0844 60.9216L87.8076 64.9044Z" fill="#A0616A"/>
<path d="M92.9709 62.7147C93.1128 62.8346 93.2014 63.0059 93.2172 63.191C93.233 63.3761 93.1747 63.5599 93.0552 63.7021L91.0472 66.0841L89.8532 65.7784L90.5662 66.6539L89.8092 67.5532L86.9945 64.7478L87.24 64.4196L88.2385 63.0784L88.5614 62.6463L89.4186 63.3692L92.3358 62.5744C92.4451 62.5446 92.56 62.5419 92.6707 62.5663C92.7813 62.5907 92.8843 62.6417 92.9709 62.7147Z" fill="#2F2E41"/>
<path d="M43.2736 60.4158C43.2736 60.4158 38.9862 69.5948 56.7409 67.1214C56.7409 67.1214 66.2004 56.6357 65.9271 55.374C65.9271 55.374 69.9531 51.282 69.7561 51.2075C69.5591 51.133 69.4376 50.9712 69.7631 50.9859C70.0887 51.0006 70.0887 50.5159 70.0887 50.5159C70.0887 50.5159 77.3647 58.4083 83.4912 62.3247L85.6094 59.9412C85.6094 59.9412 84.7833 57.3566 84.3862 57.3566C83.989 57.3566 83.8521 57.4521 83.7882 56.9409C83.7242 56.4297 84.0405 55.9907 83.6176 55.9454C83.1947 55.9 74.4298 45.6537 74.4298 45.6537C74.4298 45.6537 73.4842 42.2788 70.595 42.9321C67.7058 43.5853 52.6927 55.7942 52.6927 55.7942L43.2736 60.4158Z" fill="#2F2E41"/>
<path d="M50.4991 67.4167L73.955 67.222L84.1486 83.3768L87.0293 81.8515L86.3907 81.5819C86.3907 81.5819 86.584 79.3366 86.3472 78.7682C86.1104 78.1998 85.4059 78.3708 85.4059 78.3708L79.4628 64.6619C79.0529 63.445 78.2477 62.4004 77.1754 61.6943C76.1031 60.9883 74.8255 60.6614 73.546 60.7658C68.6284 60.0485 60.6456 60.6217 52.3524 61.3256L50.4991 67.4167Z" fill="#2F2E41"/>
<path d="M64.0844 39.9237C63.6379 39.9922 63.2358 40.2322 62.9635 40.5927C62.6912 40.9532 62.5704 41.4057 62.6266 41.854C62.6395 41.9449 62.6598 42.0347 62.6875 42.1222L57.8678 45.779L58.8624 48.878L64.9233 43.1548C65.2775 43.0119 65.5744 42.7558 65.7678 42.4264C65.9612 42.097 66.0401 41.7128 65.9922 41.3339C65.9629 41.1185 65.8915 40.911 65.782 40.7232C65.6725 40.5354 65.5271 40.3711 65.3542 40.2395C65.1812 40.1079 64.984 40.0117 64.7738 39.9564C64.5637 39.9011 64.3447 39.8877 64.1293 39.917C64.1143 39.919 64.0993 39.9213 64.0844 39.9237Z" fill="#A0616A"/>
<path d="M42.8236 40.1515L44.5565 44.9503L51.3332 54.5293C51.3332 54.5293 51.3888 54.5054 51.4894 54.4631C52.0719 54.2115 54.1874 53.2872 56.1772 52.2372C58.0451 51.2507 59.8045 50.1529 60.0772 49.3982C60.1063 49.3187 60.1328 49.2419 60.1566 49.1678V49.1664C60.2836 48.7821 60.3632 48.3836 60.3936 47.98C60.4161 47.6688 60.3962 47.502 60.4386 47.4821C60.4717 47.4675 60.5405 47.539 60.6928 47.7006C60.7034 47.7112 60.7126 47.7218 60.7232 47.731C61.2739 48.2832 61.9504 48.2117 61.7849 47.9495C61.6155 47.6807 61.7042 47.686 61.9531 47.4053C62.1384 47.1961 62.7408 46.3777 63.0373 45.9739C63.1392 45.8348 63.2041 45.7448 63.2041 45.7448L63.1022 45.5846L62.8202 45.1423L61.4791 43.0395L61.405 42.9243C61.405 42.9243 58.6488 43.5613 58.2821 44.1664C57.914 44.7715 58.8368 44.7517 57.914 44.7715C56.9913 44.7914 56.0501 43.5361 56.7239 44.7848C57.3977 46.0321 57.2203 46.4678 56.3863 46.2705C56.0474 46.1897 55.5113 46.4453 54.995 46.7763V46.7776C54.6721 46.9875 54.3606 47.2142 54.0617 47.4569C53.7426 47.7138 53.5268 47.9085 53.5268 47.9085L48.2924 37.286L47.7125 36.1102C47.5358 35.7524 47.2896 35.4334 46.9881 35.172C46.6867 34.9105 46.3362 34.7118 45.9571 34.5874L45.7757 34.9039C44.6465 36.5673 43.659 38.3227 42.8236 40.1515Z" fill="#8EDB9B"/>
<path d="M42.5332 55.3825C40.9287 55.7559 42.6356 67.4383 44.5481 67.4748C58.4484 67.7396 54.2161 59.939 54.9614 59.1921C55.7068 58.444 56.3793 58.9803 55.7068 57.8163C55.2169 56.9689 54.4901 57.0947 54.4796 56.6193C54.4743 56.4419 54.5682 56.1823 54.8118 55.7559C55.7068 54.1881 55.7068 53.7207 55.7068 53.7207C55.9298 53.2499 56.0879 52.751 56.1767 52.2376C56.3219 51.4743 56.3398 50.6922 56.2297 49.923C56.0616 48.7946 55.6392 47.7192 54.9945 46.7781V46.7768C54.927 46.6762 54.8568 46.5742 54.7827 46.4736C54.6146 46.2445 53.6826 46.2882 53.6826 46.2882L51.6968 37.946L52.8459 34.6197L47.4036 32.0693L45.9567 34.5879L45.7753 34.9044C44.6461 36.5678 43.6586 38.3232 42.8231 40.152C42.0196 41.941 41.359 43.9272 41.3351 45.6552C41.2716 50.1614 42.0487 51.5014 42.0487 51.5014C42.0487 51.5014 40.1622 52.9116 41.1061 53.7737C42.0487 54.637 44.1377 55.0091 42.5332 55.3825Z" fill="#8EDB9B"/>
<path d="M67.1849 38.8265L68.0728 39.5012C68.2482 39.6354 68.3633 39.8336 68.3929 40.0525C68.4224 40.2714 68.3641 40.493 68.2306 40.6689L66.092 43.4806L64.8291 45.1394C64.6952 45.3146 64.4973 45.4296 64.2789 45.4591C64.0604 45.4886 63.8391 45.4303 63.6635 45.297L62.7745 44.6215C62.5999 44.487 62.4854 44.2889 62.456 44.0703C62.4267 43.8518 62.4848 43.6305 62.6178 43.4546L62.7489 43.2813L65.3396 39.8766L66.0193 38.9841C66.0854 38.8972 66.1681 38.8241 66.2625 38.7692C66.3569 38.7142 66.4612 38.6784 66.5694 38.6637C66.6777 38.6491 66.7877 38.656 66.8933 38.6839C66.9989 38.7118 67.098 38.7603 67.1849 38.8265Z" fill="#3F3D56"/>
<path d="M66.7206 38.7759L67.6771 39.4434C67.7615 39.4986 67.8332 39.571 67.8875 39.6559C67.9419 39.7408 67.9776 39.8363 67.9923 39.9361C68.0071 40.0358 68.0005 40.1375 67.9731 40.2345C67.9457 40.3316 67.898 40.4216 67.8332 40.4989L66.5811 42.0079L65.9139 42.8118L65.4687 43.3481L64.4731 44.5479C64.3323 44.7089 64.1373 44.8125 63.9251 44.8389C63.7129 44.8652 63.4984 44.8127 63.3225 44.6911L62.6057 44.191L62.3672 44.0246C62.2483 43.9453 62.1555 43.8326 62.1004 43.7007C62.0454 43.5689 62.0305 43.4237 62.0577 43.2833C62.0816 43.1668 62.1343 43.058 62.2109 42.9669L65.1529 39.4209L65.5699 38.9191C65.7106 38.7579 65.9057 38.6542 66.1179 38.6277C66.3302 38.6013 66.5447 38.6541 66.7206 38.7759Z" fill="#F7B787"/>
<path d="M66.1117 42.5019C65.6653 42.5703 65.2631 42.8103 64.9908 43.1708C64.7186 43.5313 64.5977 43.9839 64.6539 44.4321C64.6668 44.5231 64.6872 44.6128 64.7148 44.7004L59.8951 48.3571L60.8897 51.4562L66.9507 45.7329C67.3048 45.59 67.6018 45.3339 67.7952 45.0045C67.9885 44.6751 68.0674 44.291 68.0196 43.912C67.9903 43.6966 67.9188 43.4891 67.8093 43.3013C67.6999 43.1136 67.5545 42.9492 67.3815 42.8176C67.2085 42.6861 67.0113 42.5899 66.8012 42.5345C66.591 42.4792 66.372 42.4658 66.1567 42.4951C66.1417 42.4971 66.1267 42.4994 66.1117 42.5019Z" fill="#A0616A"/>
<path d="M46.4576 37.0788C46.0363 37.1646 45.6384 37.3401 45.291 37.5934C44.9436 37.8468 44.6548 38.172 44.4443 38.5469C44.2337 38.9219 44.1064 39.3378 44.0709 39.7664C44.0355 40.1949 44.0927 40.6261 44.2387 41.0306L46.5844 47.5286L53.3622 57.1085C53.3622 57.1085 61.4906 53.6742 62.106 51.9768C62.7214 50.2793 62.1657 49.6936 62.7214 50.2793C63.2772 50.865 63.9818 50.7956 63.8131 50.5275C63.6444 50.2595 63.7332 50.2652 63.9816 49.9844C64.23 49.7036 65.2324 48.3239 65.2324 48.3239L63.4336 45.5032C63.4336 45.5032 60.6772 46.1397 60.31 46.7452C59.9427 47.3507 60.8657 47.3309 59.9427 47.3507C59.0198 47.3705 58.0782 46.1147 58.7524 47.3631C59.4266 48.6114 59.2488 49.0466 58.4147 48.8488C57.5806 48.651 55.5559 50.4874 55.5559 50.4874L49.7405 38.6891C49.448 38.0957 48.9672 37.6158 48.3733 37.3245C47.7794 37.0332 47.1058 36.9468 46.4576 37.0788Z" fill="#8EDB9B"/>
<path d="M49.9224 33.1684C48.2374 31.483 48.2374 28.7504 49.9224 27.065C51.6074 25.3796 54.3393 25.3796 56.0243 27.065C57.7092 28.7504 57.7092 31.483 56.0243 33.1684C54.3393 34.8538 51.6074 34.8538 49.9224 33.1684Z" fill="#A0616A"/>
<path d="M47.9303 25.4144C48.2516 22.9514 53.9312 23.1086 54.4675 25.4257C54.752 25.2478 55.4756 25.371 55.7455 25.5755C56.0154 25.7801 56.1884 26.0808 56.3577 26.3727C56.5889 26.7782 58.2068 28.1499 58.4492 27.75C58.9948 26.8499 60.0647 28.8167 59.2435 30.1335C59.0466 30.4492 55.2416 29.9424 54.8748 29.8686C55.0572 29.9124 54.6189 29.8177 54.8748 29.8686C54.8159 29.583 54.2215 28.107 54.3621 27.8504C54.2147 27.8796 54.0757 27.9411 53.9549 28.0305C53.8341 28.1199 53.7346 28.2349 53.6635 28.3672C53.6348 28.4227 52.5942 36.2573 52.5942 36.2573C52.3098 36.2916 52.0228 36.2988 51.737 36.2787C51.5596 35.3145 51.5273 34.3292 51.6412 33.3554C51.3399 33.912 51.1015 34.5004 50.9305 35.1098C50.8325 35.4507 50.752 35.7963 50.6892 36.1454C48.2129 35.6822 44.8653 34.0868 44.2545 31.3779C47.5937 30.2659 44.9629 27.847 47.9303 25.4144Z" fill="#2F2E41"/>
<path d="M67.5474 41.6056C67.4879 41.5631 67.5259 41.4081 67.6322 41.2593C67.7385 41.1106 67.8729 41.0245 67.9323 41.067C67.9918 41.1096 67.9539 41.2646 67.8476 41.4133C67.7413 41.5621 67.6069 41.6482 67.5474 41.6056Z" fill="#3F3D56"/>
<path d="M67.941 41.0754C67.8815 41.0328 67.9194 40.8778 68.0257 40.7291C68.132 40.5803 68.2664 40.4942 68.3259 40.5368C68.3854 40.5793 68.3474 40.7343 68.2411 40.8831C68.1348 41.0318 68.0004 41.1179 67.941 41.0754Z" fill="#3F3D56"/>
<path d="M93.7648 31.1342C93.7 30.6886 94.1665 30.2518 94.8069 30.1586C95.4473 30.0654 96.019 30.3511 96.0838 30.7967C96.1486 31.2423 95.682 31.6791 95.0417 31.7723C94.4013 31.8655 93.8296 31.5798 93.7648 31.1342Z" fill="#E6E6E6"/>
<path d="M86.1398 30.3881C86.0749 29.9425 86.5415 29.5057 87.1819 29.4125C87.8223 29.3193 88.394 29.605 88.4588 30.0506C88.5236 30.4962 88.057 30.933 87.4166 31.0262C86.7763 31.1194 86.2046 30.8337 86.1398 30.3881Z" fill="#3F3D56"/>
<path d="M95.8507 24.9584C95.7859 24.5128 96.2525 24.076 96.8929 23.9828C97.5332 23.8896 98.1049 24.1753 98.1697 24.6209C98.2346 25.0665 97.768 25.5033 97.1276 25.5965C96.4872 25.6897 95.9155 25.404 95.8507 24.9584Z" fill="#F7B787"/>
<path d="M99.1653 22.4292C99.1622 22.0201 99.3903 21.6868 99.6748 21.6846C99.9593 21.6825 100.192 22.0123 100.196 22.4214C100.199 22.8305 99.9705 23.1639 99.686 23.166C99.4015 23.1682 99.1684 22.8383 99.1653 22.4292Z" fill="#E6E6E6"/>
<path d="M100.29 17.7183C100.287 17.3092 100.515 16.9758 100.8 16.9737C101.084 16.9715 101.317 17.3014 101.321 17.7105C101.324 18.1196 101.096 18.4529 100.811 18.4551C100.527 18.4572 100.293 18.1273 100.29 17.7183Z" fill="#3F3D56"/>
<path d="M91.552 26.0093C91.5489 25.6002 91.777 25.2668 92.0616 25.2647C92.3461 25.2625 92.5792 25.5924 92.5823 26.0015C92.5854 26.4106 92.3573 26.7439 92.0728 26.7461C91.7882 26.7482 91.5551 26.4184 91.552 26.0093Z" fill="#E6E6E6"/>
<path d="M95.2356 27.8491C95.2325 27.4401 95.4606 27.1067 95.7451 27.1046C96.0297 27.1024 96.2628 27.4323 96.2659 27.8413C96.269 28.2504 96.0408 28.5838 95.7563 28.5859C95.4718 28.5881 95.2387 28.2582 95.2356 27.8491Z" fill="#F7B787"/>
<path d="M90.1067 31.2495C90.1036 30.8404 90.3317 30.5071 90.6162 30.5049C90.9007 30.5028 91.1339 30.8327 91.137 31.2417C91.1401 31.6508 90.9119 31.9842 90.6274 31.9863C90.3429 31.9885 90.1098 31.6586 90.1067 31.2495Z" fill="#3F3D56"/>
<path d="M222.981 62.3649C222.686 61.8674 221.41 62.4001 221.175 61.9486C220.941 61.4987 222.127 60.8133 222.805 59.2474C222.927 58.9651 223.697 57.1856 223.127 56.6365C222.046 55.5958 217.102 59.8908 215.372 58.4852C214.993 58.1768 214.727 57.561 213.578 56.5613C213.121 56.1635 212.845 55.984 212.577 56.0508C212.197 56.1456 212.167 56.6536 211.76 57.6526C211.15 59.1508 210.789 59.0603 210.433 60.2556C210.169 61.1429 210.229 61.6588 209.919 61.7593C209.479 61.9015 209.074 60.9604 208.517 61.0446C207.948 61.1306 207.605 62.2265 207.496 63.0469C207.292 64.5866 207.858 65.6026 208.171 66.6709C208.512 67.8319 208.714 69.5974 207.927 72.0969L200.143 94.0301C201.861 89.5295 206.837 77.1921 208.928 72.6074C209.532 71.2839 210.198 69.9414 211.567 69.4116C212.885 68.9015 214.694 69.2061 217.001 68.6503C217.27 68.5854 218.018 68.3952 218.112 67.9555C218.19 67.5919 217.75 67.389 217.818 67.0485C217.908 66.5918 218.773 66.5862 219.836 66.0592C220.585 65.6877 221.052 65.2458 221.454 64.8658C221.575 64.7512 223.374 63.0271 222.981 62.3649Z" fill="#5FBA8E"/>
<path d="M192.351 73.9134C192.022 73.9146 191.915 74.6948 191.626 74.6797C191.337 74.6646 191.343 73.8848 190.77 73.1005C190.667 72.959 190.016 72.0677 189.582 72.189C188.759 72.419 189.441 76.0847 188.252 76.5284C187.991 76.6257 187.612 76.5783 186.79 76.8538C186.463 76.9634 186.295 77.0473 186.25 77.1979C186.187 77.4116 186.428 77.5729 186.801 78.061C187.36 78.7929 187.211 78.944 187.695 79.4634C188.055 79.849 188.325 79.9683 188.285 80.1498C188.228 80.4066 187.649 80.3337 187.53 80.6315C187.408 80.9354 187.847 81.4203 188.218 81.7103C188.915 82.2546 189.577 82.2702 190.191 82.4246C190.859 82.5924 191.784 83.0027 192.784 84.1099L201.303 94.259C199.59 92.117 194.97 86.1149 193.324 83.7658C192.848 83.0876 192.382 82.3732 192.516 81.5486C192.646 80.7548 193.318 79.9546 193.711 78.662C193.757 78.511 193.879 78.0892 193.69 77.9161C193.534 77.773 193.308 77.9303 193.16 77.7989C192.962 77.6226 193.209 77.1966 193.257 76.5229C193.291 76.0479 193.209 75.6913 193.138 75.3846C193.117 75.2922 192.789 73.9117 192.351 73.9134Z" fill="#5FBA8E"/>
<path d="M198.919 75.3869L198.721 73.6159L198.811 73.4816C199.231 72.8608 199.445 72.2545 199.447 71.679C199.448 71.5875 199.443 71.496 199.439 71.4027C199.422 71.0333 199.401 70.5741 199.64 70.0388C199.774 69.7403 200.151 69.0493 200.718 69.1349C200.871 69.1562 200.986 69.2264 201.074 69.3085C201.087 69.2879 201.1 69.2674 201.114 69.2452C201.291 68.9758 201.431 68.8604 201.565 68.7492C201.669 68.6637 201.776 68.5756 201.943 68.3669C202.017 68.2754 202.074 68.195 202.123 68.1275C202.269 67.9231 202.461 67.6794 202.799 67.6836C203.159 67.7008 203.348 67.9992 203.474 68.1967C203.697 68.5491 203.799 68.8031 203.866 68.9715C203.89 69.0331 203.918 69.1024 203.932 69.1237C204.048 69.2948 204.994 69.1348 205.35 69.0767C206.15 68.9433 206.842 68.8278 207.127 69.3324C207.332 69.6933 207.18 70.1704 206.663 70.7887C206.501 70.9811 206.33 71.1274 206.178 71.242C206.304 71.3172 206.417 71.4327 206.462 71.614C206.57 72.0433 206.201 72.4734 205.366 72.8941C205.159 72.9993 204.88 73.1396 204.488 73.2071C204.304 73.2388 204.138 73.2465 203.996 73.2508C203.993 73.3329 203.974 73.4218 203.924 73.5133C203.777 73.7827 203.472 73.9109 203.012 73.8801C202.506 73.8536 202.089 73.757 201.721 73.6723C201.4 73.5988 201.123 73.5364 200.906 73.5509C200.503 73.5834 200.193 73.9058 199.829 74.324L198.919 75.3869Z" fill="#5FBA8E"/>
<path d="M199.842 64.8432L198.179 65.4843L198.026 65.4307C197.319 65.1824 196.679 65.1294 196.121 65.2729C196.033 65.2957 195.945 65.3231 195.856 65.3509C195.503 65.4611 195.064 65.5983 194.486 65.5024C194.163 65.4483 193.399 65.2588 193.338 64.6886C193.32 64.5356 193.359 64.4061 193.416 64.3005C193.393 64.2933 193.369 64.2857 193.344 64.2777C193.039 64.1752 192.892 64.0692 192.75 63.9671C192.641 63.8887 192.529 63.8077 192.285 63.6985C192.177 63.6505 192.085 63.6155 192.007 63.5859C191.773 63.4959 191.488 63.3724 191.407 63.0446C191.332 62.6912 191.572 62.4327 191.732 62.2614C192.016 61.9557 192.236 61.7932 192.382 61.6856C192.435 61.6464 192.495 61.6019 192.512 61.5829C192.648 61.427 192.254 60.5531 192.107 60.2233C191.775 59.4833 191.488 58.843 191.904 58.4391C192.201 58.1499 192.701 58.1757 193.43 58.5193C193.657 58.6264 193.842 58.7552 193.992 58.8734C194.032 58.7323 194.115 58.5938 194.279 58.5036C194.667 58.2904 195.177 58.5383 195.796 59.2393C195.95 59.4132 196.156 59.6477 196.321 60.009C196.398 60.1792 196.448 60.3378 196.488 60.474C196.568 60.4561 196.659 60.4521 196.76 60.4773C197.058 60.5509 197.26 60.8136 197.346 61.2665C197.449 61.7629 197.461 62.1906 197.473 62.5678C197.483 62.8971 197.493 63.1805 197.562 63.3869C197.696 63.7683 198.086 63.9868 198.583 64.2331L199.842 64.8432Z" fill="#5FBA8E"/>
<path d="M198.919 59.6233L198.721 57.8522L198.811 57.718C199.231 57.0971 199.445 56.4908 199.447 55.9153C199.448 55.8238 199.443 55.7323 199.439 55.6391C199.422 55.2696 199.401 54.8104 199.64 54.2751C199.774 53.9766 200.151 53.2857 200.718 53.3712C200.871 53.3926 200.986 53.4627 201.074 53.5448C201.087 53.5243 201.1 53.5037 201.114 53.4815C201.291 53.2121 201.431 53.0967 201.565 52.9855C201.669 52.9 201.776 52.8119 201.943 52.6033C202.017 52.5118 202.074 52.4314 202.123 52.3638C202.269 52.1594 202.461 51.9157 202.799 51.92C203.159 51.9371 203.348 52.2355 203.474 52.4331C203.697 52.7854 203.799 53.0394 203.866 53.2078C203.89 53.2694 203.918 53.3387 203.932 53.3601C204.048 53.5311 204.994 53.3712 205.35 53.313C206.15 53.1796 206.842 53.0642 207.127 53.5687C207.332 53.9296 207.18 54.4068 206.663 55.0251C206.501 55.2175 206.33 55.3637 206.178 55.4783C206.304 55.5536 206.417 55.669 206.462 55.8503C206.57 56.2796 206.201 56.7097 205.366 57.1305C205.159 57.2357 204.88 57.3759 204.488 57.4435C204.304 57.4751 204.138 57.4828 203.996 57.4871C203.993 57.5692 203.974 57.6581 203.924 57.7496C203.777 58.019 203.472 58.1473 203.012 58.1165C202.506 58.09 202.089 57.9933 201.721 57.9087C201.4 57.8351 201.123 57.7727 200.906 57.7872C200.503 57.8197 200.193 58.1421 199.829 58.5603L198.919 59.6233Z" fill="#5FBA8E"/>
<path d="M200.732 94.0028L200.361 93.7702L199.928 93.8198C199.922 93.7796 199.898 93.6872 199.863 93.5427C199.669 92.7508 199.078 90.341 198.586 86.5458C198.242 83.8965 198.047 81.1728 198.007 78.4491C197.967 75.7212 198.096 73.656 198.2 71.9961C198.278 70.7442 198.373 69.5521 198.466 68.3907C198.714 65.2882 198.948 62.3576 198.774 59.1131C198.735 58.3888 198.655 56.8811 197.774 55.2769C197.263 54.3464 196.559 53.5204 195.682 52.8226L196.227 52.1367C197.196 52.9081 197.974 53.8231 198.542 54.8561C199.518 56.6349 199.606 58.2776 199.649 59.0669C199.826 62.3687 199.589 65.3276 199.339 68.46C199.246 69.6171 199.151 70.804 199.074 72.0508C198.971 73.6953 198.843 75.7426 198.883 78.4355C198.922 81.1267 199.115 83.817 199.454 86.4329C199.94 90.1802 200.522 92.5542 200.713 93.3341C200.815 93.7505 200.837 93.8378 200.732 94.0028Z" fill="#5FBA8E"/>
<path d="M194.076 54.2137C194.04 54.2137 194.003 54.2129 193.967 54.2103C193.221 54.1701 192.53 53.7237 191.914 52.8839C191.625 52.4888 191.477 52.0382 191.182 51.1394C191.136 51.0009 190.914 50.2979 190.778 49.3307C190.69 48.6988 190.701 48.4345 190.826 48.2011C190.965 47.9411 191.19 47.7598 191.443 47.6375C191.432 47.5537 191.441 47.4673 191.478 47.3793C191.627 47.0141 192.024 47.062 192.238 47.0851C192.347 47.0988 192.482 47.1167 192.629 47.109C192.859 47.0979 192.982 47.0295 193.169 46.9269C193.349 46.8285 193.571 46.7062 193.902 46.6387C194.554 46.5027 195.1 46.6874 195.28 46.7481C196.227 47.0637 196.694 47.8 197.234 48.6526C197.342 48.8236 197.712 49.4462 197.956 50.2996C198.132 50.9153 198.107 51.189 198.054 51.3925C197.946 51.8107 197.692 52.0501 197.046 52.5786C196.371 53.1319 196.033 53.409 195.742 53.5774C195.065 53.9683 194.64 54.2137 194.076 54.2137Z" fill="#5FBA8E"/>
<g filter="url(#filter1_d_264_1099)">
<rect x="313.846" y="7.47461" width="86" height="306" rx="8" transform="rotate(90 313.846 7.47461)" fill="#27342E" fill-opacity="0.4" shape-rendering="crispEdges"/>
</g>
<path d="M274.383 19.1133V30.4258H272.649V20.832H272.586L269.883 22.5977V20.957L272.696 19.1133H274.383ZM281.874 24.9258V26.3633H276.858V24.9258H281.874ZM283.021 30.4258V29.1758L286.943 25.2227C288.185 23.9336 288.802 23.2148 288.802 22.2227C288.802 21.1055 287.896 20.3945 286.708 20.3945C285.45 20.3945 284.654 21.1914 284.646 22.3945H283.021C283.005 20.3242 284.583 18.957 286.739 18.957C288.919 18.957 290.427 20.3398 290.443 22.1758C290.427 23.4414 289.833 24.4492 287.708 26.5352L285.411 28.8633V28.957H290.63V30.4258H283.021ZM303.324 17.7539V26.0195H301.839V23.9414H298.793V25.082H292.293V18.8008H298.793V19.957H301.839V17.7539H303.324ZM293.761 23.8945H297.339V19.9883H293.761V23.8945ZM293.902 29.082C293.894 27.3867 295.691 26.4023 298.636 26.4102C301.566 26.4023 303.363 27.3867 303.371 29.082C303.363 30.7695 301.566 31.7305 298.636 31.7227C295.691 31.7305 293.894 30.7695 293.902 29.082ZM295.371 29.082C295.363 30.0195 296.582 30.5742 298.636 30.582C300.675 30.5742 301.894 30.0195 301.902 29.082C301.894 28.0977 300.675 27.5586 298.636 27.5508C296.582 27.5586 295.363 28.0977 295.371 29.082ZM298.793 22.7383H301.839V21.1445H298.793V22.7383Z" fill="white"/>
<defs>
<filter id="filter0_d_264_1099" x="0.845703" y="0.474609" width="320" height="100" filterUnits="userSpaceOnUse" color-interpolation-filters="sRGB">
<feFlood flood-opacity="0" result="BackgroundImageFix"/>
<feColorMatrix in="SourceAlpha" type="matrix" values="0 0 0 0 0 0 0 0 0 0 0 0 0 0 0 0 0 0 127 0" result="hardAlpha"/>
<feOffset/>
<feGaussianBlur stdDeviation="3.5"/>
<feComposite in2="hardAlpha" operator="out"/>
<feColorMatrix type="matrix" values="0 0 0 0 0 0 0 0 0 0 0 0 0 0 0 0 0 0 0.14 0"/>
<feBlend mode="normal" in2="BackgroundImageFix" result="effect1_dropShadow_264_1099"/>
<feBlend mode="normal" in="SourceGraphic" in2="effect1_dropShadow_264_1099" result="shape"/>
</filter>
<filter id="filter1_d_264_1099" x="0.845703" y="0.474609" width="320" height="100" filterUnits="userSpaceOnUse" color-interpolation-filters="sRGB">
<feFlood flood-opacity="0" result="BackgroundImageFix"/>
<feColorMatrix in="SourceAlpha" type="matrix" values="0 0 0 0 0 0 0 0 0 0 0 0 0 0 0 0 0 0 127 0" result="hardAlpha"/>
<feOffset/>
<feGaussianBlur stdDeviation="3.5"/>
<feComposite in2="hardAlpha" operator="out"/>
<feColorMatrix type="matrix" values="0 0 0 0 0 0 0 0 0 0 0 0 0 0 0 0 0 0 0.14 0"/>
<feBlend mode="normal" in2="BackgroundImageFix" result="effect1_dropShadow_264_1099"/>
<feBlend mode="normal" in="SourceGraphic" in2="effect1_dropShadow_264_1099" result="shape"/>
</filter>
<radialGradient id="paint0_radial_264_1099" cx="0" cy="0" r="1" gradientUnits="userSpaceOnUse" gradientTransform="translate(195.017 72.795) rotate(175.001) scale(212.671 37.6233)">
<stop stop-color="#0B9596"/>
<stop offset="1" stop-color="white"/>
</radialGradient>
</defs>
</svg>
