<svg width="321" height="101" viewBox="0 0 321 101" fill="none" xmlns="http://www.w3.org/2000/svg">
<g filter="url(#filter0_d_264_658)">
<rect x="313.691" y="7.75" width="86" height="306" rx="8" transform="rotate(90 313.691 7.75)" fill="white"/>
</g>
<path d="M103.644 72.9411C103.637 72.7675 104.169 72.6055 104.832 72.5792C105.494 72.5529 106.037 72.6723 106.044 72.8459C106.051 73.0194 105.519 73.1815 104.857 73.2078C104.194 73.2341 103.651 73.1147 103.644 72.9411Z" fill="#E6E6E6"/>
<path d="M95.9996 72.5329C95.9927 72.3593 96.5244 72.1973 97.1872 72.171C97.8499 72.1447 98.3928 72.2641 98.3996 72.4377C98.4065 72.6112 97.8748 72.7733 97.2121 72.7996C96.5493 72.8259 96.0065 72.7065 95.9996 72.5329Z" fill="#3F3D56"/>
<path d="M106.582 70.5798C106.575 70.4062 107.106 70.2442 107.769 70.2179C108.432 70.1916 108.975 70.3109 108.982 70.4845C108.989 70.6581 108.457 70.8201 107.794 70.8465C107.131 70.8728 106.589 70.7534 106.582 70.5798Z" fill="#F7B787"/>
<path d="M110.272 69.7174C110.254 69.5624 110.477 69.4097 110.77 69.3763C111.064 69.3429 111.316 69.4414 111.333 69.5964C111.351 69.7513 111.128 69.904 110.834 69.9375C110.541 69.9709 110.289 69.8723 110.272 69.7174Z" fill="#E6E6E6"/>
<path d="M112.041 67.9107C112.023 67.7558 112.247 67.6031 112.54 67.5696C112.833 67.5362 113.085 67.6347 113.103 67.7897C113.12 67.9447 112.897 68.0974 112.604 68.1308C112.311 68.1642 112.059 68.0657 112.041 67.9107Z" fill="#3F3D56"/>
<path d="M102.068 70.9889C102.051 70.8339 102.274 70.6812 102.567 70.6478C102.861 70.6143 103.112 70.7129 103.13 70.8678C103.148 71.0228 102.924 71.1755 102.631 71.2089C102.338 71.2424 102.086 71.1438 102.068 70.9889Z" fill="#E6E6E6"/>
<path d="M105.565 71.7584C105.547 71.6034 105.77 71.4507 106.063 71.4173C106.357 71.3839 106.609 71.4824 106.626 71.6374C106.644 71.7923 106.421 71.9451 106.127 71.9785C105.834 72.0119 105.582 71.9134 105.565 71.7584Z" fill="#F7B787"/>
<path d="M99.9083 72.9967C99.8907 72.8417 100.114 72.689 100.407 72.6556C100.7 72.6221 100.952 72.7207 100.97 72.8757C100.988 73.0306 100.764 73.1833 100.471 73.2168C100.178 73.2502 99.926 73.1516 99.9083 72.9967Z" fill="#3F3D56"/>
<path d="M105.998 63.3211C106.087 63.3252 106.176 63.3018 106.251 63.254C106.326 63.2062 106.385 63.1364 106.42 63.0541C106.454 62.9717 106.463 62.8807 106.444 62.7935C106.425 62.7063 106.379 62.627 106.314 62.5664L106.284 62.4478C106.288 62.4383 106.292 62.4288 106.296 62.4193C106.386 62.2071 106.536 62.0261 106.728 61.8992C106.921 61.7723 107.146 61.705 107.377 61.7059C107.607 61.7067 107.832 61.7757 108.023 61.904C108.215 62.0324 108.364 62.2144 108.452 62.4273C108.805 63.2769 109.254 64.128 109.364 65.0264C109.413 65.4235 109.393 65.826 109.304 66.2161C110.132 64.4087 110.562 62.4442 110.565 60.456C110.565 59.957 110.537 59.4585 110.482 58.9626C110.436 58.5561 110.372 58.1526 110.291 57.7519C109.847 55.5777 108.894 53.54 107.51 51.8059C106.84 51.4402 106.298 50.878 105.957 50.1948C105.834 49.9493 105.747 49.6871 105.698 49.4166C105.774 49.4265 105.983 48.2752 105.926 48.2046C106.032 48.0447 106.22 47.9652 106.335 47.8092C106.907 47.0334 107.695 47.1689 108.107 48.2232C108.986 48.6669 108.994 49.4028 108.455 50.1105C108.112 50.5608 108.065 51.1701 107.764 51.6522C107.795 51.6918 107.827 51.7303 107.858 51.7699C108.424 52.4982 108.917 53.2802 109.331 54.1047C109.231 53.181 109.351 52.2466 109.682 51.3783C110.017 50.5691 110.645 49.8877 111.199 49.1881C111.864 48.3479 113.227 48.7146 113.344 49.7797C113.345 49.79 113.347 49.8003 113.348 49.8107C113.265 49.857 113.185 49.9063 113.106 49.9584C113.007 50.0245 112.931 50.1189 112.886 50.2294C112.842 50.3398 112.832 50.461 112.858 50.5772C112.883 50.6934 112.944 50.7991 113.03 50.8805C113.117 50.9618 113.227 51.0151 113.344 51.0332L113.356 51.035C113.327 51.3314 113.275 51.6252 113.201 51.9137C113.912 54.6605 112.378 55.6609 110.19 55.7058C110.141 55.7306 110.094 55.7554 110.046 55.779C110.461 56.9572 110.722 58.1844 110.821 59.4298C110.878 60.1646 110.874 60.9027 110.811 61.637L110.815 61.611C110.974 60.7945 111.409 60.0578 112.048 59.5253C112.997 58.7458 114.337 58.4587 115.36 57.8321C115.469 57.7623 115.596 57.725 115.725 57.7247C115.854 57.7244 115.981 57.761 116.09 57.8304C116.199 57.8997 116.286 57.9988 116.341 58.1159C116.395 58.2331 116.415 58.3634 116.398 58.4916C116.397 58.5007 116.396 58.5099 116.394 58.519C116.242 58.5811 116.093 58.6527 115.949 58.7334C115.867 58.7798 115.787 58.829 115.708 58.8811C115.609 58.9472 115.532 59.0417 115.488 59.1521C115.444 59.2625 115.434 59.3838 115.46 59.4999C115.485 59.6161 115.546 59.7218 115.632 59.8032C115.719 59.8845 115.829 59.9378 115.946 59.9559L115.958 59.9578C115.967 59.959 115.974 59.9602 115.983 59.9615C115.722 60.5841 115.356 61.1571 114.901 61.6556C114.457 64.0534 112.55 64.2809 110.51 63.5826H110.509C110.285 64.5554 109.961 65.5024 109.542 66.4081H106.085C106.072 66.3697 106.061 66.3301 106.05 66.2916C106.37 66.3118 106.691 66.2926 107.007 66.2347C106.75 65.9199 106.494 65.6026 106.237 65.2879C106.231 65.282 106.226 65.2758 106.221 65.2693C106.091 65.1082 105.96 64.9483 105.83 64.7872L105.83 64.787C105.823 64.2932 105.879 63.8004 105.998 63.3211Z" fill="#8EDB9B"/>
<path opacity="0.5" fill-rule="evenodd" clip-rule="evenodd" d="M7.69119 65.0049V85.75C7.69119 90.1683 11.2729 93.75 15.6912 93.75L279.336 93.75C281.251 93.75 283.009 93.0768 284.387 91.9542C266.724 84.291 237.824 63.7178 228.127 56.0669C220.834 50.3131 210.709 44.1802 196.7 42.2304C186.188 40.7674 173.386 41.7396 161.68 45.4088C154.836 47.5542 147.354 50.8681 139.679 54.2679C125.148 60.7043 109.923 67.448 97.0136 67.1516C89.9651 66.9898 82.7458 65.4866 74.878 63.8484C60.7238 60.9012 44.4706 57.517 23.3367 60.7193C17.9978 61.5283 12.7367 63.0389 7.69119 65.0049Z" fill="url(#paint0_radial_264_658)"/>
<path d="M50.0767 26.2918C50.398 23.8289 56.0775 23.986 56.6138 26.3032C56.8983 26.1252 57.6219 26.2484 57.8918 26.453C58.1617 26.6575 58.3347 26.9582 58.5041 27.2502C58.7352 27.6556 58.9749 28.0756 59.0261 28.5405C59.0795 29.0045 58.8972 29.5301 58.4766 29.7367C58.143 29.9014 57.4089 29.7902 57.0421 29.7165C56.7862 29.6656 56.5714 29.621 56.3891 29.5773C56.3278 29.2889 56.3701 28.9881 56.5084 28.7278C56.3611 28.7571 56.222 28.8186 56.1012 28.908C55.9804 28.9973 55.881 29.1123 55.8099 29.2447C55.7811 29.3001 54.7406 37.1348 54.7406 37.1348C54.4561 37.1691 54.1691 37.1762 53.8833 37.1562C53.7059 36.192 53.6736 35.2066 53.7875 34.2329C53.4862 34.7895 53.2478 35.3779 53.0768 35.9873C52.9788 36.3281 52.8983 36.6737 52.8356 37.0228C50.3592 36.5596 47.0116 34.9643 46.4008 32.2553C46.4042 32.2466 46.4076 32.2379 46.411 32.2291C46.4443 32.1463 46.4479 32.0545 46.4211 31.9694C46.3942 31.8843 46.3386 31.8111 46.2637 31.7625C46.1889 31.7139 46.0995 31.6928 46.0108 31.7029C45.9221 31.7129 45.8397 31.7535 45.7777 31.8177C45.703 31.8945 45.6364 31.9602 45.5802 32.0111C45.7973 30.2812 47.1092 28.7245 50.0767 26.2918Z" fill="#2F2E41"/>
<path d="M86.2338 86.6114L87.6221 85.8854L85.4205 80.064L83.3713 81.1356L86.2338 86.6114Z" fill="#A0616A"/>
<path d="M91.8384 86.5411C91.9243 86.7058 91.9414 86.8979 91.8859 87.0752C91.8304 87.2524 91.7069 87.4005 91.5424 87.4868L88.7819 88.9302L87.7926 88.1948L88.1208 89.2752L87.0796 89.8205L85.5375 86.1576L85.889 85.9469L87.3211 85.0841L87.7836 84.8066L88.3031 85.8004L91.3039 86.1705C91.4163 86.1844 91.5237 86.2254 91.6168 86.2899C91.7099 86.3545 91.786 86.4407 91.8384 86.5411Z" fill="#2F2E41"/>
<path d="M87.6533 65.1798L88.6631 63.9817L84.4204 59.4287L82.9301 61.197L87.6533 65.1798Z" fill="#A0616A"/>
<path d="M92.8166 62.9901C92.9585 63.11 93.0471 63.2813 93.0629 63.4664C93.0787 63.6515 93.0204 63.8353 92.9009 63.9775L90.893 66.3595L89.6989 66.0538L90.4119 66.9293L89.6549 67.8286L86.8402 65.0232L87.0857 64.695L88.0842 63.3538L88.4071 62.9217L89.2643 63.6446L92.1815 62.8498C92.2908 62.82 92.4057 62.8172 92.5164 62.8417C92.627 62.8661 92.73 62.9171 92.8166 62.9901Z" fill="#2F2E41"/>
<path d="M43.1193 60.6912C43.1193 60.6912 38.8319 69.8702 56.5867 67.3968C56.5867 67.3968 66.0461 56.9111 65.7728 55.6494C65.7728 55.6494 69.7988 51.5574 69.6018 51.4829C69.4048 51.4084 69.2833 51.2466 69.6088 51.2613C69.9344 51.276 69.9344 50.7913 69.9344 50.7913C69.9344 50.7913 77.2104 58.6837 83.3369 62.6001L85.4551 60.2166C85.4551 60.2166 84.629 57.632 84.2319 57.632C83.8347 57.632 83.6978 57.7275 83.6339 57.2163C83.5699 56.7051 83.8862 56.2661 83.4633 56.2208C83.0404 56.1754 74.2755 45.9291 74.2755 45.9291C74.2755 45.9291 73.3299 42.5542 70.4407 43.2075C67.5515 43.8607 52.5384 56.0696 52.5384 56.0696L43.1193 60.6912Z" fill="#2F2E41"/>
<path d="M50.3448 67.6921L73.8007 67.4974L83.9943 83.6522L86.875 82.1269L86.2364 81.8573C86.2364 81.8573 86.4297 79.612 86.1929 79.0436C85.9561 78.4752 85.2516 78.6462 85.2516 78.6462L79.3085 64.9373C78.8986 63.7204 78.0934 62.6758 77.0211 61.9697C75.9488 61.2636 74.6712 60.9368 73.3917 61.0412C68.4741 60.3239 60.4913 60.8971 52.1981 61.601L50.3448 67.6921Z" fill="#2F2E41"/>
<path d="M63.9301 40.1991C63.4836 40.2676 63.0815 40.5076 62.8092 40.8681C62.5369 41.2286 62.4161 41.6811 62.4723 42.1294C62.4852 42.2203 62.5055 42.3101 62.5332 42.3976L57.7135 46.0544L58.7081 49.1534L64.769 43.4301C65.1232 43.2873 65.4201 43.0312 65.6135 42.7018C65.8069 42.3724 65.8858 41.9882 65.8379 41.6092C65.8086 41.3939 65.7372 41.1864 65.6277 40.9986C65.5182 40.8108 65.3728 40.6465 65.1999 40.5149C65.0269 40.3833 64.8297 40.2871 64.6195 40.2318C64.4094 40.1764 64.1904 40.1631 63.975 40.1924C63.96 40.1944 63.945 40.1967 63.9301 40.1991Z" fill="#A0616A"/>
<path d="M42.6693 40.4269L44.4022 45.2257L51.1789 54.8047C51.1789 54.8047 51.2345 54.7808 51.3351 54.7385C51.9176 54.4869 54.0331 53.5626 56.0229 52.5126C57.8908 51.526 59.6502 50.4283 59.9229 49.6735C59.952 49.5941 59.9785 49.5173 60.0023 49.4431V49.4418C60.1293 49.0575 60.2089 48.659 60.2393 48.2554C60.2618 47.9442 60.2419 47.7773 60.2843 47.7575C60.3174 47.7429 60.3862 47.8144 60.5385 47.976C60.5491 47.9866 60.5583 47.9972 60.5689 48.0064C61.1196 48.5586 61.7961 48.4871 61.6306 48.2249C61.4612 47.9561 61.5499 47.9614 61.7988 47.6807C61.9841 47.4715 62.5865 46.6531 62.883 46.2493C62.9849 46.1102 63.0498 46.0202 63.0498 46.0202L62.9479 45.86L62.6659 45.4177L61.3248 43.3149L61.2507 43.1997C61.2507 43.1997 58.4945 43.8366 58.1278 44.4418C57.7597 45.0469 58.6825 45.0271 57.7597 45.0469C56.837 45.0668 55.8958 43.8115 56.5696 45.0602C57.2434 46.3075 57.0661 46.7432 56.232 46.5459C55.8931 46.4651 55.357 46.7207 54.8407 47.0517V47.053C54.5178 47.2629 54.2063 47.4896 53.9074 47.7323C53.5883 47.9892 53.3725 48.1839 53.3725 48.1839L48.1381 37.5614L47.5582 36.3856C47.3815 36.0278 47.1353 35.7088 46.8338 35.4473C46.5324 35.1859 46.1819 34.9871 45.8028 34.8628L45.6214 35.1793C44.4922 36.8427 43.5047 38.5981 42.6693 40.4269Z" fill="#8EDB9B"/>
<path d="M42.3789 55.6579C40.7744 56.0313 42.4813 67.7137 44.3938 67.7502C58.2941 68.015 54.0618 60.2144 54.8071 59.4675C55.5525 58.7194 56.225 59.2557 55.5525 58.0917C55.0626 57.2443 54.3358 57.3701 54.3253 56.8947C54.32 56.7172 54.414 56.4577 54.6575 56.0313C55.5525 54.4635 55.5525 53.9961 55.5525 53.9961C55.7755 53.5253 55.9336 53.0264 56.0224 52.513C56.1676 51.7497 56.1855 50.9676 56.0754 50.1984C55.9073 49.07 55.4849 47.9946 54.8402 47.0535V47.0522C54.7727 46.9516 54.7025 46.8496 54.6284 46.749C54.4603 46.5199 53.5283 46.5636 53.5283 46.5636L51.5425 38.2214L52.6916 34.8951L47.2493 32.3447L45.8024 34.8633L45.621 35.1798C44.4918 36.8432 43.5043 38.5986 42.6688 40.4274C41.8653 42.2164 41.2047 44.2026 41.1808 45.9306C41.1173 50.4367 41.8944 51.7768 41.8944 51.7768C41.8944 51.7768 40.0079 53.187 40.9518 54.0491C41.8944 54.9124 43.9834 55.2845 42.3789 55.6579Z" fill="#8EDB9B"/>
<path d="M67.0306 39.1019L67.9185 39.7766C68.0939 39.9108 68.209 40.109 68.2386 40.3279C68.2681 40.5467 68.2098 40.7684 68.0763 40.9443L65.9377 43.756L64.6748 45.4148C64.5409 45.59 64.343 45.705 64.1246 45.7345C63.9061 45.764 63.6848 45.7057 63.5092 45.5724L62.6202 44.8969C62.4456 44.7624 62.3311 44.5643 62.3017 44.3457C62.2724 44.1272 62.3305 43.9059 62.4635 43.73L62.5946 43.5567L65.1853 40.152L65.865 39.2595C65.9311 39.1726 66.0138 39.0995 66.1082 39.0446C66.2026 38.9896 66.3069 38.9538 66.4151 38.9391C66.5234 38.9245 66.6334 38.9313 66.739 38.9593C66.8446 38.9872 66.9437 39.0357 67.0306 39.1019Z" fill="#3F3D56"/>
<path d="M66.5663 39.0513L67.5229 39.7188C67.6072 39.7739 67.6789 39.8464 67.7332 39.9313C67.7876 40.0162 67.8233 40.1117 67.838 40.2114C67.8528 40.3112 67.8462 40.4129 67.8188 40.5099C67.7914 40.6069 67.7437 40.697 67.6789 40.7743L66.4268 42.2833L65.7596 43.0872L65.3144 43.6235L64.3188 44.8233C64.178 44.9843 63.983 45.0878 63.7708 45.1142C63.5586 45.1406 63.3441 45.088 63.1682 44.9665L62.4514 44.4663L62.2129 44.3C62.094 44.2207 62.0012 44.108 61.9461 43.9761C61.8911 43.8443 61.8762 43.6991 61.9034 43.5587C61.9273 43.4421 61.98 43.3334 62.0566 43.2423L64.9986 39.6963L65.4156 39.1945C65.5563 39.0333 65.7514 38.9295 65.9636 38.9031C66.1759 38.8767 66.3904 38.9295 66.5663 39.0513Z" fill="#F7B787"/>
<path d="M65.9574 42.7772C65.511 42.8457 65.1088 43.0857 64.8365 43.4462C64.5643 43.8067 64.4434 44.2592 64.4996 44.7075C64.5125 44.7985 64.5329 44.8882 64.5605 44.9758L59.7408 48.6325L60.7354 51.7315L66.7964 46.0083C67.1505 45.8654 67.4475 45.6093 67.6409 45.2799C67.8342 44.9505 67.9131 44.5663 67.8653 44.1874C67.836 43.972 67.7645 43.7645 67.655 43.5767C67.5456 43.389 67.4002 43.2246 67.2272 43.093C67.0542 42.9615 66.857 42.8653 66.6469 42.8099C66.4367 42.7546 66.2177 42.7412 66.0024 42.7705C65.9874 42.7725 65.9724 42.7748 65.9574 42.7772Z" fill="#A0616A"/>
<path d="M46.3033 37.3542C45.882 37.4399 45.4841 37.6155 45.1367 37.8688C44.7893 38.1222 44.5005 38.4474 44.29 38.8223C44.0794 39.1973 43.9521 39.6132 43.9166 40.0418C43.8812 40.4703 43.9384 40.9015 44.0844 41.306L46.4301 47.804L53.2079 57.3838C53.2079 57.3838 61.3363 53.9496 61.9517 52.2522C62.5671 50.5547 62.0114 49.969 62.5671 50.5547C63.1229 51.1404 63.8275 51.071 63.6588 50.8029C63.4901 50.5349 63.5789 50.5406 63.8273 50.2598C64.0757 49.979 65.0781 48.5992 65.0781 48.5992L63.2793 45.7786C63.2793 45.7786 60.5229 46.4151 60.1557 47.0206C59.7884 47.6261 60.7114 47.6063 59.7884 47.6261C58.8655 47.6459 57.9239 46.3901 58.5981 47.6385C59.2723 48.8868 59.0945 49.322 58.2604 49.1242C57.4263 48.9264 55.4016 50.7627 55.4016 50.7627L49.5862 38.9645C49.2937 38.3711 48.8129 37.8912 48.219 37.5999C47.6251 37.3086 46.9515 37.2222 46.3033 37.3542Z" fill="#8EDB9B"/>
<path d="M49.7681 33.4438C48.0831 31.7584 48.0831 29.0258 49.7681 27.3404C51.4531 25.655 54.185 25.655 55.87 27.3404C57.5549 29.0258 57.5549 31.7584 55.87 33.4438C54.185 35.1292 51.4531 35.1292 49.7681 33.4438Z" fill="#A0616A"/>
<path d="M47.7761 25.6897C48.0973 23.2268 53.7769 23.3839 54.3132 25.7011C54.5977 25.5232 55.3213 25.6464 55.5912 25.8509C55.8611 26.0555 56.0341 26.3562 56.2034 26.6481C56.4346 27.0536 58.0525 28.4253 58.2949 28.0254C58.8405 27.1253 59.9104 29.0921 59.0892 30.4089C58.8923 30.7246 55.0873 30.2177 54.7205 30.144C54.9029 30.1877 54.4646 30.0931 54.7205 30.144C54.6616 29.8584 54.0672 28.3824 54.2078 28.1258C54.0604 28.155 53.9214 28.2165 53.8006 28.3059C53.6798 28.3953 53.5803 28.5103 53.5092 28.6426C53.4805 28.6981 52.44 36.5327 52.44 36.5327C52.1555 36.567 51.8685 36.5742 51.5827 36.5541C51.4053 35.5899 51.373 34.6046 51.4869 33.6308C51.1856 34.1874 50.9472 34.7758 50.7762 35.3852C50.6782 35.7261 50.5977 36.0717 50.5349 36.4207C48.0586 35.9576 44.711 34.3622 44.1002 31.6533C47.4394 30.5413 44.8086 28.1224 47.7761 25.6897Z" fill="#2F2E41"/>
<path d="M67.3931 41.881C67.3336 41.8385 67.3716 41.6835 67.4779 41.5347C67.5842 41.386 67.7186 41.2999 67.778 41.3424C67.8375 41.385 67.7996 41.54 67.6933 41.6887C67.587 41.8375 67.4526 41.9236 67.3931 41.881Z" fill="#3F3D56"/>
<path d="M67.7867 41.3508C67.7272 41.3082 67.7651 41.1532 67.8714 41.0045C67.9777 40.8557 68.1121 40.7696 68.1716 40.8122C68.2311 40.8547 68.1931 41.0097 68.0868 41.1585C67.9805 41.3072 67.8461 41.3933 67.7867 41.3508Z" fill="#3F3D56"/>
<path d="M93.6105 31.4096C93.5457 30.964 94.0122 30.5272 94.6526 30.434C95.293 30.3408 95.8647 30.6265 95.9295 31.0721C95.9943 31.5177 95.5277 31.9545 94.8874 32.0477C94.247 32.1409 93.6753 31.8552 93.6105 31.4096Z" fill="#E6E6E6"/>
<path d="M85.9855 30.6635C85.9206 30.2179 86.3872 29.7811 87.0276 29.6879C87.668 29.5947 88.2397 29.8804 88.3045 30.326C88.3693 30.7716 87.9027 31.2084 87.2624 31.3016C86.622 31.3948 86.0503 31.1091 85.9855 30.6635Z" fill="#3F3D56"/>
<path d="M95.6964 25.2338C95.6316 24.7882 96.0982 24.3514 96.7386 24.2582C97.379 24.165 97.9506 24.4507 98.0155 24.8963C98.0803 25.3419 97.6137 25.7787 96.9733 25.8719C96.3329 25.9651 95.7612 25.6794 95.6964 25.2338Z" fill="#F7B787"/>
<path d="M99.011 22.7046C99.0079 22.2955 99.236 21.9622 99.5205 21.96C99.805 21.9579 100.038 22.2877 100.041 22.6968C100.044 23.1059 99.8162 23.4392 99.5317 23.4414C99.2472 23.4435 99.0141 23.1137 99.011 22.7046Z" fill="#E6E6E6"/>
<path d="M100.136 17.9937C100.133 17.5846 100.361 17.2512 100.646 17.2491C100.93 17.2469 101.163 17.5768 101.166 17.9859C101.169 18.3949 100.941 18.7283 100.657 18.7305C100.372 18.7326 100.139 18.4027 100.136 17.9937Z" fill="#3F3D56"/>
<path d="M91.3977 26.2847C91.3946 25.8756 91.6228 25.5422 91.9073 25.5401C92.1918 25.5379 92.4249 25.8678 92.428 26.2769C92.4311 26.686 92.203 27.0193 91.9185 27.0215C91.634 27.0236 91.4008 26.6938 91.3977 26.2847Z" fill="#E6E6E6"/>
<path d="M95.0813 28.1245C95.0782 27.7155 95.3063 27.3821 95.5908 27.3799C95.8754 27.3778 96.1085 27.7077 96.1116 28.1167C96.1147 28.5258 95.8866 28.8592 95.602 28.8613C95.3175 28.8635 95.0844 28.5336 95.0813 28.1245Z" fill="#F7B787"/>
<path d="M89.9524 31.5249C89.9493 31.1158 90.1774 30.7825 90.4619 30.7803C90.7464 30.7782 90.9796 31.108 90.9827 31.5171C90.9858 31.9262 90.7576 32.2596 90.4731 32.2617C90.1886 32.2639 89.9555 31.934 89.9524 31.5249Z" fill="#3F3D56"/>
<path d="M274.229 19.3887V30.7012H272.495V21.1074H272.432L269.729 22.873V21.2324L272.541 19.3887H274.229ZM281.72 25.2012V26.6387H276.704V25.2012H281.72ZM282.866 30.7012V29.4512L286.788 25.498C288.03 24.209 288.648 23.4902 288.648 22.498C288.648 21.3809 287.741 20.6699 286.554 20.6699C285.296 20.6699 284.499 21.4668 284.491 22.6699H282.866C282.851 20.5996 284.429 19.2324 286.585 19.2324C288.765 19.2324 290.273 20.6152 290.288 22.4512C290.273 23.7168 289.679 24.7246 287.554 26.8105L285.257 29.1387V29.2324H290.476V30.7012H282.866ZM303.17 18.0293V26.2949H301.685V24.2168H298.638V25.3574H292.138V19.0762H298.638V20.2324H301.685V18.0293H303.17ZM293.607 24.1699H297.185V20.2637H293.607V24.1699ZM293.748 29.3574C293.74 27.6621 295.537 26.6777 298.482 26.6855C301.412 26.6777 303.209 27.6621 303.216 29.3574C303.209 31.0449 301.412 32.0059 298.482 31.998C295.537 32.0059 293.74 31.0449 293.748 29.3574ZM295.216 29.3574C295.209 30.2949 296.427 30.8496 298.482 30.8574C300.521 30.8496 301.74 30.2949 301.748 29.3574C301.74 28.373 300.521 27.834 298.482 27.8262C296.427 27.834 295.209 28.373 295.216 29.3574ZM298.638 23.0137H301.685V21.4199H298.638V23.0137Z" fill="#27342E"/>
<path d="M222.827 62.6403C222.532 62.1428 221.255 62.6754 221.021 62.224C220.787 61.7741 221.973 61.0887 222.65 59.5228C222.772 59.2405 223.542 57.461 222.972 56.9119C221.892 55.8712 216.948 60.1661 215.218 58.7606C214.838 58.4522 214.573 57.8364 213.424 56.8366C212.967 56.4389 212.69 56.2593 212.423 56.3262C212.043 56.421 212.013 56.929 211.606 57.928C210.995 59.4262 210.634 59.3357 210.279 60.531C210.015 61.4183 210.075 61.9342 209.764 62.0347C209.325 62.1769 208.92 61.2357 208.363 61.32C207.794 61.406 207.45 62.5019 207.342 63.3223C207.138 64.862 207.703 65.878 208.017 66.9463C208.357 68.1072 208.559 69.8728 207.773 72.3723L199.988 94.3055C201.707 89.8049 206.683 77.4674 208.774 72.8828C209.378 71.5593 210.044 70.2168 211.413 69.687C212.73 69.1769 214.54 69.4815 216.847 68.9257C217.116 68.8608 217.864 68.6706 217.958 68.2309C218.036 67.8673 217.596 67.6644 217.663 67.3239C217.754 66.8672 218.619 66.8615 219.682 66.3346C220.431 65.963 220.898 65.5212 221.299 65.1412C221.42 65.0266 223.219 63.3025 222.827 62.6403Z" fill="#5FBA8E"/>
<path d="M192.197 74.1888C191.868 74.19 191.761 74.9701 191.471 74.955C191.183 74.94 191.189 74.1602 190.616 73.3759C190.513 73.2344 189.861 72.3431 189.427 72.4644C188.605 72.6944 189.286 76.3601 188.097 76.8038C187.836 76.9011 187.458 76.8536 186.635 77.1292C186.308 77.2388 186.14 77.3227 186.096 77.4733C186.033 77.687 186.274 77.8483 186.646 78.3364C187.206 79.0682 187.057 79.2194 187.541 79.7388C187.9 80.1244 188.171 80.2437 188.131 80.4252C188.074 80.682 187.495 80.6091 187.375 80.9069C187.254 81.2108 187.692 81.6957 188.064 81.9857C188.761 82.53 189.422 82.5456 190.037 82.7C190.705 82.8678 191.63 83.2781 192.63 84.3853L201.149 94.5344C199.436 92.3923 194.816 86.3903 193.169 84.0412C192.694 83.363 192.227 82.6486 192.362 81.824C192.492 81.0302 193.163 80.2299 193.556 78.9374C193.602 78.7864 193.725 78.3646 193.536 78.1915C193.38 78.0484 193.153 78.2057 193.006 78.0743C192.808 77.898 193.055 77.472 193.103 76.7983C193.136 76.3233 193.054 75.9667 192.984 75.66C192.962 75.5675 192.635 74.1871 192.197 74.1888Z" fill="#5FBA8E"/>
<path d="M198.765 75.6623L198.566 73.8913L198.657 73.757C199.077 73.1362 199.29 72.5299 199.293 71.9543C199.293 71.8628 199.289 71.7713 199.285 71.6781C199.268 71.3087 199.246 70.8495 199.486 70.3142C199.62 70.0157 199.997 69.3247 200.564 69.4103C200.717 69.4316 200.832 69.5017 200.92 69.5838C200.933 69.5633 200.946 69.5428 200.96 69.5206C201.137 69.2512 201.276 69.1357 201.411 69.0246C201.515 68.9391 201.621 68.851 201.789 68.6423C201.863 68.5508 201.92 68.4704 201.968 68.4029C202.115 68.1985 202.306 67.9548 202.644 67.959C203.005 67.9761 203.194 68.2746 203.319 68.4721C203.543 68.8245 203.644 69.0784 203.711 69.2469C203.736 69.3085 203.764 69.3777 203.778 69.3991C203.894 69.5702 204.839 69.4102 205.196 69.3521C205.996 69.2187 206.688 69.1032 206.973 69.6078C207.177 69.9687 207.026 70.4458 206.508 71.0641C206.347 71.2565 206.176 71.4028 206.023 71.5174C206.15 71.5926 206.262 71.7081 206.308 71.8894C206.416 72.3186 206.047 72.7488 205.212 73.1695C205.004 73.2747 204.725 73.415 204.334 73.4825C204.15 73.5142 203.984 73.5219 203.842 73.5261C203.839 73.6082 203.82 73.6972 203.77 73.7887C203.623 74.0581 203.318 74.1863 202.858 74.1555C202.351 74.129 201.934 74.0324 201.567 73.9477C201.246 73.8742 200.969 73.8118 200.752 73.8263C200.349 73.8588 200.039 74.1812 199.674 74.5994L198.765 75.6623Z" fill="#5FBA8E"/>
<path d="M199.688 65.1186L198.025 65.7597L197.872 65.7061C197.165 65.4578 196.524 65.4048 195.967 65.5483C195.878 65.5711 195.791 65.5985 195.702 65.6263C195.349 65.7365 194.91 65.8737 194.332 65.7778C194.009 65.7237 193.245 65.5341 193.184 64.964C193.166 64.811 193.204 64.6815 193.261 64.5759C193.238 64.5687 193.215 64.5611 193.19 64.5531C192.885 64.4506 192.738 64.3446 192.596 64.2425C192.487 64.1641 192.375 64.0831 192.13 63.9739C192.023 63.9259 191.931 63.8909 191.853 63.8613C191.618 63.7713 191.334 63.6478 191.252 63.32C191.177 62.9666 191.418 62.7081 191.577 62.5368C191.862 62.2311 192.082 62.0686 192.227 61.961C192.281 61.9218 192.341 61.8773 192.358 61.8582C192.494 61.7024 192.099 60.8285 191.953 60.4987C191.621 59.7587 191.334 59.1184 191.749 58.7145C192.046 58.4253 192.547 58.4511 193.276 58.7947C193.503 58.9018 193.688 59.0306 193.837 59.1488C193.878 59.0077 193.961 58.8692 194.125 58.7789C194.513 58.5658 195.022 58.8137 195.641 59.5147C195.796 59.6886 196.002 59.9231 196.167 60.2844C196.244 60.4546 196.294 60.6132 196.334 60.7494C196.414 60.7315 196.505 60.7275 196.606 60.7527C196.904 60.8262 197.105 61.089 197.192 61.5419C197.295 62.0383 197.307 62.466 197.319 62.8432C197.329 63.1725 197.339 63.4559 197.408 63.6623C197.541 64.0437 197.932 64.2622 198.429 64.5085L199.688 65.1186Z" fill="#5FBA8E"/>
<path d="M198.765 59.8987L198.566 58.1276L198.657 57.9934C199.077 57.3725 199.29 56.7662 199.293 56.1907C199.293 56.0992 199.289 56.0077 199.285 55.9145C199.268 55.545 199.246 55.0858 199.486 54.5505C199.62 54.252 199.997 53.5611 200.564 53.6466C200.717 53.668 200.832 53.7381 200.92 53.8202C200.933 53.7997 200.946 53.7791 200.96 53.7569C201.137 53.4875 201.276 53.3721 201.411 53.2609C201.515 53.1754 201.621 53.0873 201.789 52.8786C201.863 52.7871 201.92 52.7068 201.968 52.6392C202.115 52.4348 202.306 52.1911 202.644 52.1954C203.005 52.2125 203.194 52.5109 203.319 52.7085C203.543 53.0608 203.644 53.3148 203.711 53.4832C203.736 53.5448 203.764 53.6141 203.778 53.6355C203.894 53.8065 204.839 53.6466 205.196 53.5884C205.996 53.455 206.688 53.3396 206.973 53.8441C207.177 54.205 207.026 54.6822 206.508 55.3005C206.347 55.4929 206.176 55.6391 206.023 55.7537C206.15 55.8289 206.262 55.9444 206.308 56.1257C206.416 56.555 206.047 56.9851 205.212 57.4059C205.004 57.511 204.725 57.6513 204.334 57.7189C204.15 57.7505 203.984 57.7582 203.842 57.7625C203.839 57.8446 203.82 57.9335 203.77 58.025C203.623 58.2944 203.318 58.4227 202.858 58.3919C202.351 58.3654 201.934 58.2687 201.567 58.1841C201.246 58.1105 200.969 58.0481 200.752 58.0626C200.349 58.0951 200.039 58.4175 199.674 58.8357L198.765 59.8987Z" fill="#5FBA8E"/>
<path d="M200.578 94.2782L200.207 94.0456L199.774 94.0952C199.767 94.055 199.744 93.9626 199.708 93.8181C199.515 93.0262 198.924 90.6164 198.431 86.8212C198.088 84.1719 197.893 81.4482 197.853 78.7245C197.813 75.9966 197.942 73.9314 198.045 72.2715C198.124 71.0195 198.219 69.8274 198.312 68.6661C198.56 65.5636 198.794 62.633 198.62 59.3885C198.581 58.6642 198.5 57.1565 197.619 55.5522C197.109 54.6218 196.405 53.7958 195.527 53.0979L196.073 52.4121C197.041 53.1835 197.82 54.0985 198.387 55.1315C199.364 56.9103 199.452 58.553 199.494 59.3423C199.671 62.6441 199.435 65.603 199.184 68.7354C199.092 69.8924 198.997 71.0794 198.919 72.3262C198.817 73.9707 198.689 76.018 198.729 78.7109C198.768 81.402 198.96 84.0924 199.299 86.7083C199.786 90.4556 200.368 92.8296 200.559 93.6095C200.661 94.0259 200.682 94.1131 200.578 94.2782Z" fill="#5FBA8E"/>
<path d="M193.921 54.4891C193.885 54.4891 193.849 54.4882 193.812 54.4857C193.067 54.4455 192.376 53.9991 191.759 53.1593C191.47 52.7642 191.322 52.3136 191.027 51.4148C190.982 51.2763 190.759 50.5733 190.624 49.6061C190.536 48.9742 190.547 48.7099 190.672 48.4765C190.811 48.2165 191.036 48.0352 191.289 47.9129C191.278 47.8291 191.287 47.7427 191.323 47.6546C191.472 47.2895 191.869 47.3374 192.084 47.3605C192.193 47.3742 192.328 47.3921 192.474 47.3844C192.704 47.3733 192.828 47.3049 193.015 47.2023C193.194 47.1039 193.417 46.9816 193.748 46.9141C194.399 46.7781 194.945 46.9628 195.125 47.0235C196.072 47.3391 196.539 48.0754 197.08 48.928C197.188 49.099 197.557 49.7216 197.802 50.575C197.978 51.1907 197.953 51.4644 197.9 51.6679C197.792 52.0861 197.538 52.3255 196.892 52.854C196.217 53.4073 195.878 53.6844 195.588 53.8528C194.911 54.2436 194.486 54.4891 193.921 54.4891Z" fill="#5FBA8E"/>
<defs>
<filter id="filter0_d_264_658" x="0.691406" y="0.75" width="320" height="100" filterUnits="userSpaceOnUse" color-interpolation-filters="sRGB">
<feFlood flood-opacity="0" result="BackgroundImageFix"/>
<feColorMatrix in="SourceAlpha" type="matrix" values="0 0 0 0 0 0 0 0 0 0 0 0 0 0 0 0 0 0 127 0" result="hardAlpha"/>
<feOffset/>
<feGaussianBlur stdDeviation="3.5"/>
<feComposite in2="hardAlpha" operator="out"/>
<feColorMatrix type="matrix" values="0 0 0 0 0 0 0 0 0 0 0 0 0 0 0 0 0 0 0.14 0"/>
<feBlend mode="normal" in2="BackgroundImageFix" result="effect1_dropShadow_264_658"/>
<feBlend mode="normal" in="SourceGraphic" in2="effect1_dropShadow_264_658" result="shape"/>
</filter>
<radialGradient id="paint0_radial_264_658" cx="0" cy="0" r="1" gradientUnits="userSpaceOnUse" gradientTransform="translate(194.863 73.0704) rotate(175.001) scale(212.671 37.6233)">
<stop stop-color="#0B9596"/>
<stop offset="1" stop-color="white"/>
</radialGradient>
</defs>
</svg>
