<svg width="321" height="101" viewBox="0 0 321 101" fill="none" xmlns="http://www.w3.org/2000/svg">
<g filter="url(#filter0_d_264_1310)">
<rect x="7.8457" y="7.13281" width="306" height="86" rx="8" fill="white"/>
<path opacity="0.5" fill-rule="evenodd" clip-rule="evenodd" d="M310.048 80.4948V85.7067C310.048 90.125 306.466 93.7067 302.048 93.7067L16.3175 93.7067C14.2102 93.7067 12.2931 92.8919 10.8643 91.5601C17.5762 89.2423 23.7742 86.3773 29.7901 83.5965C34.8909 81.2386 39.8609 78.9412 44.9023 77.0892C48.6303 75.7197 53.6714 75.5246 59.0958 75.3146C67.7066 74.9813 77.2835 74.6106 84.1081 69.4456C99.5403 57.766 144.756 46.7641 155.605 47.0099C160.17 47.1133 164.394 50.6814 169.205 54.7458C175.826 60.3384 183.559 66.8706 194.825 66.6082C201.775 66.4464 208.894 64.9432 216.652 63.305C230.609 60.3578 246.635 56.9736 267.474 60.1759C283.732 62.6743 299.259 71.864 310.048 80.4948Z" fill="url(#paint0_radial_264_1310)"/>
<g clip-path="url(#clip0_264_1310)">
<path d="M56.332 70.5466C56.2462 70.4018 55.8747 70.5568 55.8064 70.4254C55.7384 70.2945 56.0835 70.095 56.2807 69.6394C56.3162 69.5572 56.5403 69.0393 56.3744 68.8795C56.06 68.5766 54.6212 69.8266 54.1177 69.4175C54.0072 69.3278 53.93 69.1486 53.5956 68.8576C53.4625 68.7419 53.3821 68.6896 53.3042 68.7091C53.1937 68.7366 53.185 68.8845 53.0665 69.1752C52.8889 69.6112 52.7838 69.5849 52.6803 69.9327C52.6034 70.191 52.621 70.3411 52.5306 70.3704C52.4026 70.4117 52.2848 70.1378 52.1227 70.1624C51.9572 70.1874 51.8571 70.5063 51.8255 70.7451C51.7662 71.1932 51.9308 71.4888 52.022 71.7997C52.1211 72.1376 52.1799 72.6514 51.951 73.3788L49.6855 79.7618C50.1857 78.4521 51.6339 74.8616 52.2424 73.5274C52.4181 73.1422 52.612 72.7515 53.0103 72.5973C53.3937 72.4489 53.9203 72.5375 54.5917 72.3758C54.6701 72.3569 54.8877 72.3015 54.9151 72.1736C54.9377 72.0678 54.8097 72.0087 54.8294 71.9096C54.8558 71.7767 55.1074 71.7751 55.4167 71.6217C55.6348 71.5136 55.7707 71.385 55.8875 71.2744C55.9227 71.2411 56.4463 70.7393 56.332 70.5466Z" fill="#5FBA8E"/>
<path d="M47.421 73.9094C47.3251 73.9098 47.2941 74.1368 47.2099 74.1324C47.126 74.128 47.1277 73.9011 46.9609 73.6728C46.9308 73.6317 46.7413 73.3723 46.615 73.4076C46.3756 73.4745 46.574 74.5413 46.2279 74.6704C46.152 74.6988 46.0418 74.6849 45.8025 74.7651C45.7073 74.797 45.6584 74.8214 45.6455 74.8653C45.6272 74.9275 45.6972 74.9744 45.8057 75.1164C45.9684 75.3294 45.9252 75.3734 46.0661 75.5246C46.1706 75.6368 46.2494 75.6715 46.2376 75.7243C46.221 75.7991 46.0526 75.7779 46.0179 75.8645C45.9824 75.953 46.1101 76.0941 46.2181 76.1785C46.421 76.3369 46.6135 76.3414 46.7925 76.3864C46.9869 76.4352 47.256 76.5546 47.547 76.8768L50.0262 79.8304C49.5276 79.207 48.1833 77.4603 47.704 76.7767C47.5656 76.5793 47.4298 76.3714 47.4691 76.1314C47.5069 75.9004 47.7023 75.6675 47.8166 75.2913C47.83 75.2474 47.8656 75.1247 47.8107 75.0743C47.7653 75.0326 47.6994 75.0784 47.6564 75.0402C47.5988 74.9889 47.6706 74.8649 47.6846 74.6688C47.6944 74.5306 47.6705 74.4268 47.6499 74.3376C47.6437 74.3107 47.5486 73.9089 47.421 73.9094Z" fill="#5FBA8E"/>
<path d="M49.3292 74.3375L49.2715 73.8221L49.2979 73.7831C49.4199 73.6024 49.4822 73.4259 49.4829 73.2584C49.483 73.2318 49.4818 73.2052 49.4805 73.1781C49.4756 73.0705 49.4693 72.9369 49.539 72.7811C49.5781 72.6943 49.6878 72.4932 49.8528 72.5181C49.8973 72.5243 49.9309 72.5447 49.9564 72.5686C49.9601 72.5626 49.964 72.5566 49.9681 72.5502C50.0195 72.4718 50.0602 72.4382 50.0994 72.4058C50.1295 72.3809 50.1606 72.3553 50.2094 72.2946C50.2308 72.2679 50.2474 72.2445 50.2615 72.2249C50.3042 72.1654 50.3599 72.0945 50.4582 72.0957C50.5632 72.1007 50.6182 72.1876 50.6547 72.245C50.7198 72.3476 50.7493 72.4215 50.7688 72.4705C50.7759 72.4884 50.784 72.5086 50.7881 72.5148C50.8219 72.5646 51.0971 72.518 51.2007 72.5011C51.4335 72.4623 51.635 72.4287 51.718 72.5755C51.7775 72.6806 51.7333 72.8194 51.5827 72.9994C51.5358 73.0554 51.4859 73.0979 51.4416 73.1313C51.4783 73.1532 51.5112 73.1868 51.5245 73.2395C51.5559 73.3645 51.4485 73.4896 51.2055 73.6121C51.1451 73.6427 51.0638 73.6835 50.95 73.7032C50.8964 73.7124 50.8481 73.7146 50.8068 73.7159C50.8059 73.7398 50.8003 73.7656 50.7857 73.7923C50.7431 73.8707 50.6542 73.908 50.5203 73.899C50.373 73.8913 50.2517 73.8632 50.1446 73.8386C50.0512 73.8172 49.9707 73.799 49.9075 73.8032C49.7903 73.8127 49.6999 73.9065 49.5939 74.0282L49.3292 74.3375Z" fill="#5FBA8E"/>
<path d="M49.6016 71.2693L49.1177 71.4558L49.0732 71.4402C48.8674 71.368 48.681 71.3526 48.5188 71.3943C48.493 71.401 48.4675 71.4089 48.4416 71.417C48.3389 71.4491 48.2112 71.489 48.0428 71.4611C47.9489 71.4454 47.7265 71.3902 47.7088 71.2243C47.7035 71.1797 47.7147 71.1421 47.7314 71.1113C47.7246 71.1092 47.7179 71.107 47.7106 71.1047C47.6217 71.0748 47.5789 71.044 47.5377 71.0143C47.506 70.9915 47.4733 70.9679 47.4022 70.9361C47.371 70.9222 47.3441 70.912 47.3215 70.9034C47.2532 70.8772 47.1704 70.8412 47.1467 70.7458C47.1249 70.643 47.1949 70.5677 47.2413 70.5179C47.324 70.4289 47.388 70.3817 47.4304 70.3503C47.446 70.3389 47.4634 70.326 47.4684 70.3204C47.508 70.2751 47.3932 70.0207 47.3505 69.9248C47.2539 69.7094 47.1703 69.5231 47.2913 69.4055C47.3778 69.3214 47.5233 69.3289 47.7355 69.4289C47.8016 69.46 47.8554 69.4975 47.8989 69.5319C47.9108 69.4908 47.935 69.4505 47.9826 69.4243C48.0955 69.3623 48.2438 69.4344 48.4239 69.6384C48.4688 69.689 48.5289 69.7573 48.5768 69.8624C48.5993 69.912 48.6138 69.9581 48.6254 69.9977C48.6488 69.9925 48.6752 69.9914 48.7047 69.9987C48.7913 70.0201 48.85 70.0966 48.8753 70.2284C48.9052 70.3728 48.9088 70.4973 48.9121 70.6071C48.9151 70.7029 48.9179 70.7854 48.938 70.8455C48.9769 70.9564 49.0906 71.02 49.2352 71.0917L49.6016 71.2693Z" fill="#5FBA8E"/>
<path d="M49.3292 69.7497L49.2715 69.2342L49.2979 69.1952C49.4199 69.0145 49.4822 68.838 49.4829 68.6705C49.483 68.6439 49.4818 68.6173 49.4805 68.5902C49.4756 68.4827 49.4693 68.349 49.539 68.1932C49.5781 68.1064 49.6878 67.9053 49.8528 67.9302C49.8973 67.9364 49.9309 67.9568 49.9564 67.9807C49.9601 67.9747 49.964 67.9687 49.9681 67.9623C50.0195 67.8839 50.0602 67.8503 50.0994 67.8179C50.1295 67.793 50.1606 67.7674 50.2094 67.7067C50.2308 67.6801 50.2474 67.6567 50.2615 67.637C50.3042 67.5775 50.3599 67.5066 50.4582 67.5078C50.5632 67.5128 50.6182 67.5997 50.6547 67.6572C50.7198 67.7597 50.7493 67.8336 50.7688 67.8826C50.7759 67.9005 50.784 67.9207 50.7881 67.9269C50.8219 67.9767 51.0971 67.9302 51.2007 67.9132C51.4335 67.8744 51.635 67.8408 51.718 67.9877C51.7775 68.0927 51.7333 68.2315 51.5827 68.4115C51.5358 68.4675 51.4859 68.51 51.4416 68.5434C51.4783 68.5653 51.5112 68.5989 51.5245 68.6516C51.5559 68.7766 51.4485 68.9017 51.2055 69.0242C51.1451 69.0548 51.0638 69.0956 50.95 69.1153C50.8964 69.1245 50.8481 69.1267 50.8068 69.128C50.8059 69.1519 50.8003 69.1778 50.7857 69.2044C50.7431 69.2828 50.6542 69.3201 50.5203 69.3111C50.373 69.3034 50.2517 69.2753 50.1446 69.2507C50.0512 69.2293 49.9707 69.2111 49.9075 69.2153C49.7903 69.2248 49.6999 69.3186 49.5939 69.4403L49.3292 69.7497Z" fill="#5FBA8E"/>
<path d="M49.8624 79.7542L49.7544 79.6865L49.6285 79.701C49.6265 79.6893 49.6196 79.6624 49.6093 79.6203C49.5529 79.3899 49.3811 78.6886 49.2377 77.5841C49.1377 76.8131 49.0811 76.0204 49.0694 75.2278C49.0577 74.4339 49.0953 73.8329 49.1254 73.3498C49.1481 72.9855 49.1758 72.6386 49.2029 72.3006C49.2751 71.3977 49.3431 70.5448 49.2925 69.6006C49.2813 69.3898 49.2578 68.951 49.0014 68.4842C48.8527 68.2134 48.6479 67.973 48.3926 67.7699L48.5514 67.5703C48.8332 67.7948 49.0598 68.0611 49.2249 68.3617C49.5091 68.8794 49.5348 69.3574 49.5471 69.5872C49.5986 70.548 49.5298 71.4091 49.4569 72.3207C49.43 72.6575 49.4024 73.0029 49.3797 73.3657C49.3499 73.8443 49.3126 74.4401 49.3242 75.2238C49.3357 76.007 49.3917 76.7899 49.4903 77.5512C49.632 78.6418 49.8013 79.3327 49.8569 79.5596C49.8865 79.6808 49.8928 79.7062 49.8624 79.7542Z" fill="#5FBA8E"/>
<path d="M47.9236 68.1757C47.9131 68.1757 47.9026 68.1755 47.8919 68.1747C47.6748 68.163 47.4739 68.0331 47.2944 67.7887C47.2103 67.6738 47.1673 67.5426 47.0814 67.281C47.0681 67.2407 47.0034 67.0362 46.9641 66.7547C46.9383 66.5708 46.9416 66.4939 46.978 66.4259C47.0185 66.3503 47.0839 66.2975 47.1576 66.2619C47.1543 66.2375 47.1569 66.2124 47.1675 66.1868C47.211 66.0805 47.3264 66.0944 47.3889 66.1012C47.4205 66.1051 47.4599 66.1104 47.5025 66.1081C47.5694 66.1049 47.6054 66.085 47.6599 66.0551C47.7121 66.0265 47.7769 65.9909 47.8731 65.9712C48.0627 65.9317 48.2216 65.9854 48.274 66.0031C48.5496 66.0949 48.6855 66.3092 48.8428 66.5573C48.8742 66.6071 48.9818 66.7883 49.0528 67.0367C49.1041 67.2158 49.0969 67.2955 49.0815 67.3547C49.0501 67.4764 48.9761 67.5461 48.788 67.6999C48.5917 67.8609 48.4931 67.9415 48.4085 67.9906C48.2115 68.1043 48.0878 68.1757 47.9236 68.1757Z" fill="#5FBA8E"/>
<path d="M128.926 70.7146C128.84 70.5698 128.468 70.7248 128.4 70.5934C128.332 70.4625 128.677 70.263 128.874 69.8073C128.91 69.7251 129.134 69.2073 128.968 69.0475C128.654 68.7446 127.215 69.9945 126.711 69.5855C126.601 69.4957 126.524 69.3165 126.189 69.0256C126.056 68.9098 125.976 68.8576 125.898 68.877C125.787 68.9046 125.779 69.0525 125.66 69.3432C125.483 69.7792 125.378 69.7529 125.274 70.1007C125.197 70.3589 125.215 70.5091 125.124 70.5383C124.996 70.5797 124.879 70.3058 124.716 70.3303C124.551 70.3554 124.451 70.6743 124.419 70.913C124.36 71.3611 124.525 71.6568 124.616 71.9677C124.715 72.3056 124.774 72.8194 124.545 73.5468L122.279 79.9298C122.779 78.62 124.228 75.0296 124.836 73.6953C125.012 73.3102 125.206 72.9195 125.604 72.7653C125.987 72.6169 126.514 72.7055 127.185 72.5438C127.264 72.5249 127.481 72.4695 127.509 72.3415C127.531 72.2357 127.403 72.1767 127.423 72.0776C127.45 71.9447 127.701 71.943 128.01 71.7897C128.229 71.6816 128.364 71.553 128.481 71.4424C128.516 71.409 129.04 70.9073 128.926 70.7146Z" fill="#F2F2F2"/>
<path d="M120.015 74.0774C119.919 74.0777 119.888 74.3048 119.804 74.3004C119.72 74.296 119.721 74.0691 119.555 73.8408C119.525 73.7996 119.335 73.5402 119.209 73.5756C118.969 73.6425 119.168 74.7093 118.822 74.8384C118.746 74.8667 118.636 74.8529 118.396 74.9331C118.301 74.965 118.252 74.9894 118.239 75.0332C118.221 75.0954 118.291 75.1424 118.399 75.2844C118.562 75.4974 118.519 75.5414 118.66 75.6926C118.764 75.8048 118.843 75.8395 118.831 75.8923C118.815 75.967 118.646 75.9458 118.612 76.0325C118.576 76.1209 118.704 76.262 118.812 76.3465C119.015 76.5048 119.207 76.5094 119.386 76.5543C119.581 76.6032 119.85 76.7226 120.141 77.0448L122.62 79.9984C122.121 79.375 120.777 77.6283 120.298 76.9446C120.159 76.7473 120.024 76.5394 120.063 76.2994C120.101 76.0684 120.296 75.8355 120.41 75.4593C120.424 75.4154 120.459 75.2926 120.404 75.2423C120.359 75.2006 120.293 75.2464 120.25 75.2081C120.193 75.1569 120.264 75.0329 120.278 74.8368C120.288 74.6986 120.264 74.5948 120.244 74.5055C120.237 74.4786 120.142 74.0769 120.015 74.0774Z" fill="#F2F2F2"/>
<path d="M121.923 74.5055L121.865 73.9901L121.892 73.951C122.014 73.7703 122.076 73.5939 122.077 73.4264C122.077 73.3998 122.076 73.3732 122.074 73.346C122.069 73.2385 122.063 73.1049 122.133 72.9491C122.172 72.8622 122.282 72.6611 122.447 72.686C122.491 72.6922 122.525 72.7126 122.55 72.7365C122.554 72.7306 122.558 72.7246 122.562 72.7181C122.613 72.6397 122.654 72.6061 122.693 72.5738C122.723 72.5489 122.754 72.5233 122.803 72.4625C122.825 72.4359 122.841 72.4125 122.855 72.3929C122.898 72.3334 122.954 72.2624 123.052 72.2637C123.157 72.2687 123.212 72.3555 123.248 72.413C123.314 72.5155 123.343 72.5895 123.363 72.6385C123.37 72.6564 123.378 72.6766 123.382 72.6828C123.416 72.7326 123.691 72.686 123.794 72.6691C124.027 72.6303 124.229 72.5967 124.312 72.7435C124.371 72.8485 124.327 72.9874 124.176 73.1673C124.13 73.2233 124.08 73.2659 124.035 73.2992C124.072 73.3211 124.105 73.3547 124.118 73.4075C124.15 73.5324 124.042 73.6576 123.799 73.7801C123.739 73.8107 123.658 73.8515 123.544 73.8711C123.49 73.8803 123.442 73.8826 123.401 73.8838C123.4 73.9077 123.394 73.9336 123.379 73.9602C123.337 74.0386 123.248 74.076 123.114 74.067C122.967 74.0593 122.845 74.0312 122.738 74.0065C122.645 73.9851 122.564 73.967 122.501 73.9712C122.384 73.9806 122.294 74.0745 122.188 74.1962L121.923 74.5055Z" fill="#F2F2F2"/>
<path d="M122.195 71.4372L121.711 71.6238L121.667 71.6082C121.461 71.536 121.275 71.5205 121.113 71.5623C121.087 71.5689 121.061 71.5769 121.035 71.585C120.933 71.6171 120.805 71.657 120.637 71.6291C120.543 71.6133 120.32 71.5582 120.303 71.3922C120.297 71.3477 120.308 71.31 120.325 71.2793C120.318 71.2772 120.312 71.275 120.304 71.2726C120.215 71.2428 120.173 71.212 120.131 71.1823C120.1 71.1595 120.067 71.1359 119.996 71.1041C119.965 71.0901 119.938 71.0799 119.915 71.0713C119.847 71.0451 119.764 71.0092 119.74 70.9138C119.719 70.8109 119.789 70.7357 119.835 70.6859C119.918 70.5969 119.982 70.5496 120.024 70.5183C120.04 70.5069 120.057 70.494 120.062 70.4884C120.102 70.443 119.987 70.1887 119.944 70.0927C119.848 69.8774 119.764 69.691 119.885 69.5735C119.972 69.4893 120.117 69.4968 120.329 69.5968C120.395 69.628 120.449 69.6655 120.493 69.6999C120.505 69.6588 120.529 69.6185 120.576 69.5923C120.689 69.5302 120.838 69.6024 121.018 69.8064C121.063 69.857 121.123 69.9252 121.171 70.0304C121.193 70.0799 121.208 70.1261 121.219 70.1657C121.243 70.1605 121.269 70.1593 121.298 70.1667C121.385 70.1881 121.444 70.2645 121.469 70.3963C121.499 70.5408 121.503 70.6653 121.506 70.775C121.509 70.8709 121.512 70.9534 121.532 71.0134C121.571 71.1244 121.684 71.188 121.829 71.2597L122.195 71.4372Z" fill="#F2F2F2"/>
<path d="M121.923 69.9176L121.865 69.4022L121.892 69.3631C122.014 69.1825 122.076 69.006 122.077 68.8385C122.077 68.8119 122.076 68.7853 122.074 68.7581C122.069 68.6506 122.063 68.517 122.133 68.3612C122.172 68.2743 122.282 68.0732 122.447 68.0981C122.491 68.1044 122.525 68.1248 122.55 68.1486C122.554 68.1427 122.558 68.1367 122.562 68.1302C122.613 68.0518 122.654 68.0182 122.693 67.9859C122.723 67.961 122.754 67.9354 122.803 67.8746C122.825 67.848 122.841 67.8246 122.855 67.805C122.898 67.7455 122.954 67.6746 123.052 67.6758C123.157 67.6808 123.212 67.7676 123.248 67.8251C123.314 67.9277 123.343 68.0016 123.363 68.0506C123.37 68.0685 123.378 68.0887 123.382 68.0949C123.416 68.1447 123.691 68.0981 123.794 68.0812C124.027 68.0424 124.229 68.0088 124.312 68.1556C124.371 68.2606 124.327 68.3995 124.176 68.5794C124.13 68.6354 124.08 68.678 124.035 68.7113C124.072 68.7332 124.105 68.7668 124.118 68.8196C124.15 68.9445 124.042 69.0697 123.799 69.1922C123.739 69.2228 123.658 69.2636 123.544 69.2832C123.49 69.2925 123.442 69.2947 123.401 69.2959C123.4 69.3198 123.394 69.3457 123.379 69.3723C123.337 69.4507 123.248 69.4881 123.114 69.4791C122.967 69.4714 122.845 69.4433 122.738 69.4186C122.645 69.3972 122.564 69.3791 122.501 69.3833C122.384 69.3928 122.294 69.4866 122.188 69.6083L121.923 69.9176Z" fill="#F2F2F2"/>
<path d="M122.456 79.9222L122.348 79.8545L122.222 79.8689C122.22 79.8573 122.213 79.8304 122.203 79.7883C122.147 79.5579 121.975 78.8565 121.831 77.7521C121.731 76.9811 121.675 76.1884 121.663 75.3958C121.651 74.6019 121.689 74.0008 121.719 73.5178C121.742 73.1534 121.77 72.8065 121.797 72.4686C121.869 71.5657 121.937 70.7128 121.886 69.7686C121.875 69.5578 121.852 69.119 121.595 68.6521C121.446 68.3814 121.242 68.141 120.986 67.9379L121.145 67.7383C121.427 67.9628 121.654 68.2291 121.819 68.5297C122.103 69.0473 122.129 69.5254 122.141 69.7551C122.192 70.716 122.124 71.5771 122.051 72.4887C122.024 72.8254 121.996 73.1709 121.973 73.5337C121.944 74.0123 121.906 74.6081 121.918 75.3918C121.929 76.175 121.985 76.9579 122.084 77.7192C122.226 78.8098 122.395 79.5006 122.451 79.7276C122.48 79.8488 122.487 79.8742 122.456 79.9222Z" fill="#F2F2F2"/>
<path d="M120.517 68.3437C120.507 68.3437 120.496 68.3435 120.486 68.3427C120.269 68.331 120.068 68.2011 119.888 67.9567C119.804 67.8417 119.761 67.7106 119.675 67.449C119.662 67.4087 119.597 67.2041 119.558 66.9227C119.532 66.7387 119.535 66.6618 119.572 66.5939C119.612 66.5182 119.678 66.4655 119.751 66.4299C119.748 66.4055 119.751 66.3804 119.761 66.3547C119.805 66.2485 119.92 66.2624 119.983 66.2691C120.014 66.2731 120.054 66.2783 120.096 66.2761C120.163 66.2729 120.199 66.2529 120.254 66.2231C120.306 66.1945 120.371 66.1589 120.467 66.1392C120.656 66.0996 120.815 66.1534 120.868 66.1711C121.143 66.2629 121.279 66.4772 121.437 66.7253C121.468 66.7751 121.576 66.9563 121.647 67.2046C121.698 67.3838 121.691 67.4634 121.675 67.5227C121.644 67.6444 121.57 67.7141 121.382 67.8679C121.185 68.0289 121.087 68.1095 121.002 68.1585C120.805 68.2723 120.682 68.3437 120.517 68.3437Z" fill="#F2F2F2"/>
<path d="M130.127 79.6898C130.127 79.7654 130.066 79.8268 129.99 79.8268H35.0176V79.5527H129.99C130.066 79.5527 130.127 79.6141 130.127 79.6898Z" fill="#E6E6E6"/>
<path d="M115.819 79.6781C115.819 85.8945 116.471 90.4445 109.702 90.9339C102.432 91.4594 103.584 85.8945 103.584 79.6781C103.584 73.4617 102.606 67.2805 109.702 68.4224C113.037 68.9591 115.819 73.4617 115.819 79.6781Z" fill="#3F3D56"/>
<path d="M105.539 87.5078C106.08 87.5078 106.518 84.0022 106.518 79.6777C106.518 75.3533 106.08 71.8477 105.539 71.8477C104.999 71.8477 104.561 75.3533 104.561 79.6777C104.561 84.0022 104.999 87.5078 105.539 87.5078Z" fill="#E6E6E6"/>
<path d="M66.8224 69.6674C66.8224 75.1532 67.3983 79.1685 61.4241 79.6004C55.0089 80.0641 56.0257 75.1532 56.0257 69.6674C56.0257 64.1815 55.162 58.7267 61.4241 59.7344C64.3676 60.208 66.8224 64.1815 66.8224 69.6674Z" fill="#3F3D56"/>
<path d="M57.7524 76.5776C58.2294 76.5776 58.6161 73.484 58.6161 69.6677C58.6161 65.8515 58.2294 62.7578 57.7524 62.7578C57.2754 62.7578 56.8887 65.8515 56.8887 69.6677C56.8887 73.484 57.2754 76.5776 57.7524 76.5776Z" fill="#E6E6E6"/>
<path d="M76.0962 79.598C76.0962 85.8144 76.7487 90.3644 69.9789 90.8538C62.7095 91.3793 63.8617 85.8144 63.8617 79.598C63.8617 73.3817 62.8829 67.2004 69.9789 68.3423C73.3145 68.879 76.0962 73.3817 76.0962 79.598Z" fill="#3F3D56"/>
<path d="M65.8167 87.4277C66.3572 87.4277 66.7954 83.9221 66.7954 79.5977C66.7954 75.2732 66.3572 71.7676 65.8167 71.7676C65.2761 71.7676 64.8379 75.2732 64.8379 79.5977C64.8379 83.9221 65.2761 87.4277 65.8167 87.4277Z" fill="#E6E6E6"/>
<path d="M56.7693 56.5134V60.3719L55.709 62.1412L56.0352 68.3401L56.2992 68.5032L56.1168 62.2228C57.9753 61.5309 58.5831 62.8054 58.4006 65.3222L58.0743 69.5635L63.2944 72.826L63.9469 66.1378L66.3938 64.996L69.0854 76.3333H114.182C116.04 76.3333 117.526 74.7864 117.451 72.929L116.881 58.8787L115.346 57.3431L113.923 40.8894C113.569 36.7862 110.089 33.6631 105.972 33.7518L77.7617 34.3598C76.2313 34.3928 74.7193 34.7009 73.298 35.2694L66.4753 37.9985L62.0716 42.4023L61.4184 53.0061L59.7533 52.8614C58.5555 52.7572 57.4631 53.5488 57.1892 54.7195L56.7693 56.5134Z" fill="#E6E6E6"/>
<path d="M71.3676 71.7645C72.2685 71.7645 72.9989 71.0341 72.9989 70.1332C72.9989 69.2323 72.2685 68.502 71.3676 68.502C70.4667 68.502 69.7363 69.2323 69.7363 70.1332C69.7363 71.0341 70.4667 71.7645 71.3676 71.7645Z" fill="#3F3D56"/>
<path d="M75.1176 71.7645C76.0185 71.7645 76.7489 71.0341 76.7489 70.1332C76.7489 69.2323 76.0185 68.502 75.1176 68.502C74.2167 68.502 73.4863 69.2323 73.4863 70.1332C73.4863 71.0341 74.2167 71.7645 75.1176 71.7645Z" fill="#3F3D56"/>
<path d="M111.657 71.7645C112.558 71.7645 113.288 71.0341 113.288 70.1332C113.288 69.2323 112.558 68.502 111.657 68.502C110.756 68.502 110.025 69.2323 110.025 70.1332C110.025 71.0341 110.756 71.7645 111.657 71.7645Z" fill="#3F3D56"/>
<path d="M115.411 71.7645C116.311 71.7645 117.042 71.0341 117.042 70.1332C117.042 69.2323 116.311 68.502 115.411 68.502C114.51 68.502 113.779 69.2323 113.779 70.1332C113.779 71.0341 114.51 71.7645 115.411 71.7645Z" fill="#3F3D56"/>
<path d="M112.859 54.8121H74.5092C74.216 54.8121 73.9431 54.6953 73.7408 54.4831C73.5385 54.2709 73.4346 53.9928 73.4485 53.7L74.0088 41.8529C74.0353 41.2928 74.4953 40.8483 75.0559 40.8412L111.267 40.375C111.802 40.37 112.266 40.7665 112.334 41.3019L113.913 53.6151C113.951 53.9176 113.858 54.2225 113.657 54.4516C113.455 54.6807 113.164 54.8121 112.859 54.8121Z" fill="white"/>
<path d="M69.1576 54.2313H66.6693C66.3741 54.2313 66.0899 54.1071 65.8895 53.8903C65.6891 53.6735 65.5875 53.3803 65.6107 53.086L66.3269 43.9964C66.3662 43.4973 66.7397 43.0992 67.2353 43.0285L69.8066 42.6611C70.1286 42.6154 70.4492 42.7169 70.6858 42.9402C70.9224 43.1637 71.0424 43.4777 71.015 43.8019L70.2158 53.2588C70.169 53.8132 69.714 54.2313 69.1576 54.2313Z" fill="white"/>
<path d="M63.4361 53.9975C63.4104 53.9975 63.3845 53.9965 63.3586 53.9948L63.0665 53.9739C62.7779 53.9532 62.5162 53.82 62.3298 53.5987C62.1435 53.3773 62.0567 53.0969 62.0855 52.8089L62.8892 44.7711C62.9369 44.2953 63.2995 43.908 63.7714 43.8293C64.0929 43.7753 64.416 43.8702 64.6578 44.0888C64.8996 44.307 65.0264 44.6188 65.0057 44.9439L64.4941 53.0028C64.476 53.2875 64.3477 53.5476 64.1328 53.7353C63.9376 53.9059 63.6927 53.9975 63.4361 53.9975Z" fill="white"/>
<path d="M59.3929 70.4011L58.9697 61.1659C58.9697 61.1659 57.9909 59.8609 57.3384 60.1871C56.6859 60.5134 55.7168 62.3277 55.7168 62.3277C55.7168 62.3277 57.6081 62.2037 57.5548 64.2133C57.5016 66.2228 57.8789 69.4738 57.8789 69.4738L59.3929 70.4011Z" fill="#CCCCCC"/>
<path d="M63.3301 72.8121L63.535 65.9222L65.6101 63.4715C65.6101 63.4715 68.3832 62.8722 68.3245 66.0147C68.2657 69.1571 69.1629 76.4163 69.1629 76.4163L67.1351 75.1426C67.1351 75.1426 66.6344 67.3627 65.1663 66.5471C63.6981 65.7315 64.1875 66.384 64.1875 66.384L63.3301 72.8121Z" fill="#CCCCCC"/>
<path d="M61.1682 55.1484L59.5605 54.2297H59.7361C59.9868 54.2297 60.1901 54.0264 60.1901 53.7757V49.79C60.1901 49.5392 59.9868 49.3359 59.7361 49.3359H58.0341C57.7834 49.3359 57.5801 49.5392 57.5801 49.79V53.7757C57.5801 54.0264 57.7834 54.2297 58.0341 54.2297H58.903L61.0064 55.4317L61.1682 55.1484Z" fill="#3F3D56"/>
<path d="M63.34 61.122L62.0858 60.7613C61.7828 60.6742 61.4665 60.8492 61.3793 61.1522C61.2922 61.4553 61.4672 61.7716 61.7702 61.8587L63.0244 62.2194C63.3275 62.3065 63.6438 62.1315 63.7309 61.8285C63.8181 61.5254 63.643 61.2091 63.34 61.122Z" fill="#3F3D56"/>
<path d="M114.435 49.5413L109.072 49.3098C108.757 49.2962 108.491 49.5405 108.477 49.8556C108.464 50.1706 108.708 50.437 109.023 50.4506L114.386 50.6821C114.701 50.6957 114.967 50.4513 114.981 50.1363C114.994 49.8213 114.75 49.5549 114.435 49.5413Z" fill="#3F3D56"/>
<path d="M119.49 60.3069L114.127 60.0754C113.812 60.0618 113.546 60.3062 113.532 60.6212C113.518 60.9362 113.763 61.2026 114.078 61.2162L119.441 61.4477C119.756 61.4613 120.022 61.217 120.036 60.9019C120.049 60.5869 119.805 60.3205 119.49 60.3069Z" fill="#3F3D56"/>
<path d="M97.6261 72.7464C104.473 72.7464 110.024 67.1958 110.024 60.3488C110.024 53.5018 104.473 47.9512 97.6261 47.9512C90.7791 47.9512 85.2285 53.5018 85.2285 60.3488C85.2285 67.1958 90.7791 72.7464 97.6261 72.7464Z" fill="#3F3D56"/>
<path d="M97.6278 67.6873C101.682 67.6873 104.969 64.4007 104.969 60.3466C104.969 56.2924 101.682 53.0059 97.6278 53.0059C93.5737 53.0059 90.2871 56.2924 90.2871 60.3466C90.2871 64.4007 93.5737 67.6873 97.6278 67.6873Z" fill="#E6E6E6"/>
<path d="M114.057 35.7297C114.119 36.4534 114.543 37.0078 115.004 36.968C115.464 36.9282 115.787 36.3094 115.725 35.5854C115.704 35.2959 115.614 35.0156 115.462 34.768L115.159 31.7051L113.725 31.8779L114.176 34.8791C114.069 35.1491 114.028 35.4408 114.057 35.7297Z" fill="#FFB6B6"/>
<path d="M109.904 17.9979C109.904 17.9979 111.487 17.5521 112.095 18.3069C112.704 19.0617 114.973 26.4736 114.973 26.4736L115.677 34.4507L113.431 33.7709L112.556 27.4798L111.088 24.2173L109.904 17.9979Z" fill="#8EDB9B"/>
<path d="M109.384 13.1953H104.561V17.7692H109.384V13.1953Z" fill="#2F2E41"/>
<path d="M106.916 15.5258C108.215 15.5258 109.268 14.4728 109.268 13.174C109.268 11.8752 108.215 10.8223 106.916 10.8223C105.617 10.8223 104.564 11.8752 104.564 13.174C104.564 14.4728 105.617 15.5258 106.916 15.5258Z" fill="#FFB6B6"/>
<path d="M105.807 9.37104C104.304 9.60368 104.375 10.1622 103.894 10.4521C103.046 10.9629 102.712 12.438 103.159 13.4113C103.279 13.6714 103.531 14.0262 103.409 14.4093C103.315 14.7033 103.044 14.8768 102.993 14.9082C102.577 15.1654 102.849 14.8595 102.66 15.0746C102.453 15.312 102.775 15.6473 102.577 16.0725C102.402 16.4494 102.042 16.4176 101.995 16.6546C101.915 17.0627 102.84 17.8834 103.825 17.8189C104.702 17.7614 105.353 17.0201 105.571 16.322C105.717 15.8543 105.78 15.0499 105.405 14.6588C105.352 14.6039 105.208 14.471 105.072 14.2429C104.964 14.0624 104.823 13.8248 104.906 13.6608C104.994 13.4861 105.245 13.5781 105.405 13.4113C105.621 13.1852 105.364 12.8033 105.405 12.4134C105.474 11.7533 106.409 10.9593 107.401 11.0828C108.525 11.2229 108.938 12.4461 108.981 12.5797C109.069 12.8568 109.067 13.1248 109.064 13.6608C109.059 14.4301 109.056 14.9122 108.814 15.4072C108.467 16.1191 108.025 16.0422 107.9 16.5714C107.704 17.3966 108.626 18.2254 108.731 18.3178C109.513 19.0033 110.694 19.2094 110.893 18.8999C111.073 18.621 110.285 18.1872 110.311 17.3199C110.334 16.5683 110.942 16.3392 110.81 15.823C110.665 15.2548 109.89 15.3844 109.563 14.7419C109.257 14.1422 109.82 13.8094 109.729 12.5797C109.71 12.3196 109.628 11.573 109.147 10.8334C108.935 10.5075 108.719 10.1761 108.315 10.0017C107.863 9.80658 106.602 9.24798 105.807 9.37104Z" fill="#2F2E41"/>
<path d="M104.81 11.4511C104.871 11.9661 105.645 12.2185 105.975 12.2827C106.114 12.31 106.587 12.402 107.056 12.1996C107.229 12.1248 107.292 12.0571 107.472 12.0333C107.714 12.001 107.837 12.0933 108.22 12.1996C108.646 12.3178 108.86 12.3769 108.968 12.2827C109.146 12.1288 109.01 11.625 108.802 11.2848C108.418 10.6557 107.716 10.4609 107.388 10.37C107.014 10.2662 106.255 10.0556 105.559 10.4532C105.466 10.5064 104.748 10.9279 104.81 11.4511Z" fill="#2F2E41"/>
<path d="M116.264 57.7187L117.464 57.747L118.133 52.3544L116.362 52.3125L116.264 57.7187Z" fill="#FFB6B6"/>
<path d="M120.379 60.2232C120.379 60.426 120.235 60.5903 120.057 60.5903H117.675C117.675 60.5903 117.44 59.6479 116.484 59.2423L116.419 60.5903H115.189L115.338 58.4227C115.338 58.4227 115.01 57.263 115.692 56.6702C116.375 56.0774 115.822 56.16 115.822 56.16L116.091 54.8184L117.948 55.0368L117.962 57.1428L118.863 59.2331L120.185 59.8862C120.303 59.9443 120.379 60.0767 120.379 60.2232Z" fill="#2F2E41"/>
<path d="M110.801 47.1563L111.975 46.9037L111.367 41.5039L109.635 41.8767L110.801 47.1563Z" fill="#FFB6B6"/>
<path d="M115.391 48.6319C115.439 48.8291 115.337 49.0225 115.165 49.064L112.848 49.6201C112.848 49.6201 112.4 48.7584 111.376 48.5872L111.626 49.9134L110.431 50.2004L110.07 48.0579C110.07 48.0579 109.479 47.007 110.005 46.2711C110.531 45.5353 110.012 45.7447 110.012 45.7447L109.96 44.3774L111.817 44.1562L112.322 46.2009L113.686 48.0231L115.124 48.3495C115.252 48.3785 115.357 48.4895 115.391 48.6319Z" fill="#2F2E41"/>
<path d="M108.564 15.8145L105.628 15.9776L104.812 17.6088L101.713 19.2401L102.202 27.2841L101.084 31.3299L101.223 32.4534L112.153 32.1271L111.5 20.0557L111.664 18.0982L109.543 17.4457L108.564 15.8145Z" fill="#8EDB9B"/>
<path d="M101.3 30.9016C101.3 30.9016 98.8535 35.2251 101.3 35.8365C102.389 36.1085 103.542 36.2917 104.487 36.4114C105.618 36.5547 106.659 35.7782 106.847 34.6535L109.457 43.6255L112.067 42.9729L112.556 38.3026L115.727 41.474L115.329 54.2287L118.266 54.0656L121.365 40.1998C121.365 40.1998 121.528 39.221 119.081 37.916C116.634 36.611 112.23 32.3697 112.23 32.3697L104.726 30.0859L101.3 30.9016Z" fill="#2F2E41"/>
<path d="M106.439 33.7573L102.197 30.9841L107.417 25.4378C107.417 25.4378 110.354 24.2959 111.169 28.7004C111.985 33.1048 112.474 37.0198 112.474 37.0198L106.439 33.7573Z" fill="#2F2E41"/>
<path d="M97.6852 25.4815L97.8711 24.2176C98.0065 23.2965 97.3955 22.4926 96.567 22.2947V21.7707C96.567 21.3203 96.2018 20.9551 95.7513 20.9551C95.3009 20.9551 94.9357 21.3203 94.9357 21.7707V22.4697L91.8363 23.1271V22.2601C91.8363 21.8096 91.4711 21.4445 91.0206 21.4445C90.5702 21.4445 90.205 21.8096 90.205 22.2601V23.0841L89.8969 23.0038C88.9767 22.7637 88.2498 23.8195 88.8221 24.5789C88.8295 24.5888 88.837 24.5986 88.8447 24.6084C89.6087 25.5907 89.8269 26.4638 89.8269 26.4638L89.2812 29.4107L89.9028 35.5373C89.9829 36.327 90.6625 36.9186 91.4556 36.8893L97.4902 36.6657C98.2827 36.6364 98.9172 35.9974 98.9388 35.2046C99.0156 32.3808 99.0245 26.2349 97.6852 25.4815Z" fill="#3F3D56"/>
<path d="M92.2814 36.065C92.1968 36.065 92.1253 35.9998 92.1189 35.9141L91.7915 31.5484C91.7847 31.4585 91.8521 31.3802 91.9419 31.3735C92.031 31.3665 92.1101 31.4342 92.1168 31.524L92.4442 35.8897C92.451 35.9796 92.3836 36.0579 92.2938 36.0646C92.2896 36.0649 92.2855 36.065 92.2814 36.065Z" fill="#FFB6B6"/>
<path d="M89.825 26.6281C89.7454 26.6281 89.6757 26.5697 89.6639 26.4887C89.6508 26.3995 89.7124 26.3167 89.8016 26.3036L97.6853 25.1482C97.7745 25.1353 97.8573 25.1968 97.8704 25.2859C97.8834 25.375 97.8218 25.4579 97.7327 25.4709L89.8489 26.6264C89.8408 26.6276 89.8329 26.6281 89.825 26.6281Z" fill="#FFB6B6"/>
<path d="M43.5142 73.8897C43.4593 73.797 43.2215 73.8963 43.1778 73.8122C43.1342 73.7284 43.3551 73.6007 43.4813 73.309C43.5041 73.2564 43.6475 72.9249 43.5414 72.8226C43.3401 72.6287 42.4191 73.4288 42.0968 73.167C42.0261 73.1095 41.9767 72.9948 41.7626 72.8086C41.6774 72.7345 41.6259 72.701 41.5761 72.7135C41.5054 72.7311 41.4998 72.8258 41.424 73.0119C41.3102 73.291 41.243 73.2741 41.1767 73.4968C41.1275 73.6621 41.1388 73.7582 41.0809 73.7769C40.999 73.8034 40.9236 73.6281 40.8198 73.6438C40.7139 73.6598 40.6498 73.8639 40.6296 74.0168C40.5916 74.3036 40.697 74.4928 40.7553 74.6918C40.8188 74.9081 40.8564 75.237 40.7099 75.7026L39.2598 79.7885C39.5799 78.9501 40.5069 76.6518 40.8964 75.7977C41.0089 75.5512 41.133 75.3011 41.388 75.2024C41.6334 75.1074 41.9705 75.1641 42.4002 75.0606C42.4504 75.0485 42.5897 75.0131 42.6072 74.9311C42.6217 74.8634 42.5398 74.8256 42.5524 74.7622C42.5693 74.6771 42.7304 74.6761 42.9283 74.5779C43.0679 74.5087 43.1549 74.4264 43.2297 74.3556C43.2522 74.3342 43.5874 74.0131 43.5142 73.8897Z" fill="#8EDB9B"/>
<path d="M37.8083 76.0421C37.7469 76.0423 37.727 76.1876 37.6732 76.1848C37.6195 76.182 37.6205 76.0368 37.5138 75.8906C37.4945 75.8643 37.3732 75.6983 37.2924 75.7209C37.1392 75.7637 37.2661 76.4466 37.0446 76.5292C36.996 76.5473 36.9254 76.5385 36.7723 76.5898C36.7113 76.6103 36.6801 76.6259 36.6718 76.6539C36.66 76.6937 36.7049 76.7238 36.7743 76.8147C36.8785 76.951 36.8508 76.9792 36.941 77.076C37.0079 77.1478 37.0583 77.17 37.0508 77.2038C37.0402 77.2517 36.9324 77.2381 36.9101 77.2936C36.8875 77.3502 36.9692 77.4405 37.0383 77.4945C37.1682 77.5959 37.2914 77.5988 37.406 77.6276C37.5304 77.6589 37.7027 77.7353 37.889 77.9415L39.4759 79.8322C39.1568 79.4331 38.2962 78.315 37.9894 77.8774C37.9009 77.7511 37.814 77.618 37.8391 77.4644C37.8633 77.3165 37.9884 77.1675 38.0615 76.9267C38.0701 76.8985 38.0929 76.82 38.0577 76.7877C38.0287 76.7611 37.9865 76.7904 37.959 76.7659C37.9221 76.7331 37.9681 76.6537 37.977 76.5282C37.9833 76.4397 37.968 76.3733 37.9548 76.3161C37.9509 76.2989 37.89 76.0418 37.8083 76.0421Z" fill="#8EDB9B"/>
<path d="M39.0311 76.3178L38.9941 75.9879L39.011 75.9629C39.0892 75.8473 39.129 75.7343 39.1295 75.6271C39.1295 75.61 39.1288 75.593 39.128 75.5756C39.1248 75.5068 39.1208 75.4213 39.1654 75.3215C39.1904 75.266 39.2607 75.1372 39.3663 75.1532C39.3947 75.1571 39.4162 75.1702 39.4325 75.1855L39.44 75.1737C39.4729 75.1235 39.499 75.102 39.5241 75.0813C39.5433 75.0654 39.5633 75.049 39.5945 75.0101C39.6082 74.9931 39.6188 74.9781 39.6279 74.9655C39.6552 74.9274 39.6909 74.882 39.7538 74.8828C39.821 74.886 39.8562 74.9416 39.8796 74.9784C39.9212 75.044 39.9401 75.0914 39.9526 75.1227C39.9571 75.1342 39.9623 75.1471 39.9649 75.1511C39.9866 75.183 40.1627 75.1532 40.2291 75.1423C40.3781 75.1175 40.507 75.096 40.5602 75.19C40.5982 75.2572 40.57 75.3461 40.4736 75.4613C40.4436 75.4971 40.4116 75.5243 40.3833 75.5457C40.4068 75.5597 40.4278 75.5812 40.4363 75.615C40.4564 75.695 40.3876 75.7751 40.2321 75.8535C40.1935 75.8731 40.1414 75.8992 40.0686 75.9118C40.0342 75.9177 40.0033 75.9191 39.9769 75.9199C39.9763 75.9352 39.9727 75.9517 39.9634 75.9688C39.9361 76.019 39.8792 76.0429 39.7935 76.0371C39.6992 76.0322 39.6216 76.0142 39.5531 75.9984C39.4932 75.9847 39.4417 75.9731 39.4012 75.9758C39.3262 75.9819 39.2684 76.0419 39.2005 76.1198L39.0311 76.3178Z" fill="#8EDB9B"/>
<path d="M39.201 74.3511L38.8912 74.4706L38.8627 74.4606C38.731 74.4143 38.6117 74.4045 38.5079 74.4312C38.4914 74.4354 38.4751 74.4405 38.4585 74.4457C38.3927 74.4662 38.311 74.4918 38.2032 74.4739C38.1431 74.4638 38.0007 74.4285 37.9894 74.3223C37.986 74.2938 37.9932 74.2697 38.0038 74.25L37.9905 74.2458C37.9337 74.2267 37.9062 74.2069 37.8798 74.1879C37.8596 74.1733 37.8386 74.1582 37.7931 74.1379C37.7731 74.1289 37.756 74.1224 37.7415 74.1169C37.6977 74.1001 37.6448 74.0771 37.6296 74.0161C37.6156 73.9502 37.6605 73.9021 37.6901 73.8702C37.7431 73.8132 37.784 73.783 37.8112 73.7629C37.8212 73.7556 37.8323 73.7473 37.8355 73.7438C37.8608 73.7147 37.7874 73.5519 37.76 73.4905C37.6982 73.3527 37.6447 73.2334 37.7221 73.1581C37.7775 73.1043 37.8707 73.1091 38.0065 73.1731C38.0488 73.193 38.0833 73.217 38.1111 73.239C38.1187 73.2128 38.1342 73.187 38.1647 73.1701C38.2369 73.1304 38.3319 73.1766 38.4472 73.3072C38.4759 73.3396 38.5144 73.3833 38.545 73.4506C38.5594 73.4823 38.5687 73.5118 38.5761 73.5372C38.5911 73.5339 38.608 73.5331 38.6269 73.5378C38.6823 73.5515 38.7199 73.6005 38.7361 73.6848C38.7552 73.7773 38.7575 73.857 38.7596 73.9273C38.7615 73.9886 38.7634 74.0414 38.7762 74.0798C38.8011 74.1509 38.8739 74.1916 38.9665 74.2375L39.201 74.3511Z" fill="#8EDB9B"/>
<path d="M39.0311 73.3784L38.9941 73.0485L39.011 73.0235C39.0892 72.9078 39.129 72.7949 39.1295 72.6876C39.1295 72.6706 39.1288 72.6536 39.128 72.6362C39.1248 72.5674 39.1208 72.4818 39.1654 72.3821C39.1904 72.3265 39.2607 72.1978 39.3663 72.2137C39.3947 72.2177 39.4162 72.2308 39.4325 72.2461L39.44 72.2343C39.4729 72.1841 39.499 72.1626 39.5241 72.1419C39.5433 72.1259 39.5633 72.1095 39.5945 72.0707C39.6082 72.0536 39.6188 72.0386 39.6279 72.026C39.6552 71.988 39.6909 71.9426 39.7538 71.9434C39.821 71.9466 39.8562 72.0022 39.8796 72.039C39.9212 72.1046 39.9401 72.1519 39.9526 72.1833C39.9571 72.1948 39.9623 72.2077 39.9649 72.2116C39.9866 72.2435 40.1627 72.2137 40.2291 72.2029C40.3781 72.178 40.507 72.1565 40.5602 72.2505C40.5982 72.3177 40.57 72.4066 40.4736 72.5218C40.4436 72.5576 40.4116 72.5849 40.3833 72.6062C40.4068 72.6203 40.4278 72.6418 40.4363 72.6755C40.4564 72.7555 40.3876 72.8356 40.2321 72.914C40.1935 72.9336 40.1414 72.9597 40.0686 72.9723C40.0342 72.9782 40.0033 72.9796 39.9769 72.9804C39.9763 72.9957 39.9727 73.0123 39.9634 73.0293C39.9361 73.0795 39.8792 73.1034 39.7935 73.0977C39.6992 73.0927 39.6216 73.0747 39.5531 73.059C39.4932 73.0453 39.4417 73.0336 39.4012 73.0364C39.3262 73.0424 39.2684 73.1025 39.2005 73.1804L39.0311 73.3784Z" fill="#8EDB9B"/>
<path d="M39.3725 79.7834L39.3033 79.7401L39.2227 79.7493C39.2215 79.7418 39.2171 79.7246 39.2105 79.6977C39.1744 79.5502 39.0644 79.1013 38.9726 78.3943C38.9086 77.9007 38.8724 77.3934 38.8649 76.886C38.8574 76.3778 38.8814 75.9931 38.9007 75.6839C38.9153 75.4507 38.933 75.2286 38.9503 75.0123C38.9965 74.4343 39.0401 73.8884 39.0077 73.284C39.0005 73.149 38.9855 72.8682 38.8214 72.5693C38.7262 72.396 38.5951 72.2421 38.4316 72.1121L38.5333 71.9844C38.7137 72.1281 38.8587 72.2985 38.9644 72.491C39.1464 72.8223 39.1628 73.1283 39.1707 73.2754C39.2036 73.8904 39.1596 74.4416 39.1129 75.0252C39.0957 75.2407 39.078 75.4618 39.0635 75.6941C39.0444 76.0004 39.0206 76.3818 39.028 76.8834C39.0353 77.3848 39.0712 77.8859 39.1343 78.3732C39.225 79.0713 39.3334 79.5135 39.369 79.6588C39.3879 79.7364 39.3919 79.7526 39.3725 79.7834Z" fill="#8EDB9B"/>
<path d="M38.1308 72.3714C38.1241 72.3714 38.1174 72.3712 38.1105 72.3707C37.9716 72.3633 37.843 72.2801 37.7281 72.1237C37.6742 72.0501 37.6467 71.9661 37.5917 71.7987C37.5832 71.7729 37.5418 71.6419 37.5166 71.4618C37.5001 71.344 37.5022 71.2948 37.5255 71.2513C37.5514 71.2029 37.5933 71.1691 37.6405 71.1463C37.6384 71.1307 37.6401 71.1146 37.6468 71.0982C37.6746 71.0302 37.7486 71.0391 37.7885 71.0434C37.8088 71.046 37.834 71.0493 37.8613 71.0479C37.9041 71.0458 37.9271 71.0331 37.962 71.014C37.9954 70.9956 38.0369 70.9729 38.0985 70.9603C38.2199 70.9349 38.3216 70.9693 38.3551 70.9807C38.5315 71.0394 38.6185 71.1766 38.7192 71.3354C38.7393 71.3673 38.8082 71.4833 38.8537 71.6422C38.8865 71.7569 38.8818 71.8079 38.872 71.8458C38.8519 71.9237 38.8045 71.9683 38.6842 72.0668C38.5585 72.1699 38.4954 72.2215 38.4412 72.2529C38.3151 72.3257 38.236 72.3714 38.1308 72.3714Z" fill="#8EDB9B"/>
<path d="M134.746 55.3061L134.82 49.4768L132.583 48.8613L132.651 55.3069L132.136 60.0699L132.149 60.0749C131.933 60.2919 131.758 60.6384 131.684 61.0478C131.548 61.795 131.797 62.4662 132.241 62.547C132.684 62.6278 133.154 62.0875 133.29 61.3403C133.346 61.0336 133.336 60.7405 133.275 60.495L133.295 60.5024L134.746 55.3061Z" fill="#A0616A"/>
<path d="M130.673 41.603C130.673 41.603 131.688 40.8264 132.405 41.9614C133.122 43.0963 135.093 48.8308 135.093 48.8308C135.093 48.8308 135.663 51.4592 135.527 51.8474C135.392 52.2357 135.212 55.653 135.212 55.653L132.412 55.145L132.479 51.8474L129.811 47.5875L130.673 41.603Z" fill="#CCCCCC"/>
<path d="M111.915 39.4852L115.84 43.7958L117.895 42.7179L113.445 38.0543L110.57 34.2225L110.556 34.228C110.566 33.9221 110.457 33.5494 110.232 33.1993C109.822 32.5604 109.181 32.2402 108.802 32.4841C108.423 32.7279 108.448 33.4435 108.859 34.0824C109.027 34.3446 109.235 34.552 109.447 34.6899L109.427 34.698L111.915 39.4852Z" fill="#A0616A"/>
<path d="M124.466 46.7197C124.466 46.7197 124.254 47.9804 122.955 47.6404C121.657 47.3005 116.301 44.456 116.301 44.456C116.301 44.456 114.091 42.9247 113.925 42.5483C113.759 42.1719 111.557 39.5526 111.557 39.5526L113.95 38.0117L116.152 40.4675L121.01 41.7583L124.466 46.7197Z" fill="#CCCCCC"/>
<path d="M125.213 38.3082C126.934 38.3082 128.33 36.9126 128.33 35.1912C128.33 33.4697 126.934 32.0742 125.213 32.0742C123.491 32.0742 122.096 33.4697 122.096 35.1912C122.096 36.9126 123.491 38.3082 125.213 38.3082Z" fill="#A0616A"/>
<path d="M130.677 89.7941L128.743 89.7939L127.822 82.332L130.677 82.3322L130.677 89.7941Z" fill="#A0616A"/>
<path d="M124.047 89.751C123.987 89.8524 123.955 90.1799 123.955 90.2978C123.955 90.6605 124.249 90.9544 124.612 90.9544H130.603C130.85 90.9544 131.051 90.7539 131.051 90.5065V90.2571C131.051 90.2571 131.347 89.5074 130.737 88.5834C130.737 88.5834 129.978 89.3069 128.845 88.1737L128.511 87.5684L126.092 89.3374L124.751 89.5025C124.458 89.5386 124.198 89.4969 124.047 89.751Z" fill="#2F2E41"/>
<path d="M125.134 89.7941L123.2 89.7939L122.279 82.332L125.134 82.3322L125.134 89.7941Z" fill="#A0616A"/>
<path d="M118.504 89.751C118.444 89.8524 118.412 90.1799 118.412 90.2978C118.412 90.6605 118.706 90.9544 119.069 90.9544H125.06C125.307 90.9544 125.508 90.7539 125.508 90.5065V90.2571C125.508 90.2571 125.804 89.5074 125.194 88.5834C125.194 88.5834 124.435 89.3069 123.302 88.1737L122.968 87.5684L120.549 89.3374L119.208 89.5025C118.915 89.5386 118.655 89.4969 118.504 89.751Z" fill="#2F2E41"/>
<path d="M132.047 57.4121L119.486 58.0646L122.259 86.4487L125.033 86.2855L126.011 69.1572L126.419 63.04L128.083 85.8161L130.905 85.7962L132.047 57.4121Z" fill="#2F2E41"/>
<path d="M128.329 39.1397L123.572 38.9766L120.386 42.144V52.5206L119.143 59.0411C119.143 59.0411 127.509 58.2255 129.149 59.8568C130.79 61.488 133.742 60.3462 133.742 60.3462L132.266 51.7191L131.61 41.7497L128.329 39.1397Z" fill="#CCCCCC"/>
<path d="M126.578 38.2446L123.926 37.6182L123.517 36.0105C123.517 36.0105 123.507 35.2527 123.15 35.1682C122.792 35.0837 122.161 34.5568 122.161 34.5568L122.772 33.568C122.772 33.568 121.299 33.4088 121.741 33.1356C122.183 32.8623 122.247 32.9854 122.31 32.3256C122.44 30.9605 126.617 31.1597 126.942 31.9088C126.942 31.9088 127.478 32.0356 127.752 32.4779C128.025 32.9202 128.161 33.1413 128.34 33.1836C128.519 33.2258 128.614 33.6259 128.614 33.6259C128.614 33.6259 129.245 34.1527 129.023 34.2893C128.802 34.426 128.633 35.1415 128.633 35.1415C128.633 35.1415 129.222 35.8472 127.905 37.4249L127.203 38.5537L126.578 38.2446Z" fill="#2F2E41"/>
<path d="M129.986 42.8292L130.172 41.5653C130.307 40.6441 129.696 39.8403 128.868 39.6424V39.1184C128.868 38.6679 128.503 38.3027 128.052 38.3027C127.602 38.3027 127.236 38.6679 127.236 39.1184V39.8174L124.137 40.4748V39.6077C124.137 39.1573 123.772 38.7921 123.321 38.7921C122.871 38.7921 122.506 39.1573 122.506 39.6077V40.4318L122.198 40.3514C121.277 40.1114 120.551 41.1671 121.123 41.9266C121.13 41.9364 121.138 41.9462 121.145 41.9561C121.909 42.9383 122.128 43.8115 122.128 43.8115L121.582 46.7583L122.204 52.885C122.284 53.6746 122.963 54.2663 123.756 54.2369L129.791 54.0134C130.583 53.9841 131.218 53.345 131.24 52.5523C131.316 49.7284 131.325 43.5825 129.986 42.8292Z" fill="#3F3D56"/>
<path d="M124.582 53.4127C124.498 53.4127 124.426 53.3475 124.42 53.2617L124.092 48.896C124.085 48.8062 124.153 48.7279 124.243 48.7212C124.332 48.7142 124.411 48.7818 124.418 48.8717L124.745 53.2374C124.752 53.3272 124.684 53.4055 124.595 53.4122C124.59 53.4125 124.586 53.4127 124.582 53.4127Z" fill="#FFB6B6"/>
<path d="M122.126 43.9758C122.046 43.9758 121.977 43.9174 121.965 43.8363C121.952 43.7472 122.013 43.6643 122.102 43.6513L129.986 42.4959C130.075 42.4829 130.158 42.5444 130.171 42.6336C130.184 42.7227 130.123 42.8055 130.033 42.8186L122.15 43.974C122.142 43.9752 122.134 43.9758 122.126 43.9758Z" fill="#FFB6B6"/>
<path d="M122.489 53.6766L119.408 46.2383L120.224 46.5645L123.505 53.1551L122.489 53.6766Z" fill="#3F3D56"/>
<path d="M141.709 90.9437C141.709 91.0193 141.648 91.0807 141.572 91.0807H46.5996V90.8066H141.572C141.648 90.8066 141.709 90.868 141.709 90.9437Z" fill="#E6E6E6"/>
<path d="M108.045 32.7907C108.574 33.2884 109.259 33.4189 109.576 33.0821C109.893 32.7454 109.72 32.069 109.191 31.5712C108.982 31.3695 108.728 31.2206 108.45 31.1371L106.182 29.0566L105.229 30.1419L107.566 32.0777C107.666 32.3502 107.83 32.5947 108.045 32.7907Z" fill="#FFB6B6"/>
<path d="M106.104 22.0126C106.104 22.0126 103.339 18.5675 102.277 18.8329C100.972 19.1592 101.298 20.4642 99.9485 23.9545C99.6104 24.8286 99.2554 25.6758 99.9377 26.3183L101.819 28.09L105.829 31.4713L107.442 29.7825L104.237 25.6493L106.104 22.0126Z" fill="#8EDB9B"/>
<path d="M78.9434 49.2253L80.9009 46.2891L82.8584 47.1047L82.369 49.7147L78.9434 49.2253Z" fill="#FFB6B6"/>
<path d="M79.1029 48.5713L82.5285 48.4082L84.8123 49.0607L85.1286 61.1986L78.4504 60.4796L77.1336 54.6918L77.0254 50.8522L77.4603 49.0607L79.1029 48.5713Z" fill="#6C63FF"/>
<path d="M84.7564 56.7138C84.636 56.3627 84.5881 55.9921 84.6191 55.6222C84.7068 54.5785 84.7233 52.5335 83.6594 51.6097L83.0586 50.9587C83.0461 50.9452 83.032 50.9336 83.0193 50.9204L84.0135 48.5835L83.4129 48.3281L82.4901 50.4971C82.0809 50.2481 81.6088 50.1102 81.1205 50.1102C80.5565 50.1102 80.0173 50.2941 79.5719 50.6179L79.0091 48.5561L78.3795 48.728L79.0832 51.0793C79.0576 51.1105 79.0297 51.1393 79.0055 51.1718L78.6617 51.6332C78.578 51.7455 78.4856 51.8499 78.3855 51.9479C78.1745 52.1545 77.7628 52.6563 77.7588 53.4289C77.7574 53.6931 77.7031 53.9544 77.6226 54.206L77.214 55.483C77.1756 55.6029 77.1455 55.725 77.125 55.8491C76.9449 56.9426 76.3213 62.0941 80.5835 61.991C84.5568 61.8948 84.8183 59.4755 84.7951 58.6719C84.7901 58.4976 84.8058 58.3246 84.8383 58.1533C84.8979 57.8389 84.9515 57.2827 84.7564 56.7138Z" fill="#3F3D56"/>
<path d="M80.7132 48.4538C82.3703 48.4538 83.7136 47.1105 83.7136 45.4535C83.7136 43.7964 82.3703 42.4531 80.7132 42.4531C79.0562 42.4531 77.7129 43.7964 77.7129 45.4535C77.7129 47.1105 79.0562 48.4538 80.7132 48.4538Z" fill="#FFB6B6"/>
<path d="M84.883 51.9328L85.0936 54.295L84.8943 54.8125L86.4074 54.8125L86.6494 52.6123L84.8066 49.0641L84.883 51.9328Z" fill="#6C63FF"/>
<path d="M77.3943 51.9211L77.1838 54.2833L77.3831 54.8007L75.87 54.8008L75.6279 52.6006L77.4707 49.0524L77.3943 51.9211Z" fill="#6C63FF"/>
<path d="M80.3191 48.7907L82.1086 47.3347C82.1086 47.3347 81.9392 45.1527 82.5825 44.9564C83.2258 44.7602 83.8967 43.9764 83.8967 43.9764C83.8967 43.9764 82.832 41.5712 80.9578 41.9361C79.0837 42.3011 79.5113 41.7459 78.3563 42.3576C77.2014 42.9692 76.9306 43.7853 77.071 44.6525C77.2115 45.5197 76.7934 47.6741 78.1922 47.785C79.5911 47.896 80.3191 48.7907 80.3191 48.7907Z" fill="#2F2E41"/>
<path d="M84.1209 55.0042C84.0457 55.0042 83.978 54.9519 83.9616 54.8754L83.7823 54.0422C83.5186 52.8168 82.4599 51.9219 81.2076 51.866C80.0474 51.814 78.9723 52.5012 78.5316 53.5752L78.0816 54.6723C78.0475 54.7558 77.9524 54.7954 77.8688 54.7613C77.7854 54.7271 77.7456 54.6318 77.7799 54.5485L78.2299 53.4515C78.7228 52.2504 79.9238 51.4833 81.2223 51.5401C82.6225 51.6026 83.8063 52.6033 84.1012 53.9735L84.2806 54.8067C84.2995 54.8948 84.2434 54.9816 84.1555 55.0005C84.1439 55.003 84.1322 55.0042 84.1209 55.0042Z" fill="#FFB6B6"/>
<path d="M84.315 57.6555C84.3102 57.6555 84.3053 57.6553 84.3004 57.6549L78.2639 57.1166C78.1742 57.1085 78.1079 57.0294 78.1159 56.9396C78.124 56.8499 78.2024 56.784 78.2929 56.7916L84.3294 57.3299C84.419 57.3379 84.4853 57.4171 84.4773 57.5069C84.4697 57.5917 84.3987 57.6555 84.315 57.6555Z" fill="#FFB6B6"/>
<path d="M71.3652 40.9922L74.0386 41.1744L73.7401 47.6715L71.3652 47.659V40.9922Z" fill="#E6E6E6"/>
<path d="M74.7181 54.8252L85.2282 54.8105V63.9333H74.2012L74.7181 54.8252Z" fill="#E6E6E6"/>
<path opacity="0.5" fill-rule="evenodd" clip-rule="evenodd" d="M108.688 54.7378C106.641 50.7104 102.458 47.9512 97.6301 47.9512C92.7721 47.9512 88.5668 50.7453 86.5334 54.814H74.395C74.1355 54.814 73.894 54.6973 73.7149 54.4851C73.5358 54.2729 73.4439 53.9947 73.4562 53.7019L73.9521 41.8549C73.9755 41.2947 74.3827 40.8503 74.8788 40.8431L106.93 40.377C107.403 40.3719 107.813 40.7684 107.874 41.3038L107.71 47.535L109.271 53.617C109.305 53.9195 109.223 54.2245 109.044 54.4535C108.946 54.5799 108.824 54.6765 108.688 54.7378Z" fill="white"/>
<path d="M88.7059 40.7188H87.4392L79.6387 54.819H80.8056L88.7059 40.7188Z" fill="white"/>
<path d="M86.0614 40.7188H84.7946L76.9941 54.819H78.161L86.0614 40.7188Z" fill="white"/>
</g>
</g>
<path d="M256.122 30.2891C253.982 30.2891 252.372 28.9844 252.294 27.1797H253.966C254.06 28.1406 254.982 28.8438 256.122 28.8516C257.497 28.8438 258.482 27.8516 258.482 26.5078C258.482 25.1328 257.466 24.1328 256.044 24.1172C255.138 24.1172 254.443 24.4219 254.06 25.1172H252.435L253.169 18.8203H259.575V20.2891H254.591L254.216 23.4609H254.325C254.794 23.0078 255.591 22.7031 256.45 22.6953C258.583 22.7031 260.154 24.2812 260.154 26.4609C260.154 28.6875 258.482 30.2891 256.122 30.2891ZM272.769 17.4609V25.7266H271.285V23.6484H268.238V24.7891H261.738V18.5078H268.238V19.6641H271.285V17.4609H272.769ZM263.207 23.6016H266.785V19.6953H263.207V23.6016ZM263.347 28.7891C263.339 27.0938 265.136 26.1094 268.082 26.1172C271.011 26.1094 272.808 27.0938 272.816 28.7891C272.808 30.4766 271.011 31.4375 268.082 31.4297C265.136 31.4375 263.339 30.4766 263.347 28.7891ZM264.816 28.7891C264.808 29.7266 266.027 30.2812 268.082 30.2891C270.121 30.2812 271.339 29.7266 271.347 28.7891C271.339 27.8047 270.121 27.2656 268.082 27.2578C266.027 27.2656 264.808 27.8047 264.816 28.7891ZM268.238 22.4453H271.285V20.8516H268.238V22.4453ZM289.625 17.4609V31.4922H288.141V17.4609H289.625ZM278.516 23.4141C278.516 20.4219 280.024 18.5156 282.141 18.5078C284.219 18.5156 285.75 20.4219 285.75 23.4141C285.75 26.4375 284.219 28.3438 282.141 28.3359C280.024 28.3438 278.516 26.4375 278.516 23.4141ZM279.954 23.4141C279.946 25.6406 280.836 27.0078 282.141 27.0078C283.422 27.0078 284.313 25.6406 284.313 23.4141C284.313 21.2188 283.422 19.8438 282.141 19.8359C280.836 19.8438 279.946 21.2188 279.954 23.4141ZM296.288 19.6953C296.28 21.5312 297.577 23.2422 299.663 23.9297L298.866 25.1016C297.335 24.5625 296.186 23.4688 295.577 22.0859C294.968 23.6562 293.78 24.8906 292.147 25.4922L291.35 24.3047C293.538 23.5312 294.804 21.6641 294.819 19.5703V18.1953H296.288V19.6953ZM293.241 28.8359C293.241 27.1953 295.03 26.2344 297.944 26.2422C300.819 26.2344 302.585 27.1953 302.585 28.8359C302.585 30.4922 300.819 31.4375 297.944 31.4297C295.03 31.4375 293.241 30.4922 293.241 28.8359ZM294.725 28.8359C294.718 29.7578 295.921 30.2578 297.944 30.2734C299.952 30.2578 301.139 29.7578 301.132 28.8359C301.139 27.9453 299.952 27.4141 297.944 27.4141C295.921 27.4141 294.718 27.9453 294.725 28.8359ZM300.975 25.9141V17.4609H302.46V20.9766H304.491V22.2266H302.46V25.9141H300.975Z" fill="#27342E"/>
<path d="M145.749 36.0346C145.684 35.589 146.151 35.1522 146.791 35.059C147.432 34.9658 148.003 35.2515 148.068 35.6971C148.133 36.1427 147.666 36.5795 147.026 36.6727C146.386 36.7659 145.814 36.4802 145.749 36.0346Z" fill="#E6E6E6"/>
<path d="M138.124 35.2885C138.059 34.8429 138.526 34.4061 139.166 34.3129C139.807 34.2197 140.378 34.5054 140.443 34.951C140.508 35.3966 140.041 35.8334 139.401 35.9266C138.761 36.0198 138.189 35.7341 138.124 35.2885Z" fill="#3F3D56"/>
<path d="M147.835 29.8588C147.77 29.4132 148.237 28.9764 148.877 28.8832C149.518 28.79 150.089 29.0757 150.154 29.5213C150.219 29.9669 149.752 30.4037 149.112 30.4969C148.472 30.5901 147.9 30.3044 147.835 29.8588Z" fill="#F7B787"/>
<path d="M151.15 27.3296C151.147 26.9205 151.375 26.5872 151.659 26.585C151.944 26.5829 152.177 26.9127 152.18 27.3218C152.183 27.7309 151.955 28.0642 151.67 28.0664C151.386 28.0685 151.153 27.7387 151.15 27.3296Z" fill="#E6E6E6"/>
<path d="M152.275 22.6187C152.272 22.2096 152.5 21.8762 152.784 21.8741C153.069 21.8719 153.302 22.2018 153.305 22.6109C153.308 23.0199 153.08 23.3533 152.795 23.3555C152.511 23.3576 152.278 23.0277 152.275 22.6187Z" fill="#3F3D56"/>
<path d="M143.536 30.9097C143.533 30.5006 143.761 30.1672 144.046 30.1651C144.33 30.1629 144.564 30.4928 144.567 30.9019C144.57 31.311 144.342 31.6443 144.057 31.6465C143.773 31.6486 143.539 31.3188 143.536 30.9097Z" fill="#E6E6E6"/>
<path d="M147.22 32.7495C147.217 32.3405 147.445 32.0071 147.73 32.0049C148.014 32.0028 148.247 32.3327 148.25 32.7417C148.253 33.1508 148.025 33.4842 147.741 33.4863C147.456 33.4885 147.223 33.1586 147.22 32.7495Z" fill="#F7B787"/>
<path d="M142.091 36.1499C142.088 35.7408 142.316 35.4075 142.601 35.4053C142.885 35.4032 143.118 35.733 143.121 36.1421C143.124 36.5512 142.896 36.8846 142.612 36.8867C142.327 36.8889 142.094 36.559 142.091 36.1499Z" fill="#3F3D56"/>
<defs>
<filter id="filter0_d_264_1310" x="0.845703" y="0.132812" width="320" height="100.574" filterUnits="userSpaceOnUse" color-interpolation-filters="sRGB">
<feFlood flood-opacity="0" result="BackgroundImageFix"/>
<feColorMatrix in="SourceAlpha" type="matrix" values="0 0 0 0 0 0 0 0 0 0 0 0 0 0 0 0 0 0 127 0" result="hardAlpha"/>
<feOffset/>
<feGaussianBlur stdDeviation="3.5"/>
<feComposite in2="hardAlpha" operator="out"/>
<feColorMatrix type="matrix" values="0 0 0 0 0 0 0 0 0 0 0 0 0 0 0 0 0 0 0.14 0"/>
<feBlend mode="normal" in2="BackgroundImageFix" result="effect1_dropShadow_264_1310"/>
<feBlend mode="normal" in="SourceGraphic" in2="effect1_dropShadow_264_1310" result="shape"/>
</filter>
<radialGradient id="paint0_radial_264_1310" cx="0" cy="0" r="1" gradientUnits="userSpaceOnUse" gradientTransform="translate(96.0454 74.8599) rotate(4.51621) scale(208.181 33.3)">
<stop stop-color="#0B9596"/>
<stop offset="1" stop-color="white"/>
</radialGradient>
<clipPath id="clip0_264_1310">
<rect width="105.203" height="81.7272" fill="white" transform="translate(32.8457 9.35352)"/>
</clipPath>
</defs>
</svg>
