<svg width="321" height="101" viewBox="0 0 321 101" fill="none" xmlns="http://www.w3.org/2000/svg">
<g filter="url(#filter0_d_264_710)">
<rect x="313.691" y="7.53516" width="86" height="306" rx="8" transform="rotate(90 313.691 7.53516)" fill="white"/>
</g>
<path opacity="0.5" fill-rule="evenodd" clip-rule="evenodd" d="M7.79324 82.1698V85.5352C7.79324 89.9534 11.375 93.5352 15.7932 93.5352L308.641 93.5351C310.557 93.5351 312.315 92.8618 313.692 91.7389C296.029 84.0754 267.13 63.5028 257.433 55.852C250.141 50.0982 240.015 43.9654 226.006 42.0156C215.495 40.5525 202.693 41.5247 190.987 45.1939C184.142 47.3393 176.661 50.6533 168.986 54.053C154.455 60.4894 139.23 67.2332 126.32 66.9368C119.272 66.7749 112.052 65.2717 104.185 63.6335C90.0304 60.6863 73.7772 57.3021 52.6433 60.5045C35.2948 63.1333 18.7665 73.1705 7.79324 82.1698Z" fill="url(#paint0_radial_264_710)"/>
<path d="M47.2185 81.1545C47.595 81.178 47.803 80.7103 47.5182 80.4378L47.4899 80.3251L47.5011 80.2981C47.8818 79.3903 49.1721 79.3966 49.5495 80.3057C49.8845 81.1126 50.3111 81.9208 50.4161 82.774C50.4632 83.1506 50.442 83.5343 50.3584 83.9038C51.1434 82.1891 51.5565 80.3166 51.5565 78.4335C51.5565 77.9604 51.5306 77.4873 51.4777 77.0153C51.4341 76.6293 51.3741 76.2456 51.2964 75.8655C50.8763 73.8106 49.9665 71.8533 48.6543 70.2186C48.0234 69.8738 47.4973 69.3347 47.1796 68.6886C47.0654 68.4556 46.976 68.2049 46.9336 67.9495C47.0054 67.9589 47.2043 66.8655 47.1501 66.7985C47.2502 66.6466 47.4293 66.5712 47.5385 66.423C48.082 65.6862 48.8307 65.8149 49.2215 66.8161C50.0565 67.2375 50.0646 67.9364 49.5523 68.6085C49.2263 69.0362 49.1815 69.6148 48.8955 70.0727C48.925 70.1103 48.9556 70.1468 48.985 70.1845C49.5245 70.8765 49.9912 71.6203 50.3846 72.4018C50.2734 71.5333 50.4376 70.487 50.7174 69.8125C51.036 69.0441 51.633 68.3969 52.1588 67.7325C52.7904 66.9346 54.0855 67.2828 54.1968 68.2944L54.1999 68.3237C54.1218 68.3678 54.0453 68.4146 53.9706 68.464C53.5443 68.746 53.6916 69.4068 54.1967 69.4848L54.2081 69.4865C54.1799 69.7678 54.1316 70.0468 54.061 70.321C54.7356 72.9296 53.2793 73.8797 51.1999 73.9224C51.154 73.9459 51.1093 73.9694 51.0634 73.9918C51.2741 74.585 51.4424 75.1934 51.5671 75.8101C51.6789 76.3551 51.7566 76.9059 51.8002 77.459C51.8543 78.1569 51.8496 78.8584 51.7907 79.5551L51.7943 79.5304C51.9437 78.763 52.3604 78.0463 52.9653 77.5496C53.8665 76.8093 55.1397 76.5367 56.1119 75.9417C56.5799 75.6553 57.1796 76.0254 57.0979 76.568L57.094 76.594C56.9492 76.6528 56.808 76.7211 56.6714 76.7976C56.5933 76.8416 56.5168 76.8885 56.4421 76.9379C56.0158 77.2198 56.1631 77.8806 56.6683 77.9586L56.6797 77.9604L56.7032 77.9639C56.4549 78.5536 56.1089 79.1008 55.6758 79.5728C55.254 81.85 53.4425 82.066 51.5048 81.4029H51.5036C51.2917 82.3256 50.9822 83.2271 50.5844 84.0863H47.3008C47.289 84.0498 47.2784 84.0121 47.2678 83.9756C47.5715 83.9945 47.8775 83.9768 48.1764 83.9215C47.9328 83.6226 47.6892 83.3213 47.4456 83.0223C47.4397 83.0164 47.435 83.0106 47.4303 83.0047C47.3067 82.8517 47.1819 82.6999 47.0583 82.5469C47.0506 82.0772 47.1069 81.6088 47.2185 81.1545Z" fill="#5FBA8E"/>
<path d="M63.9359 83.0211C63.7118 83.0351 63.588 82.7567 63.7575 82.5945L63.7744 82.5274L63.7677 82.5113C63.541 81.971 62.7731 81.9747 62.5484 82.5159C62.349 82.9961 62.0951 83.4772 62.0325 83.9851C62.0045 84.2093 62.0171 84.4376 62.0669 84.6576C61.5996 83.6369 61.3537 82.5223 61.3537 81.4015C61.3537 81.1198 61.3691 80.8382 61.4007 80.5573C61.4266 80.3275 61.4623 80.0991 61.5085 79.8729C61.7586 78.6497 62.3002 77.4847 63.0813 76.5116C63.4568 76.3064 63.7699 75.9855 63.9591 75.6009C64.027 75.4622 64.0802 75.313 64.1055 75.161C64.0627 75.1666 63.9443 74.5158 63.9766 74.4758C63.917 74.3855 63.8104 74.3405 63.7454 74.2524C63.4219 73.8138 62.9763 73.8904 62.7436 74.4863C62.2466 74.7372 62.2418 75.1532 62.5467 75.5533C62.7408 75.8078 62.7674 76.1522 62.9377 76.4248C62.9201 76.4472 62.9019 76.4689 62.8844 76.4913C62.5632 76.9032 62.2855 77.346 62.0513 77.8112C62.1175 77.2942 62.0198 76.6714 61.8532 76.2699C61.6636 75.8125 61.3082 75.4273 60.9952 75.0318C60.6193 74.5568 59.8484 74.7641 59.7822 75.3663L59.7803 75.3837C59.8268 75.41 59.8723 75.4378 59.9168 75.4672C60.1705 75.6351 60.0828 76.0284 59.7822 76.0748L59.7754 76.0759C59.7922 76.2433 59.8209 76.4093 59.8629 76.5726C59.4614 78.1253 60.3283 78.6908 61.566 78.7163C61.5933 78.7303 61.6199 78.7443 61.6472 78.7576C61.5218 79.1107 61.4217 79.4728 61.3474 79.8399C61.2809 80.1643 61.2346 80.4921 61.2087 80.8214C61.1765 81.2368 61.1793 81.6544 61.2143 82.0691L61.2122 82.0544C61.1232 81.5976 60.8752 81.171 60.5152 80.8753C59.9787 80.4347 59.2209 80.2724 58.6422 79.9182C58.3636 79.7477 58.0066 79.9681 58.0553 80.291L58.0576 80.3065C58.1438 80.3415 58.2279 80.3822 58.3091 80.4277C58.3556 80.4539 58.4012 80.4818 58.4456 80.5112C58.6994 80.679 58.6117 81.0724 58.311 81.1188L58.3042 81.1198L58.2902 81.1219C58.438 81.4729 58.644 81.7987 58.9018 82.0796C59.1528 83.4351 60.2311 83.5637 61.3845 83.1689H61.3852C61.5113 83.7182 61.6956 84.2548 61.9324 84.7662H63.8869C63.8939 84.7445 63.9002 84.7221 63.9065 84.7003C63.7258 84.7116 63.5436 84.701 63.3657 84.6681C63.5107 84.4902 63.6557 84.3108 63.8007 84.1329C63.8042 84.1294 63.807 84.1259 63.8098 84.1224C63.8834 84.0313 63.9577 83.9409 64.0312 83.8499C64.0358 83.5703 64.0023 83.2915 63.9359 83.0211Z" fill="#8EDB9B"/>
<path d="M160.939 83.0772L159.427 83.0771L158.707 77.2422L160.94 77.2423L160.939 83.0772Z" fill="#9E616A"/>
<path d="M161.327 84.5444L156.449 84.5442V84.4825C156.449 83.979 156.649 83.4961 157.005 83.1401C157.361 82.784 157.844 82.584 158.348 82.584H158.348L161.327 82.5841L161.327 84.5444Z" fill="#2F2E41"/>
<path d="M155.51 83.0772L153.997 83.0771L153.277 77.2422L155.51 77.2423L155.51 83.0772Z" fill="#9E616A"/>
<path d="M155.897 84.5444L151.02 84.5442V84.4825C151.02 83.979 151.22 83.4961 151.576 83.1401C151.932 82.784 152.415 82.584 152.918 82.584H152.918L155.897 82.5841L155.897 84.5444Z" fill="#2F2E41"/>
<path d="M137.893 42.1921C138.014 42.3584 138.17 42.4961 138.35 42.5956C138.53 42.6951 138.729 42.754 138.934 42.768C139.139 42.7821 139.345 42.751 139.537 42.677C139.728 42.6029 139.902 42.4878 140.044 42.3395L143.037 43.5084L144.191 41.8627L139.941 40.2713C139.676 40.0485 139.339 39.9306 138.993 39.94C138.647 39.9493 138.316 40.0852 138.064 40.322C137.811 40.5588 137.655 40.8799 137.623 41.2246C137.592 41.5693 137.688 41.9135 137.893 42.1921Z" fill="#9E616A"/>
<path d="M155.492 52.1641L151.551 53.4496L152.867 81.3601L155.909 81.4353L157.465 61.7524L157.819 81.3576L161.58 81.5649L162.966 52.1641H155.492Z" fill="#2F2E41"/>
<path d="M152.833 35.7114L162.948 33.5137L164.072 42.2232L163.136 46.3847L163.511 52.7089C163.511 52.7089 155.513 56.6897 151.551 53.4497C151.551 53.4497 154.735 45.0851 152.889 41.1695L152.833 35.7114Z" fill="#E4E4E4"/>
<path d="M154.587 36.9419L152.835 35.71C152.835 35.71 152.731 35.5667 151.272 37.2733C149.812 38.9798 146.85 41.6944 146.85 41.6944L141.915 39.8436L141.016 43.1659L146.752 45.839L154.873 40.4153L154.587 36.9419Z" fill="#E4E4E4"/>
<path d="M163.51 55.9722C163.696 55.8844 163.861 55.7569 163.992 55.5987C164.123 55.4405 164.218 55.2554 164.27 55.0566C164.322 54.8577 164.33 54.6498 164.293 54.4476C164.256 54.2454 164.175 54.0537 164.056 53.8861L165.762 51.163L164.36 49.7227L162.005 53.6021C161.737 53.8208 161.558 54.1303 161.503 54.472C161.447 54.8136 161.519 55.1637 161.705 55.4559C161.89 55.748 162.177 55.962 162.509 56.0571C162.842 56.1523 163.198 56.1221 163.51 55.9722Z" fill="#9E616A"/>
<path d="M161.371 35.2283L162.949 33.5125C162.949 33.5125 164.707 32.9003 166.143 36.0636C167.579 39.2269 169.183 45.6432 169.183 45.6432L165.433 52.8673L162.52 51.5659L165.433 45.5922L162.35 41.1683L161.371 35.2283Z" fill="#E4E4E4"/>
<path d="M158.695 32.7984C160.286 31.9286 160.871 29.9337 160.001 28.3425C159.131 26.7514 157.136 26.1667 155.545 27.0365C153.954 27.9062 153.369 29.9012 154.239 31.4923C155.109 33.0834 157.104 33.6682 158.695 32.7984Z" fill="#9E616A"/>
<path d="M159.888 26.9811C159.733 26.3291 159.189 25.8145 158.564 25.5732C157.939 25.3319 157.243 25.3342 156.582 25.4465C155.485 25.6328 154.461 26.1058 153.452 26.574L154.23 26.9462L153.156 27.0077L153.986 27.4367C153.764 27.6052 153.596 27.8338 153.5 28.0952C153.405 28.3567 153.386 28.64 153.447 28.9117C153.49 29.0894 153.604 29.2853 153.786 29.2914C154.007 29.2989 154.123 29.0415 154.277 28.8836C154.483 28.6735 154.808 28.6269 155.099 28.6665C155.39 28.7061 155.667 28.8181 155.954 28.8801C156.317 28.9558 156.693 28.9517 157.055 28.8679C157.416 28.7841 157.755 28.6227 158.048 28.3949L159.083 30.8854C159.073 30.7914 159.085 30.6965 159.118 30.6081C159.151 30.5196 159.204 30.4399 159.273 30.3753C159.342 30.3107 159.425 30.2629 159.515 30.2356C159.605 30.2083 159.701 30.2022 159.794 30.2179C159.887 30.2336 159.975 30.2706 160.052 30.3261C160.128 30.3815 160.191 30.4539 160.235 30.5375C160.279 30.6211 160.302 30.7137 160.305 30.8081C160.307 30.9025 160.287 30.9962 160.247 31.0817C160.695 30.4064 161.055 29.6391 161.067 28.829C161.08 28.0188 160.678 27.1653 159.942 26.8253" fill="#2F2E41"/>
<path d="M121.838 77.2908L120.439 79.4896L121.254 76.6272C119.534 74.8324 117.153 73.5195 117.153 73.5195C117.153 73.5195 114.221 78.3383 115.01 81.3025C115.799 84.2667 117.837 84.8325 120.01 84.2538C122.184 83.6751 123.671 82.171 122.882 79.2068C122.706 78.547 122.324 77.8993 121.838 77.2908Z" fill="#8EDB9B"/>
<path d="M119.988 79.7089L120.027 79.855C120.47 81.5557 120.536 82.9571 120.223 84.0398C120.218 84.0556 120.213 84.071 120.209 84.0868L120.136 84.0652L120.066 84.0436C120.421 82.87 120.262 81.3871 119.876 79.9036C119.864 79.8557 119.852 79.807 119.838 79.7588C119.669 79.1322 119.462 78.5081 119.236 77.9082C119.219 77.8616 119.201 77.8145 119.183 77.7674C118.882 76.9771 118.552 76.233 118.246 75.5916C118.225 75.5462 118.203 75.501 118.181 75.4565C117.659 74.3731 117.217 73.6054 117.118 73.4359C117.106 73.415 117.099 73.4037 117.098 73.401L117.161 73.3632L117.162 73.3622L117.226 73.3242C117.227 73.3269 117.251 73.3649 117.291 73.4362C117.445 73.702 117.853 74.426 118.324 75.3991C118.345 75.4431 118.367 75.4883 118.388 75.5338C118.637 76.054 118.9 76.6391 119.151 77.2602C119.214 77.4161 119.274 77.5705 119.332 77.7232C119.351 77.7701 119.369 77.8172 119.386 77.8638C119.63 78.5123 119.83 79.1273 119.988 79.7089Z" fill="white"/>
<path d="M118.323 75.3999C118.276 75.4193 118.228 75.4389 118.18 75.4573C118.048 75.5073 117.914 75.5506 117.778 75.5869C117.197 75.7422 116.589 75.7654 115.999 75.6546C115.978 75.701 115.958 75.7475 115.938 75.7948C116.56 75.9171 117.203 75.8955 117.816 75.7315C117.962 75.6928 118.105 75.6464 118.245 75.5925C118.293 75.5743 118.341 75.5547 118.387 75.5346C118.772 75.3707 119.13 75.1493 119.448 74.8781C119.406 74.8466 119.365 74.8156 119.326 74.7852C119.023 75.0383 118.685 75.2455 118.323 75.3999Z" fill="white"/>
<path d="M119.332 77.7236C119.283 77.7398 119.234 77.7545 119.184 77.7678C119.169 77.7725 119.153 77.7768 119.138 77.7808C118.508 77.9483 117.848 77.9612 117.213 77.8184C116.577 77.6755 115.986 77.3812 115.489 76.9605C115.472 77.0108 115.454 77.0612 115.438 77.1121C115.951 77.5349 116.558 77.8292 117.208 77.9707C117.859 78.1121 118.533 78.0966 119.176 77.9255C119.196 77.9201 119.217 77.9147 119.237 77.9086C119.287 77.8944 119.337 77.8796 119.386 77.8642C120.148 77.619 120.823 77.1597 121.33 76.541C121.296 76.5045 121.261 76.468 121.226 76.4316C120.734 77.0374 120.076 77.4864 119.332 77.7236Z" fill="white"/>
<path d="M119.986 79.709C119.937 79.7268 119.887 79.7432 119.837 79.7589C119.783 79.7755 119.729 79.7914 119.675 79.8058C118.829 80.0299 117.934 79.9741 117.123 79.6466C116.311 79.3191 115.628 78.7377 115.175 77.9893C115.158 78.0566 115.141 78.1231 115.125 78.19C115.608 78.9285 116.311 79.496 117.135 79.8121C117.958 80.1281 118.861 80.1765 119.714 79.9505C119.768 79.936 119.822 79.9209 119.875 79.9037C119.926 79.8886 119.976 79.8722 120.025 79.8551C121.027 79.5029 121.857 78.7832 122.347 77.8419C122.318 77.7924 122.287 77.7442 122.255 77.6953C121.789 78.636 120.976 79.3583 119.986 79.709Z" fill="white"/>
<path d="M176.393 77.5212L175.015 79.6881L175.817 76.8672C174.122 75.0985 171.776 73.8047 171.776 73.8047C171.776 73.8047 168.886 78.5535 169.664 81.4746C170.442 84.3957 172.45 84.9533 174.592 84.383C176.734 83.8127 178.199 82.3305 177.422 79.4094C177.248 78.7592 176.872 78.1209 176.393 77.5212Z" fill="#8EDB9B"/>
<path d="M174.567 79.9033L174.605 80.0473C175.042 81.7232 175.108 83.1042 174.798 84.1712C174.794 84.1868 174.789 84.2019 174.785 84.2176L174.713 84.1963L174.644 84.175C174.994 83.0185 174.838 81.5571 174.457 80.0951C174.445 80.0479 174.433 80 174.42 79.9524C174.253 79.335 174.049 78.7199 173.826 78.1287C173.81 78.0828 173.792 78.0364 173.774 77.9899C173.477 77.2111 173.152 76.4778 172.851 75.8458C172.83 75.801 172.808 75.7565 172.786 75.7126C172.272 74.6449 171.837 73.8884 171.739 73.7214C171.727 73.7008 171.72 73.6896 171.719 73.687L171.781 73.6497L171.782 73.6488L171.845 73.6113C171.847 73.614 171.87 73.6514 171.91 73.7216C172.061 73.9836 172.463 74.6971 172.927 75.6561C172.948 75.6994 172.969 75.744 172.99 75.7888C173.235 76.3014 173.495 76.8781 173.742 77.4902C173.804 77.6438 173.864 77.7959 173.921 77.9464C173.939 77.9926 173.957 78.039 173.974 78.085C174.214 78.724 174.412 79.3301 174.567 79.9033Z" fill="white"/>
<path d="M172.929 75.6566C172.883 75.6757 172.836 75.6951 172.788 75.7132C172.658 75.7625 172.526 75.8051 172.391 75.8409C171.819 75.994 171.22 76.0168 170.638 75.9076C170.618 75.9534 170.599 75.9991 170.578 76.0457C171.192 76.1663 171.825 76.145 172.429 75.9834C172.573 75.9452 172.714 75.8995 172.852 75.8464C172.9 75.8285 172.946 75.8091 172.992 75.7893C173.371 75.6278 173.724 75.4097 174.037 75.1423C173.996 75.1113 173.956 75.0808 173.917 75.0508C173.619 75.3003 173.286 75.5044 172.929 75.6566Z" fill="white"/>
<path d="M173.92 77.947C173.872 77.9629 173.823 77.9775 173.774 77.9905C173.759 77.9952 173.743 77.9994 173.728 78.0034C173.108 78.1685 172.457 78.1812 171.831 78.0404C171.205 77.8997 170.623 77.6096 170.133 77.195C170.116 77.2446 170.098 77.2943 170.082 77.3444C170.588 77.7611 171.187 78.0511 171.827 78.1905C172.468 78.3299 173.133 78.3146 173.766 78.146C173.786 78.1407 173.806 78.1353 173.826 78.1293C173.876 78.1153 173.924 78.1008 173.973 78.0856C174.724 77.844 175.389 77.3913 175.889 76.7816C175.855 76.7456 175.821 76.7096 175.786 76.6738C175.301 77.2708 174.653 77.7132 173.92 77.947Z" fill="white"/>
<path d="M174.568 79.9024C174.519 79.92 174.47 79.9361 174.421 79.9515C174.368 79.9679 174.315 79.9836 174.261 79.9978C173.428 80.2187 172.545 80.1636 171.746 79.8409C170.946 79.5182 170.273 78.9452 169.826 78.2077C169.81 78.274 169.793 78.3395 169.777 78.4054C170.253 79.1332 170.946 79.6925 171.758 80.004C172.57 80.3154 173.459 80.3632 174.299 80.1404C174.353 80.1261 174.406 80.1112 174.458 80.0943C174.508 80.0794 174.557 80.0633 174.606 80.0464C175.593 79.6993 176.411 78.99 176.895 78.0624C176.866 78.0136 176.835 77.9662 176.804 77.918C176.345 78.845 175.543 79.5568 174.568 79.9024Z" fill="white"/>
<path d="M147.865 23.6857C147.865 18.5025 144.251 14.3008 139.794 14.3008C135.336 14.3008 131.723 18.5025 131.723 23.6857C131.723 28.3866 134.695 32.2801 138.574 32.9639V33.8484C138.574 34.0154 138.64 34.1757 138.758 34.2938C138.876 34.412 139.037 34.4783 139.204 34.4783H140.384C140.551 34.4783 140.711 34.412 140.829 34.2938C140.947 34.1757 141.014 34.0154 141.014 33.8484V32.9639C144.892 32.2801 147.865 28.3866 147.865 23.6857Z" fill="#8EDB9B"/>
<path d="M138.383 33.7216C138.635 33.4844 138.936 33.3047 139.265 33.1948C139.593 33.0849 139.942 33.0474 140.286 33.0849C140.633 33.1251 140.966 33.2454 141.259 33.4363C141.552 33.6271 141.796 33.8834 141.973 34.1848C142.15 34.4772 142.261 34.8046 142.298 35.1443C142.336 35.484 142.299 35.8277 142.191 36.1518C141.978 36.7981 141.528 37.3359 141.065 37.8207C140.58 38.3292 140.053 38.7982 139.597 39.3342C138.845 40.2232 138.32 41.2813 138.067 42.4178C137.814 43.5543 137.84 44.7353 138.143 45.8594C138.543 47.2842 139.37 48.5526 140.511 49.4947C140.656 49.6131 140.805 49.7259 140.959 49.8331C141.136 49.9574 141.304 49.666 141.128 49.5427C139.889 48.6661 138.973 47.4057 138.523 45.9563C138.181 44.8269 138.137 43.6282 138.396 42.4769C138.654 41.3256 139.206 40.2607 139.998 39.3859C140.479 38.8549 141.018 38.3795 141.499 37.8483C141.959 37.3394 142.379 36.7653 142.559 36.0929C142.65 35.7511 142.673 35.3947 142.626 35.0441C142.578 34.6935 142.462 34.3557 142.284 34.0502C142.106 33.7379 141.866 33.4656 141.579 33.2503C141.291 33.0351 140.962 32.8816 140.612 32.7995C139.909 32.6465 139.173 32.7739 138.562 33.1544C138.412 33.2499 138.273 33.3603 138.145 33.4838C137.989 33.6342 138.227 33.8718 138.383 33.7216Z" fill="#3F3D56"/>
<path d="M116.765 19.7575C114.295 14.0804 108.335 11.1999 103.453 13.3237C98.5707 15.4475 96.6148 21.7714 99.0843 27.4485C101.324 32.5974 106.435 35.4458 111.009 34.3468L111.43 35.3155C111.51 35.4985 111.659 35.6424 111.845 35.7155C112.03 35.7886 112.237 35.785 112.42 35.7054L113.713 35.1431C113.896 35.0635 114.04 34.9144 114.113 34.7288C114.186 34.5431 114.182 34.3359 114.103 34.1529L113.681 33.1842C117.604 30.5872 119.004 24.9064 116.765 19.7575Z" fill="#8EDB9B"/>
<path d="M111.131 35.2385C111.291 34.8689 111.527 34.537 111.824 34.2646C112.121 33.9921 112.472 33.785 112.854 33.6567C113.229 33.5304 113.627 33.4876 114.021 33.5313C114.414 33.575 114.793 33.7042 115.131 33.9098C115.48 34.1162 115.78 34.3945 116.013 34.7263C116.245 35.058 116.404 35.4354 116.479 35.8334C116.652 36.7558 116.372 37.6954 116.054 38.5542C115.721 39.4544 115.306 40.3287 115.074 41.2636C114.752 42.5775 114.745 43.9491 115.055 45.266C115.365 46.5829 115.983 47.8077 116.857 48.8401C117.958 50.1163 119.409 51.0426 121.03 51.5049C121.229 51.561 121.43 51.6088 121.632 51.6498C121.843 51.6926 121.934 51.3686 121.721 51.3256C120.035 50.9784 118.498 50.1156 117.323 48.8567C116.077 47.5101 115.325 45.7812 115.188 43.9521C115.115 43.0253 115.2 42.0929 115.44 41.1946C115.695 40.2467 116.128 39.3592 116.454 38.4357C116.765 37.5544 116.985 36.608 116.79 35.6754C116.61 34.8542 116.112 34.1379 115.404 33.6839C115.065 33.4603 114.685 33.3064 114.286 33.231C113.887 33.1556 113.477 33.1603 113.08 33.2448C112.269 33.4285 111.558 33.9144 111.092 34.6036C110.979 34.7755 110.883 34.9582 110.806 35.1491C110.724 35.3489 111.049 35.436 111.131 35.2385Z" fill="#3F3D56"/>
<path d="M185.75 88.3279L187.563 88.3278L188.425 81.3359L185.75 81.336L185.75 88.3279Z" fill="#FFB6B6"/>
<path d="M185.285 87.7365L188.855 87.7363H188.855C189.458 87.7364 190.037 87.976 190.464 88.4027C190.89 88.8293 191.13 89.4079 191.13 90.0113V90.0852L185.285 90.0854L185.285 87.7365Z" fill="#2F2E41"/>
<path d="M175.02 86.7874L176.748 87.334L179.679 80.928L177.128 80.1211L175.02 86.7874Z" fill="#FFB6B6"/>
<path d="M174.759 86.084L178.163 87.1606L178.163 87.1606C178.738 87.3426 179.218 87.7457 179.496 88.2811C179.774 88.8166 179.828 89.4405 179.646 90.0158L179.624 90.0863L174.051 88.3236L174.759 86.084Z" fill="#2F2E41"/>
<path d="M179.102 56.3965L178.096 59.2335L178.067 74.5496L175.215 85.0359L178.717 86.0131L182.585 76.1255L183.825 67.4407L185.46 76.176L185.235 86.5585H188.909L189.187 70.5589C189.265 66.0655 188.478 61.5991 186.871 57.4024L179.102 56.3965Z" fill="#2F2E41"/>
<path d="M177.904 44.9043H183.843L186.324 47.3857L187.065 57.6426L178.096 59.086L175.215 49.2994L176.784 45.1402L177.904 44.9043Z" fill="#E4E4E4"/>
<path d="M175.768 49.3958L166.625 45.9556L166.387 44.5336L172.153 39.6543L174.072 41.0939L170.594 44.9028L176.784 45.1387L175.768 49.3958Z" fill="#E4E4E4"/>
<path d="M173.264 41.6505C174.08 41.6505 174.742 40.9885 174.742 40.1719C174.742 39.3553 174.08 38.6934 173.264 38.6934C172.447 38.6934 171.785 39.3553 171.785 40.1719C171.785 40.9885 172.447 41.6505 173.264 41.6505Z" fill="#FFB6B6"/>
<path d="M176.693 42.0358L177.361 39.0231C177.478 38.4925 177.699 37.9902 178.01 37.5448C178.321 37.0995 178.717 36.72 179.176 36.4278C179.634 36.1357 180.145 35.9367 180.68 35.8422C181.215 35.7478 181.764 35.7597 182.294 35.8774C182.825 35.995 183.327 36.2161 183.772 36.5279C184.217 36.8397 184.596 37.2361 184.888 37.6946C185.179 38.153 185.378 38.6644 185.472 39.1996C185.566 39.7348 185.553 40.2833 185.435 40.8136L184.767 43.8264C184.735 43.9701 184.647 44.0952 184.523 44.1744C184.399 44.2535 184.248 44.2801 184.104 44.2484L177.115 42.6983C176.971 42.6663 176.846 42.5785 176.767 42.4543C176.688 42.3301 176.661 42.1796 176.693 42.0358Z" fill="#2F2E41"/>
<path d="M181.295 43.1696C182.903 42.7036 183.829 41.0221 183.363 39.4139C182.897 37.8057 181.215 36.8797 179.607 37.3457C177.999 37.8117 177.073 39.4932 177.539 41.1014C178.005 42.7096 179.687 43.6356 181.295 43.1696Z" fill="#FFB6B6"/>
<path d="M176.349 39.0524C176.538 38.2059 177.055 37.4689 177.786 37.003C178.518 36.5371 179.404 36.3803 180.251 36.5671L180.854 36.7008C181.7 36.8895 182.437 37.4062 182.903 38.1377C183.369 38.8692 183.526 39.7556 183.339 40.6024L183.325 40.6627L182.052 40.3803L181.887 39.0678L181.531 40.2647L180.873 40.1188L180.79 39.4566L180.61 40.0605L176.336 39.1127L176.349 39.0524Z" fill="#2F2E41"/>
<path d="M179.41 43.5625C179.369 43.4683 179.354 43.3642 179.369 43.2621C179.384 43.1601 179.427 43.0643 179.494 42.9858C180.402 41.9129 181.793 39.8671 180.913 38.2199L180.85 38.1016L184.295 38.8656L183.148 44.0378L179.896 43.8959C179.863 43.8945 179.831 43.8902 179.798 43.8831C179.713 43.8642 179.633 43.8252 179.566 43.7695C179.498 43.7138 179.445 43.6428 179.41 43.5625Z" fill="#2F2E41"/>
<path d="M183.607 44.9648L193.279 46.3401L193.82 47.6767L189.249 53.6904L187.063 52.7015L189.633 48.2287L183.539 49.341L183.607 44.9648Z" fill="#E4E4E4"/>
<path d="M198.085 25.4695C198.085 19.2785 193.769 14.2598 188.445 14.2598C183.121 14.2598 178.805 19.2785 178.805 25.4695C178.805 31.0845 182.355 35.735 186.988 36.5519V37.6083C186.988 37.8078 187.067 37.9992 187.208 38.1403C187.349 38.2814 187.541 38.3607 187.74 38.3607H189.15C189.349 38.3607 189.541 38.2814 189.682 38.1403C189.823 37.9992 189.902 37.8078 189.902 37.6083V36.5519C194.535 35.735 198.085 31.0845 198.085 25.4695Z" fill="#8EDB9B"/>
<path d="M186.735 37.4316C187.041 37.144 187.406 36.9262 187.804 36.7935C188.203 36.6607 188.626 36.6162 189.043 36.6629C189.453 36.7112 189.847 36.8522 190.194 37.0752C190.542 37.2982 190.834 37.5974 191.049 37.9501C191.267 38.2982 191.408 38.6895 191.461 39.097C191.514 39.5046 191.478 39.9189 191.355 40.3112C191.118 41.0814 190.596 41.7262 190.051 42.3042C189.471 42.9208 188.835 43.4846 188.28 44.1253C187.375 45.1768 186.739 46.4323 186.427 47.7839C186.115 49.1354 186.135 50.5426 186.487 51.8845C186.958 53.6091 187.952 55.1451 189.333 56.2803C189.501 56.4168 189.674 56.547 189.851 56.6708C190.029 56.7951 190.197 56.5037 190.021 56.3805C188.542 55.3351 187.447 53.8337 186.903 52.1062C186.489 50.7579 186.431 49.3258 186.733 47.9482C187.034 46.5706 187.686 45.294 188.625 44.2417C189.195 43.6048 189.838 43.0374 190.415 42.4066C190.967 41.8026 191.475 41.1245 191.702 40.3264C191.816 39.9232 191.849 39.5015 191.799 39.0854C191.75 38.6694 191.618 38.2674 191.412 37.9026C191.206 37.5296 190.926 37.203 190.589 36.9433C190.251 36.6837 189.864 36.4965 189.451 36.3936C188.611 36.2006 187.729 36.3469 186.997 36.8006C186.817 36.9142 186.65 37.046 186.497 37.1938C186.341 37.3445 186.579 37.5821 186.735 37.4316Z" fill="#3F3D56"/>
<path d="M187.9 55.4024C188.717 55.4024 189.379 54.7405 189.379 53.9239C189.379 53.1073 188.717 52.4453 187.9 52.4453C187.084 52.4453 186.422 53.1073 186.422 53.9239C186.422 54.7405 187.084 55.4024 187.9 55.4024Z" fill="#FFB6B6"/>
<path d="M172.494 40.5878C172.416 40.7104 172.228 40.6926 172.123 40.6159C171.976 40.5095 172.024 40.3045 172.124 40.1834C172.445 39.7984 172.975 40.2049 173.047 40.5872C173.074 40.7736 173.045 40.9637 172.964 41.1339C172.884 41.3042 172.755 41.447 172.594 41.5448C172.229 41.7616 171.753 41.6529 171.439 41.3934C170.783 40.8521 170.961 39.7684 171.69 39.3768C172.155 39.1269 172.743 39.2365 173.202 39.4459C173.717 39.6815 174.161 40.0428 174.638 40.3438C175.685 40.999 176.868 41.4033 178.097 41.5251C178.312 41.547 178.311 41.2105 178.097 41.1888C177.416 41.1184 176.748 40.9574 176.109 40.7102C175.478 40.4542 174.878 40.1252 174.323 39.7298C173.762 39.3449 173.175 38.9709 172.48 38.9073C172.199 38.8745 171.915 38.9166 171.656 39.0293C171.397 39.142 171.173 39.3212 171.006 39.5488C170.857 39.7524 170.757 39.9877 170.715 40.2362C170.672 40.4848 170.688 40.7398 170.76 40.9813C170.848 41.2339 171 41.4588 171.203 41.6332C171.405 41.8075 171.65 41.9251 171.913 41.974C172.166 42.0218 172.428 41.9894 172.661 41.8815C172.895 41.7735 173.089 41.5953 173.217 41.3717C173.473 40.9293 173.464 40.3349 173.078 39.9681C172.967 39.8555 172.828 39.7744 172.676 39.7329C172.524 39.6915 172.363 39.6912 172.21 39.7322C172.07 39.7797 171.946 39.8671 171.855 39.9837C171.763 40.1003 171.707 40.2412 171.694 40.3889C171.657 40.9633 172.472 41.2505 172.784 40.7575C172.9 40.574 172.609 40.4051 172.494 40.5878Z" fill="#3F3D56"/>
<path d="M105.21 58.6599L104.766 59.2171L103.195 58.2878L103.639 57.7305L105.21 58.6599Z" fill="#F7B787"/>
<path d="M106.853 61.0547L107.246 61.6402L105.595 62.4611L105.203 61.8756L106.853 61.0547Z" fill="#E4E4E4"/>
<path d="M108.558 58.5098L109.342 58.5375L109.264 60.1779L108.48 60.1502L108.558 58.5098Z" fill="#3F3D56"/>
<path d="M123.706 14.2692L123.262 14.8265L121.691 13.8972L122.136 13.3398L123.706 14.2692Z" fill="#3F3D56"/>
<path d="M125.346 16.6641L125.738 17.2495L124.088 18.0704L123.695 17.485L125.346 16.6641Z" fill="#E4E4E4"/>
<path d="M127.055 14.1191L127.839 14.1468L127.761 15.7873L126.977 15.7596L127.055 14.1191Z" fill="#F7B787"/>
<path d="M167.316 20.0993L166.872 20.6566L165.301 19.7273L165.745 19.1699L167.316 20.0993Z" fill="#E4E4E4"/>
<path d="M168.955 22.4922L169.347 23.0777L167.697 23.8986L167.305 23.3131L168.955 22.4922Z" fill="#F7B787"/>
<path d="M170.66 19.9473L171.444 19.975L171.366 21.6154L170.582 21.5877L170.66 19.9473Z" fill="#3F3D56"/>
<path d="M153.976 11.9157L153.532 12.473L151.961 11.5437L152.405 10.9863L153.976 11.9157Z" fill="#F7B787"/>
<path d="M155.615 14.3105L156.007 14.896L154.357 15.7169L153.965 15.1314L155.615 14.3105Z" fill="#3F3D56"/>
<path d="M157.32 11.7656L158.104 11.7933L158.026 13.4337L157.242 13.4061L157.32 11.7656Z" fill="#E4E4E4"/>
<path d="M167.538 53.8082L167.094 54.4551L168.665 55.5338L169.109 54.8869L167.538 53.8082Z" fill="#3F3D56"/>
<path d="M169.096 58.6173L169.488 59.2969L171.139 58.344L170.746 57.6645L169.096 58.6173Z" fill="#F7B787"/>
<path d="M172.376 56.6143L173.16 56.6465L173.238 54.7424L172.454 54.7103L172.376 56.6143Z" fill="#E4E4E4"/>
<path d="M134.213 83.1627L135.571 82.9526L134.64 72.1016L131.613 72.662L134.213 83.1627Z" fill="#FFB6B6"/>
<path d="M133.797 82.7737L136.472 82.3601C136.924 82.2902 137.385 82.4028 137.754 82.673C138.123 82.9433 138.37 83.349 138.44 83.8011L138.448 83.8565L134.069 84.5337L133.797 82.7737Z" fill="#2F2E41"/>
<path d="M119.938 83.0288L121.31 83.0872L122.98 73.4473L119.954 73.4474L119.938 83.0288Z" fill="#FFB6B6"/>
<path d="M119.607 82.5645L122.311 82.6796H122.311C122.768 82.6991 123.199 82.8994 123.508 83.2363C123.818 83.5733 123.98 84.0193 123.961 84.4763L123.959 84.5323L119.531 84.3437L119.607 82.5645Z" fill="#2F2E41"/>
<path d="M122.642 51.6216C122.577 51.6034 122.511 51.591 122.444 51.5847L123.3 44.5785L126.204 38.4279C126.387 38.041 126.416 37.5992 126.286 37.1916C126.156 36.784 125.876 36.441 125.503 36.2317C125.129 36.0224 124.691 35.9624 124.275 36.0638C123.859 36.1652 123.498 36.4205 123.263 36.7781C122.502 37.9371 121.926 39.2077 121.556 40.5441L120.336 44.9559L121.228 52.5217C121.194 52.7349 121.222 52.9535 121.309 53.1512C121.396 53.3488 121.539 53.517 121.719 53.6357C121.9 53.7543 122.111 53.8183 122.326 53.8199C122.542 53.8214 122.754 53.7606 122.936 53.6446C123.119 53.5286 123.263 53.3625 123.353 53.1661C123.443 52.9698 123.475 52.7516 123.444 52.5379C123.413 52.3242 123.32 52.124 123.178 51.9614C123.036 51.7989 122.85 51.6809 122.642 51.6216Z" fill="#FFB6B6"/>
<path d="M124.404 45.1701L120.734 40.9725L122.552 36.6969C122.79 36.137 123.238 35.6923 123.799 35.4577C124.36 35.2231 124.991 35.2172 125.557 35.4412C126.122 35.6652 126.578 36.1014 126.827 36.6567C127.075 37.212 127.097 37.8425 126.887 38.4135L124.404 45.1701Z" fill="#2F2E41"/>
<path d="M130.505 31.7884C131.388 30.1735 130.795 28.1487 129.18 27.2658C127.565 26.383 125.54 26.9765 124.657 28.5915C123.774 30.2064 124.368 32.2313 125.983 33.1141C127.598 33.9969 129.623 33.4034 130.505 31.7884Z" fill="#FFB6B6"/>
<path d="M128.138 26.1406H125.985C124.574 26.1406 123.43 27.4277 123.43 29.0154L123.529 32.8665C125.054 33.0562 126.546 33.4551 127.962 34.052L128.163 33.1939L128.559 34.324C128.912 34.4948 129.261 34.6815 129.608 34.8842C129.203 32.9841 129.037 31.0883 129.314 29.6156H130.043V28.8177L130.291 29.6156H131.613C131.613 29.1593 131.523 28.7074 131.348 28.2858C131.174 27.8642 130.918 27.4811 130.595 27.1584C130.272 26.8357 129.889 26.5798 129.468 26.4051C129.046 26.2305 128.594 26.1406 128.138 26.1406Z" fill="#2F2E41"/>
<path d="M135.158 72.6901L134.846 72.7652L134.585 67.8969L132.679 53.3242L130.493 47.7754L131.558 43.908C131.558 43.908 132.791 41.2177 129.708 39.1439L127.242 34.9963C125.539 33.8824 124.137 34.6107 123.39 36.504C122.739 38.1536 122.234 40.2406 122.534 42.3947C123.207 47.22 123.767 47.7754 123.767 47.7754C123.767 47.7754 119.563 52.4274 120.46 58.3686L119.96 73.7511L119.503 73.7324L119.453 74.9542L123.448 75.1179L123.498 73.8961L123.167 73.8825L124.608 67.7848L126.738 59.7138L130.437 69.5784L131.681 73.5275L131.271 73.6262L131.558 74.815L135.444 73.8789L135.158 72.6901Z" fill="#2F2E41"/>
<path d="M137.903 45.0691C137.858 45.119 137.817 45.1728 137.781 45.2299L131.896 41.3337L127.691 35.9873C127.427 35.6509 127.044 35.4274 126.622 35.3618C126.199 35.2962 125.767 35.3933 125.413 35.6337C125.059 35.874 124.809 36.2397 124.714 36.6569C124.619 37.0741 124.686 37.5118 124.901 37.8817C125.598 39.0806 126.477 40.1634 127.507 41.0912L130.909 44.1541L138.076 46.7363C138.252 46.8622 138.46 46.9347 138.676 46.9451C138.891 46.9554 139.106 46.9033 139.292 46.7948C139.479 46.6864 139.631 46.5262 139.729 46.3337C139.826 46.1412 139.867 45.9245 139.844 45.7097C139.822 45.4949 139.738 45.2911 139.603 45.1229C139.467 44.9547 139.286 44.8292 139.081 44.7615C138.876 44.6938 138.655 44.6868 138.446 44.7414C138.237 44.796 138.049 44.9098 137.903 45.0691Z" fill="#FFB6B6"/>
<path d="M132.918 40.6082L127.523 42.0154L124.51 38.4788C124.115 38.0157 123.917 37.4167 123.958 36.8097C123.999 36.2027 124.276 35.6357 124.729 35.2298C125.182 34.8238 125.776 34.6111 126.384 34.6369C126.992 34.6627 127.565 34.925 127.982 35.3679L132.918 40.6082Z" fill="#2F2E41"/>
<path d="M174.618 84.7659H37.5841C37.5173 84.7659 37.4531 84.7393 37.4059 84.692C37.3586 84.6448 37.332 84.5806 37.332 84.5138C37.332 84.4469 37.3586 84.3828 37.4059 84.3356C37.4531 84.2883 37.5173 84.2617 37.5841 84.2617H174.618C174.685 84.2617 174.749 84.2883 174.796 84.3356C174.843 84.3828 174.87 84.4469 174.87 84.5138C174.87 84.5806 174.843 84.6448 174.796 84.692C174.749 84.7393 174.685 84.7659 174.618 84.7659Z" fill="#CACACA"/>
<path d="M269.995 30.2969C267.651 30.2969 265.987 29.0391 265.916 27.1875H267.666C267.729 28.1797 268.713 28.8125 269.979 28.8125C271.346 28.8125 272.338 28.0703 272.338 26.9688C272.338 25.8516 271.409 25.0547 269.791 25.0469H268.823V23.6406H269.791C271.08 23.6484 271.979 22.9297 271.979 21.8438C271.979 20.8125 271.205 20.1094 270.01 20.1094C268.877 20.1094 267.862 20.7422 267.823 21.7656H266.166C266.213 19.9219 267.916 18.6719 270.026 18.6719C272.252 18.6719 273.651 20.0781 273.635 21.75C273.651 23.0391 272.854 23.9609 271.635 24.2656V24.3438C273.182 24.5625 274.08 25.6016 274.073 27.0312C274.08 28.9141 272.338 30.2969 269.995 30.2969ZM280.579 24.6406V26.0781H275.563V24.6406H280.579ZM281.929 27.9375V26.5469L286.929 18.8281H289.054V26.4844H290.601V27.9375H289.054V30.1406H287.429V27.9375H281.929ZM283.741 26.4844H287.429V20.875H287.304L283.741 26.3906V26.4844ZM303.123 17.4688V25.7344H301.638V23.6562H298.591V24.7969H292.091V18.5156H298.591V19.6719H301.638V17.4688H303.123ZM293.56 23.6094H297.138V19.7031H293.56V23.6094ZM293.701 28.7969C293.693 27.1016 295.49 26.1172 298.435 26.125C301.365 26.1172 303.162 27.1016 303.17 28.7969C303.162 30.4844 301.365 31.4453 298.435 31.4375C295.49 31.4453 293.693 30.4844 293.701 28.7969ZM295.17 28.7969C295.162 29.7344 296.38 30.2891 298.435 30.2969C300.474 30.2891 301.693 29.7344 301.701 28.7969C301.693 27.8125 300.474 27.2734 298.435 27.2656C296.38 27.2734 295.162 27.8125 295.17 28.7969ZM298.591 22.4531H301.638V20.8594H298.591V22.4531Z" fill="#27342E"/>
<defs>
<filter id="filter0_d_264_710" x="0.691406" y="0.535156" width="320" height="100" filterUnits="userSpaceOnUse" color-interpolation-filters="sRGB">
<feFlood flood-opacity="0" result="BackgroundImageFix"/>
<feColorMatrix in="SourceAlpha" type="matrix" values="0 0 0 0 0 0 0 0 0 0 0 0 0 0 0 0 0 0 127 0" result="hardAlpha"/>
<feOffset/>
<feGaussianBlur stdDeviation="3.5"/>
<feComposite in2="hardAlpha" operator="out"/>
<feColorMatrix type="matrix" values="0 0 0 0 0 0 0 0 0 0 0 0 0 0 0 0 0 0 0.14 0"/>
<feBlend mode="normal" in2="BackgroundImageFix" result="effect1_dropShadow_264_710"/>
<feBlend mode="normal" in="SourceGraphic" in2="effect1_dropShadow_264_710" result="shape"/>
</filter>
<radialGradient id="paint0_radial_264_710" cx="0" cy="0" r="1" gradientUnits="userSpaceOnUse" gradientTransform="translate(224.168 72.8556) rotate(175.001) scale(212.671 37.6233)">
<stop stop-color="#0B9596"/>
<stop offset="1" stop-color="white"/>
</radialGradient>
</defs>
</svg>
