<svg width="331" height="175" viewBox="0 0 331 175" fill="none" xmlns="http://www.w3.org/2000/svg">
<path opacity="0.5" d="M262.255 125.22C288.56 129.206 312.98 150.224 319.008 158.831C205.567 160.19 10.5085 164.255 23.2227 160.994C39.1153 156.917 59.6595 125.088 70.7033 116.375C77.996 110.621 87.3893 106.62 101.533 106.619C113.111 106.619 132.363 113.513 144.201 118.457C163.351 126.454 168.85 132.105 188.578 131.652C208.307 131.199 229.374 120.237 262.255 125.22Z" fill="url(#paint0_radial_264_2485)"/>
<path d="M150.51 68.9296C155.988 68.9296 160.429 64.489 160.429 59.0112C160.429 53.5334 155.988 49.0928 150.51 49.0928C145.032 49.0928 140.592 53.5334 140.592 59.0112C140.592 64.489 145.032 68.9296 150.51 68.9296Z" fill="#F7B787"/>
<path d="M168.409 51.4021C163.603 50.7524 158.115 53.3506 156.869 58.0385C156.555 57.2049 155.984 56.4928 155.239 56.005C154.494 55.5171 153.613 55.2788 152.723 55.3245C151.834 55.3701 150.982 55.6974 150.29 56.2589C149.599 56.8205 149.104 57.5873 148.877 58.4486L149.427 58.8427C159.728 61.0703 170.392 61.0221 180.672 58.7014C177.328 55.1874 173.216 52.0519 168.409 51.4021Z" fill="#F0F0F0"/>
<path d="M147.796 63.4549C142.989 62.8051 137.501 65.4033 136.255 70.0912C135.942 69.2577 135.371 68.5456 134.625 68.0577C133.88 67.5699 132.999 67.3316 132.11 67.3772C131.22 67.4228 130.368 67.7501 129.677 68.3117C128.986 68.8732 128.491 69.64 128.264 70.5013L128.814 70.8954C139.115 73.123 149.778 73.0748 160.059 70.7542C156.715 67.2401 152.603 64.1046 147.796 63.4549Z" fill="#F0F0F0"/>
<path d="M224.043 53.3886C222.758 51.2622 221.234 48.9919 218.848 48.2976C216.085 47.4935 213.247 49.0908 210.839 50.667C203.64 55.381 196.706 60.4896 190.07 65.9695L190.078 66.052C195.244 65.6958 200.41 65.3395 205.576 64.9832C209.308 64.7258 213.169 64.4329 216.468 62.6672C217.719 61.9972 218.939 61.1022 220.358 61.0398C222.12 60.9624 223.656 62.193 224.864 63.4788C232.006 71.0847 234.073 82.7159 242.086 89.3982C237.034 76.9369 231 64.8959 224.043 53.3886Z" fill="#F0F0F0"/>
<path d="M244.967 80.5049L251.153 78.2421L254.225 77.1186C255.225 76.7527 256.223 76.3362 257.258 76.0742C258.156 75.8175 259.111 75.8296 260.002 76.1091C260.798 76.4035 261.526 76.8549 262.143 77.4363C262.774 78.0172 263.361 78.644 263.899 79.3115C264.568 80.1152 265.227 80.9273 265.889 81.7367C268.62 85.0773 271.334 88.4324 274.03 91.8019C276.725 95.1714 279.403 98.5552 282.063 101.953C284.729 105.36 287.377 108.78 290.006 112.215C290.329 112.636 290.65 113.057 290.972 113.478C291.15 113.711 291.55 113.482 291.37 113.246C288.721 109.776 286.054 106.321 283.368 102.88C280.676 99.4306 277.964 95.996 275.235 92.5759C272.505 89.156 269.757 85.7508 266.991 82.3606C266.301 81.5159 265.611 80.6722 264.92 79.8295C264.336 79.1186 263.76 78.4 263.12 77.7383C261.945 76.5238 260.478 75.4504 258.722 75.4213C257.689 75.4042 256.69 75.7318 255.731 76.0789C254.696 76.4531 253.665 76.8342 252.632 77.212L246.402 79.4906L244.844 80.0603C244.568 80.1614 244.687 80.6071 244.967 80.5049Z" fill="#E4E4E4"/>
<path d="M137.937 32.2031L137.332 32.6951C137.537 32.5229 137.75 32.3615 137.968 32.2087C137.958 32.2069 137.948 32.2049 137.937 32.2031Z" fill="#F2F2F2"/>
<path d="M261.912 80.5283C261.303 79.787 260.644 79.0108 259.733 78.7097L258.883 78.7433C265.357 90.1826 274.1 100.178 284.576 108.117C277.021 98.9206 269.466 89.7245 261.912 80.5283Z" fill="#F0F0F0"/>
<path d="M215.526 86.0156C215.549 86.3268 215.016 86.6846 214.303 86.8266C213.647 86.9608 213.06 86.8674 212.895 86.6224C212.928 86.6027 212.964 86.5883 213.002 86.5796L215.464 86.0234C215.484 86.019 215.505 86.0164 215.526 86.0156Z" fill="#E6E6E6"/>
<path d="M227.726 130.441C227.726 139.323 228.658 145.824 218.986 146.523C208.6 147.274 210.246 139.323 210.246 130.441C210.246 121.559 208.847 112.728 218.986 114.359C223.752 115.126 227.726 121.559 227.726 130.441Z" fill="#3F3D56"/>
<path d="M213.043 141.629C213.815 141.629 214.441 136.62 214.441 130.442C214.441 124.263 213.815 119.254 213.043 119.254C212.271 119.254 211.645 124.263 211.645 130.442C211.645 136.62 212.271 141.629 213.043 141.629Z" fill="#E6E6E6"/>
<path d="M161.358 121.197C161.358 129.035 162.181 134.772 153.645 135.389C144.479 136.052 145.932 129.035 145.932 121.197C145.932 113.359 144.698 105.566 153.645 107.005C157.851 107.682 161.358 113.359 161.358 121.197Z" fill="#3F3D56"/>
<path d="M148.392 131.072C149.074 131.072 149.626 126.652 149.626 121.199C149.626 115.747 149.074 111.326 148.392 111.326C147.711 111.326 147.158 115.747 147.158 121.199C147.158 126.652 147.711 131.072 148.392 131.072Z" fill="#E6E6E6"/>
<path d="M174.607 135.385C174.607 144.267 175.539 150.768 165.867 151.467C155.48 152.218 157.127 144.267 157.127 135.385C157.127 126.503 155.728 117.671 165.867 119.303C170.633 120.07 174.607 126.503 174.607 135.385Z" fill="#3F3D56"/>
<path d="M159.923 146.573C160.695 146.573 161.321 141.564 161.321 135.385C161.321 129.207 160.695 124.198 159.923 124.198C159.151 124.198 158.524 129.207 158.524 135.385C158.524 141.564 159.151 146.573 159.923 146.573Z" fill="#E6E6E6"/>
<path d="M146.988 102.406V107.919L145.473 110.447L145.939 119.303L146.316 119.536L146.055 110.563C148.711 109.575 149.579 111.396 149.318 114.992L148.852 121.051L156.31 125.713L157.243 116.157L160.739 114.525L164.584 130.724H229.017C231.673 130.724 233.795 128.514 233.687 125.86L232.874 105.785L230.68 103.591L228.648 80.0827C228.141 74.2201 223.17 69.7579 217.287 69.8847L176.981 70.7534C174.794 70.8005 172.634 71.2407 170.603 72.053L160.855 75.9522L154.563 82.2442L153.63 97.3947L151.251 97.1879C149.54 97.039 147.979 98.1701 147.587 99.8427L146.988 102.406Z" fill="#E6E6E6"/>
<path d="M167.849 124.199C169.136 124.199 170.18 123.156 170.18 121.868C170.18 120.581 169.136 119.538 167.849 119.538C166.562 119.538 165.519 120.581 165.519 121.868C165.519 123.156 166.562 124.199 167.849 124.199Z" fill="#3F3D56"/>
<path d="M173.21 124.199C174.497 124.199 175.54 123.156 175.54 121.868C175.54 120.581 174.497 119.538 173.21 119.538C171.922 119.538 170.879 120.581 170.879 121.868C170.879 123.156 171.922 124.199 173.21 124.199Z" fill="#3F3D56"/>
<path d="M225.417 124.199C226.704 124.199 227.747 123.156 227.747 121.868C227.747 120.581 226.704 119.538 225.417 119.538C224.129 119.538 223.086 120.581 223.086 121.868C223.086 123.156 224.129 124.199 225.417 124.199Z" fill="#3F3D56"/>
<path d="M230.776 124.199C232.063 124.199 233.107 123.156 233.107 121.868C233.107 120.581 232.063 119.538 230.776 119.538C229.489 119.538 228.445 120.581 228.445 121.868C228.445 123.156 229.489 124.199 230.776 124.199Z" fill="#3F3D56"/>
<path d="M227.143 99.9752H172.349C171.93 99.9752 171.541 99.8084 171.251 99.5052C170.962 99.202 170.814 98.8046 170.834 98.3863L171.634 81.4595C171.672 80.6592 172.329 80.0242 173.13 80.014L224.868 79.348C225.632 79.3407 226.295 79.9072 226.393 80.6722L228.648 98.265C228.703 98.6972 228.57 99.1328 228.282 99.4601C227.994 99.7874 227.579 99.9752 227.143 99.9752Z" fill="white"/>
<path d="M164.693 99.1432H161.137C160.716 99.1432 160.309 98.9657 160.023 98.6559C159.737 98.3461 159.592 97.9273 159.625 97.5067L160.648 84.5198C160.704 83.8067 161.238 83.238 161.946 83.1369L165.62 82.612C166.08 82.5467 166.538 82.6917 166.876 83.0108C167.214 83.3301 167.385 83.7788 167.346 84.2419L166.204 97.7537C166.138 98.5458 165.487 99.1432 164.693 99.1432Z" fill="white"/>
<path d="M156.521 98.8126C156.484 98.8126 156.447 98.8113 156.41 98.8088L155.992 98.779C155.58 98.7494 155.206 98.5591 154.94 98.2429C154.674 97.9266 154.55 97.526 154.591 97.1145L155.739 85.6303C155.807 84.9504 156.325 84.3971 157 84.2846C157.459 84.2075 157.921 84.3431 158.266 84.6554C158.611 84.9672 158.793 85.4127 158.763 85.8772L158.032 97.3915C158.006 97.7982 157.823 98.1699 157.516 98.438C157.237 98.6818 156.887 98.8126 156.521 98.8126Z" fill="white"/>
<path d="M150.739 122.243L150.134 109.048C150.134 109.048 148.736 107.183 147.803 107.649C146.871 108.115 145.486 110.708 145.486 110.708C145.486 110.708 148.189 110.531 148.112 113.402C148.036 116.273 148.575 120.918 148.575 120.918L150.739 122.243Z" fill="#CCCCCC"/>
<path d="M156.366 125.69L156.659 115.846L159.624 112.345C159.624 112.345 163.586 111.488 163.502 115.978C163.418 120.468 164.7 130.84 164.7 130.84L161.803 129.02C161.803 129.02 161.087 117.904 158.99 116.739C156.892 115.574 157.591 116.506 157.591 116.506L156.366 125.69Z" fill="#CCCCCC"/>
<path d="M153.277 100.456L150.98 99.1437H151.231C151.589 99.1437 151.88 98.8533 151.88 98.495V92.8004C151.88 92.4421 151.589 92.1516 151.231 92.1516H148.799C148.441 92.1516 148.15 92.4421 148.15 92.8004V98.495C148.15 98.8533 148.441 99.1437 148.799 99.1437H150.041L153.046 100.861L153.277 100.456Z" fill="#3F3D56"/>
<path d="M156.382 108.987L154.59 108.472C154.157 108.347 153.705 108.597 153.58 109.03C153.456 109.463 153.706 109.915 154.139 110.039L155.931 110.555C156.364 110.679 156.816 110.429 156.94 109.996C157.065 109.563 156.815 109.111 156.382 108.987Z" fill="#3F3D56"/>
<path d="M205.371 125.598C215.153 125.598 223.084 117.668 223.084 107.885C223.084 98.1019 215.153 90.1714 205.371 90.1714C195.588 90.1714 187.657 98.1019 187.657 107.885C187.657 117.668 195.588 125.598 205.371 125.598Z" fill="#3F3D56"/>
<path d="M205.373 118.371C211.165 118.371 215.861 113.675 215.861 107.883C215.861 102.09 211.165 97.3948 205.373 97.3948C199.58 97.3948 194.885 102.09 194.885 107.883C194.885 113.675 199.58 118.371 205.373 118.371Z" fill="#E6E6E6"/>
<path d="M78.4482 145.774C78.5295 145.637 78.881 145.783 78.9456 145.659C79.01 145.535 78.6834 145.346 78.4968 144.915C78.4632 144.838 78.2512 144.348 78.4081 144.196C78.7056 143.91 80.067 145.092 80.5435 144.705C80.648 144.62 80.7211 144.451 81.0375 144.176C81.1634 144.066 81.2396 144.017 81.3132 144.035C81.4178 144.061 81.4261 144.201 81.5381 144.476C81.7063 144.889 81.8057 144.864 81.9036 145.193C81.9763 145.437 81.9597 145.579 82.0453 145.607C82.1664 145.646 82.2778 145.387 82.4313 145.41C82.5878 145.434 82.6825 145.736 82.7124 145.962C82.7685 146.386 82.6128 146.665 82.5265 146.959C82.4327 147.279 82.3771 147.765 82.5936 148.454L84.7373 154.493C84.2641 153.254 82.8938 149.857 82.318 148.594C82.1517 148.23 81.9682 147.86 81.5913 147.714C81.2285 147.574 80.7302 147.658 80.095 147.505C80.0208 147.487 79.8149 147.434 79.789 147.313C79.7676 147.213 79.8887 147.157 79.8701 147.063C79.8451 146.938 79.607 146.936 79.3143 146.791C79.108 146.689 78.9794 146.567 78.8689 146.462C78.8355 146.431 78.3401 145.956 78.4482 145.774Z" fill="#F2F2F2"/>
<path d="M86.8827 148.953C86.9733 148.953 87.0028 149.168 87.0824 149.164C87.1618 149.159 87.1602 148.945 87.318 148.729C87.3465 148.69 87.5258 148.444 87.6453 148.478C87.8718 148.541 87.6841 149.55 88.0116 149.673C88.0834 149.699 88.1877 149.686 88.4141 149.762C88.5042 149.792 88.5504 149.816 88.5627 149.857C88.58 149.916 88.5137 149.96 88.4111 150.095C88.2571 150.296 88.298 150.338 88.1647 150.481C88.0658 150.587 87.9913 150.62 88.0024 150.67C88.0181 150.741 88.1774 150.721 88.2103 150.803C88.2439 150.886 88.1231 151.02 88.0208 151.1C87.8289 151.249 87.6467 151.254 87.4774 151.296C87.2934 151.343 87.0387 151.455 86.7634 151.76L84.4176 154.555C84.8893 153.965 86.1614 152.313 86.6149 151.666C86.7458 151.479 86.8743 151.282 86.8371 151.055C86.8014 150.836 86.6165 150.616 86.5083 150.26C86.4957 150.219 86.462 150.102 86.5139 150.055C86.5569 150.015 86.6192 150.059 86.6599 150.023C86.7144 149.974 86.6465 149.857 86.6332 149.671C86.6239 149.54 86.6466 149.442 86.666 149.358C86.6719 149.332 86.7619 148.952 86.8827 148.953Z" fill="#F2F2F2"/>
<path d="M85.0733 149.36L85.1279 148.872L85.103 148.835C84.9875 148.664 84.9286 148.497 84.9279 148.338C84.9278 148.313 84.9289 148.288 84.9301 148.262C84.9348 148.161 84.9407 148.034 84.8748 147.887C84.8378 147.805 84.734 147.614 84.5778 147.638C84.5358 147.644 84.504 147.663 84.4799 147.686C84.4763 147.68 84.4727 147.674 84.4688 147.668C84.4202 147.594 84.3817 147.562 84.3446 147.532C84.3161 147.508 84.2867 147.484 84.2405 147.426C84.2202 147.401 84.2045 147.379 84.1912 147.361C84.1508 147.304 84.098 147.237 84.005 147.238C83.9056 147.243 83.8536 147.325 83.8191 147.38C83.7575 147.477 83.7296 147.547 83.7111 147.593C83.7044 147.61 83.6968 147.629 83.6929 147.635C83.6608 147.682 83.4005 147.638 83.3024 147.622C83.0821 147.585 82.8915 147.553 82.813 147.692C82.7567 147.792 82.7985 147.923 82.941 148.093C82.9854 148.146 83.0326 148.187 83.0745 148.218C83.0398 148.239 83.0087 148.271 82.9961 148.321C82.9664 148.439 83.068 148.557 83.298 148.673C83.3551 148.702 83.432 148.741 83.5397 148.759C83.5904 148.768 83.6361 148.77 83.6752 148.771C83.676 148.794 83.6813 148.818 83.6951 148.844C83.7355 148.918 83.8196 148.953 83.9463 148.945C84.0857 148.937 84.2005 148.911 84.3017 148.887C84.3901 148.867 84.4663 148.85 84.5261 148.854C84.6371 148.863 84.7225 148.952 84.8229 149.067L85.0733 149.36Z" fill="#F2F2F2"/>
<path d="M84.8207 146.457L85.2786 146.633L85.3207 146.619C85.5154 146.55 85.6918 146.536 85.8453 146.575C85.8697 146.582 85.8937 146.589 85.9183 146.597C86.0155 146.627 86.1363 146.665 86.2956 146.638C86.3845 146.624 86.5949 146.571 86.6117 146.414C86.6167 146.372 86.6061 146.337 86.5903 146.307C86.5967 146.306 86.6031 146.303 86.61 146.301C86.6941 146.273 86.7346 146.244 86.7736 146.216C86.8036 146.194 86.8346 146.172 86.9018 146.142C86.9313 146.129 86.9568 146.119 86.9781 146.111C87.0428 146.086 87.1211 146.052 87.1436 145.962C87.1642 145.864 87.0979 145.793 87.0541 145.746C86.9758 145.662 86.9153 145.617 86.8751 145.587C86.8604 145.577 86.8439 145.564 86.8392 145.559C86.8017 145.516 86.9103 145.276 86.9507 145.185C87.0421 144.981 87.1212 144.805 87.0068 144.693C86.9249 144.614 86.7872 144.621 86.5864 144.716C86.5239 144.745 86.4729 144.78 86.4318 144.813C86.4206 144.774 86.3977 144.736 86.3526 144.711C86.2458 144.652 86.1054 144.721 85.935 144.914C85.8925 144.962 85.8357 145.026 85.7903 145.126C85.769 145.173 85.7554 145.216 85.7443 145.254C85.7223 145.249 85.6972 145.248 85.6694 145.255C85.5874 145.275 85.5319 145.347 85.5079 145.472C85.4796 145.609 85.4763 145.727 85.4731 145.83C85.4703 145.921 85.4676 145.999 85.4485 146.056C85.4118 146.161 85.3042 146.221 85.1674 146.289L84.8207 146.457Z" fill="#F2F2F2"/>
<path d="M85.0733 145.02L85.1279 144.532L85.103 144.495C84.9875 144.324 84.9286 144.157 84.9279 143.999C84.9278 143.973 84.9289 143.948 84.9301 143.923C84.9348 143.821 84.9407 143.694 84.8748 143.547C84.8378 143.465 84.734 143.275 84.5778 143.298C84.5358 143.304 84.504 143.323 84.4799 143.346C84.4763 143.34 84.4727 143.335 84.4688 143.328C84.4202 143.254 84.3817 143.222 84.3446 143.192C84.3161 143.168 84.2867 143.144 84.2405 143.087C84.2202 143.061 84.2045 143.039 84.1912 143.021C84.1508 142.964 84.098 142.897 84.005 142.898C83.9056 142.903 83.8536 142.985 83.8191 143.04C83.7575 143.137 83.7296 143.207 83.7111 143.253C83.7044 143.27 83.6968 143.289 83.6929 143.295C83.6608 143.342 83.4005 143.298 83.3024 143.282C83.0821 143.245 82.8915 143.214 82.813 143.352C82.7567 143.452 82.7985 143.583 82.941 143.754C82.9854 143.806 83.0326 143.847 83.0745 143.878C83.0398 143.899 83.0087 143.931 82.9961 143.981C82.9664 144.099 83.068 144.217 83.298 144.333C83.3551 144.362 83.432 144.401 83.5397 144.419C83.5904 144.428 83.6361 144.43 83.6752 144.431C83.676 144.454 83.6813 144.479 83.6951 144.504C83.7355 144.578 83.8196 144.613 83.9463 144.605C84.0857 144.597 84.2005 144.571 84.3017 144.548C84.3901 144.527 84.4663 144.51 84.5261 144.514C84.6371 144.523 84.7225 144.612 84.8229 144.727L85.0733 145.02Z" fill="#F2F2F2"/>
<path d="M84.5731 154.486L84.6753 154.422L84.7944 154.435C84.7963 154.424 84.8028 154.399 84.8126 154.359C84.8659 154.141 85.0285 153.477 85.1642 152.432C85.2588 151.703 85.3124 150.953 85.3235 150.203C85.3345 149.452 85.299 148.883 85.2705 148.426C85.2489 148.081 85.2228 147.753 85.1971 147.433C85.1288 146.579 85.0644 145.772 85.1123 144.878C85.1229 144.679 85.1452 144.264 85.3877 143.822C85.5284 143.566 85.7223 143.338 85.9639 143.146L85.8136 142.957C85.5469 143.169 85.3325 143.421 85.1763 143.706C84.9073 144.196 84.8831 144.648 84.8714 144.865C84.8227 145.775 84.8878 146.589 84.9568 147.452C84.9822 147.771 85.0084 148.097 85.0298 148.441C85.0581 148.894 85.0933 149.457 85.0823 150.199C85.0715 150.94 85.0185 151.681 84.9251 152.401C84.7911 153.433 84.6309 154.087 84.5783 154.302C84.5502 154.416 84.5443 154.44 84.5731 154.486Z" fill="#F2F2F2"/>
<path d="M86.4072 143.529C86.4171 143.529 86.4271 143.529 86.4373 143.528C86.6426 143.517 86.8328 143.394 87.0025 143.163C87.0821 143.054 87.1229 142.93 87.2041 142.683C87.2167 142.644 87.2779 142.451 87.3152 142.184C87.3395 142.01 87.3365 141.938 87.302 141.873C87.2637 141.802 87.2018 141.752 87.1321 141.718C87.1351 141.695 87.1326 141.671 87.1226 141.647C87.0815 141.547 86.9723 141.56 86.9132 141.566C86.8833 141.57 86.8459 141.575 86.8057 141.573C86.7423 141.57 86.7083 141.551 86.6567 141.522C86.6074 141.495 86.5461 141.462 86.455 141.443C86.2756 141.406 86.1252 141.457 86.0757 141.473C85.8149 141.56 85.6863 141.763 85.5375 141.998C85.5078 142.045 85.4059 142.216 85.3387 142.451C85.2902 142.621 85.297 142.696 85.3116 142.752C85.3413 142.867 85.4114 142.933 85.5893 143.079C85.7751 143.231 85.8683 143.307 85.9484 143.354C86.1348 143.461 86.2518 143.529 86.4072 143.529Z" fill="#F2F2F2"/>
<path d="M158.861 140.657C158.736 140.446 158.195 140.672 158.096 140.481C157.997 140.29 158.499 139.999 158.787 139.336C158.838 139.216 159.165 138.461 158.923 138.229C158.465 137.788 156.369 139.608 155.636 139.012C155.475 138.882 155.362 138.621 154.875 138.197C154.682 138.028 154.564 137.952 154.451 137.98C154.29 138.021 154.277 138.236 154.105 138.659C153.846 139.295 153.693 139.256 153.542 139.763C153.43 140.139 153.456 140.358 153.324 140.4C153.138 140.461 152.966 140.062 152.73 140.097C152.489 140.134 152.343 140.598 152.297 140.946C152.211 141.599 152.45 142.03 152.583 142.483C152.728 142.975 152.813 143.723 152.48 144.783L149.18 154.081C149.908 152.173 152.018 146.943 152.904 144.999C153.16 144.438 153.443 143.869 154.023 143.644C154.581 143.428 155.348 143.557 156.326 143.322C156.441 143.294 156.757 143.213 156.797 143.027C156.83 142.873 156.644 142.787 156.673 142.643C156.711 142.449 157.078 142.447 157.528 142.223C157.846 142.066 158.044 141.878 158.214 141.717C158.265 141.669 159.028 140.938 158.861 140.657Z" fill="#F2F2F2"/>
<path d="M145.88 145.55C145.74 145.551 145.695 145.881 145.572 145.875C145.45 145.869 145.452 145.538 145.209 145.206C145.166 145.146 144.89 144.768 144.706 144.819C144.357 144.917 144.646 146.471 144.142 146.659C144.031 146.7 143.871 146.68 143.522 146.797C143.383 146.843 143.312 146.879 143.293 146.943C143.267 147.033 143.369 147.102 143.527 147.308C143.764 147.619 143.701 147.683 143.906 147.903C144.058 148.066 144.173 148.117 144.156 148.194C144.132 148.303 143.886 148.272 143.836 148.398C143.784 148.527 143.97 148.733 144.127 148.856C144.423 149.086 144.703 149.093 144.964 149.158C145.247 149.229 145.639 149.403 146.063 149.873L149.675 154.175C148.948 153.267 146.99 150.723 146.292 149.727C146.09 149.439 145.893 149.137 145.95 148.787C146.005 148.45 146.289 148.111 146.456 147.563C146.475 147.499 146.527 147.32 146.447 147.247C146.381 147.186 146.285 147.253 146.223 147.197C146.139 147.123 146.243 146.942 146.264 146.656C146.278 146.455 146.243 146.304 146.213 146.174C146.204 146.135 146.065 145.55 145.88 145.55Z" fill="#F2F2F2"/>
<path d="M148.666 146.176L148.582 145.425L148.62 145.368C148.798 145.105 148.889 144.848 148.89 144.604C148.89 144.565 148.888 144.526 148.887 144.487C148.879 144.33 148.87 144.136 148.972 143.909C149.029 143.782 149.189 143.489 149.429 143.525C149.494 143.534 149.543 143.564 149.58 143.599C149.585 143.59 149.591 143.582 149.597 143.572C149.672 143.458 149.731 143.409 149.788 143.362C149.832 143.326 149.877 143.288 149.948 143.2C149.979 143.161 150.004 143.127 150.024 143.098C150.086 143.012 150.168 142.908 150.311 142.91C150.464 142.917 150.544 143.044 150.597 143.128C150.692 143.277 150.735 143.385 150.763 143.456C150.773 143.482 150.785 143.512 150.791 143.521C150.841 143.593 151.241 143.525 151.392 143.501C151.731 143.444 152.025 143.395 152.146 143.609C152.232 143.762 152.168 143.964 151.949 144.226C151.88 144.308 151.808 144.37 151.743 144.419C151.797 144.451 151.845 144.499 151.864 144.576C151.91 144.758 151.753 144.941 151.399 145.119C151.311 145.164 151.193 145.223 151.027 145.252C150.949 145.265 150.879 145.268 150.818 145.27C150.817 145.305 150.809 145.343 150.788 145.381C150.726 145.496 150.596 145.55 150.401 145.537C150.187 145.526 150.01 145.485 149.854 145.449C149.718 145.418 149.601 145.391 149.508 145.397C149.338 145.411 149.206 145.548 149.052 145.725L148.666 146.176Z" fill="#F2F2F2"/>
<path d="M149.055 141.705L148.35 141.977L148.285 141.954C147.985 141.849 147.714 141.827 147.477 141.888C147.44 141.897 147.403 141.909 147.365 141.921C147.215 141.967 147.029 142.025 146.784 141.985C146.647 141.962 146.323 141.882 146.297 141.64C146.29 141.575 146.306 141.52 146.33 141.475C146.321 141.472 146.311 141.469 146.3 141.466C146.171 141.422 146.108 141.377 146.048 141.334C146.002 141.301 145.954 141.266 145.851 141.22C145.805 141.2 145.766 141.185 145.733 141.172C145.634 141.134 145.513 141.082 145.479 140.943C145.447 140.793 145.549 140.684 145.616 140.611C145.737 140.481 145.83 140.412 145.892 140.367C145.915 140.35 145.94 140.331 145.947 140.323C146.005 140.257 145.838 139.887 145.776 139.747C145.635 139.433 145.513 139.162 145.689 138.991C145.815 138.868 146.027 138.879 146.336 139.025C146.433 139.07 146.511 139.125 146.574 139.175C146.592 139.115 146.627 139.056 146.696 139.018C146.861 138.928 147.077 139.033 147.339 139.33C147.405 139.404 147.492 139.503 147.562 139.656C147.595 139.728 147.616 139.795 147.633 139.853C147.667 139.846 147.705 139.844 147.748 139.855C147.874 139.886 147.96 139.997 147.997 140.189C148.04 140.4 148.045 140.581 148.05 140.741C148.055 140.88 148.059 141.001 148.088 141.088C148.145 141.25 148.31 141.342 148.521 141.447L149.055 141.705Z" fill="#F2F2F2"/>
<path d="M148.666 139.494L148.582 138.743L148.62 138.686C148.798 138.423 148.889 138.166 148.89 137.922C148.89 137.883 148.888 137.845 148.887 137.805C148.879 137.649 148.87 137.454 148.972 137.227C149.029 137.1 149.189 136.807 149.429 136.844C149.494 136.853 149.543 136.883 149.58 136.917C149.585 136.909 149.591 136.9 149.597 136.891C149.672 136.776 149.731 136.727 149.788 136.68C149.832 136.644 149.877 136.607 149.948 136.518C149.979 136.479 150.004 136.445 150.024 136.417C150.086 136.33 150.168 136.227 150.311 136.229C150.464 136.236 150.544 136.362 150.597 136.446C150.692 136.595 150.735 136.703 150.763 136.775C150.773 136.801 150.785 136.83 150.791 136.839C150.841 136.912 151.241 136.844 151.392 136.819C151.731 136.763 152.025 136.714 152.146 136.927C152.232 137.08 152.168 137.283 151.949 137.545C151.88 137.626 151.808 137.688 151.743 137.737C151.797 137.769 151.845 137.818 151.864 137.895C151.91 138.077 151.753 138.259 151.399 138.437C151.311 138.482 151.193 138.541 151.027 138.57C150.949 138.583 150.879 138.587 150.818 138.589C150.817 138.623 150.809 138.661 150.788 138.7C150.726 138.814 150.596 138.868 150.401 138.855C150.187 138.844 150.01 138.803 149.854 138.767C149.718 138.736 149.601 138.71 149.508 138.716C149.338 138.73 149.206 138.866 149.052 139.044L148.666 139.494Z" fill="#F2F2F2"/>
<path d="M149.434 154.068L149.277 153.97L149.093 153.991C149.09 153.974 149.08 153.935 149.065 153.873C148.983 153.538 148.733 152.516 148.524 150.907C148.378 149.784 148.296 148.629 148.279 147.475C148.262 146.318 148.317 145.443 148.36 144.739C148.394 144.208 148.434 143.703 148.473 143.211C148.578 141.896 148.678 140.653 148.604 139.278C148.588 138.971 148.553 138.332 148.18 137.651C147.963 137.257 147.665 136.907 147.293 136.611L147.524 136.32C147.935 136.647 148.265 137.035 148.505 137.473C148.919 138.227 148.957 138.924 148.975 139.258C149.05 140.658 148.95 141.912 148.843 143.24C148.804 143.731 148.764 144.234 148.731 144.762C148.687 145.46 148.633 146.327 148.65 147.469C148.667 148.61 148.748 149.75 148.892 150.859C149.098 152.448 149.345 153.454 149.426 153.785C149.469 153.961 149.478 153.998 149.434 154.068Z" fill="#F2F2F2"/>
<path d="M146.614 137.201C146.598 137.201 146.583 137.2 146.567 137.199C146.251 137.182 145.959 136.993 145.697 136.637C145.575 136.469 145.512 136.278 145.387 135.897C145.367 135.839 145.273 135.541 145.216 135.131C145.178 134.863 145.183 134.751 145.236 134.652C145.295 134.542 145.39 134.465 145.498 134.413C145.493 134.377 145.497 134.341 145.512 134.303C145.576 134.149 145.744 134.169 145.835 134.179C145.881 134.184 145.938 134.192 146 134.189C146.098 134.184 146.15 134.155 146.23 134.112C146.305 134.07 146.4 134.018 146.54 133.989C146.816 133.932 147.048 134.01 147.124 134.036C147.526 134.17 147.723 134.482 147.953 134.843C147.998 134.916 148.155 135.18 148.259 135.541C148.333 135.802 148.323 135.918 148.3 136.005C148.255 136.182 148.147 136.283 147.873 136.508C147.587 136.742 147.443 136.86 147.32 136.931C147.033 137.097 146.853 137.201 146.614 137.201Z" fill="#F2F2F2"/>
<path d="M85.9044 138.877C85.7629 138.639 85.1508 138.894 85.0383 138.678C84.9261 138.462 85.4948 138.133 85.8197 137.382C85.8783 137.247 86.2475 136.394 85.9742 136.13C85.4561 135.631 83.0853 137.691 82.2556 137.017C82.0735 136.869 81.9463 136.574 81.3952 136.094C81.1759 135.903 81.0434 135.817 80.9151 135.849C80.733 135.895 80.7186 136.138 80.5234 136.617C80.2306 137.336 80.0575 137.293 79.8869 137.866C79.7603 138.291 79.7892 138.539 79.6402 138.587C79.4294 138.655 79.2353 138.204 78.9681 138.244C78.6954 138.285 78.5305 138.811 78.4785 139.204C78.3808 139.943 78.6519 140.43 78.8022 140.942C78.9655 141.499 79.0624 142.346 78.6853 143.544L74.9521 154.062C75.7763 151.904 78.1626 145.988 79.1654 143.789C79.4548 143.154 79.7745 142.511 80.4307 142.257C81.0626 142.012 81.9303 142.158 83.0366 141.891C83.1658 141.86 83.5243 141.769 83.5695 141.558C83.6068 141.384 83.3959 141.287 83.4283 141.123C83.4717 140.904 83.8865 140.902 84.3961 140.649C84.7554 140.471 84.9793 140.259 85.1719 140.077C85.2299 140.022 86.0927 139.195 85.9044 138.877Z" fill="#F2F2F2"/>
<path d="M71.2196 144.418C71.0616 144.419 71.0104 144.793 70.8717 144.785C70.7334 144.778 70.7362 144.404 70.4614 144.028C70.4118 143.96 70.0996 143.533 69.8915 143.591C69.497 143.701 69.8238 145.459 69.2536 145.672C69.1285 145.719 68.9469 145.696 68.5525 145.828C68.3957 145.881 68.3152 145.921 68.2939 145.993C68.2636 146.096 68.3791 146.173 68.5579 146.407C68.826 146.758 68.7548 146.83 68.9869 147.08C69.1592 147.264 69.289 147.322 69.2696 147.409C69.2423 147.532 68.9647 147.497 68.9075 147.64C68.849 147.785 69.0594 148.018 69.2375 148.157C69.5717 148.418 69.889 148.426 70.1839 148.5C70.5042 148.58 70.9478 148.777 71.4272 149.308L75.5125 154.175C74.691 153.148 72.4757 150.269 71.6859 149.143C71.4579 148.818 71.2342 148.475 71.2988 148.08C71.3611 147.699 71.6831 147.315 71.8715 146.695C71.8935 146.623 71.9522 146.421 71.8617 146.338C71.7869 146.269 71.6783 146.344 71.6075 146.281C71.5125 146.197 71.6309 145.992 71.6539 145.669C71.6701 145.442 71.6307 145.271 71.5968 145.124C71.5866 145.079 71.4298 144.417 71.2196 144.418Z" fill="#F2F2F2"/>
<path d="M74.3725 145.125L74.2773 144.276L74.3208 144.211C74.522 143.913 74.6245 143.623 74.6257 143.347C74.6259 143.303 74.6239 143.259 74.6218 143.214C74.6136 143.037 74.6034 142.817 74.7182 142.56C74.7826 142.417 74.9634 142.086 75.2353 142.127C75.3085 142.137 75.3639 142.171 75.4059 142.21L75.4252 142.18C75.5099 142.05 75.5769 141.995 75.6415 141.942C75.6911 141.901 75.7424 141.858 75.8228 141.758C75.858 141.714 75.8855 141.676 75.9087 141.644C75.979 141.546 76.0709 141.429 76.2329 141.431C76.4059 141.439 76.4966 141.582 76.5566 141.677C76.6639 141.846 76.7125 141.968 76.7447 142.048C76.7564 142.078 76.7697 142.111 76.7765 142.121C76.8322 142.203 77.2856 142.127 77.4564 142.099C77.84 142.035 78.172 141.979 78.3088 142.221C78.4068 142.394 78.334 142.623 78.0859 142.92C78.0086 143.012 77.9264 143.082 77.8534 143.137C77.9138 143.173 77.968 143.229 77.9899 143.315C78.0416 143.521 77.8646 143.728 77.4642 143.929C77.3647 143.98 77.2308 144.047 77.0432 144.079C76.9549 144.095 76.8753 144.098 76.8072 144.1C76.8058 144.14 76.7966 144.182 76.7726 144.226C76.7022 144.355 76.5558 144.417 76.3352 144.402C76.0924 144.39 75.8925 144.343 75.7162 144.303C75.5622 144.267 75.4295 144.237 75.3253 144.244C75.1322 144.26 74.9833 144.415 74.8086 144.615L74.3725 145.125Z" fill="#F2F2F2"/>
<path d="M74.8127 140.068L74.0153 140.375L73.942 140.349C73.603 140.23 73.2957 140.205 73.0285 140.274C72.986 140.285 72.944 140.298 72.9013 140.311C72.732 140.364 72.5216 140.43 72.2442 140.384C72.0894 140.358 71.723 140.267 71.6937 139.993C71.6851 139.92 71.7035 139.858 71.731 139.807L71.6967 139.796C71.5503 139.747 71.4797 139.696 71.4118 139.647C71.3595 139.61 71.3057 139.571 71.1885 139.519C71.1371 139.496 71.0928 139.479 71.0556 139.465C70.943 139.421 70.8066 139.362 70.7675 139.205C70.7315 139.036 70.847 138.912 70.9234 138.829C71.0596 138.683 71.1651 138.605 71.2351 138.553C71.2607 138.535 71.2894 138.513 71.2976 138.504C71.3628 138.429 71.1737 138.01 71.1034 137.852C70.9442 137.497 70.8064 137.19 71.0058 136.997C71.1483 136.858 71.3881 136.87 71.7378 137.035C71.8467 137.086 71.9354 137.148 72.0071 137.205C72.0266 137.137 72.0665 137.071 72.145 137.027C72.331 136.925 72.5754 137.044 72.8722 137.38C72.9462 137.464 73.0452 137.576 73.1241 137.749C73.1612 137.831 73.185 137.907 73.2042 137.972C73.2427 137.964 73.2863 137.962 73.3348 137.974C73.4776 138.009 73.5742 138.135 73.6159 138.352C73.6652 138.59 73.6711 138.796 73.6765 138.976C73.6815 139.134 73.6862 139.27 73.7193 139.369C73.7834 139.552 73.9707 139.657 74.209 139.775L74.8127 140.068Z" fill="#F2F2F2"/>
<path d="M74.3725 137.567L74.2773 136.718L74.3208 136.654C74.522 136.356 74.6245 136.065 74.6257 135.789C74.6259 135.745 74.6239 135.701 74.6218 135.657C74.6136 135.479 74.6034 135.259 74.7182 135.002C74.7826 134.859 74.9634 134.528 75.2353 134.569C75.3085 134.579 75.3639 134.613 75.4059 134.652L75.4252 134.622C75.5099 134.493 75.5769 134.437 75.6415 134.384C75.6911 134.343 75.7424 134.301 75.8228 134.201C75.858 134.157 75.8855 134.118 75.9087 134.086C75.979 133.988 76.0709 133.871 76.2329 133.873C76.4059 133.881 76.4966 134.024 76.5566 134.119C76.6639 134.288 76.7125 134.41 76.7447 134.491C76.7564 134.52 76.7697 134.553 76.7765 134.564C76.8322 134.646 77.2856 134.569 77.4564 134.541C77.84 134.477 78.172 134.422 78.3088 134.664C78.4068 134.837 78.334 135.066 78.0859 135.362C78.0086 135.454 77.9264 135.525 77.8534 135.579C77.9138 135.616 77.968 135.671 77.9899 135.758C78.0416 135.964 77.8646 136.17 77.4642 136.372C77.3647 136.422 77.2308 136.489 77.0432 136.522C76.9549 136.537 76.8753 136.541 76.8072 136.543C76.8058 136.582 76.7966 136.625 76.7726 136.669C76.7022 136.798 76.5558 136.859 76.3352 136.845C76.0924 136.832 75.8925 136.786 75.7162 136.745C75.5622 136.71 75.4295 136.68 75.3253 136.687C75.1322 136.702 74.9833 136.857 74.8086 137.057L74.3725 137.567Z" fill="#F2F2F2"/>
<path d="M75.2404 154.047L75.0624 153.936L74.8549 153.959C74.8516 153.94 74.8403 153.896 74.8233 153.827C74.7304 153.447 74.4472 152.291 74.211 150.471C74.0462 149.201 73.9529 147.895 73.9336 146.588C73.9143 145.28 73.9763 144.29 74.0259 143.494C74.0634 142.893 74.1089 142.322 74.1536 141.765C74.2726 140.277 74.3847 138.872 74.3013 137.316C74.2828 136.968 74.244 136.245 73.8217 135.476C73.5766 135.03 73.2391 134.634 72.8184 134.299L73.08 133.97C73.5444 134.34 73.9178 134.779 74.1899 135.274C74.6582 136.127 74.7005 136.915 74.7208 137.294C74.8057 138.877 74.6923 140.296 74.5721 141.798C74.5278 142.353 74.4823 142.922 74.445 143.52C74.3958 144.309 74.3345 145.29 74.3536 146.582C74.3724 147.872 74.4647 149.163 74.6273 150.417C74.8606 152.214 75.1397 153.352 75.2314 153.726C75.2802 153.926 75.2904 153.968 75.2404 154.047Z" fill="#F2F2F2"/>
<path d="M72.0405 134.969C72.0232 134.969 72.0058 134.969 71.9882 134.968C71.6306 134.948 71.2994 134.734 71.0037 134.332C70.8651 134.142 70.7942 133.926 70.6527 133.495C70.6308 133.429 70.5241 133.091 70.4593 132.628C70.4169 132.325 70.4222 132.198 70.4823 132.086C70.5489 131.961 70.6568 131.874 70.7782 131.816C70.7729 131.775 70.7772 131.734 70.7946 131.692C70.8662 131.517 71.0564 131.54 71.1594 131.551C71.2114 131.557 71.2764 131.566 71.3466 131.562C71.4569 131.557 71.5161 131.524 71.606 131.475C71.6919 131.428 71.7987 131.369 71.9572 131.337C72.2697 131.271 72.5315 131.36 72.6179 131.389C73.072 131.54 73.296 131.894 73.5551 132.302C73.6068 132.384 73.7842 132.683 73.9013 133.092C73.9857 133.388 73.9738 133.519 73.9484 133.616C73.8967 133.817 73.7747 133.932 73.4649 134.185C73.1413 134.45 72.9789 134.583 72.8395 134.664C72.5149 134.852 72.3111 134.969 72.0405 134.969Z" fill="#F2F2F2"/>
<path d="M249.648 68.4813L251.517 66.9865C250.065 66.8263 249.469 67.6182 249.225 68.2449C248.09 67.7739 246.855 68.3912 246.855 68.3912L250.595 69.7488C250.406 69.2449 250.078 68.8052 249.648 68.4813Z" fill="#3F3D56"/>
<path d="M252.906 71.2645L254.775 69.7697C253.323 69.6095 252.727 70.4014 252.482 71.0281C251.348 70.5571 250.113 71.1744 250.113 71.1744L253.853 72.532C253.664 72.0281 253.336 71.5884 252.906 71.2645Z" fill="#3F3D56"/>
<path d="M258.732 101.337C258.094 100.531 257.833 100.342 257.203 99.5281C252.074 92.8945 247.253 86.0368 242.741 78.9551C239.675 74.1454 236.762 69.2434 234.001 64.2491C232.686 61.8747 231.408 59.4817 230.165 57.07C229.201 55.2001 228.259 53.319 227.337 51.4267C227.074 50.8862 226.818 50.3432 226.563 49.799C225.963 48.5192 225.374 47.2333 224.742 45.9709C224.021 44.5321 223.144 43.0237 221.821 42.0571C221.219 41.5991 220.498 41.322 219.745 41.2582C218.667 41.1886 217.673 41.6334 216.739 42.1192C209.896 45.7165 203.509 50.1211 197.714 55.2386C191.911 60.3355 186.723 66.0938 182.258 72.396C182.121 72.5911 181.798 72.4047 181.936 72.2084C182.479 71.4406 183.033 70.681 183.597 69.9297C190.616 60.5944 199.223 52.5666 209.023 46.2132C210.672 45.1447 212.352 44.1262 214.063 43.1579C214.925 42.6696 215.791 42.1875 216.672 41.7353C217.536 41.2917 218.452 40.8929 219.439 40.878C222.796 40.8258 224.534 44.6278 225.728 47.1861C226.104 47.9912 226.483 48.7938 226.868 49.594C228.32 52.6319 229.829 55.642 231.393 58.6244C232.358 60.4657 233.345 62.2963 234.353 64.1161C237.489 69.7831 240.822 75.3353 244.352 80.7729C249.029 87.9755 253.668 94.3383 258.996 101.074C259.143 101.26 258.88 101.526 258.732 101.337Z" fill="#E4E4E4"/>
<g opacity="0.4" filter="url(#filter0_d_264_2485)">
<rect x="12.1562" y="12.2285" width="306" height="150" rx="8" fill="black"/>
</g>
<path d="M31.8406 27.0566C31.8406 29.2129 33.1609 31.4941 35.2469 32.4941L34.4031 33.6191C32.8797 32.9004 31.7312 31.4395 31.1375 29.7285C30.5203 31.5801 29.3016 33.127 27.7 33.8691L26.8719 32.7285C29.0047 31.752 30.3797 29.3613 30.3875 27.0566V26.1348H27.2937V24.9473H30.3719V22.8379H31.8719V24.9473H34.9187V26.1348H31.8406V27.0566ZM36.4656 36.5566V22.5566H37.95V28.1973H40.2V29.4473H37.95V36.5566H36.4656ZM53.5188 24.6504V25.8848H51.4719V27.6035H53.5188V28.8379H51.4719V31.0254H49.9875V22.5723H51.4719V24.6504H53.5188ZM41.0344 24.6191V23.416H47.4094V27.3379H42.5344V29.041C44.9641 29.041 46.6828 28.9473 48.7219 28.6035L48.8781 29.8066C46.7141 30.1895 44.8625 30.2754 42.175 30.2598H41.05V26.1973H45.9563V24.6191H41.0344ZM42.2375 33.9629C42.2375 32.3379 44.0266 31.3691 46.9406 31.3691C49.8156 31.3691 51.5969 32.3379 51.5969 33.9629C51.5969 35.5879 49.8156 36.5254 46.9406 36.5254C44.0266 36.5254 42.2375 35.5879 42.2375 33.9629ZM43.6906 33.9629C43.6828 34.877 44.8859 35.4004 46.9406 35.3848C48.9641 35.4004 50.1516 34.877 50.1438 33.9629C50.1516 33.0566 48.9641 32.5332 46.9406 32.541C44.8859 32.5332 43.6828 33.0566 43.6906 33.9629Z" fill="white"/>
<defs>
<filter id="filter0_d_264_2485" x="0.15625" y="0.228516" width="330" height="174" filterUnits="userSpaceOnUse" color-interpolation-filters="sRGB">
<feFlood flood-opacity="0" result="BackgroundImageFix"/>
<feColorMatrix in="SourceAlpha" type="matrix" values="0 0 0 0 0 0 0 0 0 0 0 0 0 0 0 0 0 0 127 0" result="hardAlpha"/>
<feOffset/>
<feGaussianBlur stdDeviation="6"/>
<feComposite in2="hardAlpha" operator="out"/>
<feColorMatrix type="matrix" values="0 0 0 0 0 0 0 0 0 0 0 0 0 0 0 0 0 0 0.14 0"/>
<feBlend mode="normal" in2="BackgroundImageFix" result="effect1_dropShadow_264_2485"/>
<feBlend mode="normal" in="SourceGraphic" in2="effect1_dropShadow_264_2485" result="shape"/>
</filter>
<radialGradient id="paint0_radial_264_2485" cx="0" cy="0" r="1" gradientUnits="userSpaceOnUse" gradientTransform="translate(90.7307 137.57) rotate(4.99947) scale(212.671 37.6231)">
<stop stop-color="#0B9596"/>
<stop offset="1" stop-color="white"/>
</radialGradient>
</defs>
</svg>
