<svg width="170" height="170" viewBox="0 0 170 170" fill="none" xmlns="http://www.w3.org/2000/svg">
<g opacity="0.3">
<path d="M127.607 117.539H113.866V142.433C113.866 144.844 109.708 149.082 107.629 149.31H133.455C130.414 149.31 127.607 144.735 127.607 142.433V117.539Z" fill="#8EDB9B"/>
<path d="M63.3301 117.539H49.5888V142.433C49.5888 144.844 45.4306 149.082 43.3516 149.31H69.1774C66.1367 149.31 63.3301 144.735 63.3301 142.433V117.539Z" fill="#8EDB9B"/>
<path fill-rule="evenodd" clip-rule="evenodd" d="M51.1225 45.9798L36.8679 73.5156C35.751 75.673 37.3169 78.2467 39.7462 78.2467H41.2008L32.228 98.405C31.2739 100.549 32.8428 102.964 35.1891 102.964H38.0358L27.7934 122.119C27.0168 123.571 27.4427 125.392 28.8694 126.214C33.9631 129.15 40.839 131.285 52.9777 131.683V131.751C53.705 131.751 54.4155 131.745 55.1098 131.735C55.8042 131.745 56.5147 131.751 57.2419 131.751V131.683C69.3807 131.285 76.2565 129.15 81.3502 126.214C82.777 125.392 83.2028 123.571 82.4263 122.119L72.1838 102.964H75.0306C77.3769 102.964 78.9458 100.549 77.9917 98.405L69.0188 78.2467H70.4734C72.9028 78.2467 74.4686 75.673 73.3518 73.5156L59.0972 45.9798C58.249 44.3413 56.5158 43.9208 55.1098 44.4231C53.7038 43.9208 51.9707 44.3413 51.1225 45.9798Z" fill="#8EDB9B"/>
<path d="M81.4491 114.699V139.77C81.4491 144.489 78.6907 149.158 74.8783 149.158H103.604C101.662 148.724 97.7529 146.238 97.647 139.77C97.5411 133.301 97.6029 120.361 97.647 114.699H81.4491Z" fill="#5FBA8E"/>
<path d="M35.5625 157.762C39.4427 157.762 108.502 158.027 142.523 157.762C142.302 154.894 139.69 149.158 131.006 149.158H103.604H74.8783H51.5461C46.0477 149.158 39.4368 148.995 36.6388 153.728C35.9809 154.841 35.5625 156.177 35.5625 157.762Z" fill="#5FBA8E"/>
<path fill-rule="evenodd" clip-rule="evenodd" d="M111.693 40.9436L97.4382 68.4794C96.3213 70.6368 97.8872 73.2106 100.317 73.2106H101.771L92.7983 93.3689C91.8442 95.5124 93.4131 97.9281 95.7594 97.9281H98.6061L88.3637 117.083C87.5872 118.535 88.013 120.356 89.4397 121.178C94.5334 124.114 101.409 126.248 113.548 126.647V126.715C114.275 126.715 114.986 126.709 115.68 126.698C116.374 126.709 117.085 126.715 117.812 126.715V126.647C129.951 126.248 136.827 124.114 141.921 121.178C143.347 120.356 143.773 118.535 142.997 117.083L132.754 97.9281H135.601C137.947 97.9281 139.516 95.5124 138.562 93.3689L129.589 73.2106H131.044C133.473 73.2106 135.039 70.6368 133.922 68.4794L119.668 40.9436C118.819 39.3051 117.086 38.8846 115.68 39.387C114.274 38.8846 112.541 39.3051 111.693 40.9436Z" fill="#8EDB9B"/>
<path fill-rule="evenodd" clip-rule="evenodd" d="M90.5553 17.757L114.214 55.1432C115.579 57.3013 114.029 60.1175 111.475 60.1175H107.619L120.817 84.3742C121.992 86.5339 120.429 89.1644 117.97 89.1644H112.165L126.946 111.778C127.97 113.344 127.465 115.459 125.78 116.274C118.418 119.833 108.497 122.436 90.7028 122.914L90.7037 122.993C89.6588 122.993 88.638 122.987 87.6405 122.974C86.6423 122.987 85.6209 122.993 84.5753 122.993V122.914C66.7818 122.435 56.8608 119.833 49.4989 116.274C47.8144 115.459 47.3089 113.344 48.3327 111.778L63.1137 89.1644H57.3088C54.8501 89.1644 53.2867 86.5339 54.4618 84.3742L67.6603 60.1175H63.6676C61.1428 60.1175 59.5875 57.3583 60.8947 55.1982L83.5147 17.8227C84.3349 16.4675 85.7682 16.0466 87.0299 16.3457C88.2814 16.0303 89.7133 16.4263 90.5553 17.757Z" fill="#5FBA8E"/>
</g>
</svg>
