<svg width="21" height="21" viewBox="0 0 21 21" fill="none" xmlns="http://www.w3.org/2000/svg">
<circle cx="10.8047" cy="10.9355" r="9.5" fill="#27342E" stroke="#767676"/>
<path d="M14.8047 10.9355C14.8047 11.2008 14.6993 11.4551 14.5118 11.6427C14.3243 11.8302 14.0699 11.9355 13.8047 11.9355H11.8047V13.9355C11.8047 14.2008 11.6993 14.4551 11.5118 14.6427C11.3243 14.8302 11.0699 14.9355 10.8047 14.9355C10.5395 14.9355 10.2851 14.8302 10.0976 14.6427C9.91004 14.4551 9.80469 14.2008 9.80469 13.9355V11.9355H7.80469C7.53947 11.9355 7.28512 11.8302 7.09758 11.6427C6.91004 11.4551 6.80469 11.2008 6.80469 10.9355C6.80469 10.6703 6.91004 10.416 7.09758 10.2284C7.28512 10.0409 7.53947 9.93555 7.80469 9.93555H9.80469V7.93555C9.80469 7.67033 9.91004 7.41598 10.0976 7.22844C10.2851 7.0409 10.5395 6.93555 10.8047 6.93555C11.0699 6.93555 11.3243 7.0409 11.5118 7.22844C11.6993 7.41598 11.8047 7.67033 11.8047 7.93555V9.93555H13.8047C14.0699 9.93555 14.3243 10.0409 14.5118 10.2284C14.6993 10.416 14.8047 10.6703 14.8047 10.9355Z" fill="#767676"/>
</svg>
