<svg width="25" height="24" viewBox="0 0 25 24" fill="none" xmlns="http://www.w3.org/2000/svg">
<path d="M9.42257 17.1353V18.1613C9.42257 18.9775 9.74683 19.7604 10.324 20.3376C10.9012 20.9147 11.6841 21.239 12.5003 21.239C13.3166 21.239 14.0994 20.9147 14.6766 20.3376C15.2538 19.7604 15.5781 18.9775 15.5781 18.1613V17.1353M10.4485 4.8243C10.4485 4.28012 10.6647 3.75822 11.0495 3.37343C11.4343 2.98864 11.9561 2.77246 12.5003 2.77246C13.0445 2.77246 13.5664 2.98864 13.9512 3.37343C14.336 3.75822 14.5522 4.28012 14.5522 4.8243C15.7303 5.3814 16.7347 6.24861 17.4576 7.33298C18.1805 8.41735 18.5947 9.678 18.6558 10.9798V14.0576C18.733 14.6954 18.9589 15.3062 19.3153 15.8408C19.4601 16.058 19.6249 16.2601 19.8069 16.4449C20.0233 16.6644 19.8773 17.1353 19.5691 17.1353H5.43157C5.12331 17.1353 4.97738 16.6644 5.19375 16.4449C5.3758 16.2601 5.54052 16.058 5.68533 15.8408C6.04172 15.3062 6.2676 14.6954 6.34481 14.0576V10.9798C6.40591 9.678 6.82012 8.41735 7.54303 7.33298C8.26594 6.24861 9.27031 5.3814 10.4485 4.8243Z" stroke="#27342E" stroke-width="2" stroke-linecap="round" stroke-linejoin="round"/>
</svg>
