<svg width="15" height="20" viewBox="0 0 15 20" fill="none" xmlns="http://www.w3.org/2000/svg">
<path d="M5.44849 2.97078C5.44849 2.4266 5.66466 1.90471 6.04946 1.51991C6.43425 1.13512 6.95614 0.918945 7.50033 0.918945C8.04451 0.918945 8.5664 1.13512 8.95119 1.51991C9.33599 1.90471 9.55216 2.4266 9.55216 2.97078C10.7303 3.52789 11.7347 4.3951 12.4576 5.47946C13.1805 6.56383 13.5947 7.82448 13.6558 9.1263V12.2041C13.733 12.8419 13.9589 13.4527 14.3153 13.9872C14.4601 14.2045 14.6249 14.4066 14.8069 14.5914C15.0233 14.8109 14.8773 15.2818 14.5691 15.2818H0.431573C0.123314 15.2818 -0.0226188 14.8109 0.193754 14.5914C0.375799 14.4066 0.540518 14.2045 0.685334 13.9872C1.04172 13.4527 1.2676 12.8419 1.34481 12.2041V9.1263C1.40591 7.82448 1.82012 6.56383 2.54303 5.47946C3.26594 4.3951 4.27031 3.52789 5.44849 2.97078Z" fill="#A2A2A2"/>
<path d="M4.42257 15.2818V16.3077C4.42257 17.124 4.74683 17.9068 5.32402 18.484C5.90121 19.0612 6.68405 19.3855 7.50033 19.3855C8.3166 19.3855 9.09944 19.0612 9.67663 18.484C10.2538 17.9068 10.5781 17.124 10.5781 16.3077V15.2818" fill="#A2A2A2"/>
</svg>
