<svg width="53" height="53" viewBox="0 0 53 53" fill="none" xmlns="http://www.w3.org/2000/svg">
<rect x="0.382812" y="0.448242" width="52" height="52" rx="12" fill="#F8F8F8"/>
<path d="M39.5449 36.4587H35.3052V44.1395C35.3052 44.8833 34.0223 46.1908 33.3809 46.261H41.3489C40.4108 46.261 39.5449 44.8495 39.5449 44.1395V36.4587Z" fill="#8EDB9B"/>
<path d="M19.7109 36.4587H15.4713V44.1395C15.4713 44.8833 14.1883 46.1908 13.5469 46.261H21.515C20.5768 46.261 19.7109 44.8495 19.7109 44.1395V36.4587Z" fill="#8EDB9B"/>
<path fill-rule="evenodd" clip-rule="evenodd" d="M15.9469 14.3804L11.5489 22.8761C11.2043 23.5417 11.6874 24.3358 12.4369 24.3358H12.8857L10.1173 30.5553C9.82294 31.2167 10.307 31.962 11.0309 31.962H11.9092L8.74909 37.8718C8.50951 38.3199 8.64089 38.8817 9.08109 39.1354C10.6527 40.0412 12.7741 40.6997 16.5193 40.8228V40.8436C16.7437 40.8436 16.9629 40.8419 17.1771 40.8386C17.3913 40.8419 17.6105 40.8436 17.8349 40.8436V40.8228C21.5801 40.6997 23.7015 40.0412 25.2731 39.1354C25.7133 38.8817 25.8447 38.3199 25.6051 37.8718L22.445 31.962H23.3233C24.0472 31.962 24.5313 31.2167 24.2369 30.5553L21.4685 24.3358H21.9173C22.6668 24.3358 23.1499 23.5417 22.8053 22.8761L18.4073 14.3804C18.1456 13.8749 17.6109 13.7452 17.1771 13.9002C16.7433 13.7452 16.2086 13.8749 15.9469 14.3804Z" fill="#8EDB9B"/>
<path d="M25.304 35.5829V43.318C25.304 44.7739 24.4529 46.2145 23.2767 46.2145H32.1394C31.5404 46.0806 30.3342 45.3138 30.3015 43.318C30.2689 41.3223 30.2879 37.3297 30.3015 35.5829H25.304Z" fill="#5FBA8E"/>
<path d="M11.1465 48.8693C12.3437 48.8693 33.6506 48.951 44.1471 48.8693C44.079 47.9844 43.2731 46.2145 40.5938 46.2145H32.1394H23.2767H16.0779C14.3815 46.2145 12.3418 46.1643 11.4785 47.6247C11.2756 47.968 11.1465 48.3802 11.1465 48.8693Z" fill="#5FBA8E"/>
<path fill-rule="evenodd" clip-rule="evenodd" d="M34.6363 12.8262L30.2383 21.3219C29.8937 21.9875 30.3769 22.7816 31.1264 22.7816H31.5752L28.8068 29.0011C28.5124 29.6624 28.9965 30.4077 29.7204 30.4077H30.5987L27.4385 36.3176C27.199 36.7656 27.3303 37.3274 27.7705 37.5811C29.3421 38.4869 31.4635 39.1455 35.2087 39.2685V39.2893C35.4331 39.2893 35.6523 39.2876 35.8666 39.2843C36.0808 39.2876 36.3 39.2893 36.5244 39.2893V39.2685C40.2696 39.1455 42.391 38.4869 43.9626 37.5811C44.4028 37.3274 44.5341 36.7656 44.2946 36.3176L41.1344 30.4077H42.0127C42.7366 30.4077 43.2207 29.6624 42.9263 29.0011L40.1579 22.7816H40.6067C41.3562 22.7816 41.8394 21.9875 41.4948 21.3219L37.0968 12.8262C36.8351 12.3207 36.3004 12.1909 35.8666 12.3459C35.4328 12.1909 34.898 12.3207 34.6363 12.8262Z" fill="#8EDB9B"/>
<path fill-rule="evenodd" clip-rule="evenodd" d="M28.1138 5.67262L35.4131 17.2075C35.8345 17.8733 35.3561 18.7422 34.5681 18.7422H33.3784L37.4505 26.2262C37.8131 26.8925 37.3307 27.7041 36.5721 27.7041H34.7811L39.3416 34.681C39.6574 35.1642 39.5015 35.8169 38.9817 36.0681C36.7103 37.1664 33.6493 37.9693 28.1593 38.117L28.1595 38.1414C27.8372 38.1414 27.5222 38.1394 27.2144 38.1355C26.9065 38.1394 26.5913 38.1414 26.2688 38.1414V38.1169C20.7789 37.9693 17.7179 37.1664 15.4466 36.0681C14.9268 35.8168 14.7709 35.1642 15.0867 34.681L19.6471 27.7041H17.8562C17.0976 27.7041 16.6152 26.8925 16.9778 26.2262L21.0499 18.7422H19.8181C19.0391 18.7422 18.5592 17.8909 18.9625 17.2244L25.9415 5.69289C26.1946 5.27477 26.6368 5.14491 27.0261 5.23721C27.4122 5.13989 27.854 5.26207 28.1138 5.67262Z" fill="#5FBA8E"/>
</svg>
