<svg width="62" height="24" viewBox="0 0 62 24" fill="none" xmlns="http://www.w3.org/2000/svg">
<rect width="62" height="24" rx="12" fill="#F7B787"/>
<path d="M12.2 16.204C11.472 16.204 10.836 16.068 10.292 15.796C9.756 15.516 9.34 15.116 9.044 14.596C8.748 14.068 8.6 13.432 8.6 12.688C8.6 12.024 8.712 11.4 8.936 10.816C9.168 10.232 9.492 9.72 9.908 9.28C10.332 8.832 10.828 8.484 11.396 8.236C11.964 7.98 12.588 7.852 13.268 7.852C13.668 7.852 14.048 7.896 14.408 7.984C14.768 8.072 15.136 8.22 15.512 8.428L15.224 10.264H14.9L14.6 9.1C14.52 8.764 14.376 8.532 14.168 8.404C13.968 8.276 13.692 8.212 13.34 8.212C12.724 8.212 12.18 8.404 11.708 8.788C11.244 9.164 10.88 9.692 10.616 10.372C10.36 11.044 10.232 11.824 10.232 12.712C10.232 13.68 10.428 14.448 10.82 15.016C11.22 15.576 11.784 15.856 12.512 15.856C12.816 15.856 13.056 15.8 13.232 15.688C13.416 15.568 13.576 15.392 13.712 15.16L14.48 13.816H14.804L14.516 15.64C14.196 15.8 13.86 15.932 13.508 16.036C13.156 16.148 12.72 16.204 12.2 16.204ZM17.4396 9.352C17.2156 9.352 17.0236 9.28 16.8636 9.136C16.7036 8.992 16.6236 8.796 16.6236 8.548C16.6236 8.284 16.7196 8.064 16.9116 7.888C17.1036 7.712 17.3196 7.624 17.5596 7.624C17.7916 7.624 17.9836 7.7 18.1356 7.852C18.2876 7.996 18.3636 8.184 18.3636 8.416C18.3636 8.672 18.2676 8.892 18.0756 9.076C17.8916 9.26 17.6796 9.352 17.4396 9.352ZM16.3356 16.168C16.0956 16.168 15.8956 16.108 15.7356 15.988C15.5836 15.86 15.5076 15.676 15.5076 15.436C15.5076 15.3 15.5236 15.136 15.5556 14.944C15.5876 14.752 15.6236 14.556 15.6636 14.356L16.2276 11.644C16.2996 11.308 16.1756 11.08 15.8556 10.96L15.6876 10.888L15.7116 10.672L17.8716 10.048L17.9916 10.168L17.0796 14.452C17.0476 14.588 17.0236 14.708 17.0076 14.812C16.9916 14.908 16.9836 15 16.9836 15.088C16.9836 15.264 17.0636 15.352 17.2236 15.352C17.4156 15.352 17.6676 15.2 17.9796 14.896L18.1356 15.052C17.9356 15.348 17.6836 15.608 17.3796 15.832C17.0836 16.056 16.7356 16.168 16.3356 16.168ZM19.6752 16.168C19.4272 16.168 19.2232 16.108 19.0632 15.988C18.9112 15.86 18.8352 15.672 18.8352 15.424C18.8352 15.12 18.8832 14.752 18.9792 14.32L19.7832 10.6H18.7632L18.8112 10.348L19.2912 10.3C19.6992 10.244 20.0352 10.052 20.2992 9.724L21.2352 8.596H21.6072L21.2712 10.24H22.6032L22.5312 10.624L21.1872 10.6L20.3952 14.44C20.3632 14.584 20.3392 14.712 20.3232 14.824C20.3072 14.928 20.2992 15.016 20.2992 15.088C20.2992 15.168 20.3232 15.232 20.3712 15.28C20.4192 15.328 20.4752 15.352 20.5392 15.352C20.7072 15.352 20.9632 15.18 21.3072 14.836L21.4992 14.992C21.2992 15.288 21.0432 15.56 20.7312 15.808C20.4272 16.048 20.0752 16.168 19.6752 16.168ZM21.9053 18.772C21.6333 18.772 21.4053 18.7 21.2213 18.556C21.0293 18.412 20.9333 18.216 20.9333 17.968C20.9333 17.76 21.0053 17.588 21.1493 17.452C21.2933 17.324 21.4733 17.26 21.6893 17.26C21.8093 17.26 21.9253 17.28 22.0373 17.32C22.1493 17.36 22.2653 17.428 22.3853 17.524C22.5453 17.66 22.7013 17.744 22.8533 17.776C23.0053 17.808 23.1653 17.76 23.3333 17.632C23.4453 17.544 23.5533 17.452 23.6573 17.356C23.7613 17.26 23.8693 17.156 23.9813 17.044C24.0293 16.996 24.0773 16.944 24.1253 16.888C24.0213 16.064 23.9093 15.276 23.7893 14.524C23.6773 13.772 23.5573 12.976 23.4293 12.136C23.3893 11.816 23.3493 11.58 23.3093 11.428C23.2773 11.276 23.2373 11.176 23.1893 11.128C23.1413 11.08 23.0853 11.056 23.0213 11.056C22.9413 11.056 22.8533 11.092 22.7573 11.164C22.6613 11.236 22.5493 11.364 22.4213 11.548L22.2413 11.356C22.7693 10.492 23.3213 10.06 23.8973 10.06C24.1933 10.06 24.4053 10.16 24.5333 10.36C24.6693 10.56 24.7573 10.88 24.7973 11.32C24.8773 12.08 24.9493 12.796 25.0133 13.468C25.0773 14.14 25.1413 14.832 25.2053 15.544C25.4933 14.88 25.7373 14.224 25.9373 13.576C26.1453 12.928 26.3453 12.208 26.5373 11.416C26.6653 10.872 26.8053 10.504 26.9573 10.312C27.1173 10.12 27.3213 10.024 27.5693 10.024C27.7373 10.024 27.8853 10.076 28.0133 10.18C28.1493 10.284 28.2173 10.428 28.2173 10.612C28.2173 10.804 28.1813 10.984 28.1093 11.152C28.0373 11.32 27.9333 11.532 27.7973 11.788C27.6693 12.028 27.5293 12.284 27.3773 12.556C27.2253 12.828 27.0453 13.136 26.8373 13.48C26.6133 13.84 26.3733 14.228 26.1173 14.644C25.8693 15.06 25.5773 15.504 25.2413 15.976C25.0653 16.224 24.8733 16.48 24.6653 16.744C24.4653 17.008 24.2173 17.296 23.9213 17.608C23.5853 17.96 23.2493 18.24 22.9133 18.448C22.5853 18.664 22.2493 18.772 21.9053 18.772ZM32.1929 16.096L32.0849 16.012C32.0129 15.14 31.9369 14.332 31.8569 13.588C31.7849 12.844 31.7129 12.12 31.6409 11.416C31.6169 11.216 31.5769 11.092 31.5209 11.044C31.4729 10.988 31.4089 10.96 31.3289 10.96C31.1849 10.96 30.9929 11.1 30.7529 11.38L30.5849 11.188C31.1049 10.436 31.6249 10.06 32.1449 10.06C32.7049 10.06 33.0129 10.424 33.0689 11.152C33.1249 11.72 33.1769 12.332 33.2249 12.988C33.2729 13.636 33.3209 14.32 33.3689 15.04C33.6729 14.672 33.9569 14.312 34.2209 13.96C34.4849 13.608 34.7489 13.224 35.0129 12.808C35.1329 12.608 35.2009 12.42 35.2169 12.244C35.2329 12.06 35.2049 11.86 35.1329 11.644L34.9529 11.176C34.8489 10.872 34.8649 10.608 35.0009 10.384C35.1449 10.152 35.3529 10.036 35.6249 10.036C35.8889 10.036 36.0769 10.112 36.1889 10.264C36.3009 10.416 36.3569 10.608 36.3569 10.84C36.3569 10.992 36.3209 11.176 36.2489 11.392C36.1769 11.608 36.0249 11.912 35.7929 12.304C35.4729 12.864 35.0649 13.472 34.5689 14.128C34.0729 14.776 33.5169 15.408 32.9009 16.024L32.1929 16.096ZM38.3107 9.352C38.0867 9.352 37.8947 9.28 37.7347 9.136C37.5747 8.992 37.4947 8.796 37.4947 8.548C37.4947 8.284 37.5907 8.064 37.7827 7.888C37.9747 7.712 38.1907 7.624 38.4307 7.624C38.6627 7.624 38.8547 7.7 39.0067 7.852C39.1587 7.996 39.2347 8.184 39.2347 8.416C39.2347 8.672 39.1387 8.892 38.9467 9.076C38.7627 9.26 38.5507 9.352 38.3107 9.352ZM37.2067 16.168C36.9667 16.168 36.7667 16.108 36.6067 15.988C36.4547 15.86 36.3787 15.676 36.3787 15.436C36.3787 15.3 36.3947 15.136 36.4267 14.944C36.4587 14.752 36.4947 14.556 36.5347 14.356L37.0987 11.644C37.1707 11.308 37.0467 11.08 36.7267 10.96L36.5587 10.888L36.5827 10.672L38.7427 10.048L38.8627 10.168L37.9507 14.452C37.9187 14.588 37.8947 14.708 37.8787 14.812C37.8627 14.908 37.8547 15 37.8547 15.088C37.8547 15.264 37.9347 15.352 38.0947 15.352C38.2867 15.352 38.5387 15.2 38.8507 14.896L39.0067 15.052C38.8067 15.348 38.5547 15.608 38.2507 15.832C37.9547 16.056 37.6067 16.168 37.2067 16.168ZM41.4222 16.168C40.8302 16.168 40.3462 15.976 39.9702 15.592C39.6022 15.208 39.4182 14.652 39.4182 13.924C39.4182 13.42 39.5062 12.936 39.6822 12.472C39.8582 12.008 40.0982 11.596 40.4022 11.236C40.7142 10.868 41.0782 10.58 41.4942 10.372C41.9102 10.164 42.3582 10.06 42.8382 10.06C43.3342 10.06 43.7102 10.172 43.9662 10.396C44.2302 10.62 44.3622 10.92 44.3622 11.296C44.3622 11.752 44.0582 12.204 43.4502 12.652C42.8502 13.092 41.9782 13.436 40.8342 13.684C40.8582 14.204 40.9822 14.584 41.2062 14.824C41.4302 15.064 41.7382 15.184 42.1302 15.184C42.4822 15.184 42.7982 15.092 43.0782 14.908C43.3582 14.724 43.5942 14.508 43.7862 14.26L43.9662 14.392C43.8062 14.696 43.5982 14.984 43.3422 15.256C43.0942 15.528 42.8102 15.748 42.4902 15.916C42.1702 16.084 41.8142 16.168 41.4222 16.168ZM42.7182 10.468C42.5342 10.468 42.3382 10.548 42.1302 10.708C41.9222 10.86 41.7222 11.072 41.5302 11.344C41.3462 11.608 41.1902 11.916 41.0622 12.268C40.9342 12.612 40.8582 12.98 40.8342 13.372C41.7302 13.108 42.3582 12.78 42.7182 12.388C43.0862 11.996 43.2702 11.58 43.2702 11.14C43.2702 10.908 43.2182 10.74 43.1142 10.636C43.0102 10.524 42.8782 10.468 42.7182 10.468ZM46.1406 16.096L46.0206 16.012C45.9486 15.14 45.8726 14.34 45.7926 13.612C45.7206 12.876 45.6446 12.168 45.5646 11.488C45.5486 11.304 45.5126 11.188 45.4566 11.14C45.4006 11.084 45.3326 11.056 45.2526 11.056C45.1086 11.056 44.9166 11.176 44.6766 11.416L44.4966 11.236C45.0406 10.452 45.5646 10.06 46.0686 10.06C46.6366 10.06 46.9486 10.4 47.0046 11.08C47.0446 11.584 47.0846 12.152 47.1246 12.784C47.1726 13.408 47.2126 14.028 47.2446 14.644C47.6206 13.98 47.9926 13.284 48.3606 12.556C48.7286 11.828 49.1006 11.072 49.4766 10.288H50.2086C50.2406 10.496 50.2726 10.796 50.3046 11.188C50.3366 11.572 50.3726 11.996 50.4126 12.46C50.4526 12.916 50.4886 13.364 50.5206 13.804C50.5526 14.236 50.5846 14.608 50.6166 14.92C50.9206 14.536 51.1846 14.188 51.4086 13.876C51.6326 13.564 51.8606 13.212 52.0926 12.82C52.2046 12.62 52.2766 12.424 52.3086 12.232C52.3486 12.04 52.3326 11.844 52.2606 11.644L52.0926 11.2C51.9726 10.872 51.9846 10.596 52.1286 10.372C52.2806 10.148 52.4806 10.036 52.7286 10.036C52.9766 10.036 53.1606 10.112 53.2806 10.264C53.4006 10.408 53.4606 10.608 53.4606 10.864C53.4606 11.04 53.4206 11.236 53.3406 11.452C53.2606 11.668 53.1086 11.972 52.8846 12.364C52.5886 12.9 52.2006 13.488 51.7206 14.128C51.2406 14.76 50.7006 15.392 50.1006 16.024L49.4286 16.096L49.3086 16.012C49.2526 15.396 49.1966 14.792 49.1406 14.2C49.0846 13.6 49.0206 12.96 48.9486 12.28C48.6526 12.888 48.3246 13.524 47.9646 14.188C47.6046 14.852 47.2366 15.464 46.8606 16.024L46.1406 16.096Z" fill="white"/>
</svg>
