<svg width="19" height="19" viewBox="0 0 19 19" fill="none" xmlns="http://www.w3.org/2000/svg">
<path d="M17.7344 16.6895L10.5414 9.50041L17.7344 2.36428C18.0949 1.94678 18.0754 1.32025 17.6896 0.926311C17.3039 0.532374 16.6819 0.503841 16.2622 0.860822L9.04813 7.94401L1.96029 0.807884C1.55012 0.397372 0.887689 0.397372 0.477522 0.807884C0.278439 1.00669 0.166458 1.2773 0.166458 1.55961C0.166458 1.84192 0.278439 2.11254 0.477522 2.31134L7.55485 9.43688L0.361845 16.5624C0.162763 16.7612 0.0507812 17.0318 0.0507812 17.3142C0.0507812 17.5965 0.162763 17.8671 0.361845 18.0659C0.560304 18.2641 0.828967 18.3746 1.10849 18.3729C1.38288 18.3746 1.64705 18.2682 1.84461 18.0765L9.04813 10.9298L16.2622 18.1929C16.4606 18.3911 16.7293 18.5016 17.0088 18.5C17.2847 18.4988 17.5491 18.3885 17.7449 18.1929C17.9426 17.9927 18.0527 17.7213 18.0508 17.439C18.0488 17.1567 17.9349 16.8869 17.7344 16.6895Z" fill="#C9C9C9"/>
</svg>
