<svg width="24" height="25" viewBox="0 0 24 25" fill="none" xmlns="http://www.w3.org/2000/svg">
<path d="M16.8766 12.9999L13.8158 5.42809C13.6719 5.07207 13.197 5.00444 12.9594 5.30613L3.45394 17.3765C3.228 17.6634 3.37586 18.0878 3.73116 18.1723L13.5816 20.513C13.8231 20.5704 14.0702 20.4418 14.1619 20.211L16.8778 13.3718C16.9252 13.2523 16.9248 13.1191 16.8766 12.9999Z" fill="#2F2F2F"/>
<path d="M17.7527 13.0836L15.577 6.95174C15.4084 6.47637 15.9698 6.07866 16.3623 6.39549L17.891 7.62945C17.9669 7.69076 18.0233 7.77295 18.053 7.8659L20.0822 14.1969C20.2438 14.701 19.6137 15.0776 19.2462 14.6966L17.864 13.2635C17.8145 13.2122 17.7766 13.1508 17.7527 13.0836Z" fill="#2F2F2F"/>
<path d="M4.02824 14.8821L10.7661 6.21548C11.0859 5.80407 10.6418 5.23894 10.1664 5.45251L3.99905 8.22344C3.83532 8.297 3.72358 8.4527 3.70629 8.63137L3.13582 14.527C3.08759 15.0256 3.72083 15.2775 4.02824 14.8821Z" fill="#2F2F2F"/>
<path d="M20.5685 17.6866L18.3196 15.1346C18.0749 14.8568 17.6237 14.9321 17.4824 15.2742L15.7389 19.494C15.5686 19.9061 15.9822 20.3182 16.3937 20.1463L20.3861 18.4786C20.7019 18.3466 20.7948 17.9435 20.5685 17.6866Z" fill="#2F2F2F"/>
</svg>
