<svg width="24" height="25" viewBox="0 0 24 25" fill="none" xmlns="http://www.w3.org/2000/svg">
<path d="M7.47835 7.22168H5.86019L1.92285 14.5508H4.53489L7.47835 7.22168Z" fill="#2F2F2F"/>
<path d="M9.58305 7.22168H8.00421L5.37281 14.5508H8.00421L9.58305 7.22168Z" fill="#2F2F2F"/>
<path d="M11.7856 7.22168H10.1678L8.88134 14.5508H11.5127L11.7856 7.22168Z" fill="#2F2F2F"/>
<path d="M16.5412 7.22168H18.1593L22.0967 14.5508H19.4846L16.5412 7.22168Z" fill="#2F2F2F"/>
<path d="M14.4365 7.22168H16.0153L18.6467 14.5508H16.0153L14.4365 7.22168Z" fill="#2F2F2F"/>
<path d="M12.2339 7.22168H13.8517L15.1382 14.5508H12.5068L12.2339 7.22168Z" fill="#2F2F2F"/>
<path d="M1.90332 18.0204V14.8823H21.941V18.0204H18.7833V16.2857H5.00255V18.0204H1.90332Z" fill="#2F2F2F"/>
</svg>
