<svg width="53" height="53" viewBox="0 0 53 53" fill="none" xmlns="http://www.w3.org/2000/svg">
<rect x="0.015625" y="0.448242" width="52" height="52" rx="12" fill="#F8F8F8"/>
<path d="M31.4003 30.9707C32.8332 27.7302 32.9987 24.1763 31.8678 20.9619C31.3889 19.6023 30.6469 18.3503 29.6841 17.2775C28.7214 16.2046 27.5567 15.3319 26.2567 14.7091C24.9566 14.0864 23.5466 13.7258 22.1072 13.648C20.6678 13.5701 19.2272 13.7766 17.8676 14.2555C12.1585 16.2647 9.14784 22.545 11.157 28.254C12.2847 31.4589 14.6395 34.1223 17.7864 35.7543C19.5333 36.6557 21.4008 37.1596 23.0873 37.2135C23.2149 37.2182 23.3359 37.2717 23.4253 37.3629C23.5148 37.4541 23.5659 37.5761 23.5681 37.7038L23.5953 39.3783C23.5963 39.6067 23.6741 39.8282 23.8162 40.007C23.931 40.1493 24.0827 40.2573 24.2546 40.3193C24.4266 40.3814 24.6123 40.3951 24.7914 40.3589C24.8371 40.3497 24.8821 40.3373 24.926 40.3216L25.9851 39.949C26.0104 39.9401 26.0378 39.9396 26.0634 39.9476C26.0889 39.9555 26.1113 39.9714 26.1271 39.993C27.5981 42.0091 29.6965 43.3402 32.1209 43.7759C32.2536 43.7997 32.3898 43.7964 32.5212 43.7662C32.6525 43.736 32.7764 43.6795 32.8854 43.6001C32.9944 43.5208 33.0862 43.4202 33.1552 43.3044C33.2243 43.1886 33.2692 43.06 33.2872 42.9264C33.3596 42.3909 32.9764 41.9019 32.4447 41.8046C30.7848 41.5003 29.2786 40.638 28.1758 39.3606C28.1621 39.3453 28.1523 39.3268 28.1474 39.3068C28.1425 39.2868 28.1426 39.2659 28.1477 39.2459C28.1528 39.226 28.1628 39.2076 28.1767 39.1925C28.1907 39.1773 28.2081 39.1658 28.2276 39.1591L28.6682 39.0066C28.899 38.9284 29.0947 38.7709 29.2206 38.5623C29.3217 38.3899 29.3688 38.1911 29.3558 37.9916C29.3427 37.7921 29.2702 37.6012 29.1474 37.4434L28.1106 36.1092C28.0318 36.0078 27.9951 35.8801 28.008 35.7523C28.0209 35.6246 28.0825 35.5068 28.18 35.4233C29.4614 34.3264 30.6037 32.7698 31.4003 30.9707ZM22.127 33.9074C22.0038 33.9322 21.8771 33.9335 21.7534 33.9113C19.027 33.4212 16.4339 31.6267 14.9859 29.2283C14.9163 29.116 14.8696 28.9909 14.8486 28.8604C14.8277 28.7299 14.8328 28.5966 14.8638 28.468C14.8947 28.3395 14.9509 28.2185 15.029 28.1118C15.1071 28.0052 15.2055 27.9151 15.3187 27.8468C15.4319 27.7785 15.5575 27.7333 15.6882 27.7139C15.8189 27.6945 15.9522 27.7012 16.0804 27.7337C16.2085 27.7662 16.3289 27.8238 16.4346 27.9031C16.5403 27.9825 16.6292 28.082 16.6962 28.196C18.0822 30.4922 20.4001 31.6384 22.107 31.9461C22.3359 31.9872 22.5433 32.1068 22.6934 32.2844C22.8436 32.462 22.927 32.6864 22.9294 32.919C22.9318 33.1515 22.853 33.3776 22.7066 33.5582C22.5601 33.7389 22.3553 33.8628 22.1273 33.9086L22.127 33.9074Z" fill="#8EDB9B"/>
<path d="M40.4657 28.0949C42.8497 24.721 43.8571 20.6971 43.3046 16.7628C43.0703 15.0985 42.5104 13.4966 41.6571 12.0487C40.8037 10.6008 39.6734 9.33511 38.3309 8.32399C36.9884 7.31287 35.4598 6.57608 33.8325 6.1557C32.2053 5.73532 30.5111 5.63958 28.8468 5.87394C21.8589 6.85589 16.9717 13.3409 17.9536 20.3288C18.5047 24.2515 20.5829 27.8379 23.8039 30.4278C25.5931 31.8604 27.6116 32.8663 29.5267 33.3162C29.6715 33.351 29.7975 33.4399 29.8787 33.5648C29.96 33.6896 29.9903 33.8408 29.9634 33.9873L29.609 35.9076C29.5574 36.1688 29.5954 36.4399 29.7167 36.677C29.8151 36.866 29.9636 37.0244 30.1458 37.1349C30.3281 37.2454 30.5372 37.3038 30.7503 37.3037C30.8046 37.3038 30.8589 37.2999 30.9126 37.292L32.209 37.1101C32.24 37.1058 32.2714 37.1115 32.2988 37.1264C32.3262 37.1414 32.3481 37.1647 32.3612 37.193C33.5782 39.8361 35.6703 41.8408 38.341 42.8969C38.4872 42.9547 38.6435 42.9823 38.8006 42.978C38.9578 42.9737 39.1124 42.9377 39.2552 42.872C39.398 42.8064 39.5261 42.7126 39.6317 42.5961C39.7373 42.4797 39.8182 42.3431 39.8696 42.1945C40.0756 41.5991 39.7502 40.952 39.165 40.7183C37.3377 39.9884 35.8148 38.6559 34.8485 36.9419C34.8362 36.9212 34.8293 36.8979 34.8283 36.8739C34.8273 36.8499 34.8322 36.826 34.8427 36.8044C34.8531 36.7828 34.8688 36.7641 34.8882 36.75C34.9076 36.7359 34.9302 36.7268 34.954 36.7235L35.4927 36.6507C35.7745 36.6144 36.0344 36.4796 36.2264 36.27C36.3817 36.0963 36.4813 35.8799 36.5123 35.6489C36.5433 35.4179 36.5043 35.183 36.4004 34.9744L35.5225 33.2106C35.4558 33.0767 35.4432 32.9222 35.4874 32.7792C35.5316 32.6362 35.6291 32.5157 35.7598 32.4427C37.4769 31.484 39.1409 29.9678 40.4657 28.0949ZM29.1904 29.3163C29.0439 29.3163 28.8987 29.2886 28.7624 29.2348C25.759 28.0468 23.2084 25.3987 22.1056 22.324C22.0519 22.1796 22.0274 22.0259 22.0334 21.8719C22.0395 21.7179 22.0761 21.5667 22.1411 21.4269C22.206 21.2871 22.2981 21.1617 22.4119 21.0578C22.5257 20.9539 22.659 20.8736 22.8041 20.8215C22.9492 20.7695 23.1031 20.7468 23.257 20.7547C23.4109 20.7627 23.5617 20.801 23.7007 20.8677C23.8397 20.9343 23.964 21.0278 24.0666 21.1429C24.1691 21.2579 24.2478 21.3922 24.2981 21.5379C25.3536 24.4815 27.7389 26.3253 29.6191 27.07C29.8713 27.1696 30.0808 27.3542 30.2115 27.5917C30.3422 27.8293 30.3859 28.105 30.3351 28.3713C30.2843 28.6377 30.1422 28.8779 29.9332 29.0507C29.7242 29.2235 29.4615 29.3179 29.1904 29.3178V29.3163Z" fill="#5FBA8E"/>
<path d="M29.1904 29.3163C29.0439 29.3163 28.8987 29.2886 28.7624 29.2348C25.759 28.0468 23.2084 25.3987 22.1056 22.324C22.0519 22.1796 22.0274 22.0259 22.0334 21.8719C22.0395 21.7179 22.0761 21.5667 22.1411 21.4269C22.206 21.2871 22.2981 21.1617 22.4119 21.0578C22.5257 20.9539 22.659 20.8736 22.8041 20.8215C22.9492 20.7695 23.1031 20.7468 23.257 20.7547C23.4109 20.7627 23.5617 20.801 23.7007 20.8677C23.8397 20.9343 23.964 21.0278 24.0666 21.1429C24.1691 21.2579 24.2478 21.3922 24.2981 21.5379C25.3536 24.4815 27.7389 26.3253 29.6191 27.07C29.8713 27.1696 30.0808 27.3542 30.2115 27.5917C30.3422 27.8293 30.3859 28.105 30.3351 28.3713C30.2843 28.6377 30.1422 28.8779 29.9332 29.0507C29.7242 29.2235 29.4615 29.3179 29.1904 29.3178V29.3163Z" fill="white"/>
</svg>
