<svg width="24" height="25" viewBox="0 0 24 25" fill="none" xmlns="http://www.w3.org/2000/svg">
<path d="M18.0056 20.9076L8.27656 20.9076C8.17221 20.9076 8.08945 20.8256 8.07946 20.7217C7.58293 15.5623 3.71119 13.3161 1.81543 12.8361C7.14483 13.6256 9.78801 16.5136 10.7449 18.424C10.8408 18.6154 11.1543 18.5743 11.159 18.3603C11.2469 14.3744 8.04233 10.1484 5.83896 7.94128C5.68538 7.78744 5.84385 7.53297 6.04381 7.61823C11.2728 9.84758 14.1587 15.3004 15.2501 18.6595C15.3196 18.8735 15.7145 18.8477 15.7666 18.6288C16.5455 15.3589 19.0194 13.1916 20.9145 12.0948C21.1149 11.9788 21.2898 12.2503 21.1299 12.4178C18.6012 15.0671 18.1079 18.8106 18.2063 20.6915C18.2125 20.8083 18.1225 20.9076 18.0056 20.9076Z" fill="#2F2F2F"/>
<path d="M14.6542 15.5473C14.32 14.8354 13.9482 14.0906 13.6903 13.5883C13.6701 13.5491 13.6638 13.5053 13.672 13.4619C14.1935 10.7286 16.1384 8.0077 17.8328 6.14211C17.9987 5.95939 18.3248 6.23828 18.2037 6.45333C16.5754 9.34405 15.8288 12.8664 15.5561 15.3996C15.5302 15.6402 14.7571 15.7663 14.6542 15.5473Z" fill="#2F2F2F"/>
</svg>
