<svg width="24" height="25" viewBox="0 0 24 25" fill="none" xmlns="http://www.w3.org/2000/svg">
<path d="M16.986 9.11328C16.986 11.1461 14.4605 12.7939 12.4277 12.7939C10.395 12.7939 8.74707 11.1461 8.74707 9.11328C8.74707 7.08051 10.395 5.43262 12.4277 5.43262C14.4605 5.43262 16.986 7.08051 16.986 9.11328Z" fill="#2F2F2F"/>
<path d="M20.6755 16.1289C20.6755 18.1617 19.0276 19.8096 16.9949 19.8096C14.9621 19.8096 11.7227 18.1617 11.7227 16.1289C11.7227 14.0961 14.9621 12.4482 16.9949 12.4482C19.0276 12.4482 20.6755 14.0961 20.6755 16.1289Z" fill="#2F2F2F"/>
<path d="M10.6865 16.1288C10.6865 18.1616 9.03863 19.8095 7.00586 19.8095C4.97308 19.8095 3.3252 18.1616 3.3252 16.1288C3.3252 14.0961 4.97308 11.5488 7.00586 11.5488C9.03863 11.5488 10.6865 14.0961 10.6865 16.1288Z" fill="#2F2F2F"/>
</svg>
