<svg width="24" height="24" viewBox="0 0 24 24" fill="none" xmlns="http://www.w3.org/2000/svg">
<path d="M19.865 5.33845C19.4105 4.8844 18.8709 4.52422 18.277 4.27847C17.6831 4.03273 17.0465 3.90625 16.4036 3.90625C15.7607 3.90625 15.1241 4.03273 14.5302 4.27847C13.9363 4.52422 13.3967 4.8844 12.9422 5.33845L11.999 6.28032L11.0558 5.33845C10.1378 4.42173 8.89265 3.90673 7.59437 3.90673C6.2961 3.90673 5.051 4.42173 4.13298 5.33845C3.21496 6.25516 2.69922 7.4985 2.69922 8.79493C2.69922 10.0914 3.21496 11.3347 4.13298 12.2514L5.07619 13.1933L11.999 20.1063L18.9218 13.1933L19.865 12.2514C20.3197 11.7976 20.6804 11.2587 20.9265 10.6657C21.1726 10.0726 21.2992 9.4369 21.2992 8.79493C21.2992 8.15296 21.1726 7.51728 20.9265 6.9242C20.6804 6.33113 20.3197 5.79228 19.865 5.33845V5.33845Z" stroke="#27342E" stroke-width="2" stroke-linecap="round" stroke-linejoin="round"/>
</svg>
