<svg width="62" height="24" viewBox="0 0 62 24" fill="none" xmlns="http://www.w3.org/2000/svg">
<rect width="62" height="24" rx="12" fill="#F7B787"/>
<path d="M8.048 16L8.096 15.748L8.336 15.676C8.6 15.604 8.756 15.428 8.804 15.148L9.44 11.788C9.52 11.364 9.604 10.904 9.692 10.408C9.78 9.904 9.864 9.424 9.944 8.968C10 8.672 9.88 8.472 9.584 8.368L9.416 8.32L9.476 8.068H12.356L12.308 8.32L12.044 8.392C11.748 8.48 11.576 8.668 11.528 8.956L11.012 11.74H14.084C14.156 11.34 14.236 10.892 14.324 10.396C14.412 9.892 14.492 9.42 14.564 8.98C14.612 8.668 14.484 8.464 14.18 8.368L14.024 8.32L14.072 8.068H16.952L16.904 8.32L16.676 8.392C16.388 8.464 16.212 8.652 16.148 8.956L15.524 12.28C15.444 12.72 15.36 13.176 15.272 13.648C15.184 14.12 15.096 14.616 15.008 15.136C14.968 15.416 15.08 15.592 15.344 15.664L15.584 15.748L15.536 16H12.62L12.668 15.748L12.968 15.664C13.224 15.592 13.376 15.424 13.424 15.16L14 12.1H10.928C10.84 12.548 10.748 13.032 10.652 13.552C10.564 14.064 10.476 14.592 10.388 15.136C10.34 15.408 10.444 15.588 10.7 15.676L10.904 15.748L10.844 16H8.048ZM18.5353 16.168C18.1273 16.168 17.7553 16.088 17.4193 15.928C17.0833 15.768 16.8153 15.524 16.6153 15.196C16.4153 14.86 16.3153 14.44 16.3153 13.936C16.3153 13.424 16.3993 12.936 16.5673 12.472C16.7433 12.008 16.9833 11.596 17.2873 11.236C17.5993 10.868 17.9593 10.58 18.3673 10.372C18.7833 10.164 19.2273 10.06 19.6993 10.06C20.3313 10.06 20.8553 10.244 21.2713 10.612C21.6873 10.972 21.8953 11.532 21.8953 12.292C21.8953 12.796 21.8073 13.28 21.6313 13.744C21.4633 14.208 21.2273 14.624 20.9233 14.992C20.6193 15.352 20.2633 15.64 19.8553 15.856C19.4473 16.064 19.0073 16.168 18.5353 16.168ZM18.6793 15.832C18.9353 15.832 19.1673 15.724 19.3753 15.508C19.5833 15.284 19.7633 14.992 19.9153 14.632C20.0673 14.272 20.1833 13.872 20.2633 13.432C20.3513 12.984 20.3953 12.54 20.3953 12.1C20.3953 11.468 20.3193 11.028 20.1673 10.78C20.0233 10.532 19.8353 10.408 19.6033 10.408C19.3473 10.408 19.1073 10.516 18.8833 10.732C18.6673 10.94 18.4793 11.224 18.3193 11.584C18.1593 11.944 18.0353 12.344 17.9473 12.784C17.8593 13.216 17.8153 13.656 17.8153 14.104C17.8153 14.752 17.8953 15.204 18.0553 15.46C18.2233 15.708 18.4313 15.832 18.6793 15.832ZM23.39 16.168C23.142 16.168 22.938 16.108 22.778 15.988C22.626 15.86 22.55 15.672 22.55 15.424C22.55 15.12 22.598 14.752 22.694 14.32L23.498 10.6H22.478L22.526 10.348L23.006 10.3C23.414 10.244 23.75 10.052 24.014 9.724L24.95 8.596H25.322L24.986 10.24H26.318L26.246 10.624L24.902 10.6L24.11 14.44C24.078 14.584 24.054 14.712 24.038 14.824C24.022 14.928 24.014 15.016 24.014 15.088C24.014 15.168 24.038 15.232 24.086 15.28C24.134 15.328 24.19 15.352 24.254 15.352C24.422 15.352 24.678 15.18 25.022 14.836L25.214 14.992C25.014 15.288 24.758 15.56 24.446 15.808C24.142 16.048 23.79 16.168 23.39 16.168ZM30.2483 16.168C30.0323 16.168 29.8283 16.124 29.6363 16.036C29.5563 16.428 29.4843 16.776 29.4203 17.08C29.3643 17.392 29.3123 17.688 29.2643 17.968C29.2163 18.24 29.3243 18.412 29.5883 18.484L29.8883 18.556L29.8403 18.772H27.0323L27.0803 18.556L27.2963 18.508C27.5843 18.42 27.7563 18.24 27.8123 17.968L29.1443 11.62C29.2003 11.3 29.0803 11.08 28.7843 10.96L28.5923 10.888L28.6163 10.672L30.7283 10.048L30.8723 10.156L30.6203 11.404C30.9403 11.004 31.3043 10.68 31.7123 10.432C32.1203 10.184 32.4963 10.06 32.8403 10.06C33.1683 10.06 33.4483 10.176 33.6803 10.408C33.9203 10.64 34.0403 11.056 34.0403 11.656C34.0403 12.088 33.9643 12.52 33.8123 12.952C33.6683 13.384 33.4683 13.796 33.2123 14.188C32.9563 14.572 32.6643 14.912 32.3363 15.208C32.0083 15.504 31.6643 15.74 31.3043 15.916C30.9523 16.084 30.6003 16.168 30.2483 16.168ZM31.8563 10.984C31.6723 10.984 31.4643 11.06 31.2323 11.212C31.0003 11.356 30.7643 11.56 30.5243 11.824L29.8523 15.148C30.1403 15.42 30.4363 15.556 30.7403 15.556C31.2283 15.556 31.6363 15.296 31.9643 14.776C32.0843 14.584 32.1923 14.348 32.2883 14.068C32.3923 13.78 32.4723 13.472 32.5283 13.144C32.5923 12.816 32.6243 12.5 32.6243 12.196C32.6243 11.804 32.5603 11.504 32.4323 11.296C32.3043 11.088 32.1123 10.984 31.8563 10.984ZM35.0089 16.168C34.7529 16.168 34.5449 16.104 34.3849 15.976C34.2329 15.84 34.1569 15.648 34.1569 15.4C34.1569 15.264 34.1729 15.1 34.2049 14.908C34.2449 14.708 34.2929 14.456 34.3489 14.152L35.0569 10.708C35.1209 10.42 35.1729 10.16 35.2129 9.928C35.2529 9.696 35.3009 9.432 35.3569 9.136C35.4049 8.8 35.2689 8.584 34.9489 8.488L34.7689 8.428L34.8049 8.224L37.0369 7.576L37.1449 7.672L35.6929 14.548C35.6609 14.676 35.6369 14.788 35.6209 14.884C35.6129 14.98 35.6089 15.06 35.6089 15.124C35.6089 15.3 35.6849 15.388 35.8369 15.388C36.0209 15.388 36.2889 15.216 36.6409 14.872L36.8089 15.04C36.6089 15.32 36.3609 15.58 36.0649 15.82C35.7689 16.052 35.4169 16.168 35.0089 16.168ZM38.3521 16.168C38.0241 16.168 37.7281 16.048 37.4641 15.808C37.2081 15.568 37.0801 15.16 37.0801 14.584C37.0801 14.16 37.1601 13.732 37.3201 13.3C37.4881 12.868 37.7081 12.46 37.9801 12.076C38.2601 11.684 38.5721 11.34 38.9161 11.044C39.2601 10.74 39.6121 10.5 39.9721 10.324C40.3401 10.148 40.6881 10.06 41.0161 10.06C41.1761 10.06 41.3241 10.092 41.4601 10.156C41.6041 10.22 41.7361 10.304 41.8561 10.408L42.7561 10.012L42.8881 10.096L41.8681 14.572C41.8041 14.828 41.7721 15.016 41.7721 15.136C41.7721 15.304 41.8521 15.388 42.0121 15.388C42.1241 15.388 42.2481 15.344 42.3841 15.256C42.5201 15.16 42.6721 15.032 42.8401 14.872L42.9841 15.016C42.8641 15.2 42.7161 15.38 42.5401 15.556C42.3641 15.732 42.1641 15.88 41.9401 16C41.7241 16.112 41.4961 16.168 41.2561 16.168C41.0081 16.168 40.8001 16.092 40.6321 15.94C40.4641 15.78 40.3801 15.536 40.3801 15.208C40.3801 15.096 40.3881 14.976 40.4041 14.848C40.0761 15.216 39.7321 15.528 39.3721 15.784C39.0121 16.04 38.6721 16.168 38.3521 16.168ZM38.4721 14.032C38.4721 14.44 38.5361 14.736 38.6641 14.92C38.8001 15.096 38.9801 15.184 39.2041 15.184C39.3961 15.184 39.5921 15.124 39.7921 15.004C39.9921 14.876 40.2161 14.688 40.4641 14.44C40.4721 14.392 40.4841 14.328 40.5001 14.248L41.2441 10.864C41.1401 10.76 41.0201 10.688 40.8841 10.648C40.7481 10.6 40.6201 10.576 40.5001 10.576C40.1721 10.576 39.8121 10.78 39.4201 11.188C39.1401 11.492 38.9121 11.908 38.7361 12.436C38.5601 12.956 38.4721 13.488 38.4721 14.032ZM45.4532 16.168C44.8692 16.168 44.3892 15.972 44.0132 15.58C43.6452 15.188 43.4612 14.632 43.4612 13.912C43.4612 13.4 43.5492 12.912 43.7252 12.448C43.9092 11.984 44.1572 11.576 44.4692 11.224C44.7812 10.864 45.1412 10.58 45.5492 10.372C45.9572 10.164 46.3892 10.06 46.8452 10.06C47.1252 10.06 47.3812 10.104 47.6132 10.192C47.8532 10.28 48.0452 10.4 48.1892 10.552C48.3332 10.704 48.4012 10.884 48.3932 11.092C48.3852 11.3 48.3172 11.464 48.1892 11.584C48.0612 11.704 47.9012 11.764 47.7092 11.764C47.4932 11.764 47.3172 11.704 47.1812 11.584C47.0532 11.464 46.9452 11.316 46.8572 11.14L46.7732 10.948C46.6692 10.716 46.5692 10.584 46.4732 10.552C46.3772 10.52 46.2372 10.58 46.0532 10.732C45.8452 10.916 45.6452 11.16 45.4532 11.464C45.2692 11.76 45.1212 12.092 45.0092 12.46C44.8972 12.828 44.8412 13.208 44.8412 13.6C44.8412 14.168 44.9692 14.588 45.2252 14.86C45.4812 15.132 45.8212 15.268 46.2452 15.268C46.5332 15.268 46.8132 15.18 47.0852 15.004C47.3572 14.82 47.6092 14.576 47.8412 14.272L48.0332 14.428C47.8732 14.732 47.6612 15.02 47.3972 15.292C47.1332 15.556 46.8372 15.768 46.5092 15.928C46.1812 16.088 45.8292 16.168 45.4532 16.168ZM50.3566 16.168C49.7646 16.168 49.2806 15.976 48.9046 15.592C48.5366 15.208 48.3526 14.652 48.3526 13.924C48.3526 13.42 48.4406 12.936 48.6166 12.472C48.7926 12.008 49.0326 11.596 49.3366 11.236C49.6486 10.868 50.0126 10.58 50.4286 10.372C50.8446 10.164 51.2926 10.06 51.7726 10.06C52.2686 10.06 52.6446 10.172 52.9006 10.396C53.1646 10.62 53.2966 10.92 53.2966 11.296C53.2966 11.752 52.9926 12.204 52.3846 12.652C51.7846 13.092 50.9126 13.436 49.7686 13.684C49.7926 14.204 49.9166 14.584 50.1406 14.824C50.3646 15.064 50.6726 15.184 51.0646 15.184C51.4166 15.184 51.7326 15.092 52.0126 14.908C52.2926 14.724 52.5286 14.508 52.7206 14.26L52.9006 14.392C52.7406 14.696 52.5326 14.984 52.2766 15.256C52.0286 15.528 51.7446 15.748 51.4246 15.916C51.1046 16.084 50.7486 16.168 50.3566 16.168ZM51.6526 10.468C51.4686 10.468 51.2726 10.548 51.0646 10.708C50.8566 10.86 50.6566 11.072 50.4646 11.344C50.2806 11.608 50.1246 11.916 49.9966 12.268C49.8686 12.612 49.7926 12.98 49.7686 13.372C50.6646 13.108 51.2926 12.78 51.6526 12.388C52.0206 11.996 52.2046 11.58 52.2046 11.14C52.2046 10.908 52.1526 10.74 52.0486 10.636C51.9446 10.524 51.8126 10.468 51.6526 10.468Z" fill="white"/>
</svg>
