<svg width="53" height="53" viewBox="0 0 53 53" fill="none" xmlns="http://www.w3.org/2000/svg">
<rect x="0.382812" y="0.448242" width="52" height="52" rx="12" fill="#F8F8F8"/>
<path d="M9.37921 40.3071L12.8582 43.7861C13.6491 44.5769 14.8282 44.8344 15.858 44.398C25.9829 40.1064 43.3622 29.4908 46.3306 8.96854C46.5096 7.73107 45.4561 6.68654 44.2191 6.86892C21.8806 10.1627 12.5392 27.8852 8.74919 37.3293C8.33665 38.3573 8.59595 39.5238 9.37921 40.3071Z" fill="#5FBA8E"/>
<path fill-rule="evenodd" clip-rule="evenodd" d="M14.4112 38.4088C15.7818 39.7794 16.5523 40.1923 20.3487 37.9832L20.1538 37.9318C17.7042 37.2864 15.8682 35.2533 15.4751 32.7508C13.1025 36.1673 13.223 36.8903 14.4112 38.4088ZM33.6847 19.3885C31.4561 17.542 28.6186 18.4153 25.7856 20.5227C29.4647 20.8287 32.396 23.7267 32.7441 27.4021L32.7527 27.4927C35.0868 24.5354 35.9997 21.6295 33.6847 19.3885Z" fill="white"/>
<path d="M15.4751 32.7508C15.8682 35.2533 17.7042 37.2864 20.1538 37.9318L20.3487 37.9832C24.2218 35.312 29.7015 31.3584 32.7527 27.4927L32.7441 27.4021C32.396 23.7267 29.4647 20.8287 25.7856 20.5227C21.7476 23.5263 17.7187 29.0366 15.4751 32.7508Z" fill="#8EDB9B"/>
<path d="M14.9238 17.8304L17.0145 15.718L38.5061 36.9886L36.4154 39.101L14.9238 17.8304Z" fill="#5FBA8E"/>
<path d="M10.0738 14.7676C9.09152 14.1254 8.62218 12.9234 8.89767 11.7826Lnan nanL8.89767 11.7826C9.13148 10.8143 9.89873 10.0546 10.8713 9.83939Lnan nanL10.8713 9.83939C11.9439 9.60206 13.0546 10.0284 13.6929 10.9226L17.3458 16.0398L15.2533 18.1541L10.0738 14.7676Z" fill="#5FBA8E"/>
<path d="M39.4592 43.8499C40.1116 44.8255 41.3183 45.2824 42.4563 44.9952Lnan nanL42.4563 44.9952C43.4221 44.7513 44.1738 43.9763 44.379 43.0015Lnan nanL44.379 43.0015C44.6052 41.9265 44.1673 40.8203 43.2667 40.1913L38.1119 36.5915L36.0194 38.7057L39.4592 43.8499Z" fill="#5FBA8E"/>
</svg>
