<svg width="25" height="25" viewBox="0 0 25 25" fill="none" xmlns="http://www.w3.org/2000/svg">
<path fill-rule="evenodd" clip-rule="evenodd" d="M1.89782 16.9662C1.29476 15.5103 0.984375 13.9499 0.984375 12.374C0.984375 10.7982 1.29476 9.23773 1.89782 7.78182C2.50088 6.32592 3.38479 5.00305 4.49909 3.88874C5.6134 2.77444 6.93627 1.89053 8.39217 1.28747C9.84808 0.684413 11.4085 0.374023 12.9844 0.374023C14.5602 0.374023 16.1207 0.684413 17.5766 1.28747C19.0325 1.89053 20.3554 2.77444 21.4697 3.88874C22.584 5.00305 23.4679 6.32592 24.0709 7.78182C24.674 9.23773 24.9844 10.7982 24.9844 12.374C24.9844 13.9499 24.674 15.5103 24.0709 16.9662C23.4679 18.4221 22.584 19.745 21.4697 20.8593C20.3554 21.9736 19.0325 22.8575 17.5766 23.4606C16.1207 24.0636 14.5602 24.374 12.9844 24.374C11.4085 24.374 9.84808 24.0636 8.39217 23.4606C6.93627 22.8575 5.6134 21.9736 4.49909 20.8593C3.38479 19.745 2.50088 18.4221 1.89782 16.9662ZM11.651 13.7074L12.9844 19.0407L18.3177 7.04069L6.31771 12.374L11.651 13.7074Z" fill="#A2A2A2"/>
</svg>
