<svg width="125" height="22" viewBox="0 0 125 22" fill="none" xmlns="http://www.w3.org/2000/svg">
<path d="M21.3601 14.8343C21.3601 15.3196 21.4534 15.749 21.6401 16.1223C21.8267 16.4956 22.0321 16.7756 22.2561 16.9623C22.4987 17.1303 22.7041 17.3356 22.8721 17.5783C23.0401 17.8023 23.1147 18.0356 23.0961 18.2783C23.0401 18.9876 21.3601 19.3423 18.0561 19.3423C17.7387 19.3423 17.3561 19.3236 16.9081 19.2863C16.4601 19.2676 15.9187 19.2303 15.2841 19.1743C14.6681 19.0996 14.1361 18.9876 13.6881 18.8383C13.2587 18.689 13.0254 18.5023 12.9881 18.2783C12.9507 18.0356 13.0161 17.8023 13.1841 17.5783C13.3521 17.3356 13.5574 17.121 13.8001 16.9343C14.0427 16.7476 14.2667 16.4676 14.4721 16.0943C14.6774 15.721 14.7801 15.301 14.7801 14.8343V10.7183H9.12406V14.8343C9.12406 15.3196 9.2174 15.749 9.40406 16.1223C9.59073 16.4956 9.79606 16.7756 10.0201 16.9623C10.2627 17.1303 10.4681 17.3356 10.6361 17.5783C10.8227 17.8023 10.9067 18.0356 10.8881 18.2783C10.8134 18.9876 9.1334 19.3423 5.84806 19.3423C5.53073 19.3423 5.14806 19.3236 4.70006 19.2863C4.25206 19.2676 3.71073 19.2303 3.07606 19.1743C2.46006 19.0996 1.92806 18.9876 1.48006 18.8383C1.05073 18.689 0.817396 18.5023 0.780063 18.2783C0.724063 17.9796 0.836063 17.6903 1.11606 17.4103C1.41473 17.1303 1.72273 16.785 2.04006 16.3743C2.37606 15.945 2.54406 15.4316 2.54406 14.8343V5.2583C2.54406 4.66097 2.37606 4.15697 2.04006 3.7463C1.72273 3.31697 1.41473 2.97163 1.11606 2.7103C0.836063 2.4303 0.724063 2.14097 0.780063 1.8423C0.817396 1.6183 1.05073 1.43163 1.48006 1.2823C1.92806 1.1143 2.46006 1.0023 3.07606 0.9463C3.71073 0.871633 4.25206 0.824966 4.70006 0.8063C5.14806 0.768967 5.53073 0.7503 5.84806 0.7503C9.1334 0.7503 10.8134 1.1143 10.8881 1.8423C10.9067 2.08497 10.8227 2.32763 10.6361 2.5703C10.4681 2.7943 10.2627 2.9903 10.0201 3.1583C9.79606 3.3263 9.59073 3.59697 9.40406 3.9703C9.2174 4.34363 9.12406 4.77297 9.12406 5.2583V8.9543H14.7801V5.2583C14.7801 4.8663 14.7054 4.52097 14.5561 4.2223C14.4254 3.90497 14.2667 3.65297 14.0801 3.4663C13.8934 3.26097 13.7067 3.08363 13.5201 2.9343C13.3521 2.7663 13.2121 2.5983 13.1001 2.4303C12.9881 2.24363 12.9507 2.04763 12.9881 1.8423C13.0254 1.6183 13.2587 1.43163 13.6881 1.2823C14.1361 1.1143 14.6774 1.0023 15.3121 0.9463C15.9467 0.871633 16.4787 0.824966 16.9081 0.8063C17.3561 0.768967 17.7387 0.7503 18.0561 0.7503C21.3601 0.7503 23.0401 1.1143 23.0961 1.8423C23.1334 2.14097 23.0027 2.4303 22.7041 2.7103C22.4241 2.97163 22.1254 3.30763 21.8081 3.7183C21.5094 4.12897 21.3601 4.6423 21.3601 5.2583V14.8343ZM39.6047 14.8623C39.6047 15.3476 39.698 15.777 39.8847 16.1503C40.0714 16.5236 40.2767 16.7943 40.5007 16.9623C40.7434 17.1303 40.9487 17.3356 41.1167 17.5783C41.3034 17.8023 41.3874 18.0356 41.3687 18.2783C41.294 19.0063 39.6514 19.3703 36.4407 19.3703C34.7234 19.3703 33.7154 18.521 33.4167 16.8223C32.614 18.3343 31.3167 19.2023 29.5247 19.4263C27.7887 19.6503 26.3514 19.3423 25.2127 18.5023C24.0927 17.6623 23.5327 16.5143 23.5327 15.0583V11.9223C23.5327 10.2983 23.2154 9.42097 22.5807 9.2903C22.2447 9.2343 21.9927 9.10363 21.8247 8.8983C21.6754 8.6743 21.6567 8.44097 21.7687 8.1983C21.8807 7.95563 22.1234 7.7783 22.4967 7.6663C22.702 7.6103 23.0567 7.4983 23.5607 7.3303C24.0647 7.1623 24.4007 7.0503 24.5687 6.9943C24.7367 6.9383 25.0074 6.84497 25.3807 6.7143C25.7727 6.56497 26.0807 6.44363 26.3047 6.3503C26.5287 6.2383 26.8087 6.10763 27.1447 5.9583C27.4807 5.7903 27.826 5.60363 28.1807 5.3983C28.554 5.19297 28.8434 5.0903 29.0487 5.0903C29.1607 5.0903 29.2634 5.1183 29.3567 5.1743C29.45 5.21163 29.5247 5.27697 29.5807 5.3703C29.6554 5.46363 29.7114 5.5663 29.7487 5.6783C29.786 5.77163 29.814 5.9023 29.8327 6.0703C29.87 6.2383 29.8887 6.38763 29.8887 6.5183C29.9074 6.64897 29.9167 6.81697 29.9167 7.0223C29.9167 7.22763 29.9167 7.40497 29.9167 7.5543C29.9167 7.68497 29.9074 7.87163 29.8887 8.1143C29.8887 8.3383 29.8887 8.5063 29.8887 8.6183V12.9023C29.8887 14.6383 29.9727 15.7396 30.1407 16.2063C30.3647 16.7103 30.7007 16.9716 31.1487 16.9903C31.7834 16.9903 32.278 16.6823 32.6327 16.0663C32.9874 15.4503 33.202 14.7036 33.2767 13.8263V11.9223C33.2767 10.2983 32.9594 9.42097 32.3247 9.2903C31.9887 9.2343 31.7367 9.10363 31.5687 8.8983C31.4194 8.6743 31.4007 8.44097 31.5127 8.1983C31.6247 7.95563 31.8674 7.7783 32.2407 7.6663C32.446 7.6103 32.8007 7.4983 33.3047 7.3303C33.8087 7.1623 34.1447 7.0503 34.3127 6.9943C34.4807 6.9383 34.7514 6.84497 35.1247 6.7143C35.5167 6.56497 35.8247 6.44363 36.0487 6.3503C36.2727 6.2383 36.5527 6.10763 36.8887 5.9583C37.2247 5.7903 37.57 5.60363 37.9247 5.3983C38.298 5.19297 38.5874 5.0903 38.7927 5.0903C38.9047 5.0903 39.0074 5.1183 39.1007 5.1743C39.194 5.21163 39.2687 5.27697 39.3247 5.3703C39.3994 5.46363 39.4554 5.5663 39.4927 5.6783C39.53 5.77163 39.558 5.9023 39.5767 6.0703C39.614 6.2383 39.6327 6.38763 39.6327 6.5183C39.6514 6.64897 39.6607 6.81697 39.6607 7.0223C39.6607 7.22763 39.6607 7.40497 39.6607 7.5543C39.6607 7.68497 39.6514 7.87163 39.6327 8.1143C39.6327 8.3383 39.6327 8.5063 39.6327 8.6183C39.614 9.5143 39.6047 11.5956 39.6047 14.8623ZM54.8013 13.5743C54.9319 13.3503 55.1279 13.2383 55.3893 13.2383C55.6319 13.2383 55.8373 13.3316 56.0053 13.5183C56.1733 13.705 56.2199 13.929 56.1453 14.1903C55.7159 15.777 54.7733 17.065 53.3173 18.0543C51.8799 19.025 50.2279 19.5103 48.3613 19.5103C46.1399 19.5103 44.2453 18.8476 42.6773 17.5223C41.1279 16.197 40.3533 14.5076 40.3533 12.4543C40.3533 10.457 41.0719 8.80497 42.5093 7.4983C43.9653 6.19163 45.7573 5.49163 47.8853 5.3983C50.2933 5.2863 52.1133 5.6223 53.3453 6.4063C54.5773 7.17163 55.2773 8.09563 55.4453 9.1783C55.5573 9.94363 55.4359 10.6343 55.0813 11.2503C54.7453 11.8663 54.2506 12.3516 53.5973 12.7063C52.9626 13.0423 52.2813 13.3036 51.5533 13.4903C50.8253 13.6583 50.0973 13.7423 49.3693 13.7423C48.5293 13.7423 47.8759 13.6303 47.4093 13.4063C47.8759 14.153 48.4546 14.7316 49.1453 15.1423C49.8546 15.5343 50.5919 15.7023 51.3573 15.6463C52.0293 15.609 52.6733 15.4036 53.2893 15.0303C53.9053 14.657 54.4093 14.1716 54.8013 13.5743ZM48.1093 6.2943C47.5119 6.3503 47.0453 6.78897 46.7093 7.6103C46.3919 8.43163 46.2613 9.24363 46.3173 10.0463C46.3733 10.8863 46.5599 11.6796 46.8773 12.4263C47.1759 12.4636 47.3999 12.4823 47.5493 12.4823C48.2586 12.4823 48.8466 12.193 49.3133 11.6143C49.7799 11.017 50.0039 10.1956 49.9853 9.1503C49.9666 8.40363 49.7799 7.73163 49.4253 7.1343C49.0893 6.5183 48.6506 6.2383 48.1093 6.2943ZM69.457 14.8343C69.457 15.3196 69.5503 15.749 69.737 16.1223C69.9237 16.4956 70.129 16.7756 70.353 16.9623C70.577 17.1303 70.773 17.3356 70.941 17.5783C71.1277 17.8023 71.2117 18.0356 71.193 18.2783C71.137 18.9876 69.457 19.3423 66.153 19.3423C65.8357 19.3423 65.453 19.3236 65.005 19.2863C64.557 19.2676 64.0157 19.2303 63.381 19.1743C62.765 19.0996 62.233 18.9876 61.785 18.8383C61.3557 18.689 61.1223 18.5023 61.085 18.2783C61.0477 18.0356 61.113 17.8023 61.281 17.5783C61.449 17.3356 61.6543 17.121 61.897 16.9343C62.1397 16.7476 62.3637 16.4676 62.569 16.0943C62.7743 15.721 62.877 15.301 62.877 14.8343V6.0423C62.877 5.72497 62.7557 5.46363 62.513 5.2583C62.2703 5.0343 62.009 4.87563 61.729 4.7823C61.449 4.6703 61.197 4.5303 60.973 4.3623C60.749 4.17563 60.6557 3.96097 60.693 3.7183C60.749 3.19563 61.449 2.66363 62.793 2.1223C64.137 1.58097 65.6117 1.13297 67.217 0.7783C67.7957 0.647633 68.309 0.750299 68.757 1.0863C69.2237 1.4223 69.457 1.87963 69.457 2.4583V14.8343Z" fill="#45564B"/>
<rect x="76.1641" y="0.743164" width="48.791" height="20.2896" rx="10.1448" fill="#5FBA8E"/>
<path d="M87.3173 14.5684C87.0395 14.5361 86.9297 14.381 86.9297 14.1355V13.2828C86.9297 13.018 87.0847 12.8952 87.3496 12.9275C88.8225 13.0987 90.6054 13.1924 92.7598 13.1924C94.9142 13.1924 97.0072 13.0987 98.2185 12.9437C98.4833 12.9114 98.6384 13.0374 98.6384 13.299V14.1517C98.6384 14.4166 98.5286 14.5554 98.2508 14.5845C97.9084 14.6168 97.243 14.6943 96.933 14.7396C96.5777 14.7848 96.3903 14.8784 96.3903 15.2208V17.33C96.3903 17.5949 96.2353 17.7499 95.9866 17.7499H95.0111C94.7624 17.7499 94.6074 17.5949 94.6074 17.33V15.4695C94.6074 15.1756 94.6106 15.1239 94.6106 14.8526C93.3703 14.8849 92.4045 14.8332 91.5066 14.8203C91.1351 14.8203 90.9639 14.9592 90.9639 15.3016V17.3332C90.9639 17.5981 90.8089 17.7531 90.5602 17.7531H89.5847C89.336 17.7531 89.181 17.5981 89.181 17.3332V15.4405C89.181 15.1142 89.181 15.0303 89.181 14.7589C88.3283 14.7428 87.973 14.6491 87.3205 14.5716L87.3173 14.5684ZM97.6145 5.21756C97.8793 5.21756 98.0021 5.3403 98.0021 5.60515V6.45787C98.0021 6.72273 97.8793 6.84547 97.6145 6.84547C97.6145 6.84547 93.8386 6.6226 93.1345 6.6226C92.4304 6.6226 88.1862 6.84547 88.1862 6.84547C87.9213 6.84547 87.7986 6.72273 87.7986 6.45787V5.60515C87.7986 5.3403 87.9213 5.21756 88.1862 5.21756H92.3431C92.172 5.12389 92.0783 4.93978 92.0783 4.67492V4.41006C92.0783 4.1452 92.201 4.02246 92.4659 4.02246H93.4736C93.7385 4.02246 93.8612 4.1452 93.8612 4.41006V4.9204C93.8612 5.12066 93.9711 5.21433 94.2036 5.21433H97.6145V5.21756ZM92.9019 12.133C89.5847 12.133 88.2185 11.4805 88.2185 9.90104C88.2185 8.32157 89.5815 7.66912 92.9019 7.66912C96.2224 7.66912 97.5854 8.32157 97.5854 9.90104C97.5854 11.4805 96.2224 12.133 92.9019 12.133ZM92.9019 10.5826C95.1339 10.5826 95.8025 10.4275 95.8025 9.90104C95.8025 9.37455 95.1371 9.21951 92.9019 9.21951C90.6668 9.21951 90.0014 9.37455 90.0014 9.90104C90.0014 10.4275 90.6668 10.5826 92.9019 10.5826Z" fill="white"/>
<path d="M107.268 10.4679C105.159 10.4679 103.796 9.18236 103.796 7.22822C103.796 5.27408 105.146 4.00469 107.268 4.00469C109.39 4.00469 110.756 5.27731 110.756 7.22822C110.756 9.17913 109.393 10.4679 107.268 10.4679ZM109.432 17.7709C105.013 17.7709 103.789 17.3381 103.789 15.6779C103.789 14.1275 104.936 13.6624 108.534 13.6624C109.37 13.6624 110.13 13.6462 110.969 13.6462C111.512 13.6462 111.777 13.4912 111.777 13.1488C111.777 12.8064 111.544 12.6384 111.018 12.6384C109.467 12.6384 106.179 12.7483 104.458 12.8549C104.225 12.871 104.102 12.745 104.102 12.4996V11.7244C104.102 11.4918 104.212 11.382 104.458 11.3691C106.767 11.214 110.133 11.1365 112.148 11.1979C113.111 11.2302 113.544 11.663 113.544 12.4382C113.544 13.0583 113.156 13.5848 112.536 13.8012H113.079C113.311 13.8012 113.421 13.9111 113.421 14.1436V14.8574C113.421 15.09 113.311 15.1998 113.079 15.1998C111.961 15.1675 110.411 15.1385 108.566 15.1385C106.024 15.1385 105.575 15.216 105.575 15.7134C105.575 16.256 106.195 16.3013 109.422 16.3013C110.475 16.3013 112.181 16.2076 113.421 16.0364C113.653 16.0041 113.792 16.1139 113.808 16.3465L113.854 17.1217C113.87 17.3542 113.776 17.477 113.527 17.5093C112.242 17.6643 110.459 17.7741 109.435 17.7741L109.432 17.7709ZM107.268 5.55186C106.228 5.55186 105.578 6.18817 105.578 7.22499C105.578 8.26182 106.244 8.91427 107.268 8.91427C108.292 8.91427 108.973 8.26182 108.973 7.22499C108.973 6.18817 108.308 5.55186 107.268 5.55186ZM112.051 4.00146H113.027C113.276 4.00146 113.431 4.1565 113.431 4.42136V9.98663C113.431 10.2515 113.276 10.4065 113.027 10.4065H112.051C111.803 10.4065 111.648 10.2515 111.648 9.98663V4.42136C111.648 4.1565 111.803 4.00146 112.051 4.00146Z" fill="white"/>
</svg>
