<svg width="53" height="53" viewBox="0 0 53 53" fill="none" xmlns="http://www.w3.org/2000/svg">
<rect x="0.015625" y="0.448242" width="52" height="52" rx="12" fill="#F8F8F8"/>
<path d="M6.3687 40.0976C5.40797 42.7088 7.34038 45.4789 10.1227 45.4789L41.9079 45.4789C44.7018 45.4789 46.635 42.6874 45.6524 40.072L44.8676 37.9832C42.0513 41.3884 33.7699 40.8073 27.2327 38.7735C17.0259 35.598 10.4788 36.5402 7.14668 37.9832L6.3687 40.0976Z" fill="#5FBA8E"/>
<path d="M43.0256 33.0807C42.4395 31.5207 40.9476 30.4875 39.2812 30.4875L12.695 30.4875C11.0186 30.4875 9.51995 31.533 8.94106 33.1063L7.14668 37.9832C10.4788 36.5402 17.0259 35.598 27.2327 38.7735C33.7699 40.8073 42.0513 41.3884 44.8676 37.9832L43.0256 33.0807Z" fill="#8EDB9B"/>
<path d="M34.3438 21.7845C34.3438 29.7137 26.1309 36.5101 26.1309 36.5101C26.1309 36.5101 17.918 29.7137 17.918 21.7845C17.918 19.0807 18.7833 16.4877 20.3235 14.5758C21.8637 12.6639 23.9527 11.5898 26.1309 11.5898C28.3091 11.5898 30.398 12.6639 31.9383 14.5758C33.4785 16.4877 34.3438 19.0807 34.3438 21.7845Z" fill="#5FBA8E"/>
<path d="M29.5877 19.4302C29.5877 21.3394 28.04 22.8871 26.1308 22.8871C24.2215 22.8871 22.6738 21.3394 22.6738 19.4302C22.6738 17.521 24.2215 15.9733 26.1308 15.9733C28.04 15.9733 29.5877 17.521 29.5877 19.4302Z" fill="white"/>
</svg>
