<svg width="64" height="24" viewBox="0 0 64 24" fill="none" xmlns="http://www.w3.org/2000/svg">
<rect width="64" height="24" rx="12" fill="#F7B787"/>
<path d="M7.844 16L7.892 15.748L8.144 15.688C8.496 15.592 8.7 15.372 8.756 15.028L9.86 9.112L9.836 9.028C9.844 8.716 9.716 8.496 9.452 8.368L9.368 8.32L9.416 8.068H11.42L12.98 14.02L16.544 8.068H18.644L18.608 8.32L18.392 8.404C18.096 8.508 17.92 8.72 17.864 9.04L17.288 12.256C17.2 12.744 17.112 13.22 17.024 13.684C16.944 14.148 16.864 14.616 16.784 15.088C16.728 15.408 16.868 15.62 17.204 15.724L17.312 15.748L17.264 16H14.468L14.504 15.748L14.624 15.712C14.96 15.632 15.156 15.42 15.212 15.076L16.244 9.436L12.32 16H11.864L10.172 9.508L9.176 15.016C9.104 15.36 9.24 15.588 9.584 15.7L9.776 15.748L9.728 16H7.844ZM20.2697 16.168C19.8617 16.168 19.4897 16.088 19.1537 15.928C18.8177 15.768 18.5497 15.524 18.3497 15.196C18.1497 14.86 18.0497 14.44 18.0497 13.936C18.0497 13.424 18.1337 12.936 18.3017 12.472C18.4777 12.008 18.7177 11.596 19.0217 11.236C19.3337 10.868 19.6937 10.58 20.1017 10.372C20.5177 10.164 20.9617 10.06 21.4337 10.06C22.0657 10.06 22.5897 10.244 23.0057 10.612C23.4217 10.972 23.6297 11.532 23.6297 12.292C23.6297 12.796 23.5417 13.28 23.3657 13.744C23.1977 14.208 22.9617 14.624 22.6577 14.992C22.3537 15.352 21.9977 15.64 21.5897 15.856C21.1817 16.064 20.7417 16.168 20.2697 16.168ZM20.4137 15.832C20.6697 15.832 20.9017 15.724 21.1097 15.508C21.3177 15.284 21.4977 14.992 21.6497 14.632C21.8017 14.272 21.9177 13.872 21.9977 13.432C22.0857 12.984 22.1297 12.54 22.1297 12.1C22.1297 11.468 22.0537 11.028 21.9017 10.78C21.7577 10.532 21.5697 10.408 21.3377 10.408C21.0817 10.408 20.8417 10.516 20.6177 10.732C20.4017 10.94 20.2137 11.224 20.0537 11.584C19.8937 11.944 19.7697 12.344 19.6817 12.784C19.5937 13.216 19.5497 13.656 19.5497 14.104C19.5497 14.752 19.6297 15.204 19.7897 15.46C19.9577 15.708 20.1657 15.832 20.4137 15.832ZM25.0164 16.168C24.7524 16.168 24.5244 16.092 24.3324 15.94C24.1404 15.78 24.0444 15.536 24.0444 15.208C24.0444 15.024 24.0644 14.82 24.1044 14.596C24.1444 14.372 24.1884 14.152 24.2364 13.936L24.7524 11.644C24.8244 11.316 24.7084 11.092 24.4044 10.972L24.2004 10.888L24.2244 10.672L26.3844 10.048L26.5284 10.168L25.7004 13.768C25.6524 13.968 25.6124 14.148 25.5804 14.308C25.5484 14.468 25.5324 14.616 25.5324 14.752C25.5324 14.928 25.5724 15.056 25.6524 15.136C25.7324 15.208 25.8364 15.244 25.9644 15.244C26.1564 15.244 26.3644 15.18 26.5884 15.052C26.8204 14.916 27.0964 14.704 27.4164 14.416L27.4284 14.356L27.8364 12.424C27.9004 12.096 27.9644 11.772 28.0284 11.452C28.0924 11.124 28.1524 10.796 28.2084 10.468L29.6124 10.048L29.7684 10.168L28.8324 14.452C28.8084 14.588 28.7844 14.712 28.7604 14.824C28.7444 14.936 28.7364 15.028 28.7364 15.1C28.7364 15.18 28.7604 15.244 28.8084 15.292C28.8564 15.332 28.9084 15.352 28.9644 15.352C29.0764 15.352 29.1884 15.312 29.3004 15.232C29.4204 15.144 29.5684 15.016 29.7444 14.848L29.9244 15.028C29.7244 15.308 29.4724 15.568 29.1684 15.808C28.8724 16.048 28.5324 16.168 28.1484 16.168C27.9164 16.168 27.7164 16.088 27.5484 15.928C27.3884 15.768 27.3084 15.536 27.3084 15.232C27.3084 15.112 27.3164 14.984 27.3324 14.848C26.9164 15.264 26.5124 15.588 26.1204 15.82C25.7364 16.052 25.3684 16.168 25.0164 16.168ZM30.2106 16.096L30.0906 15.988L31.0026 11.632C31.0746 11.312 30.9546 11.088 30.6426 10.96L30.4626 10.888L30.4866 10.684L32.6106 10.048L32.7426 10.168L32.4786 11.524C32.8946 11.084 33.3186 10.732 33.7506 10.468C34.1826 10.196 34.5866 10.06 34.9626 10.06C35.2186 10.06 35.4266 10.14 35.5866 10.3C35.7546 10.452 35.8386 10.688 35.8386 11.008C35.8386 11.184 35.8226 11.364 35.7906 11.548C35.7586 11.724 35.7186 11.908 35.6706 12.1L35.0586 14.56C35.0266 14.688 34.9986 14.8 34.9746 14.896C34.9586 14.984 34.9506 15.06 34.9506 15.124C34.9506 15.292 35.0186 15.376 35.1546 15.376C35.3626 15.376 35.6266 15.208 35.9466 14.872L36.1146 15.04C35.9146 15.336 35.6546 15.6 35.3346 15.832C35.0146 16.056 34.6586 16.168 34.2666 16.168C34.0186 16.168 33.8226 16.108 33.6786 15.988C33.5346 15.868 33.4626 15.704 33.4626 15.496C33.4626 15.328 33.4826 15.16 33.5226 14.992C33.5626 14.816 33.6106 14.628 33.6666 14.428L34.1346 12.532C34.1986 12.292 34.2506 12.076 34.2906 11.884C34.3306 11.692 34.3506 11.52 34.3506 11.368C34.3506 11.208 34.3146 11.1 34.2426 11.044C34.1786 10.98 34.0906 10.948 33.9786 10.948C33.7866 10.948 33.5546 11.032 33.2826 11.2C33.0186 11.36 32.7186 11.616 32.3826 11.968L32.0586 13.444C31.9706 13.868 31.8866 14.292 31.8066 14.716C31.7266 15.14 31.6466 15.568 31.5666 16L30.2106 16.096ZM37.6142 16.168C37.3662 16.168 37.1622 16.108 37.0022 15.988C36.8502 15.86 36.7742 15.672 36.7742 15.424C36.7742 15.12 36.8222 14.752 36.9182 14.32L37.7222 10.6H36.7022L36.7502 10.348L37.2302 10.3C37.6382 10.244 37.9742 10.052 38.2382 9.724L39.1742 8.596H39.5462L39.2102 10.24H40.5422L40.4702 10.624L39.1262 10.6L38.3342 14.44C38.3022 14.584 38.2782 14.712 38.2622 14.824C38.2462 14.928 38.2382 15.016 38.2382 15.088C38.2382 15.168 38.2622 15.232 38.3102 15.28C38.3582 15.328 38.4142 15.352 38.4782 15.352C38.6462 15.352 38.9022 15.18 39.2462 14.836L39.4382 14.992C39.2382 15.288 38.9822 15.56 38.6702 15.808C38.3662 16.048 38.0142 16.168 37.6142 16.168ZM41.3592 16.168C41.0312 16.168 40.7352 16.048 40.4712 15.808C40.2152 15.568 40.0872 15.16 40.0872 14.584C40.0872 14.16 40.1672 13.732 40.3272 13.3C40.4952 12.868 40.7152 12.46 40.9872 12.076C41.2672 11.684 41.5792 11.34 41.9232 11.044C42.2672 10.74 42.6192 10.5 42.9792 10.324C43.3472 10.148 43.6952 10.06 44.0232 10.06C44.1832 10.06 44.3312 10.092 44.4672 10.156C44.6112 10.22 44.7432 10.304 44.8632 10.408L45.7632 10.012L45.8952 10.096L44.8752 14.572C44.8112 14.828 44.7792 15.016 44.7792 15.136C44.7792 15.304 44.8592 15.388 45.0192 15.388C45.1312 15.388 45.2552 15.344 45.3912 15.256C45.5272 15.16 45.6792 15.032 45.8472 14.872L45.9912 15.016C45.8712 15.2 45.7232 15.38 45.5472 15.556C45.3712 15.732 45.1712 15.88 44.9472 16C44.7312 16.112 44.5032 16.168 44.2632 16.168C44.0152 16.168 43.8072 16.092 43.6392 15.94C43.4712 15.78 43.3872 15.536 43.3872 15.208C43.3872 15.096 43.3952 14.976 43.4112 14.848C43.0832 15.216 42.7392 15.528 42.3792 15.784C42.0192 16.04 41.6792 16.168 41.3592 16.168ZM41.4792 14.032C41.4792 14.44 41.5432 14.736 41.6712 14.92C41.8072 15.096 41.9872 15.184 42.2112 15.184C42.4032 15.184 42.5992 15.124 42.7992 15.004C42.9992 14.876 43.2232 14.688 43.4712 14.44C43.4792 14.392 43.4912 14.328 43.5072 14.248L44.2512 10.864C44.1472 10.76 44.0272 10.688 43.8912 10.648C43.7552 10.6 43.6272 10.576 43.5072 10.576C43.1792 10.576 42.8192 10.78 42.4272 11.188C42.1472 11.492 41.9192 11.908 41.7432 12.436C41.5672 12.956 41.4792 13.488 41.4792 14.032ZM48.4357 9.352C48.2117 9.352 48.0197 9.28 47.8597 9.136C47.6997 8.992 47.6197 8.796 47.6197 8.548C47.6197 8.284 47.7157 8.064 47.9077 7.888C48.0997 7.712 48.3157 7.624 48.5557 7.624C48.7877 7.624 48.9797 7.7 49.1317 7.852C49.2837 7.996 49.3597 8.184 49.3597 8.416C49.3597 8.672 49.2637 8.892 49.0717 9.076C48.8877 9.26 48.6757 9.352 48.4357 9.352ZM47.3317 16.168C47.0917 16.168 46.8917 16.108 46.7317 15.988C46.5797 15.86 46.5037 15.676 46.5037 15.436C46.5037 15.3 46.5197 15.136 46.5517 14.944C46.5837 14.752 46.6197 14.556 46.6597 14.356L47.2237 11.644C47.2957 11.308 47.1717 11.08 46.8517 10.96L46.6837 10.888L46.7077 10.672L48.8677 10.048L48.9877 10.168L48.0757 14.452C48.0437 14.588 48.0197 14.708 48.0037 14.812C47.9877 14.908 47.9797 15 47.9797 15.088C47.9797 15.264 48.0597 15.352 48.2197 15.352C48.4117 15.352 48.6637 15.2 48.9757 14.896L49.1317 15.052C48.9317 15.348 48.6797 15.608 48.3757 15.832C48.0797 16.056 47.7317 16.168 47.3317 16.168ZM49.4833 16.096L49.3633 15.988L50.2753 11.632C50.3473 11.312 50.2273 11.088 49.9153 10.96L49.7353 10.888L49.7593 10.684L51.8833 10.048L52.0153 10.168L51.7513 11.524C52.1673 11.084 52.5913 10.732 53.0233 10.468C53.4553 10.196 53.8593 10.06 54.2353 10.06C54.4913 10.06 54.6993 10.14 54.8593 10.3C55.0273 10.452 55.1113 10.688 55.1113 11.008C55.1113 11.184 55.0953 11.364 55.0633 11.548C55.0313 11.724 54.9913 11.908 54.9433 12.1L54.3313 14.56C54.2993 14.688 54.2713 14.8 54.2473 14.896C54.2313 14.984 54.2233 15.06 54.2233 15.124C54.2233 15.292 54.2913 15.376 54.4273 15.376C54.6353 15.376 54.8993 15.208 55.2193 14.872L55.3873 15.04C55.1873 15.336 54.9273 15.6 54.6073 15.832C54.2873 16.056 53.9313 16.168 53.5393 16.168C53.2913 16.168 53.0953 16.108 52.9513 15.988C52.8073 15.868 52.7353 15.704 52.7353 15.496C52.7353 15.328 52.7553 15.16 52.7953 14.992C52.8353 14.816 52.8833 14.628 52.9393 14.428L53.4073 12.532C53.4713 12.292 53.5233 12.076 53.5633 11.884C53.6033 11.692 53.6233 11.52 53.6233 11.368C53.6233 11.208 53.5873 11.1 53.5153 11.044C53.4513 10.98 53.3633 10.948 53.2513 10.948C53.0593 10.948 52.8273 11.032 52.5553 11.2C52.2913 11.36 51.9913 11.616 51.6553 11.968L51.3313 13.444C51.2433 13.868 51.1593 14.292 51.0793 14.716C50.9993 15.14 50.9193 15.568 50.8393 16L49.4833 16.096Z" fill="white"/>
</svg>
