<svg width="47" height="24" viewBox="0 0 47 24" fill="none" xmlns="http://www.w3.org/2000/svg">
<rect width="47" height="24" rx="12" fill="#F7B787"/>
<path d="M11.6 16.204C11.024 16.204 10.512 16.08 10.064 15.832C9.624 15.576 9.276 15.204 9.02 14.716C8.764 14.228 8.636 13.624 8.636 12.904C8.636 12.24 8.74 11.608 8.948 11.008C9.156 10.4 9.452 9.86 9.836 9.388C10.228 8.916 10.692 8.544 11.228 8.272C11.772 8 12.376 7.864 13.04 7.864C13.64 7.864 14.16 8 14.6 8.272C15.048 8.536 15.396 8.916 15.644 9.412C15.892 9.9 16.016 10.48 16.016 11.152C16.016 11.832 15.912 12.476 15.704 13.084C15.496 13.692 15.196 14.232 14.804 14.704C14.42 15.168 13.956 15.536 13.412 15.808C12.876 16.072 12.272 16.204 11.6 16.204ZM11.72 15.844C12.088 15.844 12.432 15.716 12.752 15.46C13.08 15.196 13.368 14.836 13.616 14.38C13.864 13.924 14.056 13.4 14.192 12.808C14.336 12.208 14.408 11.568 14.408 10.888C14.408 10.032 14.296 9.376 14.072 8.92C13.848 8.456 13.476 8.224 12.956 8.224C12.588 8.224 12.24 8.352 11.912 8.608C11.584 8.864 11.292 9.216 11.036 9.664C10.788 10.112 10.592 10.636 10.448 11.236C10.304 11.828 10.232 12.464 10.232 13.144C10.232 14.008 10.352 14.676 10.592 15.148C10.832 15.612 11.208 15.844 11.72 15.844ZM18.2962 16.168C17.7122 16.168 17.2322 15.972 16.8562 15.58C16.4882 15.188 16.3042 14.632 16.3042 13.912C16.3042 13.4 16.3922 12.912 16.5682 12.448C16.7522 11.984 17.0002 11.576 17.3122 11.224C17.6242 10.864 17.9842 10.58 18.3922 10.372C18.8002 10.164 19.2322 10.06 19.6882 10.06C19.9682 10.06 20.2242 10.104 20.4562 10.192C20.6962 10.28 20.8882 10.4 21.0322 10.552C21.1762 10.704 21.2442 10.884 21.2362 11.092C21.2282 11.3 21.1602 11.464 21.0322 11.584C20.9042 11.704 20.7442 11.764 20.5522 11.764C20.3362 11.764 20.1602 11.704 20.0242 11.584C19.8962 11.464 19.7882 11.316 19.7002 11.14L19.6162 10.948C19.5122 10.716 19.4122 10.584 19.3162 10.552C19.2202 10.52 19.0802 10.58 18.8962 10.732C18.6882 10.916 18.4882 11.16 18.2962 11.464C18.1122 11.76 17.9642 12.092 17.8522 12.46C17.7402 12.828 17.6842 13.208 17.6842 13.6C17.6842 14.168 17.8122 14.588 18.0682 14.86C18.3242 15.132 18.6642 15.268 19.0882 15.268C19.3762 15.268 19.6562 15.18 19.9282 15.004C20.2002 14.82 20.4522 14.576 20.6842 14.272L20.8762 14.428C20.7162 14.732 20.5042 15.02 20.2402 15.292C19.9762 15.556 19.6802 15.768 19.3522 15.928C19.0242 16.088 18.6722 16.168 18.2962 16.168ZM23.1996 16.168C22.6076 16.168 22.1236 15.976 21.7476 15.592C21.3796 15.208 21.1956 14.652 21.1956 13.924C21.1956 13.42 21.2836 12.936 21.4596 12.472C21.6356 12.008 21.8756 11.596 22.1796 11.236C22.4916 10.868 22.8556 10.58 23.2716 10.372C23.6876 10.164 24.1356 10.06 24.6156 10.06C25.1116 10.06 25.4876 10.172 25.7436 10.396C26.0076 10.62 26.1396 10.92 26.1396 11.296C26.1396 11.752 25.8356 12.204 25.2276 12.652C24.6276 13.092 23.7556 13.436 22.6116 13.684C22.6356 14.204 22.7596 14.584 22.9836 14.824C23.2076 15.064 23.5156 15.184 23.9076 15.184C24.2596 15.184 24.5756 15.092 24.8556 14.908C25.1356 14.724 25.3716 14.508 25.5636 14.26L25.7436 14.392C25.5836 14.696 25.3756 14.984 25.1196 15.256C24.8716 15.528 24.5876 15.748 24.2676 15.916C23.9476 16.084 23.5916 16.168 23.1996 16.168ZM24.4956 10.468C24.3116 10.468 24.1156 10.548 23.9076 10.708C23.6996 10.86 23.4996 11.072 23.3076 11.344C23.1236 11.608 22.9676 11.916 22.8396 12.268C22.7116 12.612 22.6356 12.98 22.6116 13.372C23.5076 13.108 24.1356 12.78 24.4956 12.388C24.8636 11.996 25.0476 11.58 25.0476 11.14C25.0476 10.908 24.9956 10.74 24.8916 10.636C24.7876 10.524 24.6556 10.468 24.4956 10.468ZM27.4279 16.168C27.0999 16.168 26.8039 16.048 26.5399 15.808C26.2839 15.568 26.1559 15.16 26.1559 14.584C26.1559 14.16 26.2359 13.732 26.3959 13.3C26.5639 12.868 26.7839 12.46 27.0559 12.076C27.3359 11.684 27.6479 11.34 27.9919 11.044C28.3359 10.74 28.6879 10.5 29.0479 10.324C29.4159 10.148 29.7639 10.06 30.0919 10.06C30.2519 10.06 30.3999 10.092 30.5359 10.156C30.6799 10.22 30.8119 10.304 30.9319 10.408L31.8319 10.012L31.9639 10.096L30.9439 14.572C30.8799 14.828 30.8479 15.016 30.8479 15.136C30.8479 15.304 30.9279 15.388 31.0879 15.388C31.1999 15.388 31.3239 15.344 31.4599 15.256C31.5959 15.16 31.7479 15.032 31.9159 14.872L32.0599 15.016C31.9399 15.2 31.7919 15.38 31.6159 15.556C31.4399 15.732 31.2399 15.88 31.0159 16C30.7999 16.112 30.5719 16.168 30.3319 16.168C30.0839 16.168 29.8759 16.092 29.7079 15.94C29.5399 15.78 29.4559 15.536 29.4559 15.208C29.4559 15.096 29.4639 14.976 29.4799 14.848C29.1519 15.216 28.8079 15.528 28.4479 15.784C28.0879 16.04 27.7479 16.168 27.4279 16.168ZM27.5479 14.032C27.5479 14.44 27.6119 14.736 27.7399 14.92C27.8759 15.096 28.0559 15.184 28.2799 15.184C28.4719 15.184 28.6679 15.124 28.8679 15.004C29.0679 14.876 29.2919 14.688 29.5399 14.44C29.5479 14.392 29.5599 14.328 29.5759 14.248L30.3199 10.864C30.2159 10.76 30.0959 10.688 29.9599 10.648C29.8239 10.6 29.6959 10.576 29.5759 10.576C29.2479 10.576 28.8879 10.78 28.4959 11.188C28.2159 11.492 27.9879 11.908 27.8119 12.436C27.6359 12.956 27.5479 13.488 27.5479 14.032ZM32.5004 16.096L32.3804 15.988L33.2924 11.632C33.3644 11.312 33.2444 11.088 32.9324 10.96L32.7524 10.888L32.7764 10.684L34.9004 10.048L35.0324 10.168L34.7684 11.524C35.1844 11.084 35.6084 10.732 36.0404 10.468C36.4724 10.196 36.8764 10.06 37.2524 10.06C37.5084 10.06 37.7164 10.14 37.8764 10.3C38.0444 10.452 38.1284 10.688 38.1284 11.008C38.1284 11.184 38.1124 11.364 38.0804 11.548C38.0484 11.724 38.0084 11.908 37.9604 12.1L37.3484 14.56C37.3164 14.688 37.2884 14.8 37.2644 14.896C37.2484 14.984 37.2404 15.06 37.2404 15.124C37.2404 15.292 37.3084 15.376 37.4444 15.376C37.6524 15.376 37.9164 15.208 38.2364 14.872L38.4044 15.04C38.2044 15.336 37.9444 15.6 37.6244 15.832C37.3044 16.056 36.9484 16.168 36.5564 16.168C36.3084 16.168 36.1124 16.108 35.9684 15.988C35.8244 15.868 35.7524 15.704 35.7524 15.496C35.7524 15.328 35.7724 15.16 35.8124 14.992C35.8524 14.816 35.9004 14.628 35.9564 14.428L36.4244 12.532C36.4884 12.292 36.5404 12.076 36.5804 11.884C36.6204 11.692 36.6404 11.52 36.6404 11.368C36.6404 11.208 36.6044 11.1 36.5324 11.044C36.4684 10.98 36.3804 10.948 36.2684 10.948C36.0764 10.948 35.8444 11.032 35.5724 11.2C35.3084 11.36 35.0084 11.616 34.6724 11.968L34.3484 13.444C34.2604 13.868 34.1764 14.292 34.0964 14.716C34.0164 15.14 33.9364 15.568 33.8564 16L32.5004 16.096Z" fill="white"/>
</svg>
