<svg width="16" height="17" viewBox="0 0 16 17" fill="none" xmlns="http://www.w3.org/2000/svg">
<path fill-rule="evenodd" clip-rule="evenodd" d="M0.608964 11.3115C0.206926 10.3409 -1.56548e-08 9.30058 0 8.25C-1.56548e-08 7.19943 0.206926 6.15914 0.608964 5.18853C1.011 4.21793 1.60028 3.33601 2.34315 2.59315C3.08601 1.85028 3.96793 1.261 4.93853 0.858964C5.90914 0.456926 6.94943 0.25 8 0.25C9.05058 0.25 10.0909 0.456926 11.0615 0.858964C12.0321 1.261 12.914 1.85028 13.6569 2.59315C14.3997 3.33601 14.989 4.21793 15.391 5.18853C15.7931 6.15914 16 7.19943 16 8.25C16 9.30058 15.7931 10.3409 15.391 11.3115C14.989 12.2821 14.3997 13.164 13.6569 13.9069C12.914 14.6497 12.0321 15.239 11.0615 15.641C10.0909 16.0431 9.05058 16.25 8 16.25C6.94943 16.25 5.90914 16.0431 4.93853 15.641C3.96793 15.239 3.08601 14.6497 2.34315 13.9069C1.60028 13.164 1.011 12.2821 0.608964 11.3115ZM7.11111 9.13889L8 12.6944L11.5556 4.69444L3.55556 8.25L7.11111 9.13889Z" fill="#3DA2FF"/>
</svg>
