<svg width="21" height="24" viewBox="0 0 21 24" fill="none" xmlns="http://www.w3.org/2000/svg">
<path d="M6.81799 5.46875C4.51944 5.46875 2.50804 7.90353 3.03908 10.8695C3.16935 11.5971 3.59316 12.3755 4.17399 13.156C4.75667 13.939 5.50754 14.7374 6.30906 15.5056C7.45541 16.6043 8.7171 17.6519 9.74936 18.509C10.1583 18.8485 10.5313 19.1582 10.8467 19.4293C10.9079 19.4819 10.9985 19.4819 11.0598 19.4293C11.3752 19.1583 11.748 18.8487 12.1568 18.5093C13.1891 17.6521 14.4509 16.6044 15.5973 15.5056C16.3988 14.7374 17.1496 13.939 17.7323 13.156C18.3131 12.3755 18.7369 11.5971 18.8672 10.8695C19.3982 7.90352 17.3866 5.46875 15.0883 5.46875C13.9755 5.46875 13.0659 5.71871 12.349 6.27644C11.7376 6.75203 11.2806 7.44038 10.9532 8.35365C10.6258 7.44038 10.1688 6.75203 9.55747 6.27643C8.84055 5.71871 7.93086 5.46875 6.81799 5.46875Z" fill="#FF4E77"/>
</svg>
