<svg width="56" height="24" viewBox="0 0 56 24" fill="none" xmlns="http://www.w3.org/2000/svg">
<rect x="0.5" width="55" height="24" rx="12" fill="#F7B787"/>
<path d="M8.548 16L8.596 15.748L8.728 15.712C9.056 15.616 9.256 15.396 9.328 15.052L9.94 11.788C10.028 11.356 10.112 10.916 10.192 10.468C10.272 10.012 10.356 9.528 10.444 9.016C10.492 8.672 10.356 8.452 10.036 8.356L9.916 8.32L9.976 8.068H12.556C13.572 8.068 14.312 8.268 14.776 8.668C15.24 9.06 15.472 9.576 15.472 10.216C15.472 10.696 15.336 11.14 15.064 11.548C14.8 11.956 14.4 12.284 13.864 12.532C13.328 12.78 12.656 12.904 11.848 12.904H11.284C11.228 13.224 11.168 13.564 11.104 13.924C11.04 14.284 10.976 14.652 10.912 15.028C10.84 15.38 10.98 15.608 11.332 15.712L11.488 15.748L11.44 16H8.548ZM11.356 12.544H11.824C12.456 12.544 12.956 12.336 13.324 11.92C13.7 11.496 13.888 10.92 13.888 10.192C13.888 9.616 13.764 9.176 13.516 8.872C13.268 8.568 12.912 8.416 12.448 8.416H12.124C11.996 9.104 11.868 9.792 11.74 10.48C11.612 11.168 11.484 11.856 11.356 12.544ZM17.5471 16.168C17.1391 16.168 16.7671 16.088 16.4311 15.928C16.0951 15.768 15.8271 15.524 15.6271 15.196C15.4271 14.86 15.3271 14.44 15.3271 13.936C15.3271 13.424 15.4111 12.936 15.5791 12.472C15.7551 12.008 15.9951 11.596 16.2991 11.236C16.6111 10.868 16.9711 10.58 17.3791 10.372C17.7951 10.164 18.2391 10.06 18.7111 10.06C19.3431 10.06 19.8671 10.244 20.2831 10.612C20.6991 10.972 20.9071 11.532 20.9071 12.292C20.9071 12.796 20.8191 13.28 20.6431 13.744C20.4751 14.208 20.2391 14.624 19.9351 14.992C19.6311 15.352 19.2751 15.64 18.8671 15.856C18.4591 16.064 18.0191 16.168 17.5471 16.168ZM17.6911 15.832C17.9471 15.832 18.1791 15.724 18.3871 15.508C18.5951 15.284 18.7751 14.992 18.9271 14.632C19.0791 14.272 19.1951 13.872 19.2751 13.432C19.3631 12.984 19.4071 12.54 19.4071 12.1C19.4071 11.468 19.3311 11.028 19.1791 10.78C19.0351 10.532 18.8471 10.408 18.6151 10.408C18.3591 10.408 18.1191 10.516 17.8951 10.732C17.6791 10.94 17.4911 11.224 17.3311 11.584C17.1711 11.944 17.0471 12.344 16.9591 12.784C16.8711 13.216 16.8271 13.656 16.8271 14.104C16.8271 14.752 16.9071 15.204 17.0671 15.46C17.2351 15.708 17.4431 15.832 17.6911 15.832ZM23.1217 16.168C22.9057 16.168 22.7017 16.124 22.5097 16.036C22.4297 16.428 22.3577 16.776 22.2937 17.08C22.2377 17.392 22.1857 17.688 22.1377 17.968C22.0897 18.24 22.1977 18.412 22.4617 18.484L22.7617 18.556L22.7137 18.772H19.9057L19.9537 18.556L20.1697 18.508C20.4577 18.42 20.6297 18.24 20.6857 17.968L22.0177 11.62C22.0737 11.3 21.9537 11.08 21.6577 10.96L21.4657 10.888L21.4897 10.672L23.6017 10.048L23.7457 10.156L23.4937 11.404C23.8137 11.004 24.1777 10.68 24.5857 10.432C24.9937 10.184 25.3697 10.06 25.7137 10.06C26.0417 10.06 26.3217 10.176 26.5537 10.408C26.7937 10.64 26.9137 11.056 26.9137 11.656C26.9137 12.088 26.8377 12.52 26.6857 12.952C26.5417 13.384 26.3417 13.796 26.0857 14.188C25.8297 14.572 25.5377 14.912 25.2097 15.208C24.8817 15.504 24.5377 15.74 24.1777 15.916C23.8257 16.084 23.4737 16.168 23.1217 16.168ZM24.7297 10.984C24.5457 10.984 24.3377 11.06 24.1057 11.212C23.8737 11.356 23.6377 11.56 23.3977 11.824L22.7257 15.148C23.0137 15.42 23.3097 15.556 23.6137 15.556C24.1017 15.556 24.5097 15.296 24.8377 14.776C24.9577 14.584 25.0657 14.348 25.1617 14.068C25.2657 13.78 25.3457 13.472 25.4017 13.144C25.4657 12.816 25.4977 12.5 25.4977 12.196C25.4977 11.804 25.4337 11.504 25.3057 11.296C25.1777 11.088 24.9857 10.984 24.7297 10.984ZM28.1929 16.168C27.9289 16.168 27.7009 16.092 27.5089 15.94C27.3169 15.78 27.2209 15.536 27.2209 15.208C27.2209 15.024 27.2409 14.82 27.2809 14.596C27.3209 14.372 27.3649 14.152 27.4129 13.936L27.9289 11.644C28.0009 11.316 27.8849 11.092 27.5809 10.972L27.3769 10.888L27.4009 10.672L29.5609 10.048L29.7049 10.168L28.8769 13.768C28.8289 13.968 28.7889 14.148 28.7569 14.308C28.7249 14.468 28.7089 14.616 28.7089 14.752C28.7089 14.928 28.7489 15.056 28.8289 15.136C28.9089 15.208 29.0129 15.244 29.1409 15.244C29.3329 15.244 29.5409 15.18 29.7649 15.052C29.9969 14.916 30.2729 14.704 30.5929 14.416L30.6049 14.356L31.0129 12.424C31.0769 12.096 31.1409 11.772 31.2049 11.452C31.2689 11.124 31.3289 10.796 31.3849 10.468L32.7889 10.048L32.9449 10.168L32.0089 14.452C31.9849 14.588 31.9609 14.712 31.9369 14.824C31.9209 14.936 31.9129 15.028 31.9129 15.1C31.9129 15.18 31.9369 15.244 31.9849 15.292C32.0329 15.332 32.0849 15.352 32.1409 15.352C32.2529 15.352 32.3649 15.312 32.4769 15.232C32.5969 15.144 32.7449 15.016 32.9209 14.848L33.1009 15.028C32.9009 15.308 32.6489 15.568 32.3449 15.808C32.0489 16.048 31.7089 16.168 31.3249 16.168C31.0929 16.168 30.8929 16.088 30.7249 15.928C30.5649 15.768 30.4849 15.536 30.4849 15.232C30.4849 15.112 30.4929 14.984 30.5089 14.848C30.0929 15.264 29.6889 15.588 29.2969 15.82C28.9129 16.052 28.5449 16.168 28.1929 16.168ZM34.0628 16.168C33.8068 16.168 33.5988 16.104 33.4388 15.976C33.2868 15.84 33.2108 15.648 33.2108 15.4C33.2108 15.264 33.2268 15.1 33.2588 14.908C33.2988 14.708 33.3468 14.456 33.4028 14.152L34.1108 10.708C34.1748 10.42 34.2268 10.16 34.2668 9.928C34.3068 9.696 34.3548 9.432 34.4108 9.136C34.4588 8.8 34.3228 8.584 34.0028 8.488L33.8228 8.428L33.8588 8.224L36.0908 7.576L36.1988 7.672L34.7468 14.548C34.7148 14.676 34.6908 14.788 34.6748 14.884C34.6668 14.98 34.6628 15.06 34.6628 15.124C34.6628 15.3 34.7388 15.388 34.8908 15.388C35.0748 15.388 35.3428 15.216 35.6948 14.872L35.8628 15.04C35.6628 15.32 35.4148 15.58 35.1188 15.82C34.8228 16.052 34.4708 16.168 34.0628 16.168ZM37.406 16.168C37.078 16.168 36.782 16.048 36.518 15.808C36.262 15.568 36.134 15.16 36.134 14.584C36.134 14.16 36.214 13.732 36.374 13.3C36.542 12.868 36.762 12.46 37.034 12.076C37.314 11.684 37.626 11.34 37.97 11.044C38.314 10.74 38.666 10.5 39.026 10.324C39.394 10.148 39.742 10.06 40.07 10.06C40.23 10.06 40.378 10.092 40.514 10.156C40.658 10.22 40.79 10.304 40.91 10.408L41.81 10.012L41.942 10.096L40.922 14.572C40.858 14.828 40.826 15.016 40.826 15.136C40.826 15.304 40.906 15.388 41.066 15.388C41.178 15.388 41.302 15.344 41.438 15.256C41.574 15.16 41.726 15.032 41.894 14.872L42.038 15.016C41.918 15.2 41.77 15.38 41.594 15.556C41.418 15.732 41.218 15.88 40.994 16C40.778 16.112 40.55 16.168 40.31 16.168C40.062 16.168 39.854 16.092 39.686 15.94C39.518 15.78 39.434 15.536 39.434 15.208C39.434 15.096 39.442 14.976 39.458 14.848C39.13 15.216 38.786 15.528 38.426 15.784C38.066 16.04 37.726 16.168 37.406 16.168ZM37.526 14.032C37.526 14.44 37.59 14.736 37.718 14.92C37.854 15.096 38.034 15.184 38.258 15.184C38.45 15.184 38.646 15.124 38.846 15.004C39.046 14.876 39.27 14.688 39.518 14.44C39.526 14.392 39.538 14.328 39.554 14.248L40.298 10.864C40.194 10.76 40.074 10.688 39.938 10.648C39.802 10.6 39.674 10.576 39.554 10.576C39.226 10.576 38.866 10.78 38.474 11.188C38.194 11.492 37.966 11.908 37.79 12.436C37.614 12.956 37.526 13.488 37.526 14.032ZM42.4786 16.096L42.3586 15.988L43.2586 11.644C43.2986 11.452 43.2866 11.304 43.2226 11.2C43.1586 11.088 43.0466 11.004 42.8866 10.948L42.7186 10.888L42.7546 10.684L44.7466 10.048L44.8906 10.18L44.5666 12.064C44.7426 11.696 44.9426 11.36 45.1666 11.056C45.3906 10.752 45.6226 10.512 45.8626 10.336C46.1106 10.152 46.3546 10.06 46.5946 10.06C46.8346 10.06 47.0266 10.124 47.1706 10.252C47.3226 10.38 47.3986 10.548 47.3986 10.756C47.3986 10.98 47.3346 11.16 47.2066 11.296C47.0786 11.432 46.9066 11.5 46.6906 11.5C46.3546 11.5 46.0426 11.332 45.7546 10.996C45.4666 11.228 45.2186 11.516 45.0106 11.86C44.8026 12.196 44.6066 12.56 44.4226 12.952L44.3266 13.444C44.2466 13.868 44.1626 14.292 44.0746 14.716C43.9946 15.14 43.9146 15.568 43.8346 16L42.4786 16.096Z" fill="white"/>
</svg>
