<svg width="52" height="25" viewBox="0 0 52 25" fill="none" xmlns="http://www.w3.org/2000/svg">
<rect x="0.108398" y="0.581909" width="51" height="24" rx="12" fill="#F7B787"/>
<path d="M8.1564 16.5819L8.2044 16.3299L8.3364 16.2939C8.6644 16.1979 8.8644 15.9779 8.9364 15.6339L9.5484 12.3699C9.6364 11.9379 9.7204 11.4979 9.8004 11.0499C9.8804 10.5939 9.9644 10.1099 10.0524 9.59791C10.1004 9.25391 9.9644 9.03391 9.6444 8.93791L9.5244 8.90191L9.5844 8.64991H12.1644C13.1804 8.64991 13.9204 8.84991 14.3844 9.24991C14.8484 9.64191 15.0804 10.1579 15.0804 10.7979C15.0804 11.2779 14.9444 11.7219 14.6724 12.1299C14.4084 12.5379 14.0084 12.8659 13.4724 13.1139C12.9364 13.3619 12.2644 13.4859 11.4564 13.4859H10.8924C10.8364 13.8059 10.7764 14.1459 10.7124 14.5059C10.6484 14.8659 10.5844 15.2339 10.5204 15.6099C10.4484 15.9619 10.5884 16.1899 10.9404 16.2939L11.0964 16.3299L11.0484 16.5819H8.1564ZM10.9644 13.1259H11.4324C12.0644 13.1259 12.5644 12.9179 12.9324 12.5019C13.3084 12.0779 13.4964 11.5019 13.4964 10.7739C13.4964 10.1979 13.3724 9.75791 13.1244 9.45391C12.8764 9.14991 12.5204 8.99791 12.0564 8.99791H11.7324C11.6044 9.68591 11.4764 10.3739 11.3484 11.0619C11.2204 11.7499 11.0924 12.4379 10.9644 13.1259ZM15.0166 16.6779L14.8966 16.5699L15.7966 12.2259C15.8366 12.0339 15.8246 11.8859 15.7606 11.7819C15.6966 11.6699 15.5846 11.5859 15.4246 11.5299L15.2566 11.4699L15.2926 11.2659L17.2846 10.6299L17.4286 10.7619L17.1046 12.6459C17.2806 12.2779 17.4806 11.9419 17.7046 11.6379C17.9286 11.3339 18.1606 11.0939 18.4006 10.9179C18.6486 10.7339 18.8926 10.6419 19.1326 10.6419C19.3726 10.6419 19.5646 10.7059 19.7086 10.8339C19.8606 10.9619 19.9366 11.1299 19.9366 11.3379C19.9366 11.5619 19.8726 11.7419 19.7446 11.8779C19.6166 12.0139 19.4446 12.0819 19.2286 12.0819C18.8926 12.0819 18.5806 11.9139 18.2926 11.5779C18.0046 11.8099 17.7566 12.0979 17.5486 12.4419C17.3406 12.7779 17.1446 13.1419 16.9606 13.5339L16.8646 14.0259C16.7846 14.4499 16.7006 14.8739 16.6126 15.2979C16.5326 15.7219 16.4526 16.1499 16.3726 16.5819L15.0166 16.6779ZM21.7363 9.93391C21.5123 9.93391 21.3203 9.86191 21.1603 9.71791C21.0003 9.57391 20.9203 9.37791 20.9203 9.12991C20.9203 8.86591 21.0163 8.64591 21.2083 8.46991C21.4003 8.29391 21.6163 8.20591 21.8563 8.20591C22.0883 8.20591 22.2803 8.28191 22.4323 8.43391C22.5843 8.57791 22.6603 8.76591 22.6603 8.99791C22.6603 9.25391 22.5643 9.47391 22.3723 9.65791C22.1883 9.84191 21.9763 9.93391 21.7363 9.93391ZM20.6323 16.7499C20.3923 16.7499 20.1923 16.6899 20.0323 16.5699C19.8803 16.4419 19.8043 16.2579 19.8043 16.0179C19.8043 15.8819 19.8203 15.7179 19.8523 15.5259C19.8843 15.3339 19.9203 15.1379 19.9603 14.9379L20.5243 12.2259C20.5963 11.8899 20.4723 11.6619 20.1523 11.5419L19.9843 11.4699L20.0083 11.2539L22.1683 10.6299L22.2883 10.7499L21.3763 15.0339C21.3443 15.1699 21.3203 15.2899 21.3043 15.3939C21.2883 15.4899 21.2803 15.5819 21.2803 15.6699C21.2803 15.8459 21.3603 15.9339 21.5203 15.9339C21.7123 15.9339 21.9643 15.7819 22.2763 15.4779L22.4323 15.6339C22.2323 15.9299 21.9803 16.1899 21.6763 16.4139C21.3803 16.6379 21.0323 16.7499 20.6323 16.7499ZM24.3466 16.6779L24.2386 16.5939C24.1666 15.7219 24.0906 14.9139 24.0106 14.1699C23.9386 13.4259 23.8666 12.7019 23.7946 11.9979C23.7706 11.7979 23.7306 11.6739 23.6746 11.6259C23.6266 11.5699 23.5626 11.5419 23.4826 11.5419C23.3386 11.5419 23.1466 11.6819 22.9066 11.9619L22.7386 11.7699C23.2586 11.0179 23.7786 10.6419 24.2986 10.6419C24.8586 10.6419 25.1666 11.0059 25.2226 11.7339C25.2786 12.3019 25.3306 12.9139 25.3786 13.5699C25.4266 14.2179 25.4746 14.9019 25.5226 15.6219C25.8266 15.2539 26.1106 14.8939 26.3746 14.5419C26.6386 14.1899 26.9026 13.8059 27.1666 13.3899C27.2866 13.1899 27.3546 13.0019 27.3706 12.8259C27.3866 12.6419 27.3586 12.4419 27.2866 12.2259L27.1066 11.7579C27.0026 11.4539 27.0186 11.1899 27.1546 10.9659C27.2986 10.7339 27.5066 10.6179 27.7786 10.6179C28.0426 10.6179 28.2306 10.6939 28.3426 10.8459C28.4546 10.9979 28.5106 11.1899 28.5106 11.4219C28.5106 11.5739 28.4746 11.7579 28.4026 11.9739C28.3306 12.1899 28.1786 12.4939 27.9466 12.8859C27.6266 13.4459 27.2186 14.0539 26.7226 14.7099C26.2266 15.3579 25.6706 15.9899 25.0546 16.6059L24.3466 16.6779ZM29.4629 16.7499C29.1349 16.7499 28.8389 16.6299 28.5749 16.3899C28.3189 16.1499 28.1909 15.7419 28.1909 15.1659C28.1909 14.7419 28.2709 14.3139 28.4309 13.8819C28.5989 13.4499 28.8189 13.0419 29.0909 12.6579C29.3709 12.2659 29.6829 11.9219 30.0269 11.6259C30.3709 11.3219 30.7229 11.0819 31.0829 10.9059C31.4509 10.7299 31.7989 10.6419 32.1269 10.6419C32.2869 10.6419 32.4349 10.6739 32.5709 10.7379C32.7149 10.8019 32.8469 10.8859 32.9669 10.9899L33.8669 10.5939L33.9989 10.6779L32.9789 15.1539C32.9149 15.4099 32.8829 15.5979 32.8829 15.7179C32.8829 15.8859 32.9629 15.9699 33.1229 15.9699C33.2349 15.9699 33.3589 15.9259 33.4949 15.8379C33.6309 15.7419 33.7829 15.6139 33.9509 15.4539L34.0949 15.5979C33.9749 15.7819 33.8269 15.9619 33.6509 16.1379C33.4749 16.3139 33.2749 16.4619 33.0509 16.5819C32.8349 16.6939 32.6069 16.7499 32.3669 16.7499C32.1189 16.7499 31.9109 16.6739 31.7429 16.5219C31.5749 16.3619 31.4909 16.1179 31.4909 15.7899C31.4909 15.6779 31.4989 15.5579 31.5149 15.4299C31.1869 15.7979 30.8429 16.1099 30.4829 16.3659C30.1229 16.6219 29.7829 16.7499 29.4629 16.7499ZM29.5829 14.6139C29.5829 15.0219 29.6469 15.3179 29.7749 15.5019C29.9109 15.6779 30.0909 15.7659 30.3149 15.7659C30.5069 15.7659 30.7029 15.7059 30.9029 15.5859C31.1029 15.4579 31.3269 15.2699 31.5749 15.0219C31.5829 14.9739 31.5949 14.9099 31.6109 14.8299L32.3549 11.4459C32.2509 11.3419 32.1309 11.2699 31.9949 11.2299C31.8589 11.1819 31.7309 11.1579 31.6109 11.1579C31.2829 11.1579 30.9229 11.3619 30.5309 11.7699C30.2509 12.0739 30.0229 12.4899 29.8469 13.0179C29.6709 13.5379 29.5829 14.0699 29.5829 14.6139ZM35.6882 16.7499C35.4402 16.7499 35.2362 16.6899 35.0762 16.5699C34.9242 16.4419 34.8482 16.2539 34.8482 16.0059C34.8482 15.7019 34.8962 15.3339 34.9922 14.9019L35.7962 11.1819H34.7762L34.8242 10.9299L35.3042 10.8819C35.7122 10.8259 36.0482 10.6339 36.3122 10.3059L37.2482 9.17791H37.6202L37.2842 10.8219H38.6162L38.5442 11.2059L37.2002 11.1819L36.4082 15.0219C36.3762 15.1659 36.3522 15.2939 36.3362 15.4059C36.3202 15.5099 36.3122 15.5979 36.3122 15.6699C36.3122 15.7499 36.3362 15.8139 36.3842 15.8619C36.4322 15.9099 36.4882 15.9339 36.5522 15.9339C36.7202 15.9339 36.9762 15.7619 37.3202 15.4179L37.5122 15.5739C37.3122 15.8699 37.0562 16.1419 36.7442 16.3899C36.4402 16.6299 36.0882 16.7499 35.6882 16.7499ZM40.2838 16.7499C39.6918 16.7499 39.2078 16.5579 38.8318 16.1739C38.4638 15.7899 38.2798 15.2339 38.2798 14.5059C38.2798 14.0019 38.3678 13.5179 38.5438 13.0539C38.7198 12.5899 38.9598 12.1779 39.2638 11.8179C39.5758 11.4499 39.9398 11.1619 40.3558 10.9539C40.7718 10.7459 41.2198 10.6419 41.6998 10.6419C42.1958 10.6419 42.5718 10.7539 42.8278 10.9779C43.0918 11.2019 43.2238 11.5019 43.2238 11.8779C43.2238 12.3339 42.9198 12.7859 42.3118 13.2339C41.7118 13.6739 40.8398 14.0179 39.6958 14.2659C39.7198 14.7859 39.8438 15.1659 40.0678 15.4059C40.2918 15.6459 40.5998 15.7659 40.9918 15.7659C41.3438 15.7659 41.6598 15.6739 41.9398 15.4899C42.2198 15.3059 42.4558 15.0899 42.6478 14.8419L42.8278 14.9739C42.6678 15.2779 42.4598 15.5659 42.2038 15.8379C41.9558 16.1099 41.6718 16.3299 41.3518 16.4979C41.0318 16.6659 40.6758 16.7499 40.2838 16.7499ZM41.5798 11.0499C41.3958 11.0499 41.1998 11.1299 40.9918 11.2899C40.7838 11.4419 40.5838 11.6539 40.3918 11.9259C40.2078 12.1899 40.0518 12.4979 39.9238 12.8499C39.7958 13.1939 39.7198 13.5619 39.6958 13.9539C40.5918 13.6899 41.2198 13.3619 41.5798 12.9699C41.9478 12.5779 42.1318 12.1619 42.1318 11.7219C42.1318 11.4899 42.0798 11.3219 41.9758 11.2179C41.8718 11.1059 41.7398 11.0499 41.5798 11.0499Z" fill="white"/>
</svg>
