<svg width="53" height="53" viewBox="0 0 53 53" fill="none" xmlns="http://www.w3.org/2000/svg">
<rect x="0.015625" y="0.448242" width="52" height="52" rx="12" fill="#F8F8F8"/>
<path d="M41.3398 43.3235H35.5837C27.9755 43.3915 11.7269 43.4868 7.59838 43.3235C3.46986 43.1601 2.59841 46.9768 2.67875 48.9055H47.3843C47.3622 44.6757 43.3454 43.4217 41.3398 43.3235Z" fill="#5FBA8E"/>
<path d="M30.7336 35.7777C30.7985 35.8162 30.878 35.7679 30.878 35.6924V21.9317C30.878 21.8463 30.9771 21.8002 31.0404 21.8575C36.0173 26.3614 36.1492 38.0091 35.5837 43.3235H41.3398C41.1927 41.4102 40.8815 37.4141 40.8144 36.7358C39.9067 28.3851 35.2548 22.6627 32.8443 20.6589C32.7726 20.5992 32.8123 20.4807 32.9056 20.4775L45.7264 20.0276C45.814 20.0245 45.854 19.9173 45.7908 19.8565C41.5669 15.7981 36.7652 15.6849 34.6888 16.1728C34.6098 16.1914 34.5406 16.1164 34.5723 16.0418C35.4919 13.8731 39.381 10.0184 41.4354 8.15682C41.5037 8.09485 41.4589 7.98196 41.3667 7.9855C35.6911 8.20296 30.7546 13.4717 30.878 13.9408C30.4641 13.0673 30.3179 6.39666 30.2947 3.00635C30.2942 2.92936 30.2098 2.88495 30.1443 2.92544C25.5669 5.75587 25.4338 12.9483 26.7283 17.035C26.7526 17.1117 26.6788 17.1832 26.6012 17.1616C18.7402 14.9807 13.8529 18.5954 12.8192 20.7614C12.7885 20.8258 12.8374 20.8962 12.9087 20.8962H23.4289C23.5268 20.8962 23.5647 21.025 23.4854 21.0825C18.396 24.7771 18.2268 29.3922 18.8709 31.6347C18.9004 31.7374 19.0724 31.7248 19.1064 31.6235C19.8096 29.529 24.1891 25.7606 26.5989 23.9041C26.6691 23.85 26.7679 23.9114 26.7578 23.9995C25.9445 31.0776 28.9716 34.7327 30.7336 35.7777Z" fill="#5FBA8E"/>
<path d="M30.3275 43.4232C30.3275 42.0589 30.0587 40.7079 29.5366 39.4474C29.0145 38.1869 28.2492 37.0416 27.2845 36.0768C26.3198 35.1121 25.1745 34.3468 23.914 33.8247C22.6535 33.3026 21.3025 33.0339 19.9382 33.0339C18.5738 33.0339 17.2228 33.3026 15.9623 33.8247C14.7018 34.3468 13.5565 35.1121 12.5918 36.0768C11.6271 37.0416 10.8618 38.1869 10.3397 39.4474C9.81756 40.7079 9.54883 42.0589 9.54883 43.4232L19.9382 43.4232H30.3275Z" fill="#8EDB9B"/>
</svg>
