<svg width="21" height="21" viewBox="0 0 21 21" fill="none" xmlns="http://www.w3.org/2000/svg">
<circle cx="10.0039" cy="10.2969" r="9.5" fill="#27342E" stroke="#767676"/>
<path d="M14.0039 10.2969C14.0039 10.5621 13.8985 10.8164 13.711 11.004C13.5235 11.1915 13.2691 11.2969 13.0039 11.2969H11.0039V13.2969C11.0039 13.5621 10.8985 13.8164 10.711 14.004C10.5235 14.1915 10.2691 14.2969 10.0039 14.2969C9.73869 14.2969 9.48434 14.1915 9.2968 14.004C9.10926 13.8164 9.00391 13.5621 9.00391 13.2969V11.2969H7.00391C6.73869 11.2969 6.48434 11.1915 6.2968 11.004C6.10926 10.8164 6.00391 10.5621 6.00391 10.2969C6.00391 10.0317 6.10926 9.7773 6.2968 9.58977C6.48434 9.40223 6.73869 9.29688 7.00391 9.29688H9.00391V7.29688C9.00391 7.03166 9.10926 6.7773 9.2968 6.58977C9.48434 6.40223 9.73869 6.29687 10.0039 6.29688C10.2691 6.29687 10.5235 6.40223 10.711 6.58977C10.8985 6.7773 11.0039 7.03166 11.0039 7.29688V9.29688H13.0039C13.2691 9.29688 13.5235 9.40223 13.711 9.58977C13.8985 9.7773 14.0039 10.0317 14.0039 10.2969Z" fill="#767676"/>
<circle cx="10.0938" cy="10.2969" r="10" fill="#F8F8F8"/>
<path d="M13.702 7.65761C13.8706 7.82798 13.9651 8.05796 13.9651 8.29762C13.9651 8.53727 13.8706 8.76725 13.702 8.93762L9.70204 12.9376C9.53167 13.1062 9.3017 13.2007 9.06204 13.2007C8.82239 13.2007 8.59241 13.1062 8.42204 12.9376L6.42204 10.9376C6.28029 10.7629 6.2083 10.5418 6.21998 10.3171C6.23166 10.0924 6.32618 9.87997 6.48528 9.72086C6.64439 9.56175 6.85681 9.46723 7.08152 9.45555C7.30623 9.44387 7.5273 9.51586 7.70204 9.65761L9.06204 11.0276L12.422 7.65761C12.5924 7.48907 12.8224 7.39453 13.062 7.39453C13.3017 7.39453 13.5317 7.48907 13.702 7.65761Z" fill="#27342E"/>
</svg>
