<svg width="24" height="25" viewBox="0 0 24 25" fill="none" xmlns="http://www.w3.org/2000/svg">
<path d="M2 12.6211H6" stroke="#2F2F2F" stroke-width="1.5" stroke-linecap="round" stroke-linejoin="round"/>
<path d="M17 12.6211H22" stroke="#2F2F2F" stroke-width="1.5" stroke-linecap="round" stroke-linejoin="round"/>
<path d="M3 20.6312L3.01 20.6201" stroke="#2F2F2F" stroke-width="1.5" stroke-linecap="round" stroke-linejoin="round"/>
<path d="M6 16.6312L6.01 16.6201" stroke="#2F2F2F" stroke-width="1.5" stroke-linecap="round" stroke-linejoin="round"/>
<path d="M9 20.6312L9.01 20.6201" stroke="#2F2F2F" stroke-width="1.5" stroke-linecap="round" stroke-linejoin="round"/>
<path d="M12 16.6312L12.01 16.6201" stroke="#2F2F2F" stroke-width="1.5" stroke-linecap="round" stroke-linejoin="round"/>
<path d="M15 20.6312L15.01 20.6201" stroke="#2F2F2F" stroke-width="1.5" stroke-linecap="round" stroke-linejoin="round"/>
<path d="M18 16.6312L18.01 16.6201" stroke="#2F2F2F" stroke-width="1.5" stroke-linecap="round" stroke-linejoin="round"/>
<path d="M21 20.6312L21.01 20.6201" stroke="#2F2F2F" stroke-width="1.5" stroke-linecap="round" stroke-linejoin="round"/>
<path d="M9 13.6211C9 13.6211 9.9 9.87991 12 7.62109" stroke="#2F2F2F" stroke-width="1.5" stroke-linecap="round" stroke-linejoin="round"/>
<path d="M16.1853 2.86234L16.5597 6.7516C16.8027 9.27465 14.911 11.5211 12.3879 11.764C9.91225 12.0024 7.66959 10.1929 7.43121 7.71721C7.19283 5.24156 9.0065 3.04141 11.4822 2.80304L15.6289 2.40375C15.9092 2.37676 16.1583 2.58208 16.1853 2.86234Z" stroke="#2F2F2F" stroke-width="1.5" stroke-linecap="round" stroke-linejoin="round"/>
</svg>
