<svg width="59" height="58" viewBox="0 0 59 58" fill="none" xmlns="http://www.w3.org/2000/svg">
<rect x="0.710938" y="0.00585938" width="58" height="58" rx="12" fill="#F8F8F8"/>
<path d="M44.3948 40.1729H39.666V48.7398C39.666 49.5695 38.235 51.0279 37.5195 51.1061H46.407C45.3606 51.1061 44.3948 49.5318 44.3948 48.7398V40.1729Z" fill="#8EDB9B"/>
<path d="M22.2737 40.1729H17.5449V48.7398C17.5449 49.5695 16.1139 51.0279 15.3984 51.1061H24.2859C23.2395 51.1061 22.2737 49.5318 22.2737 48.7398V40.1729Z" fill="#8EDB9B"/>
<path fill-rule="evenodd" clip-rule="evenodd" d="M18.0742 15.5467L13.1688 25.0227C12.7844 25.7651 13.3233 26.6508 14.1593 26.6508H14.6599L11.572 33.5879C11.2437 34.3256 11.7836 35.1569 12.591 35.1569H13.5707L10.0459 41.7486C9.77871 42.2484 9.92525 42.875 10.4162 43.158C12.1691 44.1683 14.5353 44.9028 18.7127 45.0401V45.0633C18.963 45.0633 19.2075 45.0614 19.4464 45.0577C19.6853 45.0614 19.9299 45.0633 20.1801 45.0633V45.0401C24.3575 44.9028 26.7237 44.1683 28.4766 43.158C28.9676 42.875 29.1141 42.2484 28.8469 41.7486L25.3221 35.1569H26.3018C27.1092 35.1569 27.6491 34.3256 27.3208 33.5879L24.2329 26.6508H24.7335C25.5695 26.6508 26.1084 25.7651 25.724 25.0227L20.8186 15.5467C20.5267 14.9829 19.9303 14.8382 19.4464 15.011C18.9626 14.8382 18.3661 14.9829 18.0742 15.5467Z" fill="#8EDB9B"/>
<path d="M28.5137 39.1953V47.8229C28.5137 49.4468 27.5645 51.0536 26.2525 51.0536H36.1379C35.4697 50.9042 34.1244 50.0489 34.0879 47.8229C34.0515 45.5969 34.0727 41.1437 34.0879 39.1953H28.5137Z" fill="#5FBA8E"/>
<path d="M12.7227 54.0147C14.058 54.0147 37.8234 54.1058 49.531 54.0147C49.4551 53.0277 48.5561 51.0536 45.5677 51.0536H36.1379H26.2525H18.2231C16.3309 51.0536 14.0559 50.9976 13.093 52.6265C12.8667 53.0095 12.7227 53.4692 12.7227 54.0147Z" fill="#5FBA8E"/>
<path fill-rule="evenodd" clip-rule="evenodd" d="M38.918 13.8143L34.0125 23.2902C33.6282 24.0327 34.167 24.9184 35.003 24.9184H35.5036L32.4158 31.8555C32.0874 32.5932 32.6274 33.4245 33.4348 33.4245H34.4144L30.8897 40.0162C30.6225 40.516 30.769 41.1426 31.26 41.4256C33.0129 42.4359 35.3791 43.1704 39.5564 43.3077V43.3309C39.8067 43.3309 40.0512 43.329 40.2902 43.3253C40.5291 43.329 40.7736 43.3309 41.0239 43.3309V43.3077C45.2012 43.1704 47.5674 42.4359 49.3203 41.4256C49.8113 41.1426 49.9578 40.516 49.6906 40.0162L46.1659 33.4245H47.1455C47.953 33.4245 48.4929 32.5932 48.1645 31.8555L45.0767 24.9184H45.5773C46.4133 24.9184 46.9521 24.0327 46.5678 23.2902L41.6623 13.8143C41.3704 13.2504 40.774 13.1057 40.2902 13.2786C39.8063 13.1057 39.2099 13.2504 38.918 13.8143Z" fill="#8EDB9B"/>
<path fill-rule="evenodd" clip-rule="evenodd" d="M31.6455 5.83442L39.787 18.7002C40.257 19.4429 39.7234 20.4121 38.8445 20.4121H37.5175L42.0595 28.7595C42.4639 29.5028 41.9259 30.408 41.0798 30.408H39.0821L44.1688 38.1899C44.5211 38.7289 44.3471 39.4568 43.7674 39.7371C41.2339 40.9621 37.8197 41.8577 31.6962 42.0223L31.6965 42.0496C31.3369 42.0496 30.9856 42.0474 30.6424 42.043C30.2989 42.0474 29.9474 42.0496 29.5875 42.0496V42.0223C23.4642 41.8576 20.0501 40.9621 17.5166 39.7371C16.9369 39.4568 16.763 38.7289 17.1153 38.1899L22.2019 30.408H20.2043C19.3581 30.408 18.8201 29.5028 19.2245 28.7595L23.7665 20.412H22.3925C21.5237 20.412 20.9884 19.4625 21.4383 18.7191L29.2226 5.85703C29.5048 5.39067 29.9981 5.24582 30.4323 5.34878C30.8629 5.24023 31.3557 5.3765 31.6455 5.83442Z" fill="#5FBA8E"/>
</svg>
