<svg width="53" height="53" viewBox="0 0 53 53" fill="none" xmlns="http://www.w3.org/2000/svg">
<rect x="0.382812" y="0.448242" width="52" height="52" rx="12" fill="#F8F8F8"/>
<path d="M46.166 22.8879C46.166 21.3977 44.5948 20.4309 43.2645 21.1026L28.579 28.5181C27.2317 29.1984 26.382 30.5793 26.382 32.0887V44.9057C26.382 47.1149 28.1729 48.9057 30.382 48.9057H42.166C44.3752 48.9057 46.166 47.1148 46.166 44.9057V22.8879Z" fill="#8EDB9B"/>
<path d="M9.86328 13.1525C9.86328 10.1944 12.963 8.25967 15.6204 9.55909L33.0291 18.0716C34.0585 18.575 34.7112 19.6208 34.7112 20.7667V48.9057H13.8633C11.6541 48.9057 9.86328 47.1148 9.86328 44.9057V13.1525Z" fill="#5FBA8E"/>
<path d="M13.6758 20.6375C13.6758 20.0852 14.1235 19.6375 14.6758 19.6375H21.2861C21.8384 19.6375 22.2861 20.0852 22.2861 20.6375V23.3901C22.2861 23.9424 21.8384 24.3901 21.2861 24.3901H14.6758C14.1235 24.3901 13.6758 23.9424 13.6758 23.3901V20.6375Z" fill="white"/>
<path d="M13.6758 27.4481C13.6758 26.8958 14.1235 26.4481 14.6758 26.4481H21.2861C21.8384 26.4481 22.2861 26.8958 22.2861 27.4481V30.2007C22.2861 30.753 21.8384 31.2007 21.2861 31.2007H14.6758C14.1235 31.2007 13.6758 30.753 13.6758 30.2007V27.4481Z" fill="white"/>
</svg>
